<svg xmlns="http://www.w3.org/2000/svg" xmlns:xlink="http://www.w3.org/1999/xlink" width="240" height="261.24" viewBox="0 0 240 261.24">
  <defs>
    <clipPath id="clip-path">
      <rect id="Rectangle_60" data-name="Rectangle 60" width="240" height="261.241" fill="#9ca3af"/>
    </clipPath>
  </defs>
  <g id="Group_112" data-name="Group 112" transform="translate(-544.869 -1633.644)">
    <path id="JELLY_OF_THE_MONTH_CLUB" data-name="JELLY OF
THE MONTH
CLUB" d="M7.508,9.852l-3.173.037L2.945,21.736c-.03.276-.064.573-.118.866a3.65,3.65,0,0,1-.244.83,1.557,1.557,0,0,1-.477.625,1.344,1.344,0,0,1-.817.251A1.67,1.67,0,0,1,.8,24.242a1.549,1.549,0,0,1-.411-.191,1.99,1.99,0,0,1-.351-.3,3.194,3.194,0,0,1-.308-.383L-.656,26.75a4.125,4.125,0,0,0,.541.243,4.429,4.429,0,0,0,.562.164,4.918,4.918,0,0,0,.576.092,5.557,5.557,0,0,0,.583.027,4.154,4.154,0,0,0,1.207-.184,4.031,4.031,0,0,0,1.071-.514,4.214,4.214,0,0,0,.889-.812,4.658,4.658,0,0,0,.66-1.075,5.983,5.983,0,0,0,.265-.715c.074-.244.135-.494.187-.746s.095-.506.132-.76.069-.507.1-.757Zm8.9-.1L10,9.824,8,26.956l6.443-.037.368-3.165-3.263.022.466-3.856,2.822-.023.393-3.243-2.847.026.441-3.7,3.216-.034Zm7.122,13.895-3.356.023L21.8,9.688l-3.2.037L16.577,26.908l6.555-.037Zm8.026-.054-3.374.023L29.816,9.6l-3.222.037L24.565,26.862l6.591-.038ZM43.374,9.44l-3.626.042-1.672,3.906c-.087.208-.17.4-.25.6s-.157.383-.233.576-.152.391-.229.6-.155.43-.236.671c-.012-.1-.033-.268-.058-.466s-.056-.428-.088-.663-.068-.473-.1-.687-.069-.4-.1-.538l-.822-3.954L32.4,9.566l2.736,9.858-.871,7.383,3.238-.018.9-7.391ZM60.9,15.322a9.1,9.1,0,0,0-.287-2.288,6.7,6.7,0,0,0-.885-2.027,4.484,4.484,0,0,0-1.52-1.441,4.293,4.293,0,0,0-2.19-.532,5.38,5.38,0,0,0-2.44.6A6.33,6.33,0,0,0,51.7,11.16a9.456,9.456,0,0,0-1.353,2.133,12.976,12.976,0,0,0-.848,2.424q-.151.577-.256,1.166t-.171,1.185q-.066.6-.1,1.194t-.03,1.193c0,.364.009.723.035,1.077a9.251,9.251,0,0,0,.132,1.045,6.8,6.8,0,0,0,.268,1.01,5.868,5.868,0,0,0,.445.972,4.924,4.924,0,0,0,1.676,1.75,4.554,4.554,0,0,0,1.1.5,4.115,4.115,0,0,0,1.2.174,5.266,5.266,0,0,0,2.155-.468,6.144,6.144,0,0,0,1.764-1.227,8.506,8.506,0,0,0,1.359-1.759,10.974,10.974,0,0,0,.937-2.063A13.9,13.9,0,0,0,60.421,20c.113-.508.2-1.032.275-1.559s.123-1.059.156-1.583S60.9,15.819,60.9,15.322Zm-3.517.216q0,.372-.01.743t-.034.741q-.024.369-.062.736t-.1.729a14.3,14.3,0,0,1-.274,1.458,11,11,0,0,1-.551,1.707,4.751,4.751,0,0,1-.877,1.42,1.74,1.74,0,0,1-1.252.6,1.267,1.267,0,0,1-.907-.358,2.33,2.33,0,0,1-.545-.883,5.226,5.226,0,0,1-.266-1.1,7.416,7.416,0,0,1-.07-1.008q0-.371.01-.742t.034-.74q.024-.369.062-.735t.1-.728a13.91,13.91,0,0,1,.276-1.456,11.083,11.083,0,0,1,.555-1.706,4.825,4.825,0,0,1,.877-1.422,1.734,1.734,0,0,1,1.242-.6,1.288,1.288,0,0,1,.919.351,2.259,2.259,0,0,1,.545.876,5.13,5.13,0,0,1,.261,1.1A7.792,7.792,0,0,1,57.384,15.538ZM70.66,9.126,64,9.2l-2.08,17.447,3.3-.019.864-7.2,3.028-.024.382-3.329-3,.028.432-3.719,3.361-.035ZM9.464,35.494l-8.15.023L.949,38.64l2.484,0L1.8,52.589l3.168.01L6.6,38.63l2.493,0Zm10.856-.03-3.2.009-.738,6.356-3.217,0,.736-6.349-3.187.009L8.706,52.61l3.183.01.907-7.577h3.216l-.885,7.585,3.2.01Zm9-.025-6.459.018-2.023,17.19,6.5.02.372-3.175-3.291-.006.47-3.869,2.846,0,.4-3.254H25.258l.445-3.716,3.245-.006Zm20.4-.057-4.369.012-2.53,10.233-.4-10.225-4.272.012L34.661,52.688l3.489.011,1.972-12.441c-.006.1-.012.193-.018.288s-.011.189-.016.283-.009.188-.011.283,0,.19,0,.288c0,.214,0,.429.012.646s.018.434.028.651.023.434.033.651.02.432.026.646q.047,1.089.119,2.178t.156,2.179q.084,1.089.175,2.179t.175,2.179l2.5.008,2.455-8.462q.141-.5.276-.994t.257-1q.122-.5.229-1t.191-1.009l-.652,12.473,3.34.01ZM63.69,41.433A9.124,9.124,0,0,0,63.4,39.14a6.768,6.768,0,0,0-.886-2.037,4.548,4.548,0,0,0-1.522-1.456A4.33,4.33,0,0,0,58.8,35.1a5.362,5.362,0,0,0-2.445.58,6.261,6.261,0,0,0-1.887,1.511,9.353,9.353,0,0,0-1.356,2.123,12.876,12.876,0,0,0-.849,2.419q-.151.576-.257,1.165t-.172,1.185q-.066.6-.1,1.194t-.03,1.194c0,.364.009.724.035,1.078a9.282,9.282,0,0,0,.132,1.047,6.842,6.842,0,0,0,.269,1.013,5.928,5.928,0,0,0,.446.977,4.994,4.994,0,0,0,1.679,1.766,4.609,4.609,0,0,0,1.1.509,4.141,4.141,0,0,0,1.2.185,5.252,5.252,0,0,0,2.159-.45A6.082,6.082,0,0,0,60.5,51.379a8.408,8.408,0,0,0,1.361-1.749,10.873,10.873,0,0,0,.939-2.057,13.817,13.817,0,0,0,.406-1.462c.113-.507.2-1.031.276-1.558s.123-1.059.157-1.583S63.69,41.929,63.69,41.433Zm-3.524.185q0,.372-.01.744t-.034.741q-.024.37-.063.736t-.1.729a14.235,14.235,0,0,1-.274,1.457,10.913,10.913,0,0,1-.552,1.7,4.7,4.7,0,0,1-.879,1.414,1.728,1.728,0,0,1-1.255.588,1.281,1.281,0,0,1-.909-.366,2.358,2.358,0,0,1-.546-.888,5.258,5.258,0,0,1-.267-1.1,7.43,7.43,0,0,1-.071-1.009q0-.371.01-.742t.034-.74q.024-.369.062-.735t.1-.728a13.846,13.846,0,0,1,.277-1.455,11,11,0,0,1,.556-1.7,4.773,4.773,0,0,1,.879-1.415,1.721,1.721,0,0,1,1.244-.593,1.3,1.3,0,0,1,.921.359,2.287,2.287,0,0,1,.547.881,5.161,5.161,0,0,1,.262,1.1A7.8,7.8,0,0,1,60.167,41.618Zm17.009-6.313-3.376.009-1,8.156c-.013.1-.022.195-.03.291s-.012.191-.015.286,0,.19-.006.286,0,.193,0,.291,0,.21,0,.315,0,.21,0,.315,0,.21.008.315.008.21.015.315L69.921,35.325l-3.131.009L64.706,52.779l3.305.01L69,44.518c.025-.19.045-.378.059-.565s.024-.374.03-.56.01-.373.011-.561,0-.376,0-.565L71.961,52.8l3.117.009Zm9.917-.028-8.585.024-.384,3.205,2.616,0-1.719,14.32,3.337.01L84.08,38.5l2.626,0Zm11.436-.032-3.373.009-.777,6.524-3.389,0,.775-6.517-3.358.009-2.114,17.57,3.353.01.956-7.777,3.388,0-.932,7.785,3.368.01ZM8.95,74.294a3.328,3.328,0,0,1-.528.416,3.049,3.049,0,0,1-.539.272,2.867,2.867,0,0,1-.525.147,2.62,2.62,0,0,1-.486.041,2.01,2.01,0,0,1-1.226-.435,2.217,2.217,0,0,1-.41-.428,3.036,3.036,0,0,1-.378-.732,4.961,4.961,0,0,1-.213-.8,6.88,6.88,0,0,1-.095-.732c-.017-.219-.021-.407-.021-.541a12.157,12.157,0,0,1,.123-1.652,14.042,14.042,0,0,1,.368-1.787,10.071,10.071,0,0,1,.61-1.665,4.983,4.983,0,0,1,.851-1.287,3.763,3.763,0,0,1,.429-.368,3.134,3.134,0,0,1,.475-.289,2.563,2.563,0,0,1,.512-.188,2.188,2.188,0,0,1,.539-.065,2.294,2.294,0,0,1,.351.03,2.321,2.321,0,0,1,.441.117,2.4,2.4,0,0,1,.491.252,2.739,2.739,0,0,1,.5.435l.465-3.565a5.012,5.012,0,0,0-.518-.231A4.043,4.043,0,0,0,9.163,61a5.184,5.184,0,0,0-.531-.029,6.994,6.994,0,0,0-1.309.11,5.738,5.738,0,0,0-1.153.337,5.528,5.528,0,0,0-1.014.549,6.282,6.282,0,0,0-.895.746A8.246,8.246,0,0,0,2.844,64.6a12.36,12.36,0,0,0-.977,2.291,16.377,16.377,0,0,0-.748,4.837,11.409,11.409,0,0,0,.115,1.642,9.068,9.068,0,0,0,.329,1.45,6.858,6.858,0,0,0,.521,1.227,5,5,0,0,0,.69.972,4.472,4.472,0,0,0,.726.642,3.962,3.962,0,0,0,.785.429,4.233,4.233,0,0,0,.841.242,5.316,5.316,0,0,0,.892.082,5.419,5.419,0,0,0,.712-.037,4.946,4.946,0,0,0,.641-.12,5.026,5.026,0,0,0,.582-.188,5.763,5.763,0,0,0,.534-.242Zm8.734.863-3.343-.036L15.963,61.2l-3.192-.019-2.01,17.114,6.529.077ZM30.362,61.282l-3.223-.019L25.777,72.688c-.043.342-.077.7-.131,1.039a4.021,4.021,0,0,1-.249.953,1.545,1.545,0,0,1-.541.694,1.711,1.711,0,0,1-1.007.26,1.559,1.559,0,0,1-.65-.131,1.043,1.043,0,0,1-.418-.351,1.494,1.494,0,0,1-.224-.532,3.071,3.071,0,0,1-.066-.676c0-.11,0-.217.012-.325s.019-.213.031-.32.026-.212.04-.319.028-.215.04-.324l1.334-11.412-3.209-.019L19.285,73.551c-.012.109-.026.22-.04.332s-.028.224-.04.337-.023.225-.031.337-.012.223-.012.332a4.355,4.355,0,0,0,.326,1.747,3.069,3.069,0,0,0,.9,1.184,3.81,3.81,0,0,0,1.346.678,6.307,6.307,0,0,0,1.674.228,7.889,7.889,0,0,0,1.3-.089,6.105,6.105,0,0,0,1.257-.329,4.679,4.679,0,0,0,1.128-.617,4.058,4.058,0,0,0,.915-.951,4.032,4.032,0,0,0,.6-1.253,6.107,6.107,0,0,0,.144-.657c.038-.227.069-.464.1-.716ZM32.9,61.3l-2.037,17.23,3.43.04a8.98,8.98,0,0,0,.995-.039,6.24,6.24,0,0,0,1.1-.205,4.988,4.988,0,0,0,1.125-.472,4.752,4.752,0,0,0,1.067-.84,4.5,4.5,0,0,0,.587-.749,4.971,4.971,0,0,0,.44-.892,5.663,5.663,0,0,0,.276-1.02,6.594,6.594,0,0,0,.1-1.134c0-.1,0-.246-.016-.415a5.45,5.45,0,0,0-.072-.568,4.384,4.384,0,0,0-.165-.642,3.181,3.181,0,0,0-.3-.636,2.731,2.731,0,0,0-.266-.349,3.1,3.1,0,0,0-.346-.33,3.248,3.248,0,0,0-.42-.292,3.285,3.285,0,0,0-.49-.234,3.174,3.174,0,0,0,.46-.143,2.833,2.833,0,0,0,.416-.206,3.043,3.043,0,0,0,.383-.275,3.883,3.883,0,0,0,.362-.348,4.016,4.016,0,0,0,.53-.694,3.631,3.631,0,0,0,.338-.744,4.446,4.446,0,0,0,.179-.814,7.071,7.071,0,0,0,.052-.9,6.922,6.922,0,0,0-.049-.859,4.613,4.613,0,0,0-.176-.821,3.818,3.818,0,0,0-1.682-2.107,3.448,3.448,0,0,0-.8-.339,4.411,4.411,0,0,0-.794-.145c-.261-.025-.518-.031-.768-.033Zm2.912,2.84a2.451,2.451,0,0,1,.378.032,2.212,2.212,0,0,1,.369.093,1.688,1.688,0,0,1,.332.156,1.183,1.183,0,0,1,.266.221,1.383,1.383,0,0,1,.132.188,1.544,1.544,0,0,1,.12.258,1.93,1.93,0,0,1,.088.34,2.639,2.639,0,0,1,.034.435,2.972,2.972,0,0,1-.042.481,3.509,3.509,0,0,1-.126.515,3.023,3.023,0,0,1-.21.495,2.1,2.1,0,0,1-.294.421,1.688,1.688,0,0,1-.287.252,2.033,2.033,0,0,1-.367.2,2.232,2.232,0,0,1-.432.134,2.335,2.335,0,0,1-.483.046Zm-.822,6.906h.149c.075,0,.159,0,.249.013a1.571,1.571,0,0,1,.286.057,1.346,1.346,0,0,1,.305.135,1.457,1.457,0,0,1,.305.246,1.692,1.692,0,0,1,.26.358,1.961,1.961,0,0,1,.16.391,2.488,2.488,0,0,1,.081.4,3.212,3.212,0,0,1,.022.385,4.265,4.265,0,0,1-.025.482,2.851,2.851,0,0,1-.1.5,2.266,2.266,0,0,1-.212.492,2.209,2.209,0,0,1-.361.464,2.482,2.482,0,0,1-.285.233,2.353,2.353,0,0,1-.372.213,2.289,2.289,0,0,1-.46.154,2.438,2.438,0,0,1-.551.056Z" transform="translate(665.804 1691)" fill="#9ca3af"/>
    <g id="Group_101" data-name="Group 101" transform="translate(544.869 1633.644)">
      <g id="Group_100" data-name="Group 100" transform="translate(0 0)" clip-path="url(#clip-path)">
        <path id="Path_308" data-name="Path 308" d="M35.422,40.615a19.64,19.64,0,0,0,1.476-2.3,3.651,3.651,0,0,0,.2-2.966,10.294,10.294,0,0,0-2.006-3.972,2.805,2.805,0,0,1-.728-2.074,1.491,1.491,0,0,0-.474-1.22,3.265,3.265,0,0,1-.96-1.911,1.644,1.644,0,0,0-.534-.972,6.715,6.715,0,0,1-1.717-3.983c-.1-.768-.357-1.587.454-2.189.08-.059.042-.3.031-.457a16.9,16.9,0,0,1,.872-6.836c.113-.319.276-.621.4-.937.253-.655.864-1.172.692-2-.041-.2.221-.48.378-.7a20.52,20.52,0,0,1,6.8-6.338c.337-.181.643-.421.979-.605a1.312,1.312,0,0,1,.575-.179C44.1.937,46.28.25,48.542.336c.632.024,1.268-.016,1.9.054.705.077,1.416.3,2.075-.236a1.128,1.128,0,0,1,.929-.109A10.664,10.664,0,0,1,59.807,3.57a29.631,29.631,0,0,1,1.964,2.914,1.668,1.668,0,0,0,.837.84,1.566,1.566,0,0,1,.839.945,23.239,23.239,0,0,1,2.266,7.65c.058,1.071.14,2.134.256,3.2.074.681.589,1.17.743,1.814.043.18.228.087.354.083,2.464-.08,4.928-.172,7.392-.239,2.827-.077,5.655-.125,8.482-.2,1.875-.048,3.75-.114,5.625-.174,2.239-.073,4.477-.151,6.716-.222q3.734-.119,7.468-.228c2.172-.064,4.344-.118,6.515-.182,2.443-.072,4.886-.157,7.33-.221,2.693-.072,5.386-.117,8.079-.192,2.215-.062,4.429-.158,6.644-.227,2.193-.068,4.387-.117,6.581-.182,2.307-.069,4.614-.155,6.922-.221,1.856-.052,3.712-.079,5.567-.129,2.126-.057,4.252-.128,6.378-.193q2.678-.081,5.356-.16c1.788-.05,3.575-.09,5.363-.144,2.218-.067,4.435-.148,6.652-.217q4.41-.136,8.821-.262c2.579-.072,5.159-.13,7.738-.2,2.487-.07,4.974-.153,7.461-.227q4.441-.131,8.882-.257c2.829-.085,5.657-.179,8.486-.262,2.444-.072,4.889-.125,7.333-.2q4.307-.133,8.613-.294a1.11,1.11,0,0,1,1.015.557,3.315,3.315,0,0,1,.457,2.4q-.1,12.295-.226,24.59-.079,8.716-.146,17.433c0,.091,0,.182,0,.273-.034,1.389-.034,1.388,1.363,1.651.379.071.757.15,1.134.229a1.137,1.137,0,0,1,1.076,1.33c-.046,3.338.011,6.683-.171,10.014-.242,4.446-.088,8.9-.3,13.337-.241,4.991-.119,9.988-.332,14.977-.2,4.674-.11,9.352-.3,14.022-.189,4.7-.088,9.4-.3,14.09-.213,4.719-.087,9.443-.319,14.157-.23,4.673-.092,9.351-.307,14.021s-.108,9.35-.308,14.019c-.2,4.7-.107,9.4-.3,14.089-.189,4.538-.08,9.081-.3,13.615-.229,4.832-.1,9.67-.321,14.5-.217,4.649-.1,9.3-.308,13.948-.206,4.673-.119,9.351-.322,14.02-.05,1.147.128,2.285-.019,3.426-.066.507.371.378.609.382a22.239,22.239,0,0,0,3.59-.311c.806-.117,1.6-.308,2.4-.438.889-.144,1.253.186,1.133,1.066-.152,1.118-.4,2.219-.5,3.349a1.556,1.556,0,0,1-1.1,1.328c-2.306.935-4.551,2.009-6.8,3.087-2.9,1.393-5.656,3.068-8.6,4.39a14.976,14.976,0,0,1-5.8.966,43.865,43.865,0,0,1-5.777.1,1.27,1.27,0,0,0-.941.26.65.65,0,0,1-1.1-.581,31.825,31.825,0,0,0-.3-4.539,4.987,4.987,0,0,1,.67-2.745c.221-.4.757-.534,1.208-.691,2.851-.992,5.815-1.551,8.736-2.272a34.566,34.566,0,0,0,5.678-1.586.844.844,0,0,0,.608-.9q.035-9.318.139-18.635c.033-3.241.113-6.481.148-9.722.056-5.2.089-10.393.137-15.59q.081-8.85.17-17.7.048-5.1.087-10.206c.021-2.311.034-4.623.083-6.933.011-.513-.1-.7-.658-.7q-3.633-.037-7.265-.173c-2.15-.082-4.3-.126-6.45-.167-2.287-.044-4.575-.089-6.86-.164q-3.326-.109-6.652-.175c-2.333-.043-4.665-.11-7-.161-2.24-.049-4.479-.128-6.719-.187-2.288-.06-4.576-.087-6.863-.151s-4.572-.1-6.857-.174c-3.509-.111-7.018-.183-10.528-.256-2.353-.049-4.7-.138-7.058-.19-2.331-.052-4.661-.152-6.994-.17-2.424-.019-4.85-.056-7.271-.161-2.375-.1-4.749-.154-7.125-.2-2.4-.048-4.8-.114-7.2-.168q-3.632-.081-7.265-.186c-2.4-.072-4.8-.126-7.2-.174-2.49-.05-4.979-.125-7.468-.2-2.422-.072-4.844-.117-7.265-.174-2.536-.06-5.073-.11-7.609-.173-2.443-.061-4.885-.145-7.328-.211-2.56-.07-5.12-.107-7.679-.172-.924-.023-1.852-.052-2.779-.085-.344-.012-.467.1-.492.455-.222,3.239-.271,6.485-.4,9.728-.13,3.266-.3,6.53-.427,9.8q-.253,6.292-.474,12.585-.148,4.047-.277,8.094c-.167,5.33-.352,10.661-.48,15.992q-.093,3.877-.2,7.754c-.091,3.289-.141,6.58-.132,9.87,0,1.84-.074,3.675-.109,5.512a1.4,1.4,0,0,0,.329,1.1c.533.606.181,1.384.1,2.086a3.7,3.7,0,0,1-.1.524c-.1.35.034.437.364.415a18.814,18.814,0,0,1,5.011.656,3.761,3.761,0,0,1,1.472.658,5.835,5.835,0,0,0,1.492.806,3.787,3.787,0,0,1,2.129,2.386,12.092,12.092,0,0,1,.838,2.136c.08.38.338.359.618.358a22.5,22.5,0,0,1,3.516.238c.334.051.854.056.878.414.021.324-.505.258-.792.356a16.57,16.57,0,0,1-3.144.52c-.173.024-.5-.106-.463.213.027.265.334.157.518.164.907.034,1.815.048,2.723.073a1.5,1.5,0,0,1,.471.049c.226.084.556.137.567.415.012.3-.341.245-.529.287a5.41,5.41,0,0,1-2.855.173,6.7,6.7,0,0,0-2.532.2,29.823,29.823,0,0,1-5.907-.06c-1.6-.125-3.2-.209-4.8-.242a44.445,44.445,0,0,1-4.608-.3c-.792-.1-1.592,0-2.379-.069-2.006-.165-3.968.359-5.963.315-.2,0-.333-.131-.5-.174-.338-.083-.955-.011-.94-.309.023-.466.641-.33,1-.439a26.756,26.756,0,0,1,3.572-.559,33.968,33.968,0,0,0-3.443-.386c-.22-.028-.59.128-.606-.225-.016-.335.381-.275.591-.307a18.936,18.936,0,0,1,4.674-.178c.441.042.592-.049.6-.521a6.9,6.9,0,0,0-.361-3.072c-.165-.379-.243-.329-.55-.19-2.747,1.248-5.278,2.918-8.053,4.109a11.5,11.5,0,0,1-4.719,1.174c-2.2-.024-4.393.275-6.6.216a2.786,2.786,0,0,0-1.876.266c-.538.365-1.025-.023-.967-.719a27.833,27.833,0,0,0-.29-4.4,5.076,5.076,0,0,1,.674-2.811c.22-.4.762-.531,1.213-.684,3.071-1.046,6.253-1.661,9.4-2.418A30.678,30.678,0,0,0,52.383,245a.936.936,0,0,0,.658-1.01c.034-5.986.1-11.971.169-17.956.036-3.151.147-6.3.122-9.451-.04-5.015.083-10.028.108-15.042.033-6.422.131-12.844.2-19.266.017-1.565.026-3.129.04-4.694,0-.2.049-.44-.108-.587a3.438,3.438,0,0,1-.791-2.6,27.972,27.972,0,0,1-.018-4.488c.33-2.828-.289-5.585-.4-8.377a10.546,10.546,0,0,0-.31-3.093,7.226,7.226,0,0,1-.334-3.891,3.3,3.3,0,0,0-.7,1.387c-2.774,6.684-5.243,13.489-8.06,20.157-1.983,4.7-3.8,9.46-5.684,14.2-1.85,4.652-3.713,9.3-5.528,13.965-1.19,3.059-2.346,6.132-3.557,9.184-1.486,3.745-2.919,7.51-4.356,11.274-1.291,3.381-2.588,6.76-3.822,10.162q-2.257,6.218-4.627,12.393c-.162.419-.275.857-.412,1.286-.291.913-.293.92.679,1.07a22.575,22.575,0,0,1,4.182.879,7.885,7.885,0,0,1,3.519,2.544c.48.594,1.149.989,1.611,1.62a11.913,11.913,0,0,1,1.294,1.986.461.461,0,0,0,.536.3,8.365,8.365,0,0,0,1.419-.129c.557-.157.625.235.738.546.141.387-.183.506-.466.611-.425.158-.914,0-1.322.267-.109.071-.284.073-.27.251.018.224.214.226.362.209,1.048-.12,1.994.393,3.011.472.308.024.65.15.588.588-.059.417-.286.48-.717.464a56.458,56.458,0,0,0-7.111.038,20.727,20.727,0,0,1-3.328-.132c-1.09-.077-2.176-.061-3.264-.084C14.224,260,12,260.022,9.794,259.9c-1.386-.078-2.781.1-4.135-.043-1.776-.187-3.489.357-5.239.182-.15-.015-.337.058-.405-.149s.115-.26.241-.349a7.8,7.8,0,0,1,3.734-1.123c.309-.038.659-.049.777-.424.187-.592-.03-.859-.652-.773a7.322,7.322,0,0,1-2.769-.036c-.179-.044-.466.01-.486-.27s.232-.277.426-.342a12.231,12.231,0,0,1,3.55-.86c.339-.01.358-.229.376-.447a11.469,11.469,0,0,1,.618-3.532c.137-.332-.078-.668-.152-.993a3.387,3.387,0,0,1,.092-2c.641-1.672,1.246-3.362,1.987-4.99.943-2.072,1.07-4.325,1.594-6.488.57-2.351,1.07-4.719,1.593-7.082q1.319-5.961,2.626-11.924a.812.812,0,0,0,.022-.338,9,9,0,0,1,1-5.931c1.133-2.307,1.339-4.8,2.124-7.154a5.083,5.083,0,0,0,.325-2.541,1.912,1.912,0,0,1,.059-.743c.857-3.732,1.409-7.527,2.322-11.247a3.37,3.37,0,0,1,1.187-2.156c.219-.153.221-.383.272-.6.361-1.521.628-3.072,1.109-4.554a10.392,10.392,0,0,0,.194-3.2,18.431,18.431,0,0,1,.63-3.822c.6-2.606,1.453-5.148,1.86-7.8a3.212,3.212,0,0,1,1.183-2.149,2.507,2.507,0,0,0,.665-1.446c1.08-4.3,2.176-8.6,3.213-12.914.312-1.3.65-2.584.961-3.88.036-.149.144-.307.044-.459-.593-.892-.229-1.809-.044-2.7.2-.952.493-1.884.737-2.827a2.336,2.336,0,0,1,1.071-1.656.464.464,0,0,0,.214-.4c.143-1.56.648-3.052.864-4.6a.893.893,0,0,0,.016-.466,4.254,4.254,0,0,1-.188-2.729c.4-2.495.368-5.02.568-7.529.033-.415-.131-.862.507-1.238a2.8,2.8,0,0,0,1.068-2.059,35.149,35.149,0,0,0,.453-6.842c-.05-.689-.48-1.244-.509-1.941-.062-1.465-.068-2.931-.114-4.392-.031-.98,0-2.127-1-2.862a1.738,1.738,0,0,1-.789-1.443A9.282,9.282,0,0,0,32.9,100.6a21.75,21.75,0,0,1-.9-5.078,1.3,1.3,0,0,1,.051-.6c.722-1.466-.495-2.536-.757-3.8-.011-.054-.085-.109-.142-.138-1.433-.71-1.6-2.089-1.817-3.441-.031-.2.014-.4-.226-.515a2.87,2.87,0,0,1-1.323-2.048c-.4-1.417-.741-2.852-1.219-4.25a15.543,15.543,0,0,0-.762-1.668c-.11-.229-.269-.469-.183-.708.436-1.216-.509-2.029-.855-3.013-.082-.234-.257-.472-.567-.357a2.838,2.838,0,0,1-2.994-1.007,6,6,0,0,1-2.058-3.115c-.26-1.479-1.048-2.873-.764-4.444a10.833,10.833,0,0,1,3.9-6.583A13.928,13.928,0,0,1,26.368,57.7c1.934-.712,3.689-1.749,5.543-2.6,2.274-1.043,4.34-2.466,6.524-3.676.635-.352,1.282-.683,1.912-1.043A1.279,1.279,0,0,0,41,49.206c.109-2.334.052-4.664-.025-7a1.155,1.155,0,0,0-.609-.95c-.24-.175-.321.069-.423.184a6.413,6.413,0,0,1-1.521,1.246c-.132.079-.268.213-.424.067-.125-.117-.031-.258.013-.38a2.271,2.271,0,0,0-.11-1.719.7.7,0,0,0-.931-.444c-.513.15-1.035.269-1.553.4m195.72-4.6h.136c0-.93-.009-1.861,0-2.791.053-4.925.1-9.851.175-14.776.009-.611-.184-.782-.788-.726-.962.089-1.933.092-2.9.12q-3.688.109-7.376.209-3.143.09-6.286.184c-1.352.042-2.7.1-4.057.137s-2.7.074-4.057.108c-1.668.042-3.336.071-5,.124-2.139.068-4.277.162-6.417.229s-4.285.11-6.427.174c-1.734.052-3.467.128-5.2.18-1.8.055-3.6.089-5.4.142-1.779.052-3.559.118-5.338.175q-2.771.09-5.543.177c-2.1.064-4.191.131-6.287.186-1.826.048-3.653.075-5.479.125-2.3.063-4.6.143-6.9.211-1.758.052-3.516.094-5.274.15-1.869.059-3.738.138-5.608.192-1.375.04-2.755,0-4.126.1-1.914.139-3.832.083-5.746.189-1.4.077-2.8.058-4.2.1-1.509.044-3.016.117-4.525.162-1.377.041-2.754.055-4.13.095-1.555.045-3.109.109-4.663.16-1.4.045-2.8.08-4.192.125-1.508.049-3.015.113-4.522.155-1.4.039-2.8.047-4.2.089-1.981.06-3.961.141-5.942.208-1.082.037-2.164.063-3.246.1-1.442.047-2.883.109-4.325.146-1.938.051-3.877.075-5.815.13-2,.056-4.008.143-6.013.2-1.42.042-2.841.059-4.262.091a.405.405,0,0,0-.444.331c-.307,1.254-.627,2.5-.943,3.757a.867.867,0,0,0,.05.594,9.665,9.665,0,0,1,.821,3.891,3.3,3.3,0,0,1-.889,2.427,2.652,2.652,0,0,0-.7,1.895,4.64,4.64,0,0,1-.109.945c-.2.724.22,1.391.1,2.139-.273,1.631-1.032,3.125-1.238,4.768-.047.373-.363.746-.322,1.09a2.015,2.015,0,0,1-.4,1.393,12.129,12.129,0,0,1-1.8,2.212,3.009,3.009,0,0,1-1.933.868,13.907,13.907,0,0,1-3.526,0c-.162-.028-.361-.136-.487.086a1.515,1.515,0,0,0,.631,1.7c1.266.436,2.455,1.053,3.68,1.586a62.1,62.1,0,0,0,5.853,2.384,6.942,6.942,0,0,1,4.277,3.3A26.9,26.9,0,0,0,71.656,61.5a5.551,5.551,0,0,1,1.152,1.925,17.666,17.666,0,0,0,1.4,3.392,56.461,56.461,0,0,1,3.525,8.459c.8,2.54,1.4,5.142,2.09,7.718.052.193.039.443.333.423,1.217-.082,2.429.2,3.648.029a8.326,8.326,0,0,1,2.153-.193A3.647,3.647,0,0,0,88,83.124a20.544,20.544,0,0,0,4.732-2.445,3.164,3.164,0,0,1,3.33-.482c.544.226,1.073.48,1.613.713.165.071.354.251.513-.043a5.237,5.237,0,0,1,1.09-1.153c1.424-1.4,2.785-2.86,4.158-4.308q5.29-5.579,10.573-11.165c3.752-3.944,7.528-7.865,11.279-11.81,2.86-3.007,5.694-6.039,8.545-9.055q5.542-5.862,11.091-11.718c1.308-1.385,1.3-1.656,2.6.115a1.223,1.223,0,0,1-.108,1.824q-4.354,4.636-8.658,9.319-6.083,6.59-12.151,13.2-3.842,4.17-7.693,8.332-5.232,5.65-10.471,11.293c-1.979,2.141-3.937,4.3-5.922,6.437-.25.269-.268.447,0,.667a2.424,2.424,0,0,1,.74,1.636c.108.748.041,1.474-.841,1.789-.408.146-.124.326.02.405a6.17,6.17,0,0,1,1.26,1.03,4.265,4.265,0,0,1,1.511,4.183,5.983,5.983,0,0,1-3.248,4.01,2.562,2.562,0,0,1-2.724-.052,10.185,10.185,0,0,0-2.161-1.13c-1.159-.412-2.239-.98-3.348-1.49-.9-.413-1.262-.417-1.89.361-1.008,1.248-2.394,2.079-3.471,3.244a.8.8,0,0,1-.8.226,1.938,1.938,0,0,1-1.5-2.975,7.99,7.99,0,0,1,.532-.789A16.067,16.067,0,0,1,88.2,91.521c.238-.245.329-.452-.078-.586a4.334,4.334,0,0,0-2.514-.347c-1.119.286-2.256.509-3.393.711-.37.065-.454.167-.357.521.238.872.566,1.712.857,2.562a6.541,6.541,0,0,1-.706,5.551c-.289.5-.737.919-.735,1.556a3.636,3.636,0,0,1-.294,1.182c-.564,1.648-1.208,3.271-1.74,4.924-.715,2.219-1.774,4.3-2.451,6.528-.41,1.348-1.13,2.571-1.585,3.9-.233.677-.781,1.357-.635,2.036a31.426,31.426,0,0,1,.678,5.584,16.99,16.99,0,0,1-.269,4.448,12.879,12.879,0,0,1-1.229,2.9,13.715,13.715,0,0,1-2.4,3.473.783.783,0,0,0-.242.588q-.242,6.67-.493,13.339c-.021.55.155.74.732.741,2.814,0,5.628,0,8.442.076,3.335.1,6.674.025,10.011.122,3.4.1,6.808.016,10.213.127,3.425.112,6.854,0,10.281.13,3.265.12,6.536.03,9.8.1,4.2.1,8.4.049,12.6.14,2.087.045,4.175-.006,6.263.089,3.469.158,6.942.047,10.414.135,6.807.173,13.619.175,20.43.237,2.337.021,4.68-.078,7.011.04,3.425.174,6.85-.015,10.275.169,3.149.169,6.307.014,9.464.121,3.628.123,7.263.051,10.9.126,4.267.088,8.536.078,12.8.111.636,0,1.272-.009,1.907.022,2.519.12,5.04.044,7.56.088.41.007.542-.091.531-.528-.021-.86.058-1.722.063-2.583.028-4.423.035-8.847.069-13.271.034-4.442.1-8.883.137-13.325.043-4.989.068-9.978.11-14.967q.078-9.255.17-18.51c.05-5.9.085-11.8.138-17.694.033-3.609.094-7.218.131-10.827.034-3.288.066-6.575.074-9.863.012-5.129,0-10.258,0-15.387m.219,120.1h.018a9.56,9.56,0,0,1-.019,1.632c-.113.644-.26,1.288-1.043,1.573-2.106.768-4.2,1.576-6.278,2.408a10.776,10.776,0,0,1-5.449,1.112,8.239,8.239,0,0,0-1.078-.1c-2.288.006-4.573-.091-6.86-.143-2.309-.052-4.618-.129-6.927-.17-2.332-.042-4.663-.109-6.995-.175-2.4-.068-4.8-.1-7.2-.164-2.308-.06-4.618-.1-6.927-.156-2.4-.058-4.8-.118-7.2-.163-2.354-.044-4.707-.146-7.059-.18-3.692-.053-7.382-.171-11.073-.253-2.354-.052-4.708-.125-7.061-.181-2.535-.06-5.072-.1-7.607-.163-2.354-.062-4.709-.105-7.063-.162-2.535-.061-5.069-.139-7.6-.184-2.423-.043-4.851-.211-7.267-.156-4.125.094-8.223-.44-12.346-.323-2.194.062-4.392-.076-6.587-.134q-3.973-.106-7.948-.177c-2.514-.048-5.026-.136-7.539-.19-2.649-.057-5.3-.1-7.945-.182-2.488-.076-4.979-.091-7.467-.21-.344-.016-.556.053-.553.471a15.343,15.343,0,0,1-.071,2.172c-.092.678.164.88.787.9,1.406.046,2.813.038,4.219.072,3.673.088,7.345.223,11.017.306,3.81.086,7.619.185,11.429.275,3.673.087,7.346.2,11.019.3,3.6.1,7.209.137,10.813.274,2.355.09,4.713.118,7.07.181,3.673.1,7.346.154,11.019.27,2.356.074,4.714.145,7.071.19,5.988.116,11.974.283,17.961.452,3.423.1,6.847.155,10.27.271,2.334.079,4.671.112,7.007.168q5.031.12,10.062.271c3.513.108,7.028.155,10.542.253,3.31.092,6.62.191,9.929.265,5.646.127,11.291.251,16.935.42a.772.772,0,0,1,.872.693,4.449,4.449,0,0,1,.044.88c-.017,5.789-.188,11.575-.169,17.365.026,7.786-.267,15.57-.223,23.358.04,7.149-.22,14.3-.2,21.447.013,5.811-.022,11.627-.3,17.435a1.29,1.29,0,0,0,1.28,1.447,2.421,2.421,0,0,0,2.185-2.8,4.061,4.061,0,0,1-.158-1.338q.105-5,.219-10,.167-7.72.333-15.44c.122-5.26.269-10.519.387-15.778.084-3.743.133-7.486.209-11.229q.174-8.575.365-17.149c.122-5.556.257-11.111.375-16.667.082-3.855.133-7.711.219-11.566.122-5.485.279-10.97.39-16.456.083-4.105.215-8.21.252-12.316.035-4.014.2-8.027.294-12.042.1-4.287.166-8.575.261-12.862.075-3.378.177-6.756.252-10.134.062-2.809.094-5.619.154-8.428.066-3.08.172-6.158.214-9.238.016-1.217-.053-1.171-1.238-1.467-.661-.165-.8-.015-.8.637-.033,6.037-.178,12.073-.156,18.112.022,5.97-.178,11.94-.171,17.911.008,7.083-.227,14.163-.2,21.247.02,4.946-.163,9.891-.132,14.839.035,5.427-.144,10.855-.189,16.283,0,.469-.5.659-.395,1.161a6.836,6.836,0,0,1,.021,1.424m-157.934-.625c-.477,0-.954,0-1.431,0-1.539.006-1.52.007-1.593,1.567-.023.494.085.665.618.674,2.017.034,4.033.162,6.05.189,4.083.055,8.163.162,12.245.277q3.57.1,7.14.179c5.193.116,10.386.2,15.577.369,2.425.077,4.852.106,7.278.175,5.1.145,10.2.216,15.3.379,2.334.074,4.67.088,7.005.168,2.992.1,5.987.115,8.981.175q4.253.086,8.506.193c3.966.106,7.931.238,11.9.34,1.973.051,3.949.008,5.919.11,1.271.066,2.54.029,3.81.069q5.813.183,11.628.333c1.905.049,3.813.025,5.717.109,1.226.054,2.45.031,3.675.064q6.154.169,12.307.343c1.813.051,3.626.1,5.439.153.281.009.492,0,.5-.366.022-.929.052-1.858.1-2.787.022-.46-.143-.6-.623-.611-2.967-.046-5.935,0-8.9-.141-1.856-.091-3.717-.028-5.576-.06-3.717-.063-7.435-.062-11.151-.193-1.926-.068-3.853.049-5.781-.068-1.808-.11-3.624-.029-5.437-.068-3.875-.083-7.752-.056-11.627-.18-1.79-.057-3.578.044-5.372-.069-1.989-.125-3.986.038-5.983-.093-1.875-.123-3.758.039-5.642-.089-1.988-.135-3.987.038-5.984-.089-1.9-.121-3.8.053-5.712-.069-1.988-.127-3.987-.034-5.982-.078-3.941-.088-7.886-.037-11.828-.194-1.992-.079-3.985.049-5.981-.09-2.033-.141-4.079.033-6.121-.084-1.967-.113-3.94.047-5.915-.078-2.079-.132-4.168.037-6.255-.093-1.99-.124-3.988.046-5.986-.074-2.057-.123-4.12.051-6.185-.1s-4.12-.015-6.184-.1c-2.808-.111-5.625-.01-8.437-.1M33.409,65.378a6.408,6.408,0,0,0-1.236-1.4c-.133-.145-.363-.25-.257-.5a.463.463,0,0,1,.576-.241,2.123,2.123,0,0,1,.5.187,5.462,5.462,0,0,1,1.891,2c.262.368.419.91.832,1.049A21.283,21.283,0,0,1,38.337,67.9,1.531,1.531,0,0,0,39.5,68c1.623-.426,3.208-.968,4.8-1.491a58.461,58.461,0,0,1,9.07-1.786,3.912,3.912,0,0,0,2.85-2.151c.641-1.094,1.149-2.264,1.748-3.384a10.861,10.861,0,0,0,1.079-4.935c.009-.3.02-.68-.321-.845-1.049-.5-2.11-.982-3.247-1.508.11,1.284-.143,2.479.079,3.673.034.185.1.467-.149.535s-.329-.2-.417-.373a5.9,5.9,0,0,1-.494-1.263,26.12,26.12,0,0,1-.521-4.84,1.214,1.214,0,0,0-.933-1.207,5.293,5.293,0,0,0-.591-.157,27.282,27.282,0,0,1-7.175-3.18c-.87-.5-1.7-1.067-2.584-1.623a46.267,46.267,0,0,0-.3,5.163,2.3,2.3,0,0,1-1.061,2.173c-1.863,1.375-3.894,2.46-5.811,3.734a33.931,33.931,0,0,1-5.438,2.915,16.334,16.334,0,0,0-2.3,1c-.306.19-.334.316-.052.531A7.226,7.226,0,0,1,28.9,60.213a17.981,17.981,0,0,1,2.357,3.954,1.86,1.86,0,0,0,2.153,1.211m6.282,3.384a52.231,52.231,0,0,0,4.874,4.619q2.779,2.454,5.33,5.125a.938.938,0,0,0,1.111.329c2.939-.924,5.928-1.663,8.942-2.305A79.8,79.8,0,0,1,68.5,75.084a16.717,16.717,0,0,0,3.044-.228c.282-.082.594-.145.632-.519a5.268,5.268,0,0,0,.132-1.682,21.456,21.456,0,0,0-2.681-7,.839.839,0,0,0-.882-.459,32.539,32.539,0,0,1-4.268-.035c-2.149-.061-4.3.013-6.454.06a31.962,31.962,0,0,0-4.86.419c-3.115.548-6.247,1.023-9.3,1.855a25.592,25.592,0,0,0-4.171,1.268M52.513,148.82a5.781,5.781,0,0,1,.474-.695c.434-.462.824-.961,1.3-1.391a30.1,30.1,0,0,0,4.465-4.991,1.211,1.211,0,0,0,.062-1.431,40.242,40.242,0,0,0-4.444-6.584,14.508,14.508,0,0,0-3.511-3.292c-2.9-1.773-5.819-3.509-8.853-5.052a44.177,44.177,0,0,0-5.44-2.483c-.3-.1-.439-.091-.582.207a4.557,4.557,0,0,0-.525,1.451c-.294,2.677-.574,5.355-.868,8.031a.985.985,0,0,0,.694,1.159A15.972,15.972,0,0,1,38.3,135.3c3.153,2.149,6.54,3.961,9.115,6.907,1.783,2.04,3.826,3.856,5.1,6.611m11.739-32.67c.93,0,1.862.022,2.791-.006a16.347,16.347,0,0,0,3.243-.28c.566-.133,1.248-.23,1.5-.892.717-1.91,1.387-3.837,2.107-5.746.179-.474-.029-.51-.385-.475a8.8,8.8,0,0,1-1.272.14c-2.595-.128-5.188-.286-7.782-.437-.293-.017-.587-.038-.876-.081-1.854-.275-3.619-.915-5.435-1.341-3.759-.881-7.549-1.644-11.236-2.807a3.633,3.633,0,0,0-1.781-.039,43.461,43.461,0,0,1-7.708,1.033c-.4,0-.458.1-.383.463a4.941,4.941,0,0,1,.264,1.865c-.22,1.179.186,2.336.039,3.5a.394.394,0,0,0,.342.489,33.54,33.54,0,0,0,5.564,1.227,43.136,43.136,0,0,1,5.764.848c2.3.507,4.56,1.161,6.827,1.8a31.7,31.7,0,0,0,8.42.736M48.225,158.265c-3.025,1.527-6.214,2.578-9.268,3.937a64.86,64.86,0,0,1-10.346,3.777,3.128,3.128,0,0,0-2.327,2.751c-.585,2.448-1.077,4.919-1.566,7.389-.253,1.276-.424,2.568-.611,3.856-.026.18-.157.489.229.517a6.961,6.961,0,0,0,3.022-.208c.783-.293,1.586-.533,2.372-.82,2.436-.889,5.042-1.066,7.519-1.807,1.119-.335,2.128-.895,3.227-1.226a1.116,1.116,0,0,0,.823-.764q1.9-4.873,3.84-9.73c1.02-2.56,2.056-5.114,3.086-7.67M72.911,96.042c0-.567,0-1.134,0-1.7,0-.9.009-.894-.823-.63-.388.123-.8.172-1.186.3a80.108,80.108,0,0,1-8.259,2.462,40.78,40.78,0,0,1-7.48,1.325c-1.344.035-2.78.078-3.473-1.5-.06-.137-.221-.226-.319-.351-.929-1.183-2.26-1.967-3.156-3.181a.542.542,0,0,0-.594-.221c-.73.14-1.458.288-2.188.431-2.036.4-4.061.887-6.113,1.16-1.729.23-3.439.58-5.173.767a.739.739,0,0,0-.73.884,9.724,9.724,0,0,0,.3,1.811,21.6,21.6,0,0,1,.923,5.312c.028.588.234,1.15.959,1.2a8.67,8.67,0,0,0,2.632.052,11.674,11.674,0,0,1,1.537-.272,57.128,57.128,0,0,0,6.827-1.147c4.4-.972,8.764-2.068,13.188-2.92a52.8,52.8,0,0,1,9.492-.974,20.769,20.769,0,0,0,3.179-.236c.393-.065.446-.237.409-.531a7.626,7.626,0,0,1,.05-2.039m153.356,58.4c-.106-.011-.213-.029-.32-.031-2.472-.036-4.942.034-7.416-.076-2.99-.133-5.987.03-8.982-.1-3.082-.129-6.169.041-9.255-.1-3.057-.143-6.121.042-9.184-.112-3.125-.157-6.258.035-9.389-.113s-6.259.03-9.391-.1c-3.15-.132-6.305.034-9.46-.1-3.171-.131-6.347.046-9.524-.111-3.215-.159-6.437.043-9.659-.119-3.26-.164-6.53.034-9.8-.117s-6.533.028-9.8-.1c-3.286-.133-6.579.032-9.87-.1-3.309-.132-6.623-.054-9.934-.093-5.171-.06-10.343-.179-15.515-.179-1.539,0-3.08-.042-4.618-.077-4.332-.1-8.668,0-13-.156-.568-.021-.607.261-.64.693-.04.518.284.45.607.472,2.81.188,5.626,0,8.438.167,2.127.125,4.262.042,6.395.1,3.945.1,7.894.081,11.841.2,2.132.065,4.265.041,6.4.077,6.056.1,12.113.1,18.168.3,2.041.068,4.084.032,6.126.067,3.788.067,7.577.112,11.365.186,4.015.078,8.031.088,12.047.163q5.751.107,11.5.2c4.9.081,9.8.118,14.7.177.635.008,1.27.034,1.905.045,4.038.072,8.077.172,12.115.2,3.607.027,7.214.066,10.819.182,1.882.061,3.765.025,5.648.056,3.765.062,7.533.192,11.3.158,2.2-.02,4.227-1.091,6.38-1.661M38.94,40.828a3.285,3.285,0,0,0,.9-.963c1-1.437,1.618-2.985.887-4.707a11.571,11.571,0,0,0-2.758-3.753,2.042,2.042,0,0,1-.785-1.513c.007-.48-.108-.624-.57-.419-.138.061-.362.053-.422-.1-.091-.239.168-.273.31-.361a1.868,1.868,0,0,1,.249-.11,24.708,24.708,0,0,0,7.091-4.6A26.545,26.545,0,0,1,47.4,21.368c1.575-1.031,3.2-1.963,4.869-2.833a24.808,24.808,0,0,1,9.182-2.743,11.014,11.014,0,0,1,2.105-.04c.788.075,1.049-.129.884-.682a23.519,23.519,0,0,0-2.558-6.342c-.178-.272-.356-.509-.758-.438A28.35,28.35,0,0,0,55.3,10.041a37.584,37.584,0,0,0-6.558,3.542,39.41,39.41,0,0,0-6.758,5.541,17.713,17.713,0,0,1-4.989,4.029.731.731,0,0,0-.415.947,5.388,5.388,0,0,1-.324,3.191,3.762,3.762,0,0,0,.072,3.215,32.838,32.838,0,0,1,1.481,3.058c.515,1.265,1,2.595.423,3.951a1.281,1.281,0,0,0,.093,1.223,2.815,2.815,0,0,1,.618,2.089M68.179,171.116l-.162-.036c-.679.888-1.339,1.791-2.041,2.661a50.817,50.817,0,0,1-4.847,5.014,43.419,43.419,0,0,1-5.046,4.307.648.648,0,0,0-.333.4,6.76,6.76,0,0,0-.3,2.063c.184,1.91.054,3.833.286,5.74a4.385,4.385,0,0,0,1.816,3.471,4.779,4.779,0,0,1,.915.7c.541.582.994.435,1.569.013a49,49,0,0,0,6.569-6,3.44,3.44,0,0,0,1.023-2.476c.008-2.651.151-5.3.256-7.951.088-2.242.2-4.483.3-6.725.017-.395,0-.791,0-1.187m1.086-28.377c-.063-1.126.111-2.618.124-4.115,0-.248-.029-.5-.044-.746-.012-.185-.131-.244-.275-.173-.77.378-1.737.362-2.3,1.154a1.806,1.806,0,0,1-.352.317,34.861,34.861,0,0,1-6.491,4.059,2.054,2.054,0,0,0-.885.808,41.38,41.38,0,0,1-5.577,6.889.758.758,0,0,0-.254.7q.3,2.66.492,5.33c.038.518.2.52.632.406.928-.246,1.763-.712,2.655-1.039a45.92,45.92,0,0,0,11.539-6.418,1.182,1.182,0,0,0,.545-1.088c-.091-1.908.164-3.8.195-6.082M40.43,123.223l-.024.073c1.545.8,3.114,1.548,4.628,2.4,2.209,1.242,4.415,2.5,6.54,3.875.642.416,1.474.471,1.97,1.189.6.872,1.338,1.653,2.021,2.47a.781.781,0,0,0,.609.372,12.725,12.725,0,0,0,5.2-.743,35.653,35.653,0,0,1,4.477-1.536c.382-.1.478-.319.549-.657a18.745,18.745,0,0,1,3.129-6.988c.517-.731,1.224-1.266,1.729-2a2.282,2.282,0,0,0,.254-1.5c-.009-.332-.232-.177-.381-.094a10.4,10.4,0,0,1-1.539.856c-3.042,1.059-5.991,2.388-9.245,2.8a84.946,84.946,0,0,1-9.221.766,43.916,43.916,0,0,1-6.255-.554c-1.487-.188-2.961-.481-4.441-.728M31.57,200.082c.575-1.464,1.136-2.911,1.71-4.353q2.3-5.764,4.61-11.52c.144-.357,0-.454-.276-.6-.434-.238-.934-.1-1.373-.339-1.536-.821-3.094-1.6-4.636-2.41a.967.967,0,0,0-.835-.1c-1.944.721-4.026.748-6.028,1.183-.476.1-.768.268-.888.755q-.591,2.4-1.221,4.8a1.034,1.034,0,0,0,.232.944c.9,1.195,1.742,2.429,2.679,3.59a59.14,59.14,0,0,1,6.026,8.056m7.913-59.708c-1.757.157-3.412.265-5.054.473a1.632,1.632,0,0,0-1.314,1.2,15.8,15.8,0,0,0-.7,3.9.637.637,0,0,0,.426.761c.74.37,1.568.425,2.325.73,2.552,1.03,4.737,2.744,7.246,3.857a13.757,13.757,0,0,1,2.663,1.97,18.994,18.994,0,0,1,3.424,2.967c.257.321.405.345.586-.086a29.967,29.967,0,0,1,2.459-5.556.492.492,0,0,0,.09-.379,10.815,10.815,0,0,0-.793-2.015c-1.745-2.625-4.079-4.724-6.215-7a2.571,2.571,0,0,0-2.135-.955,14.53,14.53,0,0,1-3.01.127M26.559,212.946c.335-.872.642-1.7.968-2.512.99-2.484,2-4.959,2.964-7.454.173-.449.583-.988.371-1.394a18.207,18.207,0,0,0-1.306-2.459c-2.359-3.218-5.083-6.152-7.342-9.448-.095-.138-.176-.371-.384-.327-.19.04-.234.276-.283.438-.336,1.121-.706,2.237-.963,3.377-.455,2.015-.876,4.04-1.234,6.075a15.486,15.486,0,0,0-.529,3.122,5.173,5.173,0,0,0,2,3.664c2.25,1.992,3.828,4.5,5.736,6.917m41.78-44.876c.026-.439.035-.689.057-.937s-.049-.386-.325-.395a6.766,6.766,0,0,1-2.013-.565c-1.754-.617-3.394-1.49-5.075-2.272-.19-.088-.373-.273-.621-.076-.406.323-.843.606-1.243.935-1.378,1.132-2.743,2.281-4.121,3.414a1.227,1.227,0,0,0-.527,1.03c.009,1.377-.106,2.759-.02,4.129.046.733-.225,1.661.624,2.162a18.911,18.911,0,0,0,3.422,2.05c1.5.511,2.055.408,3.165-.757a64.79,64.79,0,0,0,5.8-6.662c.51-.706,1.022-1.325.878-2.058m-19.96-64.56c1.425.394,2.634.792,3.871,1.06,3.337.721,6.685,1.384,9.971,2.331a7.921,7.921,0,0,0,3.685.352,3.578,3.578,0,0,1,1.348-.089c1.513.3,3.061.245,4.578.48.371.058.5-.038.5-.4a16.328,16.328,0,0,1,.073-1.834,36.394,36.394,0,0,0,.423-4.854c-.006-.89-.109-1.029-.979-.858a25.161,25.161,0,0,1-4.241.332,72.067,72.067,0,0,0-9.786,1.19c-1.773.29-3.52.753-5.269,1.176-1.339.324-2.663.707-4.177,1.114m-.808,53.6a3.482,3.482,0,0,0-.38-.449c-.738-.634-1.452-1.3-2.24-1.869a20.575,20.575,0,0,0-3.738-2.681,17.044,17.044,0,0,1-2.633-1.405,23.837,23.837,0,0,0-5.222-2.573c-.441-.153-.6-.038-.668.417a12.582,12.582,0,0,1-.893,2.762.728.728,0,0,0-.043.559c.195.554.374,1.117.614,1.651,1.234,2.747,2.79,5.323,4.229,7.962.175.321.352.331.648.2.618-.28,1.252-.524,1.873-.8,2.667-1.184,5.467-2.055,8.051-3.432.15-.08.362-.075.4-.339M21.294,226.728c.243-.676.446-1.27.669-1.856q1.888-4.95,3.78-9.9c.092-.243.312-.5.127-.769-.665-.97-1.347-1.928-2.026-2.887a.906.906,0,0,0-.626-.336c-2.171-.445-4.283.055-6.411.345-.368.05-.466.289-.563.585A32.727,32.727,0,0,0,15.063,216a3.423,3.423,0,0,0,.39,2.584,50.652,50.652,0,0,0,5.842,8.144M61.51,29.021c-.519-.562-1.03-.99-.867-1.812.1-.5-.293-.572-.716-.509a8.805,8.805,0,0,0-2.744,1.137c-2.245,1.173-4.255,2.795-6.888,3.218a17.261,17.261,0,0,1-6.121.263c-2.171-.428-4.441-.582-6.36-1.988a1.292,1.292,0,0,0,.423,1.354c1.43,1.044,2.45,2.529,3.93,3.533a9.934,9.934,0,0,0,3.7,1.589,13.189,13.189,0,0,0,7.778-1.262c1.442-.623,2.743-1.567,4.126-2.334,1.455-.807,2.873-1.764,4.69-.965A5.817,5.817,0,0,1,64.5,32.4c.527.571.585.173.714-.2a4.761,4.761,0,0,0-.394-3.744,1.234,1.234,0,0,0-.812-.635c-.875-.313-1.8-.04-2.684-.31-.342-.1-.325.208-.209.441.156.315.465.566.39,1.07m5.074,184.826c.247-.553.03-1.049.056-1.538.139-2.6.229-5.212.347-7.818a1.017,1.017,0,0,0-.323-.854c-.93-.863-1.828-1.764-2.793-2.586a53.015,53.015,0,0,0-6.254-4.677c-.3-.186-.585-.654-.887-.5-.366.182-.462.693-.477,1.136a5.092,5.092,0,0,0,.013.609c.171,2,.361,4.008.545,6.012a6.431,6.431,0,0,0,2.27,4.459c2.391,2.037,5.181,3.56,7.5,5.762m2.337-62.832a50.508,50.508,0,0,1-14.15,7.444,17.4,17.4,0,0,0,1.34,1.131c1.2.821,2.23,1.926,3.707,2.32a4.321,4.321,0,0,1,.988.448,41.508,41.508,0,0,0,6.923,3.113c.583.2.665.035.711-.513.117-1.4.027-2.812.145-4.211.268-3.187.179-6.384.336-9.734m-13.878,50.6a18.255,18.255,0,0,0-.074,2.83c-.014,7.623-.291,15.243-.209,22.868.039,3.608-.074,7.219-.138,10.828-.037,2.064,0,4.13-.161,6.192a1.293,1.293,0,0,0,1.716,1.353,2.476,2.476,0,0,0,1.6-1.469,3.489,3.489,0,0,0,.017-1.909c-.087-1.08.011-2.175.025-3.264a62.5,62.5,0,0,0-.132-8.835,13.149,13.149,0,0,1,.083-4.2c.064-.331.29-.6.253-.972-.187-1.847-.346-3.7-.512-5.545a.743.743,0,0,0-.166-.5,2.4,2.4,0,0,1-.536-1.436c-.268-2.113-.567-4.221-.834-6.334a7.9,7.9,0,0,1,.007-2.976c.132-.511.437-.94-.185-1.344-.192-.124-.173-.449-.2-.7-.177-1.529-.364-3.057-.547-4.585m-24.6-136.5c-.454-.895-.794-1.715-1.262-2.454a12.174,12.174,0,0,0-2.373-3.043c-.2-.162-.378-.326-.661-.159-1.42.842-3.124,1.307-4.013,2.861-.7,1.224-2.049,2.089-2.059,3.7A5.042,5.042,0,0,1,20,66.68c-.348,2.453.453,5.74,3.194,6.956a1.486,1.486,0,0,0,1.6-.086,2.118,2.118,0,0,0,.724-.707,25.771,25.771,0,0,1,1.422-2.183A9.929,9.929,0,0,1,29.9,67.695c.71-.4,1.362-.91,2.138-1.436a13.99,13.99,0,0,1-3.257-.557c-.229-.078-.644-.1-.562-.46.07-.3.453-.248.712-.243.472.009.942.064,1.519.108m29.91-39.8a2.063,2.063,0,0,0,2.179,1.562,7.01,7.01,0,0,1,1.085.012.623.623,0,0,0,.759-.484c.388-1.136.735-2.285,1.147-3.415a2.768,2.768,0,0,0-.244-2.247c-.3-.565-.928-.3-1.394-.459a34.179,34.179,0,0,0-4.426-1.013,22.271,22.271,0,0,0-3.1-.127,10.984,10.984,0,0,0-4.414.521c-.5.186-.976.45-1.463.678l.044.174a4.05,4.05,0,0,1,2.777.288,2.974,2.974,0,0,1,1.73,2.126c.33,1.564.361,3.26-1.423,4.252a4.573,4.573,0,0,1-4.918-.314A4.241,4.241,0,0,1,47.584,24.3a2.9,2.9,0,0,1,.835-2.58,36.865,36.865,0,0,0-3.195,2.237.96.96,0,0,0-.335,1.392c.082.162.16.326.227.495a9.953,9.953,0,0,1,1.12,4.228c-.02.339.1.5.461.5a13.293,13.293,0,0,0,7.158-1.7A17.907,17.907,0,0,1,59.5,26.118c.342-.07.358-.259.3-.547-.127-.666-.174-1.352-.353-2-.184-.668.216-1.384-.27-2.038-.185-.249.134-.306.349-.2a2.522,2.522,0,0,0,2.4-.209,3.75,3.75,0,0,1,2.178-.361A1.133,1.133,0,0,1,65.23,21.99a1.74,1.74,0,0,0-1.316-.238c.572,1.26.944,2.493-.339,3.563-.987.822-1.706.837-3.22-.008M53.468,79.092a5.537,5.537,0,0,0-1.031.116c-.4.132-1.009.153-1.114.533s.41.7.71.993A57.684,57.684,0,0,1,57.4,86.76c.141.184.287.34.5.2.784-.53,1.76-.462,2.593-.891a11.865,11.865,0,0,1,3.251-.906,63.956,63.956,0,0,1,8.122-1.274c.168-.01.449.086.477-.238.022-.258-.174-.335-.365-.426a46.35,46.35,0,0,0-8.66-2.936,47.38,47.38,0,0,0-5.554-.785c-1.475-.192-2.962-.286-4.294-.41M13.739,250.92a4.071,4.071,0,0,0-1.182.2,12.66,12.66,0,0,1-2.925.7c-.254,0-.6.152-.743-.153-.155-.338.193-.513.39-.717A.616.616,0,0,1,9.5,250.8a9.668,9.668,0,0,0,2.989-1.521,1.757,1.757,0,0,0,.625-.731c.7-1.875,1.414-3.744,2.076-5.631a3.542,3.542,0,0,0,.448-1.685c-.118-.785-.292-1.561-.431-2.342-.055-.309-.162-.4-.5-.29-1.075.347-2.158.68-3.252.96a1.232,1.232,0,0,0-1.107,1.226,5.688,5.688,0,0,1-.2,1.065,38.5,38.5,0,0,1-2.348,6,2.293,2.293,0,0,1-.351.651,2.557,2.557,0,0,0-.262,2.409A9.492,9.492,0,0,1,8.5,254.85c.012.172.233.41-.07.526a.523.523,0,0,1-.552-.187c-.349-.369-.669-.765-1.033-1.188-.122,1.061-.281,2.059-.333,3.063-.022.425-.107.958.195,1.292.333.369,1.516.122,1.773-.318,1.182-2.023,2.872-3.681,4.07-5.694a5.743,5.743,0,0,1,.783-.846c.146-.158.39-.243.4-.578M105.5,77.09c.273-.047.381-.269.53-.429,2.368-2.564,4.717-5.145,7.1-7.7,2.554-2.735,5.148-5.432,7.7-8.164,2.356-2.517,4.681-5.063,7.03-7.586s4.712-5.028,7.059-7.551c1.39-1.494,2.747-3.018,4.138-4.511q3.78-4.057,7.589-8.087c.519-.548-.019-.832-.254-1.128-.3-.372-.46.084-.609.24q-2.814,2.952-5.6,5.929-5.513,5.869-11.021,11.744-5.211,5.541-10.436,11.068-4.889,5.183-9.778,10.365c-1.5,1.6-2.99,3.206-4.487,4.808-.121.129-.349.262-.1.42.363.228.765.393,1.137.578M31.049,75.546a3.5,3.5,0,0,0,.774-.008c2.008-.485,4.083-.582,6.088-1.081,1.206-.3,2.425-.552,3.634-.84.207-.049.605-.076.217-.443-.79-.748-1.535-1.552-2.384-2.225-1.612-1.279-3.3-2.462-4.925-3.726-1.2-.932-1.453-1.034-2.76,0-.849.669-1.582,1.5-2.424,2.2-.45.374-1.048.647-1.267,1.208a7.364,7.364,0,0,1-.961,1.689c-.647.881-.561,1.286.435,1.784a13.4,13.4,0,0,1,1.7.854,2.645,2.645,0,0,0,1.874.589M34.49,9.816c.029.294.056.587.088.881a18.33,18.33,0,0,0,1.925,7.37,9.541,9.541,0,0,1,1.337,3.316c.058.383.178.3.433.14a11.65,11.65,0,0,0,2.95-2.779.746.746,0,0,0,.1-.753,22.777,22.777,0,0,1-.946-6.023,30.5,30.5,0,0,1,1.047-8.815c.041-.14.2-.3,0-.419-.162-.1-.3.05-.427.136a25.112,25.112,0,0,0-6.349,6.44.729.729,0,0,0-.154.507m9.2,6.372c.981-.583,1.862-1.312,2.791-1.977a44.317,44.317,0,0,1,9.361-5.295.692.692,0,0,0,.4-.332,15.008,15.008,0,0,1,1.835-2.52c.262-.333.749-.611.8-.96.062-.463-.551-.648-.866-.956a9.145,9.145,0,0,0-4.207-2.37,1.286,1.286,0,0,0-1.5.472c-.725.983-1.49,1.94-2.178,2.949a57.074,57.074,0,0,0-3.315,5.039c-1.06,1.973-2.082,3.966-3.121,5.95m7.684,75.051-.152-.137c.008-.083-.012-.185.029-.247a6.647,6.647,0,0,1,2.3-2.49,6.738,6.738,0,0,1,1.266-.449c.709-.217.877-.685.359-1.176-.878-.831-1.509-1.861-2.335-2.733-.33-.349-.529-.315-.774.046-1.117,1.644-2.2,3.312-3.374,4.916a1.415,1.415,0,0,0,.034,1.836c.564.85,1.143,1.69,1.717,2.533a.944.944,0,0,0,.563.466,1.465,1.465,0,0,1,.827.56c.367.431.728.866,1.1,1.3a1.555,1.555,0,0,0,1.208.678,19.252,19.252,0,0,0,3.008-.406,7.574,7.574,0,0,1,1.9-.407,10.758,10.758,0,0,0,2.629-.823c-.422-.317-.767-.535-1.062-.807a15.054,15.054,0,0,1-3.328-3.822c-.776-1.449-1.814-.981-2.534-.148a1.479,1.479,0,0,0-.166.215,7.392,7.392,0,0,1-1.855,2.134c-.357-1.223.649-1.818,1.192-2.69a2.893,2.893,0,0,0-2.543,1.654m-4.815-3.146c-.056.086-.108.13-.1.16a1.265,1.265,0,0,0,.766.883c.3.123.332-.294.46-.477,1.242-1.784,2.461-3.584,3.71-5.363.234-.333.286-.533-.033-.857-1-1.016-1.981-2.046-3.078-2.962a.943.943,0,0,0-.785-.292c-3.1.435-6.135,1.225-9.245,1.587-.124.014-.293,0-.327.177s.15.2.235.295A19.9,19.9,0,0,0,40.6,83.376c1.745,1.4,3.611,2.624,5.353,4.017.248.2.557.369.61.7M66.339,219.172c.034-.01-.022-.011-.046.016-2.076,2.353-4.021,4.836-6.673,6.609a1.459,1.459,0,0,0-.705,1.364,65.866,65.866,0,0,0,.657,7.079c.11.7.641.889,1.188.418a43.1,43.1,0,0,0,4.683-4.809,4,4,0,0,0,.872-2.956c-.022-.591.019-1.176.022-1.763.008-1.983,0-3.967,0-5.957m-51.263.991c-.273.217-.248.465-.3.676-.7,2.786-1.086,5.643-1.882,8.405a1.847,1.847,0,0,0,.444,1.961c1.34,1.464,2.642,2.962,3.842,4.547.348.459.552.424.762-.132.862-2.289,1.7-4.586,2.566-6.875a.927.927,0,0,0-.111-.817,17.827,17.827,0,0,0-2.129-2.894,40.9,40.9,0,0,1-3.191-4.871m52.5-86.828a13.373,13.373,0,0,0,.156,2.3c.026.345.166.678.72.485a6.462,6.462,0,0,0,2.841-1.978,12.372,12.372,0,0,0,1.329-2.435,9.52,9.52,0,0,0,1.227-4.2,45.926,45.926,0,0,0-.3-6.242,2.067,2.067,0,0,0-.428-1.06,1,1,0,0,1-.144-1.13c.158-.368.468-.661.577-.994.581-1.792,1.564-3.421,2.056-5.249.311-1.154.367-1.139-.817-.92-.656.122-1.151.4-1.24,1.15a3.374,3.374,0,0,1-.264.694,6.449,6.449,0,0,0-.643,3.408,4.791,4.791,0,0,1-.046,1.758,1.814,1.814,0,0,0,.343,1.591c.262.329.516.753.169,1.179a16.024,16.024,0,0,1-1.9,2.307,5.944,5.944,0,0,0-1.581,2.075,18.657,18.657,0,0,0-2.057,7.258M103.8,91.228a2.587,2.587,0,0,0-.978-2.066,24.884,24.884,0,0,1-3.948-3.329,1.128,1.128,0,0,0-1.6-.138,15.935,15.935,0,0,0-4.568,3.994c-.586.734-.591.732.224,1.244.192.121.386.238.585.347,1.448.793,2.924,1.539,4.336,2.392a13.094,13.094,0,0,0,2.974,1.086.876.876,0,0,0,.715-.154,4.889,4.889,0,0,0,2.26-3.375M9.387,258.5c.509.048,1.025.121,1.544.141,4.648.18,9.305.06,13.95.4a1.363,1.363,0,0,0,.461-.095c.208-.062.3-.182.189-.408a9.363,9.363,0,0,0-1.487-2.5c-.2-.209-.655-.347-.664-.534-.037-.752-.565-.613-1.008-.68-.38-.057-.759-.127-1.134-.214a1,1,0,0,1-.406-.193c.178-.746-.478-.519-.744-.569a9.647,9.647,0,0,0-4.414-.081A9.036,9.036,0,0,0,9.387,258.5M71.172,117.9c-.034-.246.356-.717-.321-.767a18.513,18.513,0,0,0-2.691.025c-2.086.153-4.165.021-6.245.071a26.725,26.725,0,0,1-4.111-.251c-.5-.065-1.02-.375-1.519-.1a18.541,18.541,0,0,1-2.177.932c-.141.055-.355.042-.393.221-.048.228.19.289.326.376a62.435,62.435,0,0,0,6.753,3.917,1.242,1.242,0,0,0,.8.036,16.052,16.052,0,0,0,3.259-.924c1.738-.715,3.622-1.024,5.29-1.925.624-.337,1.663-.4,1.033-1.609m-16.491-1.4.005-.178c-.232-.082-.461-.177-.7-.245a46.243,46.243,0,0,0-7.734-1.711,4.23,4.23,0,0,0-1.479-.136c-2.229.533-4.452,1.1-6.715,1.467-.455.074-.544.275-.552.665-.021,1.089-.036,2.18-.11,3.267-.063.926-.107.88.816.679,2.542-.551,5.075-1.136,7.6-1.775a19.17,19.17,0,0,1,3.132-.752c1.992-.155,3.776-1.075,5.738-1.283m11.879,99.823a1.124,1.124,0,0,0-.372-1.223c-1.177-.986-2.317-2.027-3.57-2.908-1.184-.832-2.384-1.639-3.529-2.527-.244-.189-.433-.583-.91-.3-.429.255-.412.589-.39.98.106,1.872.326,3.734.447,5.606.08,1.23.377,2.517,1.945,2.821.107.021.2.114.3.151.962.336,1.74,1.041,2.733,1.327a.772.772,0,0,0,.944-.219c.715-.82,1.424-1.642,2.071-2.518a1.224,1.224,0,0,0,.327-1.192m172.061,31.744c-.026-.174.124-.532-.353-.338-1.405.573-2.841,1.081-4.206,1.737a9.646,9.646,0,0,1-1.812.993,76.648,76.648,0,0,0-10.284,3.872c-.3.12-.566.227-.551.656a12.891,12.891,0,0,1-.252,3.167c-.07.323.046.479.4.324.207-.09.439-.123.643-.219,1.517-.712,3.009-1.481,4.547-2.143a89.293,89.293,0,0,0,9.233-4.627c.392-.226.727-.6,1.181-.657.7-.088.948-.605,1.132-1.128a10.878,10.878,0,0,0,.317-1.638M43.378,74.29a16.734,16.734,0,0,0-3.119.681,73.414,73.414,0,0,1-8.87,1.333c-.283.029-.591.076-.693.344-.117.309.245.392.42.53a32.994,32.994,0,0,1,3.552,2.711,1.244,1.244,0,0,0,1.246.316c3.311-.526,6.584-1.243,9.88-1.842.487-.089.99-.094,1.479-.175.189-.032.523-.084.188-.412q-1.653-1.614-3.294-3.241a.773.773,0,0,0-.789-.243M56.5,64.279c2.487-.085,4.924-.434,7.367-.022a.77.77,0,0,0,1-.575,24.319,24.319,0,0,0,.8-5.09c0-.222-.022-.424-.3-.443a4.741,4.741,0,0,1-2.117-1.02c-.146-.089-.4-.147-.281-.377.094-.186.292-.035.427.009.624.2,1.242.426,1.864.634.338.113.493.018.5-.374.018-.864-.083-1.047-1.046-1.283a25.707,25.707,0,0,1-3.585-1.242c-.694-.284-.736-.265-.893.492a1.98,1.98,0,0,0-.03.268c-.234,3.391-1.773,6.246-3.714,9.023M66.071,241.2a22.113,22.113,0,0,1-3.916,2.872c-.321.15-.5.574-.083.81a.921.921,0,0,1,.373,1.167,7.848,7.848,0,0,1-1.094,2.31,4.345,4.345,0,0,0-.539,4.5,6.354,6.354,0,0,0,1.067,2.035.4.4,0,0,1,.023.507.222.222,0,0,1-.3.1c-.423-.291-.521,0-.5.31s-.027.715.51.7a16.829,16.829,0,0,1,1.906.007.828.828,0,0,0,.951-.615,18.257,18.257,0,0,1,2.64-4.585c.386-.462.946-.754,1.278-1.322-.332.008-.643-.138-.786.279-.366,1.066-1.347,1.1-2.272,1.388.081-.476.24-.909.049-1.228-.317-.528-.634.149-.983.1-.276-.037-.616.123-.759-.261s0-.623.35-.835A8.91,8.91,0,0,1,65.8,248.5c.2-.065.43-.145.374-.4-.1-.461.082-.959-.188-1.386-.031-.049-.219-.037-.315,0-.624.236-.721-.164-.838-.63-.159-.635.309-.62.66-.646.434-.033.594-.2.587-.635-.018-1.153-.006-2.306-.006-3.6m-7.3-118.445c-.02-.046-.026-.1-.055-.121a53.274,53.274,0,0,1-6.287-3.875c-.137-.1-.273-.2-.431-.133a33.907,33.907,0,0,1-3.961.825,30.1,30.1,0,0,1-3.23.717c-1.962.319-3.935.568-5.9.855-.514.075-1.022.2-1.536.274a.442.442,0,0,0-.407.393c-.024.275.258.2.407.223.513.08,1.032.126,1.548.188a21.934,21.934,0,0,0,3.76.531,33.261,33.261,0,0,1,7.768.44,14.267,14.267,0,0,0,2.208.22,29.708,29.708,0,0,0,3.657-.244,10.3,10.3,0,0,0,2.462-.292m-27.75-36.5c.445-.117.885-.4,1.39-.549a49.885,49.885,0,0,0,5.1-1.869c.341-.139.432-.3.081-.55-.845-.595-1.432-1.6-2.639-1.627a1.126,1.126,0,0,1-.532-.283q-2.609-1.9-5.21-3.822a1.713,1.713,0,0,1-.537-.683.867.867,0,0,0-.978-.545c-.457.1-.941,1.2-.789,1.675.714,2.227,1.63,4.387,2.138,6.685a1.863,1.863,0,0,0,1.98,1.568M42.242,255.793c1.314,0,2.629-.015,3.943.008.452.008.7-.18.739-.6a36.272,36.272,0,0,0,.312-4.471c0-.144.022-.365-.231-.3a3.583,3.583,0,0,1-1.346-.025c-2.394-.243-4.78.325-7.173.068-.209-.023-.381.039-.405.257a26.541,26.541,0,0,0-.271,3.01,15.873,15.873,0,0,1,.11,2c-.033.276.093.257.315.266a30.449,30.449,0,0,0,4.008-.217m172.9,3.693c1.178,0,2.356-.006,3.535,0,1.042.006,1.188-.119,1.271-1.179.08-1.017.168-2.033.225-3.051s.042-1.026-.946-1.087c-.09-.006-.179-.039-.268-.039a25.464,25.464,0,0,0-3.786-.045,16.554,16.554,0,0,1-3.586.081c-.418-.025-.577.085-.628.479a16.129,16.129,0,0,0-.088,4.289.914.914,0,0,1,.019.393c-.117.336,0,.346.313.359a33.025,33.025,0,0,0,3.94-.2M63.63,94.4c.15-.039.3-.083.456-.118,1.5-.344,2.883-1.073,4.421-1.278.221-.029.544-.035.593-.246.063-.27-.261-.394-.46-.518-1.245-.771-2.278-1.819-3.5-2.63a7.455,7.455,0,0,1-2.17-2.316c-.133-.217-.253-.371-.527-.3A12.71,12.71,0,0,0,57.9,88.808c-.214.156-.36.33.007.477a.411.411,0,0,1,.24.214,12.373,12.373,0,0,0,3.559,3.832A4.8,4.8,0,0,0,63.63,94.4M49.3,44.286a4.757,4.757,0,0,1,.674-.209A28.081,28.081,0,0,0,57.984,41a6.029,6.029,0,0,0,1.351-.9c.278-.265.261-.407-.076-.6-.926-.523-1.792-1.145-2.746-1.627a.91.91,0,0,0-.875-.035c-1.562.663-3.153,1.249-4.763,1.788a18.459,18.459,0,0,1-3.119.629c-.222.034-.489,0-.347.379.4,1.082.79,2.169,1.19,3.252.088.238.193.477.7.4M48.234,254.444c-.039.341.025.507.361.368.167-.069.351-.1.515-.176q4.84-2.244,9.676-4.5a.636.636,0,0,0,.357-.3c.411-.906.836-1.806,1.238-2.716a.549.549,0,0,0-.06-.584c-.106-.124-.249-.02-.376.014a86.571,86.571,0,0,0-11.057,4.158.53.53,0,0,0-.4.547,13,13,0,0,1-.253,3.181m19.141-64.078a49.88,49.88,0,0,1-7.121,6.274,59.406,59.406,0,0,1,6.766,5.652c.238-4.079.16-7.991.355-11.926M92.661,84.907c0-.181,0-.363,0-.544,0-.2.009-.408.008-.612,0-.755-.056-.788-.759-.517-1.112.428-2.214.888-3.343,1.266a6.828,6.828,0,0,1-2.72.532c-.6-.051-.8.226-.936.72a20.01,20.01,0,0,1-.8,2.8c-.24.562-.125.662.506.573.337-.047.675-.084,1.013-.124a11.589,11.589,0,0,1,4.051.119.733.733,0,0,1,.55.325c.216.352.732.578.963.388a2.751,2.751,0,0,0,1.087-1.42,18.135,18.135,0,0,0,.38-3.5M72,82.084c0-1.833,0-3.728,0-5.623,0-.115.012-.266-.137-.257-.464.03-.814-.352-1.3-.288-2.06.267-4.125.494-6.188.74-.248.03-.527.062-.593.36a7.843,7.843,0,0,1-1.15,2.22A74.171,74.171,0,0,1,72,82.084M61.08,141.265a31.208,31.208,0,0,0,4.887-3.206c.57-.442.937-.809.354-1.5a1.384,1.384,0,0,1-.178-.714,12.389,12.389,0,0,1-.019-2.369c.059-.658-.072-.711-.666-.444A20.921,20.921,0,0,1,61.6,134.2a16.656,16.656,0,0,1-4.29.538c-.354-.01-.5.137-.237.5.572.787,1.1,1.6,1.666,2.4.484.68.693,1.52,1.279,2.222.38-.576.731-1.11,1.084-1.643a17.031,17.031,0,0,0,1.324-3.043c.137-.333.278-.652.721-.493.418.151.39.506.324.856a13.593,13.593,0,0,1-.891,2.695c-.432,1.038-1.039,1.986-1.5,3.031M72.334,256.639c.441,0,.783-.029,1.12.007.446.048.614-.062.531-.553a12.632,12.632,0,0,0-.622-2.554c-.4-1.009-1.178-1.755-1.629-2.726a1.438,1.438,0,0,0-1.879-.533,11.9,11.9,0,0,0-1.711,1.525,14.6,14.6,0,0,0-2.384,3.845c-.458.913-.429.991.564.956a50.146,50.146,0,0,1,6.012.033M28.266,164.863a5.767,5.767,0,0,0,.7-.136c1.753-.6,3.545-1.086,5.262-1.8,1.4-.584,1.481-.605.654-1.908a59.869,59.869,0,0,1-3.686-6.964c-.02-.044-.1-.062-.174-.108l-2.754,10.917m3.756-74.991a7.262,7.262,0,0,0,1.412-.247,52.961,52.961,0,0,1,8.81-1.961c.2-.038.488,0,.548-.2.08-.261-.24-.341-.4-.481a36.312,36.312,0,0,1-3.133-2.376.653.653,0,0,0-.88-.157A66.265,66.265,0,0,1,32.1,86.777c-1.69.525-1.735.417-1.132,2.238a2.613,2.613,0,0,0,.125.317.937.937,0,0,0,.93.54m3.084,3.89A14.345,14.345,0,0,0,37.4,93.4c3.095-.289,6.112-1.026,9.157-1.6.2-.038.539.027.6-.214s-.212-.431-.4-.585a18.286,18.286,0,0,1-2.449-2.338,1.276,1.276,0,0,0-1.448-.276c-.682.173-1.39.211-2.056.408-.555.165-1.3-.026-1.652.452a21.3,21.3,0,0,1-4.049,4.512m37.208-1.683a6.794,6.794,0,0,1,1.033-.337,23.6,23.6,0,0,0,3.344-.588c1.272-.31,1.255-.314.635-1.424-.742-1.329-1.1-2.819-1.722-4.2-.2-.457-.409-.664-.941-.617a6.3,6.3,0,0,1-1.887.134c-.914-.192-.947-.168-1.062.747-.02.157,0,.317-.013.476a18.084,18.084,0,0,0,.614,5.811M46.8,2.913c0-.2-.008-.408,0-.611.034-.767-.152-.914-.878-.678-.537.174-1.068.369-1.61.527a3.489,3.489,0,0,0-2.747,3.466A1.774,1.774,0,0,0,41.94,7a9.372,9.372,0,0,0,3.822,2.368c.156.063.248-.015.345-.126a3.283,3.283,0,0,0,.885-3.016A12.8,12.8,0,0,1,46.8,2.913M81.528,84.632a31.816,31.816,0,0,1-4.764.424c-.4.014-.229.252-.156.408.411.881.857,1.746,1.251,2.634a9.709,9.709,0,0,0,1.154,2.142.545.545,0,0,0,.626.258c1.013-.246,2.018-.521,3.005-.858a.61.61,0,0,0,.44-.545,32.424,32.424,0,0,1,1.025-3.781c.113-.447-.04-.57-.381-.548-.662.042-1.3-.14-2.2-.133M53.092,35.589c.959.4,1.787.746,2.609,1.1,1.895.821,3.548,2.077,5.387,3a7.207,7.207,0,0,1,1.376.865c.468.387.66.336.836-.269.171-.587.245-1.2.416-1.789a.974.974,0,0,0-.646-1.3,8.487,8.487,0,0,1-1.712-.973,10.743,10.743,0,0,0-4.81-2.262.749.749,0,0,0-.526.01,22.4,22.4,0,0,1-2.93,1.61m-4.785,9.778c-.321-.788-.584-1.387-.81-2-.651-1.763-1.107-3.591-1.789-5.345a3.369,3.369,0,0,0-2.428-2.338,8.416,8.416,0,0,1-1.2-.466c-.121-.049-.242-.179-.369-.071s-.045.26-.011.385a23.669,23.669,0,0,1,.63,4.5,3.754,3.754,0,0,0,1.1,2.267,10.369,10.369,0,0,0,2.111,1.468c.829.567,1.741,1.014,2.765,1.6M70.861,85.336a5.787,5.787,0,0,1-2.17.307c-1.6.015-3.015.9-4.576,1.164-.209.035-.276.184-.086.326,1.2.895,2.118,2.111,3.373,2.946a15.181,15.181,0,0,1,2.329,1.746,1.766,1.766,0,0,0,.9.449c.392.088.649.038.545-.5a19.369,19.369,0,0,1-.455-4.512c.027-.623.079-1.247.143-1.924M48.374,23.963a3.1,3.1,0,0,0,3.085,2.952,2.97,2.97,0,0,0,3.018-2.934,2.547,2.547,0,0,0-2.658-2.664c-1.947-.13-3.411,1.087-3.445,2.645M221.618,160.98a1.818,1.818,0,0,0,.271-.047q3.776-1.444,7.552-2.888a.574.574,0,0,0,.429-.66,14.022,14.022,0,0,1-.012-1.7c.027-.466-.139-.537-.551-.422q-3.622,1.012-7.254,1.991c-.289.078-.439.184-.437.489,0,1.064,0,2.128,0,3.235M66.123,238.672a4.5,4.5,0,0,1,.007-.748c.083-.483-.111-.65-.579-.758A25.257,25.257,0,0,1,62.1,235.96c-.2-.078-.405-.418-.644-.11-.221.286-.61.459-.542.954.263,1.9.521,3.8.644,5.719.037.58.239.632.71.34.969-.6,1.766-1.432,2.721-2.037a1.94,1.94,0,0,0,1.129-2.154m-24.705-231a19.482,19.482,0,0,0,.57,8.665c.052.159.039.407.26.43s.331-.2.427-.376c1.02-1.913,1.868-3.916,3.027-5.755.235-.373-.052-.414-.286-.5a9.3,9.3,0,0,1-4-2.468m9.115,38.246c.45-.032.9-.061,1.35-.1a12.321,12.321,0,0,0,4.665-1.044c1.876-.939,3.558-2.258,5.614-2.843.158-.045.3-.126.253-.336a5.468,5.468,0,0,0-2.1-1.237.312.312,0,0,0-.115.07A10.48,10.48,0,0,1,57.852,41.9a29.05,29.05,0,0,1-4.6,2.152,26.046,26.046,0,0,1-3.58.989c-.155.026-.412.02-.422.255a.541.541,0,0,0,.3.429,1.664,1.664,0,0,0,.985.191M76.2,75.528a16.371,16.371,0,0,1-1.468,3.122,4.047,4.047,0,0,0-.847,3.441c.242,1.377.119,1.4,1.469,1.584s2.028-.092,2.574-1.018A.893.893,0,0,0,78,81.825a25.016,25.016,0,0,1-.861-3.211,23.088,23.088,0,0,0-.939-3.087m-2.335,2.283a18.769,18.769,0,0,0,1.784-3.359.539.539,0,0,0-.028-.462c-.7-1.7-1.072-3.514-1.779-5.206A89.722,89.722,0,0,0,68.7,58.83a4.807,4.807,0,0,0-1.08-1.7c-.206-.153-.466-.474-.687-.3s-.188.532,0,.853c.534.895,1.03,1.813,1.516,2.735a26.857,26.857,0,0,1,1.516,2.459c.96,2.39,2.682,4.415,3.331,6.963a17.417,17.417,0,0,1,.71,4.589c-.018,1.128-.093,2.255-.143,3.382m4.7,27.476c.674-1.635,1.308-3.156,1.927-4.684a.677.677,0,0,0-.252-.895,1.192,1.192,0,0,1-.567-.743c-.107-.708-.639-1.018-1.171-1.316-1.22-.682-1.226-.671-1.669.676-.071.215-.135.432-.22.641a2.19,2.19,0,0,0,.374,2.766c.156.14.2.4.307.6a14.127,14.127,0,0,1,1.271,2.953m-23.987,61.7,4.742-3.9c-2.088-.753-3.578-2.3-5.379-3.6l.637,7.5m.313-129.694a6,6,0,0,0-3.6-1.038c-.475.043-.911.239-1.393.289a13.319,13.319,0,0,1-4.03.033c.361.884.716,1.636.972,2.421.169.518.453.552.913.5a19.175,19.175,0,0,0,4.44-1.189c.9-.333,1.8-.676,2.7-1.014m20.951,64.75c-.387,1.282-.728,2.424-1.078,3.563a.794.794,0,0,0,.087.709,3.034,3.034,0,0,1,.033,2.917,9.8,9.8,0,0,0-.512,1.539,2.193,2.193,0,0,0,2.728-1.525c.271-.782.869-1.51.722-2.372a14.16,14.16,0,0,0-1.98-4.83m-13.5-59.2a29.851,29.851,0,0,0-3.274,1.567,10.524,10.524,0,0,1-5.321,2.061,1.158,1.158,0,0,0-.955.283,1.239,1.239,0,0,0,.276.13,20.2,20.2,0,0,0,5.1.475,3.351,3.351,0,0,0,2.224-.647,5.663,5.663,0,0,0,1.95-3.87M33.543,20.033c-1.28-.022-1.477.2-1.272,1.283a6.386,6.386,0,0,0,1.1,2.538,1.136,1.136,0,0,0,1.758.216c.269-.242.5-.522.754-.785a3.039,3.039,0,0,0,.256-3.932c-.144-.2-.218-.251-.4-.068a3.175,3.175,0,0,1-2.2.747M45.479,29.62c0-.031-.021-.142-.039-.253a28.528,28.528,0,0,0-1.326-3.975c-.119-.38-.33-.046-.447.041-.724.541-1.423,1.116-2.153,1.65-.522.382-1.137.7-.39,1.417a.434.434,0,0,1,.091.253c.118,1.1.891,1.436,1.834,1.586.335.053.662.15,1,.212,1,.187,1.4-.057,1.435-.93m8.937-11.227a1.043,1.043,0,0,0,.671.085,19.734,19.734,0,0,1,2.431-.106,38.273,38.273,0,0,1,6.952,1.11c.341.1.413-.029.337-.335-.135-.548-.278-1.095-.4-1.646-.186-.859-.552-1.163-1.458-1.048-1.432.182-2.859.4-4.283.634a20.49,20.49,0,0,0-4.253,1.3M41.594,139.054c-.386-.272-.768-.55-1.158-.815-1.437-.979-2.9-1.923-4.424-2.759-.416-.227-.59-.232-.667.33-.14,1.029-.382,2.045-.586,3.065-.1.506.062.771.613.733a4.218,4.218,0,0,0,.872-.12,4.373,4.373,0,0,1,1.479-.174c1.289.086,2.556-.26,3.872-.26M12.351,231.826c-.087.419-.143.725-.214,1.027-.418,1.779-.835,3.559-1.263,5.335-.1.4-.1.587.427.459,1.124-.271,2.173-.763,3.289-1.047.375-.1.216-.328.158-.528a16.147,16.147,0,0,1-.743-2.6c-.131-1.155-.9-1.8-1.654-2.642m20.838-51.792c1.148.233,1.969,1.168,3.126,1.287a.751.751,0,0,1,.414.223c.458.467,1.127.431,1.658.719.232.126.264-.091.319-.224.58-1.414,1.154-2.831,1.781-4.371-2.422,1.05-4.9,1.527-7.3,2.366m39.878,70.6c.125.751.816,1.016,1.031,1.579a9.985,9.985,0,0,1,1.008,3.486c0,.714.168,1.189,1.057,1.222a15.888,15.888,0,0,0,1.8.244c.244-.018.477-.092.192-.339a1.683,1.683,0,0,1-.454-1.168,5.629,5.629,0,0,0-1.041-2.457,8.31,8.31,0,0,0-3.6-2.567M33.876,11.658c-.137.239-.186.308-.219.383a14.633,14.633,0,0,0-1.09,5.487c-.056,1.713-.055,1.713,1.616,1.594.045,0,.091.011.135.007a1.135,1.135,0,0,0,.983-1.669,12.844,12.844,0,0,1-.722-1.968c-.311-1.2-.438-2.437-.7-3.833M47.608,2.852l-.045,0c.074,1.127.144,2.255.228,3.381.011.145-.01.354.171.411.212.067.254-.157.315-.281A16.88,16.88,0,0,1,49.89,4.124c.484-.678,1.016-1.322,1.537-1.972.087-.109.335-.117.232-.337-.077-.164-.258-.157-.418-.17-.719-.061-1.433-.142-2.158-.168-1.364-.048-1.428-.039-1.475,1.306,0,.023,0,.045,0,.068M18.524,205.046c-.515,1.542-.654,3.042-1.08,4.471-.162.544.055.555.482.429a17.615,17.615,0,0,1,3.846-.613c.514-.033.386-.213.179-.473a8.358,8.358,0,0,0-1.26-1.322,10.4,10.4,0,0,1-2.167-2.492m24.118,43.712.015.155c.846-.109,1.692-.211,2.537-.328.563-.078.558-.085.931.407a.44.44,0,0,0,.245.1,1.847,1.847,0,0,0,1-.03c1.356-.436,2.721-.841,4.085-1.25.517-.155,1.04-.29,1.559-.44.5-.144.992-.3,1.422-.426-1.168-1.233-2.349-.773-3.531-.063a2.329,2.329,0,0,1-.5.206c-.126.04-.3.109-.389.056-.419-.251-.786-.034-1.169.077-.347.1-.692.209-1.043.294q-2.579.627-5.161,1.243m184.964,1.811a3.956,3.956,0,0,1-1.594-.8c-.124-.131-.28-.1-.44-.031a11.307,11.307,0,0,1-3.377,1.1,30.853,30.853,0,0,0-4.385,1.074c-.747.2-1.508.344-2.354.534a.8.8,0,0,0,.7.083c.762-.1,1.522-.221,2.285-.32.218-.028.47-.09.64.114.508.609.567.627,1.324.372.515-.174,1.031-.346,1.553-.5,1.818-.531,3.639-1.052,5.644-1.631M74.141,102.709a3.676,3.676,0,0,0,.224-.413q.963-3.077,1.921-6.156a.822.822,0,0,0-.02-.529c-.265-.793-.514-1.591-.78-2.384-.067-.2-.08-.484-.417-.42-.29.056-.6.1-.635.488a7.591,7.591,0,0,0-.047.881,72.98,72.98,0,0,1-.247,8.534m4.866-6.124a8.428,8.428,0,0,1,2.033,1.878A7.145,7.145,0,0,0,80.3,91.98c-.519.917-.868,1.775-1.4,2.535-.218.313-.753.65-.536.989.254.4.855.282,1.329.252a.277.277,0,0,0,.067-.011c.393-.125.531.047.546.428s-.186.452-.51.415c-.2-.023-.4,0-.786,0M66.131,230.78a27.619,27.619,0,0,1-2.161,2.46,9.674,9.674,0,0,0-1.093,1.011c-.23.295-.311.5.124.706a10.343,10.343,0,0,0,2.918.942c.315.046.272-.165.273-.329,0-.565-.009-1.13-.013-1.694a18.081,18.081,0,0,0-.047-3.1M21.114,252.988a8.717,8.717,0,0,0-5.344-1.973,1.07,1.07,0,0,0-.648.129,7.43,7.43,0,0,0-2.339,2.613,10.684,10.684,0,0,1,8.332-.769M57.365,33.3a11.469,11.469,0,0,1,2.943,1.22.733.733,0,0,0,.718-.049A15.848,15.848,0,0,1,63.769,33.3c.342-.106.342-.229.086-.445a5.686,5.686,0,0,0-1.344-.788c-.277-.127-.434-.089-.4.271a.655.655,0,0,1-.374.736,3.871,3.871,0,0,1-2.235-.045,7.835,7.835,0,0,1,1.089-.386c.312-.1.716-.155.583-.655-.14-.528-.52-.3-.829-.236A13.787,13.787,0,0,0,57.365,33.3m1.881,186.42.465,4.637a20.1,20.1,0,0,0,2.556-2.313c.573-.631.564-.629-.25-.944a2.951,2.951,0,0,1-.717-.379,11.317,11.317,0,0,0-2.054-1M38.1,89.374c-.113-.029-.16-.058-.2-.049-1.444.357-2.886.722-4.331,1.075-.287.07-.291.213-.2.447.259.65.521,1.3.745,1.964.1.3.2.283.421.122a23.467,23.467,0,0,0,3.56-3.559m58.987-4.839c-.909-.536-1.76-1.086-2.658-1.547-.531-.272-.767-.055-.78.556-.008.384-.081.77-.053,1.149a24.659,24.659,0,0,0-.059,2.55c.981-1.248,2.405-1.7,3.549-2.708M61.692,25.087a1.663,1.663,0,0,0,1.618-2.566c-.193-.357-.451-.576-.875-.322a3.1,3.1,0,0,1-1.761.4c-.179-.007-.342-.048-.439.193a1.936,1.936,0,0,0,1.457,2.291M59.086,179.061a13.126,13.126,0,0,1-3.652-1.749c.127,1.4.258,2.7.357,4.005.036.47.186.4.484.192a35.365,35.365,0,0,0,2.811-2.448M69.063,64.432l-2.374-4.5a35.511,35.511,0,0,1-.723,4.049c-.1.329.187.266.319.276.874.068,1.75.111,2.778.172m-12.781,14.1,4.776.577a.533.533,0,0,0,.594-.221,11.488,11.488,0,0,0,1.126-1.923c-2.217.578-4.406.832-6.5,1.568M37.623,112.718c.052.579.1,1.092.144,1.606.033.378.262.394.578.363.973-.1,1.905-.389,2.859-.576.311-.061.679,0,1.025-.388a36.647,36.647,0,0,1-4.606-1.006m65.251-32.984c.122.036.262-.043.4-.189.31-.326.65-.624.96-.951.633-.67.6-.636-.139-1.177-.449-.329-.677-.26-.956.17-.27.414-.611.781-.907,1.179-.145.194-.471.38-.387.588.1.258.469.288.75.351.066.015.134.014.278.029M77.3,94.8A11.6,11.6,0,0,0,79,91.934a14.262,14.262,0,0,0-2.033.367c-.2.01-.261.141-.227.332A9.371,9.371,0,0,0,77.3,94.8M57.643,8.246a20.457,20.457,0,0,1,2.727-.594c.239-.015.355-.14.241-.353a3.619,3.619,0,0,0-1.124-1.253c-.208-.147-.338.017-.446.165a12.6,12.6,0,0,0-1.4,2.034M88.061,93.155c-.468.257-.669.682-.981,1a1.011,1.011,0,0,0,.13,1.623c.212.157.463.33.728.079.232-.22.6-.35.509-.79-.131-.612-.248-1.228-.386-1.912m-24.2-58.6c.068-.287-.073-.348-.371-.235-.252.1-.517.16-.761.27-.4.181-1.037.362-1.063.695-.031.409.593.578.986.785.179.094.358.191.528.3.284.183.4.08.442-.224.07-.513.154-1.023.24-1.591M15.407,235.331l-.151.123a20.717,20.717,0,0,1,1.2,3.889,12.246,12.246,0,0,0,.579-1.288c.1-.235.19-.454,0-.691-.545-.674-1.084-1.355-1.625-2.033M101.071,80.123c-.076.05-.168.108-.256.171-.651.464-.707.742-.394,1.736.091.289.185.4.436.135.4-.428.814-.846,1.216-1.273.086-.091.222-.21.013-.31-.324-.156-.655-.3-1.017-.459m1.061,3.923c-.077-.332-.177-.648-.465-.742s-.4.224-.517.429a2.4,2.4,0,0,1-.576.653c-.127.1-.392.183-.174.393s.432.74.744.512a2.271,2.271,0,0,0,.988-1.245M59.471,239.052a13.373,13.373,0,0,0-.185,2.922c.041.325.234.636.056.994-.075.151-.162.418.072.543a.618.618,0,0,0,.459.037c.267-.1.129-.345.105-.532-.166-1.322-.337-2.643-.507-3.964M88.92,92.381c.068.645.122,1.2.187,1.75.022.185,0,.5.328.25.354-.273.671-.595,1.005-.893.188-.167.167-.285-.063-.393-.461-.217-.916-.448-1.457-.714M99.834,83.03a6.382,6.382,0,0,1-.23-.693c-.11-.512-.211-.731-.707-.222-.779.8-.818.771.1,1.337.132.081.235.367.433.178.166-.159.4-.3.4-.6M35.56,25.551c-.029-.254.094-.534-.259-.577a.921.921,0,0,0-.859.8c0,.461.186,1.037.625.983.665-.082.253-.846.493-1.205M231.134,249.505l3.419-1.208a11.5,11.5,0,0,0-1.906.109,1.306,1.306,0,0,0-1.513,1.1M39.835,28.221c-.317.162-.64.314-.948.493-.08.046-.041.173.042.226a4.067,4.067,0,0,0,1.33.623.245.245,0,0,0,.288-.119,2.237,2.237,0,0,0-.711-1.223M58.2,245.827l1.728-.616c.132-.047.265-.114.252-.274-.018-.218-.2-.195-.358-.209a1.345,1.345,0,0,0-1.623,1.1M94.812,81.568c.732.282,1.313.5,1.891.731.188.074.3-.026.4-.159s.017-.215-.093-.262a2.641,2.641,0,0,0-2.194-.311m-5.089,9.921a3,3,0,0,0,1.755.926c.1.033.239.043.277-.1s-.095-.2-.187-.247a5.878,5.878,0,0,0-1.846-.575" transform="translate(0 0.003)" fill="#9ca3af"/>
        <path id="Path_309" data-name="Path 309" d="M453.2,1894.288a2.772,2.772,0,0,1,1.222-.137c.153,0,.269.069.25.242s-.164.2-.3.2a2.565,2.565,0,0,1-1.169-.3" transform="translate(-391.408 -1635.883)" fill="#9ca3af"/>
        <path id="Path_310" data-name="Path 310" d="M556.382,1909.791a2.627,2.627,0,0,1,1-.253c.107-.029.21.073.214.208,0,.1-.063.2-.153.191-.333-.022-.7.167-1.057-.146" transform="translate(-480.522 -1649.176)" fill="#9ca3af"/>
      </g>
    </g>
  </g>
</svg>
