<svg xmlns="http://www.w3.org/2000/svg" viewBox="0 0 38.85 56"><defs><style>.cls-1{fill:#edeeef;}</style></defs><g id="Layer_2" data-name="Layer 2"><g id="Layer_1-2" data-name="Layer 1"><path class="cls-1" d="M38.81,15.48a4.85,4.85,0,0,0-.06-.93c-.13-1.06-.25-2.12-.38-3.17a2.34,2.34,0,0,0-.12-.63,10.5,10.5,0,0,1-.69-1.05,3.45,3.45,0,0,0-.24-.44,11.26,11.26,0,0,1-.94-2.8A4.17,4.17,0,0,0,36,5.78C35.58,5,34.46,5,34.27,4c0-.06-.25-.06-.37-.06a16.62,16.62,0,0,1-5.1-1.81A12.13,12.13,0,0,0,25.75.81a39.75,39.75,0,0,0-5-.81C19,.25,17.24.44,15.56.68c-.62.13-1.12.56-1.74.75a16.18,16.18,0,0,0-4,2.05,1.35,1.35,0,0,1-1.06.37.75.75,0,0,0-.93.5,6.72,6.72,0,0,1-2,2.3c-.75.68-1.12,1.93-2.43,2-.12,0-.24.25-.37.37A17.67,17.67,0,0,0,.33,13.92c-.12.25-.31.63.19.87a1.09,1.09,0,0,1,.25.87C.58,16.78.33,17.84.08,19a4.33,4.33,0,0,0,.13,2.17A21.36,21.36,0,0,1,1,25.55V26c0,.38.07.75.07,1.12a26.69,26.69,0,0,0,.8,5,4.25,4.25,0,0,1,0,1.81A2.39,2.39,0,0,0,2,35.49c.31.62.68,1.31,1,1.93a13.93,13.93,0,0,1,1.25,2.36,11.33,11.33,0,0,0,.8,2.36,36.51,36.51,0,0,0,2.12,5c.12.18-.06.62-.13.93s-.12.43-.06.5c.81.93,1.56,1.86,2.36,2.73a19.44,19.44,0,0,0,2.12,1.87,2.94,2.94,0,0,0,1.36.74c2.18.31,4.17,1.43,6.28,2a2,2,0,0,0,2.3-.56,1.29,1.29,0,0,1,1-.49c.87-.19,1.74-.38,2.67-.63A7.32,7.32,0,0,0,29.3,51c.74-1.06,1.61-2.11,2.36-3.23.56-.81,1.06-1.68,1.61-2.49a1.9,1.9,0,0,1,.75-.62,2.7,2.7,0,0,0,1.62-1.86,11,11,0,0,1,.68-1.56c.5-1.12,1.43-2.17.62-3.6A1.19,1.19,0,0,1,37,37a3.32,3.32,0,0,0,.19-1.11,1.52,1.52,0,0,1,.75-1.43,1,1,0,0,0,.49-.81c.13-1.62.25-3.17.25-4.79,0-1.05-.18-2.05-.18-3.11,0-.68.24-1.36.24-2.05.13-2.73.13-5.47.07-8.2ZM24.63,28A1.5,1.5,0,0,0,23,29c-.13-.19-.13-.5-.31-.56s-.25,0-.44.19-.37-.07-.56,0A5.84,5.84,0,0,0,19,29a2,2,0,0,1-.56.18l-1.49.19c-.19,0-.44.06-.63.06s-.18.06-.31.06c-1.11.25-2.17.56-3.29.81l-.75.19c-1.36.31-2.67.68-4,1-.56.13-1.12.31-1.67.44L5.68,32a5.54,5.54,0,0,0-1,.69c-.37.18-.74.18-.68-.38s-.81-1.05-.44-1.67a11,11,0,0,1,1.18-1.19l.19-.18c.43-.38.81-.81,1.24-1.18.69-.63.69-.63,1.43-.13A6.55,6.55,0,0,0,10,29.15a5.63,5.63,0,0,0,6.78-3.85c.19-.81,1-1.43.93-2.36,0-.13.19-.25.37-.31a3.15,3.15,0,0,1,.75-.25,3.1,3.1,0,0,0,2.11-.87.39.39,0,0,1,.56-.06c.13.12.19.24.13.37a3.23,3.23,0,0,0,1.43,3c.06.07.18.07.18.19.94,1.62,2.61,1.74,4.23,2a7.89,7.89,0,0,0,3.79-.62,2.63,2.63,0,0,0,1-.56c1.49-1.62,2.61-3.36,2.3-5.66-.13-.81-.07-.81.8-.81,2.12.13,2.12.13,2.06,2.24,0,.31-.07.62-.07.93-.06,1.37-.24,2.8-.31,4.17,0,.43-.18.62-.62.56a17.85,17.85,0,0,0-2.67-.19h-.13c-1.3.06-2.54.25-3.85.37a29.43,29.43,0,0,1-5.1.56ZM2,25.18c.25-.25.43-.63.81-.81a8.79,8.79,0,0,1,5-1.37c1.74.12,3.54.06,5.28.12a2.13,2.13,0,0,1,.31.07l-.06.06c-.06.06-.12.18-.18.25l-.07.06-.31.18a1.37,1.37,0,0,1-.43.25.06.06,0,0,0-.06.07H12.2c-2.67.87-4.78,2.79-7.33,3.91A7.67,7.67,0,0,0,3.44,29c-.44.37-.44.37-.62-.25s-.31-1.31-.5-2A14.75,14.75,0,0,0,2,25.18Zm28-5.29c.13,0,.31-.06.44-.06a10.54,10.54,0,0,0,1.37-.06c.55-.06.8.18.8.68v.62a3,3,0,0,1-1.55,2.8,7,7,0,0,1-1.87,1.06c-2.05.62-3.73-.19-5.34-1.25a2.7,2.7,0,0,1-.75-1.05c-.62-1.18-.37-1.62.94-1.81l.43-.06c1.87-.25,3.73-.62,5.53-.87ZM15.87,23.56a.93.93,0,0,1,.31.37,5.13,5.13,0,0,1-2.67,3.3c-.69.24-1.37.43-2.11.62-.81-.25-1.62-.44-2.37-.69-.37-.12-.37-.43,0-.68A7.25,7.25,0,0,1,10,26h.06c.43-.18.93-.18,1.18-.74a.59.59,0,0,1,.31-.25l1.8-.62c.81-.31,1.62-.62,2.49-.87Zm2.8-17.65c.06-.07.12-.19.18-.25l.63-.44c.37-.25.74-.43,1.05-.68a13.28,13.28,0,0,1,1.62-1,20.28,20.28,0,0,1,3.23-1.36.62.62,0,0,1,.5,0c1.55.68,3,1.36,4.6,2.05.12.06.12.18.25.37-.13.06-.31.19-.44.25-1.12.43-2.3.81-3.36,1.24a18.6,18.6,0,0,0-1.8,1.18c-.25.13-.56.38-.81.31a9.52,9.52,0,0,0-1.18-.25A5.92,5.92,0,0,1,21.71,7c-.87-.37-1.8-.5-2.73-.81-.13-.06-.25-.18-.37-.24.06.06.06,0,.06,0ZM25.82,8a4.36,4.36,0,0,1,1.49-.87l1.92-.56.5-.13c.81-.24,1.62-.43,2.49-.68a2.69,2.69,0,0,1,3,.93.55.55,0,0,1-.06.62c-1,.44-1.31,1.5-1.93,2.18a7,7,0,0,1-.81.68L31.47,10c-.43-.06-.81-.19-1.18-.25C28.86,9.39,27.43,9,26,8.64c-.43-.19-.37-.5-.18-.62Zm11.43,3.17a.46.46,0,0,1-.31.12.48.48,0,0,1-.31-.06,3.93,3.93,0,0,0-2.55-.68c-.18,0-.43-.25-.62-.31a1.33,1.33,0,0,1,.31-.5,1.76,1.76,0,0,1,.5-.44c1.43-1.18,1.55-1.12,2.36.5.19.31.44.62.62.93a.36.36,0,0,1,0,.44ZM12.08,4a10.89,10.89,0,0,1,6-2.12,27.15,27.15,0,0,0,3.11-.18c.37,0,.68-.06,1.05-.06a1.21,1.21,0,0,1,.44.12c-.06.06-.13.12-.19.19l-.18.18a27.05,27.05,0,0,0-3.86,3.24,1.33,1.33,0,0,1-1.24.56l-.56-.19a18.39,18.39,0,0,0-2.61-.62,18.78,18.78,0,0,1-2-.81C12,4.29,12,4,12.08,4ZM7,6.84a8.27,8.27,0,0,0,.81-.69,2.42,2.42,0,0,1,2.8-.87C13,6.09,15.56,6,18,6.53A10.57,10.57,0,0,1,22,8a8.6,8.6,0,0,0,2.18.81.39.39,0,0,1,.25.06,69.9,69.9,0,0,0,7.15,2.24,10.84,10.84,0,0,0,2.11.87c.75.12,1.43.31,2.18.43.12,0,.24.06.37.06.56.07.74.32.74.87v1.06h-.06c.13.75.25,1.43.31,2.18s-.18,1.18-1,1-1.68-.43-2.49-.68c-1.12-.31-2.24-.56-3.35-.93-.38-.13-.75-.19-1.12-.32a5.8,5.8,0,0,1-.62-.24,1.45,1.45,0,0,1-.56-.5c-.13-.19-.56-.19-.81-.31a5.64,5.64,0,0,1-.93-.31A47.58,47.58,0,0,1,22,12.18a15.55,15.55,0,0,0-2.67-1c-.87-.38-1.8-.56-2.67-1a35.48,35.48,0,0,0-5.59-1.49,28.14,28.14,0,0,0-3.36-.31C7.42,8.27,7,8.21,6.86,8a.45.45,0,0,1,0-.56A.43.43,0,0,1,7,6.84ZM2.13,13.05A17.36,17.36,0,0,1,4.5,9.39a.89.89,0,0,1,.8-.25c2.61.43,5.22.93,7.84,1.43a8.23,8.23,0,0,1,1.18.18c.68.25,1.55.25,2.11.87.25.25.68.25,1.06.38a41.8,41.8,0,0,1,7.64,2.48c1.12.5,2.18,1.18,3.3,1.62.56.25,1.12.43,1.61.62s.93.31,1.37.5c.19.12.31.25.5.37-.19.06-.38.25-.5.25a1.43,1.43,0,0,0-.5.06l-.06.13c-.87.18-1.68.62-2.55.8-.31.07-.68.13-1.12.19-.37-.12-.8-.31-1.24-.5a7.85,7.85,0,0,0-1.49-.62,69.27,69.27,0,0,1-7.21-1.3,13.94,13.94,0,0,0-2.3-.25l-4-.56c-1-.13-2-.31-3-.44a9.27,9.27,0,0,1-1.36-.25,2,2,0,0,1-.81-.43c-.44-.37-1.31-.19-2-.25H2.88c-1-.19-1.12-.43-.75-1.37Zm-.37,6.16a10.24,10.24,0,0,0,.31-2.43c.06-.62.31-.87.93-.81H4.43v-.12l5.35.87c1.86.31,3.79.5,5.59.87,1.31.25,2.74.19,4,.93A4.59,4.59,0,0,0,21,18.9c.49.06.93.06,1.43.12s1.11.06,1.67.12c.19,0,.38.19.56.32a2.66,2.66,0,0,1-.49.31L23,20.08l-.32.12-3,.93a8.91,8.91,0,0,0-2.43.81.06.06,0,0,0-.06.06h-.06c-.37.07-.93-.24-1.37-.24-.93-.07-1.86-.13-2.86-.13a3.9,3.9,0,0,0-.8.25,2.1,2.1,0,0,1-.88.06,3.86,3.86,0,0,0-3,.06,1.33,1.33,0,0,1-.5.13,19,19,0,0,0-5,.62c-.12.06-.25.06-.37.12-.37.13-.69,0-.69-.49a9.32,9.32,0,0,1,.13-3.17ZM4.12,33.88c2.12-.5,4.17-1,6.28-1.56,1.12-.31,2.11-.87,3.23-1.18,1.62-.43,3.23-.81,4.91-1.18l1.18-.25h.13l2.61-.56.19-.06.49-.12c.13.06.31.18.44.12a.69.69,0,0,1,.31-.06,6.27,6.27,0,0,1,2.17-.19c.32.06.63-.37.88-.31a2.43,2.43,0,0,0,.93,0,2.2,2.2,0,0,1,.62-.12,2,2,0,0,1,.62-.06,2.2,2.2,0,0,1,1.24.37.93.93,0,0,0,.38.12c1.68-.06,3.35.19,5,.13h.13c.24,0,.43-.06.68-.06.81.06,1.06.49.93,1.61-.06.62-.18,1.18-.25,1.8a.9.9,0,0,1-.93.87,1.57,1.57,0,0,0-.56.07h-.87a20.87,20.87,0,0,0-4.47,0h-.19c-2.05.06-4.1.12-6.15.31A7.91,7.91,0,0,0,22,34c-.12.06-.18.31-.31.5a1.21,1.21,0,0,0,.44.12c.93-.06,1.8-.12,2.73-.12,3.3-.06,6.59-.06,9.82-.06h.63c.49-.06.74.12.68.74,0,.31-.06.56-.06.81-.13.87-.31,1.24-.81,1.37a4.35,4.35,0,0,1-1.56-.13c-.68-.12-1.36-.12-2.05-.18-2.3-.31-4.6-.69-6.9-1.06-1.11-.19-2.17-.37-3.23-.62l-1-.19c-.07,0-.19-.06-.25-.06-.06-.19-.25-.31-.37-.43-.5-.32-1.06-.07-1.62.06a12.11,12.11,0,0,0-4.29.68c-1.31.56-2.74.44-4,.87l-.13.06A18.62,18.62,0,0,0,5.8,37.92h0c-.68.37-.75.37-1.12-.31s-.74-1.18-1-1.74a2.91,2.91,0,0,1-.25-.5c-.44-.93-.25-1.24.74-1.49Zm6,7.33A5,5,0,0,1,11.46,41a15.06,15.06,0,0,1,2.92.12A43.12,43.12,0,0,1,19.1,42c1.06.25,2.24.18,3.3.43a17.94,17.94,0,0,1,1.92.5c.31.13.63.19.94.31a19.68,19.68,0,0,0,5.71,1,2.25,2.25,0,0,1,.63.06c.37.12.62.31.31.74a8.88,8.88,0,0,1-1.43,1.62,2,2,0,0,1-1.37.25h-.06a26.81,26.81,0,0,1-3.17-.31,2.43,2.43,0,0,1-.31-.06,4.23,4.23,0,0,1-.87-.25,22.51,22.51,0,0,0-4.54-.81,30.31,30.31,0,0,0-3.48-.25.3.3,0,0,0-.25.13c-.06.06-.12.12-.19.12s-.24-.19-.37-.25a.89.89,0,0,0-.37-.12,30.7,30.7,0,0,0-5.41.31l-1.31.18H8.66a.42.42,0,0,1-.5-.24c-.31-.75-.56-1.5-.87-2.24a4.8,4.8,0,0,1,2.8-1.87ZM24.57,52.4c-.12.06-.31-.06-.43-.06.06-.13.12-.31.18-.44a22.39,22.39,0,0,0,2.06-3.29A1.36,1.36,0,0,1,28,47.68c1.49.12,1.49.12.75,1.43a7.63,7.63,0,0,1-4.17,3.29ZM10.21,49.91a9.81,9.81,0,0,1-1.67-2,.69.69,0,0,1,.24-.63,4.2,4.2,0,0,1,1.12-.37c1.37-.25,2.74-.5,4-.68a3.74,3.74,0,0,1,.87-.13c.69.13,1-.31,1.37-.68.06.19-.12.5.37.37a2.48,2.48,0,0,1,1.5-.06,16.65,16.65,0,0,0,3,.68.91.91,0,0,1,.37.13c.13.12.25.18.37.31-.12.12-.18.25-.37.31a9.41,9.41,0,0,1-1.3.43,2.62,2.62,0,0,1-.44.13,15.24,15.24,0,0,0-3.23,1.55,1.74,1.74,0,0,0-.37.31,16.18,16.18,0,0,1-3.3,2,.68.68,0,0,1-.93-.18.26.26,0,0,1-.06-.13,6.43,6.43,0,0,0-1.49-1.37Zm12.06,2.86a2.79,2.79,0,0,1-2.55,1.87L19,54.51a11.86,11.86,0,0,1-4.6-1.42c-.43-.25-.5-.5-.19-.81a5.57,5.57,0,0,1,.87-.81c1.5-.93,3.05-1.93,4.6-2.8a20.11,20.11,0,0,1,3.05-1.43,3.36,3.36,0,0,1,1.74-.31,6.77,6.77,0,0,1,1.87.44c-.32.43-.56.87-.87,1.24-.07.06-.13.19-.19.25-.44.5-1,.93-1.43,1.43a22,22,0,0,0-1.62,2.48Zm11.38-9.44c-.25.06-.69-.19-1.06-.19-.74-.12-1.43-.19-2.17-.25-.44-.06-.87-.06-1.31-.12s-.81-.25-1.24-.31c-1-.13-1.93-.25-2.92-.44L24.32,42c-1.36-.19-2.73-.31-4.1-.5-1.06-.19-2.11-.5-3.17-.62a45.36,45.36,0,0,0-5.78-.62,10.75,10.75,0,0,0-3,.62c-.31.06-.55.19-.8.25l-.25.06c-.5.12-.81.06-1.06-.44-.43-.8-.37-.74.31-1.36a8.18,8.18,0,0,1,3.3-1.56h.06a25.25,25.25,0,0,0,3-1.24,2.18,2.18,0,0,0,.62-.25A6.6,6.6,0,0,1,15,35.93a10.24,10.24,0,0,1,2-.13c1.74-.06,3.6.75,5.53,1.12l.31.06h.06l.87.19c1.19.25,2.37.44,3.55.68a2.81,2.81,0,0,0,.74.13,24,24,0,0,0,3.11.37l.81.06c1.18.07,2.36.19,3.54.25h.13c.56.07.74.25.43.75-.37.75-.87,1.49-1.3,2.24a5.54,5.54,0,0,1-.44.62,10.12,10.12,0,0,1-.5,1,.2.2,0,0,1-.12.07c0-.07-.06-.07-.06,0Z"/></g></g></svg>