<svg xmlns="http://www.w3.org/2000/svg" viewBox="0 0 54.09 72.51"><defs><style>.cls-1{fill:#fff;}</style></defs><g id="Layer_2" data-name="Layer 2"><g id="Layer_1-2" data-name="Layer 1"><path class="cls-1" d="M38,72.51a39.15,39.15,0,0,1-5.41-.82c-.95-.21-4.39-1.25-5.26-1.59a45.53,45.53,0,0,1-10.54-6.37c-1-.76-2-1.56-2.9-2.34l-1.3-1.07a9,9,0,0,1-2.26-2.74l0-.08-.1,0A7.2,7.2,0,0,0,6.72,59,2.36,2.36,0,0,1,6.88,58l0-.15a2.91,2.91,0,0,0,0-1.91,1.46,1.46,0,0,0-1.38-1.09H5.39a6.59,6.59,0,0,0-1,.23,9.47,9.47,0,0,1-1.1.25L4,54.61A20.72,20.72,0,0,0,5.51,53a5.71,5.71,0,0,0,1.08-4.78A14.49,14.49,0,0,0,4.53,42.4a4.36,4.36,0,0,1-.77-3.2,2.41,2.41,0,0,0-.5-2,4.24,4.24,0,0,1-1-2.67,2.82,2.82,0,0,0-.7-1.68C.25,31-.21,28.77.08,25.67.13,25.18.25,25,.3,25a2.62,2.62,0,0,0,1-2.13c0-.15,0-.31.06-.47C1.79,19.18,2.68,15,5.43,11.64l.08-.09a.64.64,0,0,0,.22-.4A3.76,3.76,0,0,1,7.37,8.43c.26-.24.53-.49.77-.75C10.6,5,13.77,2.82,18.41.67A3.66,3.66,0,0,1,20,.19a1.74,1.74,0,0,1,.71.15,1.16,1.16,0,0,0,.44.07,4.71,4.71,0,0,0,.54,0h.06a36.35,36.35,0,0,1,12,.32,4.64,4.64,0,0,0,.93.11A2.4,2.4,0,0,0,35.69.54a2.25,2.25,0,0,1,1-.22,3.29,3.29,0,0,1,1.15.22A18,18,0,0,1,46.08,6a8.53,8.53,0,0,1,.85,1.38c.19.36.37.73.55,1.1a12.07,12.07,0,0,0,3,4.39,2.62,2.62,0,0,1,.71,1.19c1.12,3.51,2.28,7.13,2.21,10.93,0,.59-.06,1.2-.12,1.78a14.22,14.22,0,0,0,0,3.13c0,.14,0,.27,0,.41a2.23,2.23,0,0,0,.17.94c1.16,2.3.51,4.54-.29,6.43-.14.35-.31.7-.48,1A6.09,6.09,0,0,0,52,43.53a10.38,10.38,0,0,1,.31,4.21,5.45,5.45,0,0,1-2.09,3.86,2.75,2.75,0,0,0-1.07,1.71c-.06.29-.13.58-.2.87a12.46,12.46,0,0,0-.46,3.37,7.23,7.23,0,0,1-1,3.33l-.17.36-.59,1.15c-.26.48-.52,1-.75,1.48a33.27,33.27,0,0,0-1.17,3.21,1,1,0,0,0,0,.3,1.2,1.2,0,0,1,0,.2c-.56,2-4.44,4.93-6.59,4.93Zm-8.17-4.9a6.54,6.54,0,0,0-1.85.24l-.38.11.36.15a27.47,27.47,0,0,0,8.15,2.12c.34,0,.67,0,1,0a5.2,5.2,0,0,0,4.33-1.94l.4-.48a4.4,4.4,0,0,0,1.48-3.33v-.15l-.15,0a28.84,28.84,0,0,0-6.36,1.92,17.11,17.11,0,0,1-4.9,1.28,4.9,4.9,0,0,1-.7,0l-.64,0Zm11-7.42a1.49,1.49,0,0,0-.52.16A47.49,47.49,0,0,1,24,64.66h-.12a2.58,2.58,0,0,0-.39,0c-.23,0-.53.08-.63.42a.77.77,0,0,0,.4.83,1.51,1.51,0,0,0,.41.22l.07,0a10.14,10.14,0,0,0,2.42.32l.88,0c.72.06,1.43.09,2.11.09a18.49,18.49,0,0,0,8.27-1.8A12.1,12.1,0,0,1,40,63.94l.63-.16,2.58-.63a.79.79,0,0,0,.58-.45.46.46,0,0,0-.13-.47,9.79,9.79,0,0,0-2.65-2A.31.31,0,0,0,40.83,60.19ZM13.13,48.86a13.09,13.09,0,0,1-.41,3.9,13,13,0,0,0-.41,3.4c.11,2,1.31,3,2.58,4l.52.44c1.21,1,2.52,2,3.78,3l1.65,1.25.07.06.43-.25-.29-1.2c-.2-.79-.4-1.59-.58-2.4-.23-1-.41-2-.59-3-.26-1.41-.52-2.87-.93-4.29a5.37,5.37,0,0,0-1.65-3.06,15.21,15.21,0,0,0-3.69-1.88l-.51-.21Zm9.48,8.41a6.64,6.64,0,0,0-1.71.19l-.12,0v.12a26.91,26.91,0,0,0,.92,4.48l.12.47c.24.89.36,1.19,1.09,1.19l.63,0h.07A52.19,52.19,0,0,0,37,60.84,12.27,12.27,0,0,0,39,60c.42-.23.67-.42.69-.66s-.17-.45-.53-.74c-.54-.44-1.1-.87-1.66-1.3s-1.15-.89-1.71-1.35a2.26,2.26,0,0,0-1.48-.56,3.12,3.12,0,0,0-.76.1c-2.83.67-5.59,1.31-8.39,1.76a6.77,6.77,0,0,1-1.07.07h-.73ZM35.5,49.82a1.9,1.9,0,0,0-.7.14c-.91.38-1.83.75-2.8,1.13l-1.51.6.21.15a30,30,0,0,0,2.57,1.6,23.76,23.76,0,0,1,2.67,1.69c1,.72,1.93,1.44,2.88,2.12,1.71,1.25,3.48,2.53,5.12,3.94a1.22,1.22,0,0,0,.76.36c.3,0,.54-.2.74-.6a20.39,20.39,0,0,0,.85-2.16c.59-1.7.51-1.94-.92-2.87a25,25,0,0,1-2.81-2.25A16.73,16.73,0,0,0,36.48,50,3.34,3.34,0,0,0,35.5,49.82ZM6.79,54a1.09,1.09,0,0,1,.8.39,2.65,2.65,0,0,1,.54,2l0,.21.2-.06a4.14,4.14,0,0,0,2.12-1.78l.21-.28c1.75-2.32,2.08-4.59,1-6.93A18.77,18.77,0,0,0,9,43.11a5,5,0,0,1-1.25-3.39v-.14H7.62a7.81,7.81,0,0,0-1,.09,5.53,5.53,0,0,1-.74.08h-.1l0,.09a5.53,5.53,0,0,0,.13,2.62,19.48,19.48,0,0,0,.82,2,14.7,14.7,0,0,1,1,2.64c.4,1.58.69,3.12-.11,4.56-.08.16-.24.39-.4.64-.6.9-.85,1.32-.74,1.54a.24.24,0,0,0,.21.11Zm12.78-1c.19.76.36,1.44.55,2.11.35,1.25.43,1.31,1.58,1.37h.23l.73,0A29.07,29.07,0,0,0,29,55.52l.3-.07.93-.18a9.63,9.63,0,0,0,2.75-.8l.21-.1-.2-.13a9.71,9.71,0,0,0-5.43-2l-.59,0c-.49.05-1,.06-1.45.07h-.81a23,23,0,0,1-5.26-.63l-.22,0ZM47.1,52A6.29,6.29,0,0,0,43.63,53l-.11.08.08.11c.63.88,1.56,1.92,2.45,1.92a.91.91,0,0,0,.23,0c.9-.19,1-1.47,1-2.5l0-.3a.29.29,0,0,0-.07-.18L47.23,52l0-.07Zm-4.3-4.52a7.43,7.43,0,0,0-.81.09l-.19,0a12,12,0,0,0-3.3,1.18l-.78.36-.25.12.25.13c.26.15.51.27.74.38a4.36,4.36,0,0,1,1.06.62,5,5,0,0,0,3.4,1.41,5.89,5.89,0,0,0,2.48-.6,3.66,3.66,0,0,1,1-.24,2.9,2.9,0,0,0,1.48-.49l.1-.07-.06-.11a4.4,4.4,0,0,0-1.57-1.45l-.25-.16a1.35,1.35,0,0,0-.67-.29c-.43,0-.55.52-.59.7a1,1,0,0,1-1,.78h0l-.22,0-.4,0a6.39,6.39,0,0,1-1.75-.4,2.61,2.61,0,0,1,1-.24,3.44,3.44,0,0,0,.64-.12.82.82,0,0,0,.69-.81c0-.34-.19-.75-.89-.75H42.8ZM8.67,40.1c-.17,1.18-.16,1.24.6,2.08.93,1,1.9,2.12,2.76,3.27a14.8,14.8,0,0,0,7.37,5.22,15.62,15.62,0,0,0,5.1.81,27.61,27.61,0,0,0,7.82-1.32,31.69,31.69,0,0,0,3.21-1.22c.57-.24,1.15-.48,1.73-.7l.34-.13a19.93,19.93,0,0,1,5-1.44l.46,0a4.1,4.1,0,0,1,1.7.38,13.3,13.3,0,0,1,4.51,3.1l.11.12.1-.14a6.53,6.53,0,0,0,.69-6.17,2.16,2.16,0,0,0-1.41-1.43,11.47,11.47,0,0,0-2.39-.6,12.73,12.73,0,0,1-1.82-.41l-.09,0-.06.07a.92.92,0,0,0-.06,1.09.88.88,0,0,1,.12.55,1.83,1.83,0,0,1-.66-2,1,1,0,0,0-.11-.84,1.09,1.09,0,0,0-.9-.35,8.66,8.66,0,0,0-2.37.3,43.73,43.73,0,0,0-6.37,2.37,19.83,19.83,0,0,1-8.74,1.8c-.88,0-1.81,0-2.82-.12A31.49,31.49,0,0,1,8.88,40l-.18-.11ZM25.3,30.91a25.75,25.75,0,0,0-5.12,2.61,1,1,0,0,0-.45,1.14c.06.27.14.54.22.8l.18.64c.09.34.18.68.28,1A12,12,0,0,1,21.05,42c-.11.76.15,1.11.95,1.25a20.72,20.72,0,0,0,3.48.26l1.16,0a15.91,15.91,0,0,0,5.85-1.14l1.17-.52A24.75,24.75,0,0,1,42,39.33a.89.89,0,0,0,.67-.28,1.19,1.19,0,0,0,.12-.92,20.87,20.87,0,0,1-.08-3.8c0-.67.06-1.35.05-2a4.49,4.49,0,0,0,2.17.55,7.66,7.66,0,0,0,2.3-.43,4.85,4.85,0,0,1,1.38-.2,6,6,0,0,1,1.65.24A1.86,1.86,0,0,1,51.71,34a2.64,2.64,0,0,1-.58-.2,1.94,1.94,0,0,0-.77-.22,1,1,0,0,0-.61.21l-.08.06,0,.1c.61,2,.66,3.52-1,4.7a3.78,3.78,0,0,1-2.19.73,5,5,0,0,1-2.64-.88l-.4-.25.21.43c.62,1.3,1.31,2.46,2.88,2.46l.44,0h.18a3.11,3.11,0,0,1,.9.17,2,2,0,0,0,.57.09,1.42,1.42,0,0,0,1.32-1c.66-1.46,1.4-2.9,2.13-4.29l.07-.14a4.43,4.43,0,0,0,.15-3.18,1.33,1.33,0,0,0-.93-1c-1.93-.65-3.89-1.33-5.78-2l-1.24-.43a30,30,0,0,0-6.73-1.25l-1.42-.16a13.9,13.9,0,0,0-1.57-.09A11.71,11.71,0,0,0,29.39,29l-.28.14.29.12a3.61,3.61,0,0,0,1.29.19H31a2.63,2.63,0,0,1,.88.11c3.55,1.25,4.6,3.48,3.49,7.44a3.17,3.17,0,0,1-1.54,2,7.16,7.16,0,0,1-3.49.93,8.1,8.1,0,0,1-3.37-.78,3.68,3.68,0,0,1-2-2.16c-.61-1.78-1-3.86.57-5.82l.3-.37ZM13,37.92l.07.12A7.56,7.56,0,0,1,14,40.55a1.2,1.2,0,0,0,.7,1l.41.18a10,10,0,0,0,3.55,1h.3c1,0,1.19-.25,1.27-1.32a5.48,5.48,0,0,0-.09-1.35,39.72,39.72,0,0,0-1.32-5.2l-.05-.17Zm-1.43.56a1.76,1.76,0,0,0-1.22.74l-.08.1.1.09a3.29,3.29,0,0,0,2.21,1.16l.19,0,0-.19C12.68,39.19,12.25,38.48,11.61,38.48Zm35.64-25a33.82,33.82,0,0,0-8.66,1.38,61.94,61.94,0,0,0-21.94,11l-.14.11a28.2,28.2,0,0,1-7.65,4.75A1.49,1.49,0,0,0,7.75,32.4,5.64,5.64,0,0,1,7,36a7.42,7.42,0,0,0-1,3.07l0,.1.1,0a1.29,1.29,0,0,0,.5.11,1.66,1.66,0,0,0,.62-.15l.2-.07a39.09,39.09,0,0,0,12.43-6.16,21.09,21.09,0,0,1,2.61-1.71A78.34,78.34,0,0,1,33,26.69a36.1,36.1,0,0,1,12-2.13,34.72,34.72,0,0,1,3.52.18l.9.12c.4.06.82.12,1.23.15h.25a1,1,0,0,0,.81-.27,1.11,1.11,0,0,0,.11-.93l-.08-.38a32.13,32.13,0,0,0-2.69-9,1.74,1.74,0,0,0-1.77-1Zm-17.64,17a4.48,4.48,0,0,0-3.77,2.23c-.93,1.34-.44,2.73.23,4a3.43,3.43,0,0,0,2.34,1.77,5.82,5.82,0,0,0,2,.37,4.3,4.3,0,0,0,4.47-4.22,3.35,3.35,0,0,0-1.61-3.18,6.64,6.64,0,0,0-3.33-1Zm14.77,3.7a.74.74,0,0,0-.73.58A3.18,3.18,0,0,0,45.3,38.2a2.17,2.17,0,0,0,.74.12,4.16,4.16,0,0,0,1.77-.46A2.28,2.28,0,0,0,49,36.18a2.32,2.32,0,0,0-.58-2,.91.91,0,0,0-.67-.3,1,1,0,0,0-.37.07,6.18,6.18,0,0,1-1.93.31,6,6,0,0,1-.94-.07Zm-38.84-1a1.21,1.21,0,0,0-1.19.81,1.7,1.7,0,0,0,.18,1.41.83.83,0,0,0,.6.43H5.2c.53,0,.64-.41.71-.71,0-.09,0-.18.08-.25.27-.84.32-1.23.18-1.46a.44.44,0,0,0-.35-.21A1.37,1.37,0,0,0,5.54,33.1ZM3.25,25.69c-1,0-1.2.54-1.22,1.46a7.84,7.84,0,0,0,1,4A1.86,1.86,0,0,0,4.67,32.3a2.24,2.24,0,0,0,1.2-.39,7.9,7.9,0,0,0,.79-.61,7.36,7.36,0,0,1,.78-.6,3,3,0,0,0,1.35-2.47,5.34,5.34,0,0,0-.73-3.29L8,24.82l-.11.08a6.15,6.15,0,0,1-3.32.85c-.3,0-.61,0-1,0Zm33,1.59a25,25,0,0,1,7.7,1.12c.83.26,1.69.48,2.51.7a28.72,28.72,0,0,1,5,1.64l.18.08,0-.19a6.83,6.83,0,0,0-.11-2c0-.25-.08-.48-.1-.72-.17-1.83-.64-2.26-2.51-2.29H44.29A29.17,29.17,0,0,0,38,26.2l-.22.05a3.09,3.09,0,0,0-1.7.79l-.26.24ZM18.66,2.39a.67.67,0,0,0-.32.1,37.39,37.39,0,0,0-10.24,8,2.05,2.05,0,0,0-.64,1.23c-.13,3.13-.28,6.68.73,10,.21.71.48,1.42.75,2.1a14.35,14.35,0,0,1,1.22,5v.21l.19-.08a18.76,18.76,0,0,0,5-3.37,2.1,2.1,0,0,0,.72-2.16c-.82-5.36-.25-10.88,1.78-17.36l.78-2.46L19,2.57l-.07,0A.45.45,0,0,0,18.66,2.39Zm-12.41,12A4.39,4.39,0,0,0,5,16.15a3.54,3.54,0,0,1-.16.34,22.77,22.77,0,0,0-1.79,6.88l0,.12c-.06.44-.16,1.09.59,1.26a6,6,0,0,0,1.28.15,3.7,3.7,0,0,0,1.39-.25c1.23-.49,1.48-1,1.07-2.36A18.05,18.05,0,0,1,6.59,17c0-.51,0-1-.07-1.6,0-.29,0-.6,0-.94v-.27ZM18,9.55c-1,3.78-1.91,8.28-.46,12.94l0,.13.14-.05.21-.06c.12,0,.22-.06.28-.15,1.13-1.55,2.25-3.11,3.38-4.67l2.3-3.19a.77.77,0,0,0,.18-.64.76.76,0,0,0-.49-.47A15.15,15.15,0,0,1,18.21,9.5L18,9.31Zm18.84-7a2.57,2.57,0,0,0-1.9.92L34,4.38c-3.86,4-7.85,8.07-11,12.8-.66,1-1.34,2-2.05,3L19.8,21.9l.33-.07.33,0a1,1,0,0,0,.39-.1,70.47,70.47,0,0,1,18.51-8.06,1.55,1.55,0,0,0,.92-.51A24.93,24.93,0,0,1,44.5,9a1,1,0,0,0,.42-.62.94.94,0,0,0-.29-.66A16.74,16.74,0,0,0,38,2.81,3.18,3.18,0,0,0,36.81,2.55Zm8.52,7.2a.56.56,0,0,0-.39.16c-.18.17-.37.32-.56.48a5.64,5.64,0,0,0-1.86,2.25l-.09.21,5-.39-.06-.17A5.36,5.36,0,0,0,46,10.12,1,1,0,0,0,45.33,9.75ZM26.45,1.29a2.27,2.27,0,0,0-.42,0c-.88.15-1.75.39-2.6.62-.42.11-.84.23-1.26.33a4.11,4.11,0,0,0-3.31,3.47c-.86,1.39-.56,2.68,1,4a14.72,14.72,0,0,0,2.68,2,4,4,0,0,0,1.84.62c.77,0,1.36-.49,2-1.68a3.5,3.5,0,0,0,.32-1.77V8.86a38,38,0,0,1,.44-6.4,1.19,1.19,0,0,0-.11-1A.76.76,0,0,0,26.45,1.29Zm2.89.15c-.47,0-1.08.21-1.23,1.23a30.18,30.18,0,0,0-.44,5.78.49.49,0,0,0,.47.49h.06l6.48-6.48-.2-.08a14.81,14.81,0,0,0-3.72-.78l-1.14-.14Z"/></g></g></svg>