<svg xmlns="http://www.w3.org/2000/svg" xmlns:xlink="http://www.w3.org/1999/xlink" width="240" height="241.696" viewBox="0 0 240 241.696">
  <defs>
    <clipPath id="clip-path">
      <rect id="Rectangle_56" data-name="Rectangle 56" width="240" height="241.696" fill="#9ca3af"/>
    </clipPath>
  </defs>
  <g id="Group_93" data-name="Group 93" transform="translate(0)">
    <g id="Group_92" data-name="Group 92" transform="translate(0)" clip-path="url(#clip-path)">
      <path id="Path_277" data-name="Path 277" d="M81.06,183.272c.745-.074.705.672,1.389.708a6.413,6.413,0,0,0-.341-2.961,26.921,26.921,0,0,1-6.678,3.4c-.867.283-.552,2.746.409,3.649.346.326.979.3,1.137.993-.57.447-1.19-.5-1.623-.053-.256.263-.254.789-.337,1.2-.109.546.2.817.694.891.98.146,1.97.238,2.944.417.387.071.961.144.816.772-.108.467-.546.423-.923.376a30.91,30.91,0,0,0-4.718-.338c1.066.693,2.136,1.377,3.194,2.082.342.228.889.445.551.985s-.795.123-1.127-.078a27,27,0,0,0-7.609-3.469,19.935,19.935,0,0,0-8.473-.632,8.385,8.385,0,0,0-6.387,5.119c-.831,1.776-1.394,3.678-2.276,5.467a10.013,10.013,0,0,1,1.92-7.29c2.965-4.04,7.1-5.343,11.85-4.547,2.585.433,5.223.147,7.76.841.536.147.872-.047.957-.564a6.666,6.666,0,0,0,.3-2.933c-1.237-4.555-2.482-9.108-3.67-13.677a1.534,1.534,0,0,0-1.654-1.345c-5.159-.161-10.317-.358-15.475-.547-.285-.01-.507-.153-.7.294a6.44,6.44,0,0,1-7.143,3.551c-1.733-.469-3.362-.723-4.983.282a2.5,2.5,0,0,1-2.437-.045c-1.38-.541-2.534-1.6-4.091-1.736-.854-.077-.812-.661-.427-1.205.428-.605.938-1.152,1.656-2.017-2.426-.158-4.6-.333-6.776-.437Q15.1,169.778,1.4,169.163c-.125-.006-.25,0-.373-.009-.51-.036-1.094-.071-1.021-.771.076-.736.71-.54,1.176-.516,4.532.225,9.064.466,13.6.693,6.893.345,13.789.641,20.677,1.062a3.829,3.829,0,0,0,3.131-1.229c2.594-2.483,3.3-2.465,5.694.294.838.967,1.537,1.336,2.588.37.534-.49,1.326-.8,1.865-.228,1.762,1.875,4.053,1.607,6.252,1.711,4.659.22,9.319.4,13.98.587a8.794,8.794,0,0,0,1.117-.1c-.875-4.236-2.617-8.114-3.726-12.183-3.187-11.7-6.705-23.3-9.485-35.108a8.221,8.221,0,0,1-.47-2.923c.264-1.739-.3-2.142-1.976-2.11-4.358.083-7.906-1.32-10.346-5.339a27.633,27.633,0,0,1-3.72-8.043A58.769,58.769,0,0,1,40.7,75.789c.613-2.216,1.172-4.455,1.947-6.615.474-1.323-.032-1.477-1.123-1.517q-11-.4-22-.859c-4.968-.207-9.934-.451-14.9-.692-.514-.025-1.316.158-1.227-.695.086-.818.879-.494,1.368-.474Q18.28,65.5,31.792,66.1c.616.027,1.235,0,2.056,0a14.539,14.539,0,0,1,1-11.49A106.952,106.952,0,0,0,23.963,54.1c-6.959-.265-13.919-.475-20.879-.715-.538-.019-1.357.088-1.327-.644.039-.948.964-.57,1.491-.554,10.2.305,20.393.587,30.583,1.032,1.717.075,2.961-.759,4.371-1.288,1.682-.632,3.28-1.488,4.917-2.243a1.736,1.736,0,0,0,1-1.845c-.1-.695-.936-.343-1.434-.353-9.518-.185-19.037-.336-28.555-.528-.515-.01-1.471.422-1.446-.589s.936-.513,1.465-.507q14.749.169,29.5.364c.523.006,1.087.238,1.57-.283,3.368-3.636,7.849-3.938,12.374-4.081,8.39-.265,16.8-.274,25.1-1.822,1.193-.223,1.966-.434,1.671-1.933-.213-1.083.49-1.644,1.544-1.955,2.743-.809,5.449-1.742,8.186-2.57.745-.225,1.232-.4,1-1.366-.691-2.909-1.366-5.832.035-8.749a1.133,1.133,0,0,0-.071-.9c-1.767-3.158-.465-6.174.455-9.174.868-2.829,1.514-5.723,3.535-8.121C102.838.776,107.585-.7,113.234.3c6.136,1.084,11.014,3.987,13.2,10.1,1.728,4.825.8,9.574-1.356,14.1-.946,1.986-.627,3.229,1.246,4.16a2.906,2.906,0,0,1,1.483,1.594c.152.388.074.988-.232.945-1.487-.209-2.126,1.439-3.483,1.408a1.228,1.228,0,0,0,.116.382c.617.748,2.382-.6,2.313.989-.084,1.908-1.877,2.873-3.823,2.408-.348-.083-.686-.208-1.1-.338a7.779,7.779,0,0,0,6.935,5.748,49.851,49.851,0,0,1,9.86,1.944,4.181,4.181,0,0,1,2.535,2.573,2.323,2.323,0,0,0,2.41,1.522q25.929.686,51.855,1.519,19.21.586,38.42,1.2c1.678.052,3.358.082,5.034.18.5.029,1.352-.212,1.355.574,0,.986-.924.616-1.455.6q-9.049-.2-18.095-.486a3.847,3.847,0,0,0-1.631.216c-4.6,1.867-9.192,3.731-13.791,5.851,3.486.129,6.972.272,10.459.384,4.663.149,9.327.265,13.989.419.55.018,1.456-.265,1.381.717-.061.8-.863.5-1.368.484-8.7-.278-17.4-.532-26.1-.9-1.717-.073-2.477.536-2.782,2.15a24.563,24.563,0,0,0,.206,10.367c.238,1.007.739,1.22,1.681,1.258,7.207.292,14.413.637,21.618.971q2.42.113,4.839.27c.458.03,1.174-.143,1.172.563,0,.873-.812.586-1.283.571-4.1-.137-8.2-.282-12.3-.493q-8.1-.416-16.2-.694c-7.08-.232-14.15-.754-21.226-1.1-8.507-.418-17.017-.758-25.522-1.2-1.493-.077-1.692.323-1.16,1.628,1.148,2.819,1.759,5.825,3,8.622a3.532,3.532,0,0,0,4.847,1.723,40.38,40.38,0,0,0,3.552-2.724c.186-.146.5-.431.455-.524-.968-2.229,1.047-1.732,1.876-1.822,1.807-.2,3.643-.534,5.454.491.625.354,1.821-.475,2.67-.312,2.856.547,5.648-.337,8.473-.181.745.041,1.714-.058,1.943.734.282.975-.776,1.081-1.418,1.371-.386.175-1.017.231-.846.778.231.741.788.193,1.2.1a5.89,5.89,0,0,1,5.759,2.7,11.759,11.759,0,0,1,.193,9.072c-.159.47-.388.916-.562,1.381-1.179,3.144-1.586,3.346-4.968,2.5a4.123,4.123,0,0,0-.929-.009c.173.98,1.027.638,1.5.948.585.382,1.3.689,1.283,1.458s-.684,1.154-1.388,1.314a10.925,10.925,0,0,1-5.884-.076,2.005,2.005,0,0,0-1.617,0c-1.727.691-3.564.391-5.361.341-.692-.019-1.293-.121-1.678.7a1.608,1.608,0,0,1-1.638.693c-1.179-.042-2.358-.153-3.531-.286-.549-.062-1.458-.376-1.06-.914,1.17-1.58-.378-2.011-1.007-2.748a17.018,17.018,0,0,0-2.173-1.867,9.037,9.037,0,0,1,.209,4.6c-.689,2.4-1.623,3.072-4.036,2.6-4.368-.857-8.285-3-12.457-4.426-1.172-.4-2.593-1.433-3.44-1.078-1.062.446-.278,2.205-.533,3.379-.342,1.577-.377,3.222-.753,4.788-.271,1.128.187,1.319,1.1,1.582,4.629,1.329,9.455,1.459,14.141,2.408a50.36,50.36,0,0,1,10.218,2.859,5.983,5.983,0,0,1,3.306,3.042,45.476,45.476,0,0,1,3.007,8.609,4.9,4.9,0,0,1-.154,2.569c-1.888,6.969-2.784,14.153-4.536,21.146-2.189,8.74-4.53,17.442-6.9,26.136-.369,1.356-.22,1.795,1.223,1.747,1.364-.045,2.734.131,4.1.15.437.006,1.126.275,1.231-.438.085-.573.2-1.283-.458-1.685-.529-.325-1.193-.539-.9-1.374.267-.762.968-.94,1.636-1.068a66.766,66.766,0,0,1,12.082-.756c2.6-.02,5.206-.39,7.755.595,1.937.749,2.269,1.688.779,3.165a2.776,2.776,0,0,0-.677,2.585c.147.818,1.154.377,1.77.412q19.644,1.11,39.29,2.173a1.52,1.52,0,0,1,.371.033c.484.152,1.372-.19,1.347.592-.03.928-.955.579-1.488.562-2.61-.085-5.218-.228-7.825-.372q-16.291-.9-32.582-1.83c-1.108-.064-1.636.193-1.877,1.412-1.144,5.788-2.4,11.555-3.635,17.325-.3,1.4-.555,2.866-2.422,3.1-.792.1-.427.735-.419,1.186.067,3.789.081,3.96-3.651,4.263a70.251,70.251,0,0,1-13.782.026c-2.233-.257-4.079-1.452-6.1-2.228-2.726-1.046-5.476-2.036-8.249-2.948a1.426,1.426,0,0,1-1.191-1.738c.241-2.586.689-5.162.054-7.78a4.244,4.244,0,0,1,.722-2.854c1.848-3.446,1.568-7.225,1.809-10.927.05-.76-.373-.97-1.006-1.022-2.107-.174-4.215-.333-6.319-.537-.947-.092-1.3.187-1.239,1.213.232,3.971.327,7.951.577,11.92.149,2.356-.513,3.535-2.852,4.022-.843.175-1.018.5-.971,1.206.061.93.131,1.859.168,2.79.088,2.268-1.281,3.885-3.322,3.943-1.679.048-3.158-1.582-3.279-3.628-.407-6.9-.861-13.795-1.174-20.7-.067-1.479-.523-1.822-1.946-1.881-7.142-.294-14.279-.7-21.415-1.116-1.35-.079-1.983.189-2.065,1.758-.217,4.157-.658,8.3-1,12.453a4.093,4.093,0,0,1-3.847,4.008c-.757.072-.761.391-.788.907q-.049.931-.135,1.86c-.216,2.323-1.593,3.483-4.012,3.39-1.978-.076-3.035-1.321-2.91-3.74.272-5.222.643-10.439.967-15.659.092-1.491.1-2.991.264-4.473.114-1.014-.249-1.282-1.2-1.321-2.422-.1-4.842-.258-7.257-.464-1.141-.1-1.011.608-.963,1.3.2,2.791.339,5.587.622,8.369.445,4.369.691,8.777,2.274,12.955.464,1.226-.371,1.847-1.361,2.262a12.114,12.114,0,0,0-3.359,1.45c4.887.277,9.489.526,14.091.8,11.294.675,22.587,1.376,33.883,2.031,1.557.09,1.967.778,1.482,2.169a1.973,1.973,0,0,0,.867,2.62c1.88,1.385,2.489,3.652,3.027,5.844.326,1.328.549,2.682.867,4.012a3.752,3.752,0,0,0,1.529,2.468c1.205.792.835,1.6-.251,2.055-2,.839-4.048,1.593-6.108,2.282A23.166,23.166,0,0,0,126.3,224.9c-1.152.651-1.628.1-1.733-.971-.091-.924-.042-1.862-.059-2.794s.028-1.869-.075-2.791c-.361-3.227-.519-3.328-3.682-3.544q-29.3-2-58.6-4.023c-5.52-.379-11.042-.722-16.557-1.167-1.421-.115-1.672.287-1.4,1.623.526,2.62.984,5.264,1.263,7.92.144,1.367.7,1.729,1.964,1.809,8.811.56,17.617,1.184,26.425,1.785q24.656,1.681,49.311,3.358c.549.037,1.105.25,1.634-.1.463-.3.976-.509,1.122.257a.922.922,0,0,1-1.029,1.2c-1.428-.062-2.852-.2-4.278-.3q-28.282-1.916-56.564-3.831c-5.644-.384-11.321-.546-16.911-1.325-2.3-.32-4.153.811-6.269.684-.585-.035-.663.554-.728.936-.359,2.1-1.783,3.669-2.637,5.519-.278.6-.777.968-1.249.251-1.479-2.247-3.8-2.046-6.013-2.158-1.172-.06-2.349.007-3.524-.012-.354-.006-.776.012-.894-.473-.109-.448.183-.647.5-.881A12.035,12.035,0,0,0,31.2,219.06c.3-1.186.914-1.59,2.179-1.29,3.285.78,5.674-.572,6.794-3.805.376-1.086.485-2.189,2.153-1.821.931.206.724-.721.575-1.165-.733-2.184.371-3.207,2.16-4.2,4.409-2.439,8.8-4.931,13.019-7.682,2.2-1.432,4.391-1.047,6.637-.932,4.779.245,9.552.6,14.328.91a1.172,1.172,0,0,0,1.346-.793c.507-.952,1.841-1.077,2.9-1.37.592-.164,1.513-.286,1.427-.945-.117-.9-.1-2.379-.983-2.556-1.2-.241-.829-.865-.8-1.443a14.053,14.053,0,0,1,.343-2.211,4.251,4.251,0,0,0-1.25-4.251,3.12,3.12,0,0,1-.978-2.238M59,93.257h.017c.35-5.09.708-10.18,1.043-15.271.131-1.977.455-2.247,2.564-2.141,1.875.095,1.071,1.389,1.083,2.324a6.2,6.2,0,0,0,.01,1.11.763.763,0,0,0,.465.485c.326.086.709-.132.695-.443-.095-2,.394-4.131-.919-5.916-3.046-4.139-6.872-7.494-10.748-10.833-3.7-3.19-4.642-3.185-6.874,1.29-5.547,11.121-7.993,22.818-6,35.218.933,5.81,2.374,11.469,6.541,15.99.94,1.02,1.877,2.194,3.35,2.129A17.424,17.424,0,0,0,60,113.633c6.291-4.63,13.076-5.762,20.323-2.242a21.134,21.134,0,0,0,2.225.952c4.143,1.451,11.01-2.633,8.972-8.3a19.985,19.985,0,0,1-.943-3.8c-.377-2.531-.763-5.183.545-7.494,1.055-1.865.218-1.9-1.212-1.866a9.252,9.252,0,0,1-1.117-.073,3.875,3.875,0,0,0-4.013,1.526c-1.454,1.942-3.714,2.44-6.179,2.386-1.659-.037-2.324-2.479-3.823-1.683a23.491,23.491,0,0,1-4.095,2.109c-1.648.5-2.634-.187-3.312-1.582-.333-.685.034-1.344.178-2,.241-1.1.119-1.847-1.3-1.664a7.037,7.037,0,0,1-1.679.007c-1.153-.131-1.568.393-1.531,1.489.038,1.119.049,2.244-.008,3.362-.1,1.951-.486,2.154-2.806,2.088-1.81-.051-1.24-1.328-1.309-2.281a9.628,9.628,0,0,1,.074-1.3M195.267,72l0,.156a29.325,29.325,0,0,1,2.981.02c1.342.138,1.556-.392,1.255-1.576a21.069,21.069,0,0,1-.437-7.774c.17-1.424,1.491-3.226.524-4.088-.869-.775-2.843-.34-4.331-.386-13.79-.428-27.58-.83-41.369-1.291a1.932,1.932,0,0,0-2.2,1.488c-1.087,3.422-1.786,6.828-.257,10.349a1.71,1.71,0,0,0,1.751,1.249q21.045.9,42.088,1.852M105.7,155.453c-.146,1.8-.191,3.607-.477,5.381-.18,1.119.135,1.4,1.183,1.455q10.424.57,20.843,1.232c.91.057,1.179-.187,1.117-1.135q-.873-13.408-1.642-26.824c-.061-1.075-.28-1.544-1.486-1.456a83.979,83.979,0,0,1-16.356-.562c-1.009-.123-1.256.151-1.337,1.116-.582,6.934-1.222,13.863-1.846,20.793M50.521,206.734c1.935.133,3.289.248,4.645.315a5.165,5.165,0,0,0,5-4.31,11.006,11.006,0,0,0,.152-1.849c-.029-.485-.061-.967.507-.955.478.01.3.578.4.908.183.633-.561,1.645.6,1.865,2.072.392,3.472,2.649,5.878,2.078a.683.683,0,0,1,.519.174c1.732,1.579,3.263.579,4.787-.369.6-.371,1.406-.929,1.824-.269.826,1.307,2.593,1.662,3.173,2.7.921,1.652,2.126,1.56,3.5,1.645,1.613.1,3.225.205,4.838.305q14.329.889,28.659,1.76c.5.03,1.3.433,1.491-.278.607-2.252,2.279-1.659,3.775-1.539a7.009,7.009,0,0,0,6.252-2.169c.62-.693.439-1.839,1.359-2.3.583.271-.168,1.354.754,1.226.519-.071.5-.778.643-1.249.408-1.3-.489-1.264-1.305-1.312q-16.934-1.008-33.868-2.014c-10.111-.606-20.22-1.247-30.333-1.807-1.377-.076-2.78-.5-4.175.362-3.707,2.28-7.491,4.435-11.241,6.647-.984.581-1.952,1.187-2.928,1.782l.106.351,77.279,5.32c-.273-1.451-1.3-1.419-2.2-1.475q-29.954-1.87-59.91-3.71c-3.6-.222-7.2-.4-10.8-.649-.482-.034-1.206.124-1.394-.628a.7.7,0,0,1,.4-.77q5.142-2.892,10.287-5.781c-2.328,2.509-5.314,4-8.678,5.987M58.974,51.053A204.155,204.155,0,0,0,70.73,68.724c1.934,2.663,3.689,5.613,7.024,7.029a1.857,1.857,0,0,0,1.884.088c2.574-1.263,6.17-.565,7.1,2.023.948,2.631,2.579,2.5,4.547,2.487.869-.005,1.737.049,2.606.044,4.534-.029,4.545-.031,5.353-4.469,1.042-5.723.112-11.007-3.479-15.718a2.345,2.345,0,0,0-2.2-1.111A23.29,23.29,0,0,0,88.1,60.2a15.269,15.269,0,0,1-13.391-1.248,66.161,66.161,0,0,1-6.43-4.475c-2.666-2.069-5.785-2.734-9.3-3.421M82.013,166.278h.508c.067,1.3.145,2.609.2,3.915.037.909.257,1.448,1.394,1.465,2.422.036,4.848.188,7.257.437,1.1.114,1.2-.324,1.255-1.217.739-12.3,1.47-24.6,2.316-36.9.134-1.945-.309-2.64-2.306-3.245-3.229-.978-6.2-1.859-9.672-.85-4.523,1.314-4.238.185-3.553,5.285.72,5.36,2.438,10.569,2.575,16.008.127,5.031.027,10.068.027,15.1M91.485,57.856a27.05,27.05,0,0,1,3.568.372,66.192,66.192,0,0,0,10.283,1.7A3.97,3.97,0,0,1,108.7,62.09c1.246,2.05,1.8,2.019,3.036.022,3.492-5.66,6.376-11.689,10.322-17.071,2.187-2.983,2.273-3.01-.115-5.946a7.58,7.58,0,0,1-1.166-8.19c.439-1.095.937-2.166,1.358-3.268.14-.365.823-.9.028-1.154-.645-.21-.757.466-.828.962a3.282,3.282,0,0,1-1.579,2.81,2.327,2.327,0,0,0-1.4,2.46c-.243,6.071-.439,6.359-5.946,8.946-1.645.773-3.4,1.3-5.1,1.944.258.833,1.241,1.136,1.064,2.354-1.407-2.3-3.432-2.262-5.584-1.9-2.54.427-4.45-.306-5.553-2.866-.469-1.09-1.309-.645-1.842.156a12.779,12.779,0,0,0-1.709,4.872c-.729,3.835.923,8.054-2.2,11.634m59.11,81.162c.021-.373.051-.745.062-1.118.132-4.427.143-4.459-3.96-6.026-.886-.339-1.693-1.061-2.8-.733a34.5,34.5,0,0,1-4.154,1.031c-1.245.2-1.546.752-1.483,1.989.407,8.065.732,16.134,1.07,24.2.195,4.656.382,9.314.534,13.971.089,2.751.056,2.742,2.716,2.919a42.218,42.218,0,0,1,4.268.373c1.525.259,1.98-.16,2.086-1.781.761-11.6.609-23.242,1.663-34.826m-3.014,57.308c-.433,4.121-.894,3.359,2.7,4.63,2.224.786,4.442,1.6,6.625,2.487a17.423,17.423,0,0,0,3.968,1.585,70.859,70.859,0,0,0,15.795.037c.978-.081,1.141-.576,1.178-1.473a8.326,8.326,0,0,0-4.274-7.8,16.474,16.474,0,0,0-14.864-1.1c-1,.413-1.873,1.211-3.219,1.3.787-1.363,2.513-1.382,3.042-2.617-2.488-1.117-4.7.418-7.034.508,1.671-1.768,3.761-2.2,6.329-2.032a9.056,9.056,0,0,0-3.935-2.075c-.574-.135-1.557-.1-1.5-.777.1-1.107,1.089-.275,1.657-.444.207-.062.51-.131.314-.679-1.778-.173-3.665,1.031-5.513-.014-.3-.167-.456.482-.634.8-1.379,2.444-.879,4.776.393,7.072.386.7,1.086,1.314.74,2.3-.995-.191-1.12-1.07-1.775-1.7m-46.037-62.014c.113-1.9.113-1.9-1.705-2.2-3.653-.608-3.589-.6-3.807,3.038q-1.17,19.628-2.419,39.251c-.409,6.573-.848,13.144-1.235,19.718-.13,2.217.489,3.168,1.9,3.21,1.666.049,2.376-.759,2.545-2.92q2.359-30.049,4.716-60.1m22.444-23.042c3.006-2.906,6.824-3.653,10.706-4.005,3.5-.318,3.516-.176,4.145-3.713.022-.123.037-.247.069-.367.3-1.113-.055-1.678-1.26-1.9-2.136-.391-4.241-.954-6.365-1.416a5.034,5.034,0,0,0-2.569-.005c-6.017,1.752-11.509,4.639-16.935,7.689-1.013.57-.937,1.044-.179,1.795,4.569,4.521,9.317,8.78,15.313,11.394.958.418,1.332.315,1.5-.7a17.465,17.465,0,0,1,3.009-6.551,17.916,17.916,0,0,1,5.419-5.07c-4.89-.467-8.9,1.065-12.851,2.853m43.105,63.357c.925,5.814,2.021,11.479,2.51,17.233.042.5.035,1.087.66,1.184,3.8.592,6.013,3.166,7.988,6.144.636.959,1.506.672,2.05-.27a4.6,4.6,0,0,0,.379-1.243c1.7-7.178,2.835-14.483,4.864-21.586.28-.98-.134-1.191-1.019-1.1-5.763.6-11.506.109-17.432-.364M134.489,166.6h-.012q-.585-14.552-1.169-29.106c-.155-3.921-.142-3.85-4.018-3.731-1.26.039-1.4.492-1.328,1.55.3,4.339.549,8.683.806,13.025q1.438,24.3,2.872,48.6c.134,2.272.944,3.531,2.251,3.252,1.932-.413,1.878-1.993,1.813-3.556q-.629-15.018-1.214-30.037M109.769,64.46a20.642,20.642,0,0,1,1.791,9.627c-.036.973.446,1.243,1.305,1.416,3.6.726,7.259.982,10.873,1.559,5.065.808,10.021.058,14.982-.824.652-.116.993-.369.959-1.085-.118-2.482-.084-4.979-.352-7.443-.15-1.382-.752-2.408-2.7-2.11a54.363,54.363,0,0,1-13.351.638,114.186,114.186,0,0,1-13.5-1.779m45.819-8.789c.015.089.029.178.043.267.473.039.944.1,1.417.112,12.546.394,25.091.818,37.639,1.141,2.288.059,4.668.768,6.857.04,4.29-1.428,8.476-3.168,12.69-4.819.609-.239,1.445-.243,1.942-1.546-3.943,0-7.6.061-11.26-.013-7.641-.155-15.281-.367-22.921-.582-5.6-.157-11.214-1.117-16.61,1.595a104.212,104.212,0,0,1-9.8,3.8m-4.463,74.307c.217-1.188.4-2.288.628-3.381.054-.262.3-.8.506-.562,1.221,1.37,1.34-.237,1.662-.664a34.385,34.385,0,0,1,10.6-9.544c.456-.255,1.048-.383,1.244-1.093a56.229,56.229,0,0,0-17.625-4.242,1.245,1.245,0,0,0-1.234.644c-3.359,4.965-5.529,10.281-4.931,16.438.057.592.1,1.094.736,1.354,2.44.99,4.873,2,7.3,2.993.482-1.119-.476-2.078.052-3,.752.084.346.989,1.062,1.055M138.033,63.031c.309-1.16.546-2.3.921-3.384.384-1.113.638-2.445,1.412-3.218,2.937-2.934,1.789-5.714.025-8.573-.228-.37-.421-.762-.634-1.142a4.419,4.419,0,0,0-7.452-.875,13.372,13.372,0,0,0-1.052,1.309,119.409,119.409,0,0,0-9.529,17.083c-.5,1.1,0,1.1.811,1.153a61.666,61.666,0,0,0,11.718-.261c3.316-.4,3.308-.454,1.5-3.078-.052-.075-.006-.218-.006-.445,1.067-.035,1.42,1.1,2.292,1.43M161.62,84.015c1.4.006,2.648-.239,3.563.439,1.6,1.186,3.368,1.024,5.152,1.031.933,0,1.865.048,2.8.1,1.09.057,1.815.494,1.481,1.732-.281,1.04.512.841.96.806.47-.037,1.44.473,1.3-.624-.214-1.632.936-1.767,1.958-1.8,1-.03,1.4,1.072,1.359,1.718-.074,1.1-1.113,1.358-2.121,1.276-2.488-.2-4.97.179-7.487-.365-2.693-.583-5.512-.278-8.285-.546-6.365-.615-12.773-.789-19.165-1.114-.493-.025-1.337-.346-1.415.378-.107.991.873.652,1.389.681q9.4.539,18.81,1c4.715.232,9.438.331,14.135.853,1.126.125,2.258.238,2.972,1.273a1.433,1.433,0,0,1-.23,2.016,1.169,1.169,0,0,1-1.664.234c-.828-.613-.5-1.267-.071-1.949.132-.208.552-.352.313-.713a5.332,5.332,0,0,0-2.4-.412c-2.786-.172-5.573-.325-8.36-.481-7.69-.431-15.379-.874-23.072-1.257-.525-.026-1.519-.578-1.612.542-.1,1.212.931.892,1.608.922,6.891.313,13.774.831,20.682.75a47.337,47.337,0,0,1,7.634.284,1.589,1.589,0,0,1,1.537,1.778,1.176,1.176,0,0,1-1.359,1.205,1.33,1.33,0,0,1-1.379-1.757c.141-.742-.164-.875-.769-.838-1.464.089-2.94-.293-4.418.04.633,2.218-.032,2.935-2.339,2.764-.869-.064-1.778-.482-2.953.194,1.368,1.292,2.459,2.792,3.932,3.549.975.5,2.148-.97,3.368-1.208a4.43,4.43,0,0,0,.543-.135c4.965-1.642,10.047-1.357,15.133-.884.792.074,1.417.18,1.806-.763A14.1,14.1,0,0,0,184.9,83.67c-.4-.989-.9-1.261-2.108-1.021-5.274,1.049-10.633,1.666-15.791-.368-2.355-.929-3.807-.253-5.38,1.735M78.541,137.19c-.3-2.458-.958-5.257-1.315-8.082-.316-2.5-1.8-3.659-3.708-4.7a1.341,1.341,0,0,0-1.684.132,128.225,128.225,0,0,0-10.39,8.777,1.986,1.986,0,0,0-.542,2.3c1.113,3.69,2.235,7.38,3.186,11.114.372,1.46.863,1.481,2.01.829,4.411-2.507,8-6.1,12.086-9.037.32-.23.533-.524.357-1.33M58.07,123.6c5.412-3.262,13.658-1.95,17.927,1.39.333.26.672,1.144,1.159.06.1-.229.361.068.485.3.516.955-.441,2.65,1.454,2.912-.194,1.17.478,1.159,1.323,1.012,1-.174,1.9-.284,2.075-1.638a18.341,18.341,0,0,0-.7-9,2.633,2.633,0,0,0-.994-1.513c-2.954-1.827-5.758-3.923-9.055-5.141-2.114-.781-4.263-1.474-6.5-.442a19.832,19.832,0,0,0-5.315,3.4c-2.707,2.527-3.252,5-1.867,8.663m48.048-31.335-.106-.709a98.532,98.532,0,0,1-10.2-.079c-3.17-.332-3.815,1.242-4.2,3.638a16.784,16.784,0,0,0,.888,7.708c1.172,3.751.692,7.011-2.865,9.321-.05.033-.006.209-.006.405a6.167,6.167,0,0,0,.863.2c3.746.353,7.415-.576,11.133-.685.756-.022,1.006-.634,1.368-1.125,1.406-1.91.69-3.929.286-5.921-.628-3.1-.828-6.184.626-9.117.627-1.266,1.464-2.428,2.205-3.638m21.964,30.725c-.421-1.2-1.214-1.343-1.842-1.7-2.533-1.426-5.233-2.529-7.52-4.421-5.334-4.415-10.551-8.9-13.472-15.414-.127-.282-.295-.61-.652-.558-.483.07-.48.5-.471.873a22.5,22.5,0,0,0,.72,4.585,6.21,6.21,0,0,1-1.965,6.578c-.7.593-.35.879-.079,1.322a11.256,11.256,0,0,1,1.768,7.28c-.134,1.186.037,1.679,1.313,1.144a5.272,5.272,0,0,1,1.617-.422c1.137-.083,1.611-.561.917-1.972,6.421,3.5,13.13,1.453,19.665,2.7m-28.8-41.98c3.224,0,6.185-.025,9.145.016.828.011,1.084-.443,1.22-1.1,1.279-6.154.926-12.106-2.267-17.681-.284-.5-.5-1.095-1.3-1.186-2.948-.339-5.887-.751-9.1-1.172,4.681,6.514,4.616,13.446,2.3,21.118m12.551-17.364c2.563.831,5.077.806,7.49,1.337.981.216,1.318-.439,1.651-1.129,3.389-7.035,6.834-14.037,12.016-20.153-2.453-.4-4.78-.757-7.1-1.153a1.428,1.428,0,0,0-1.533.754,77.494,77.494,0,0,0-4.832,7.082c-2.507,4.419-5.093,8.793-7.691,13.262M150.967,153a122.422,122.422,0,0,1-.646,14.974,7.714,7.714,0,0,0,2.176,6.718c.439.44.864.894,1.3,1.336,1.716,1.726,3.931,1.261,4.7-1.079,1.4-4.251,2.464-8.6,3.5-12.948.131-.553.283-1.053-.416-1.42A47.451,47.451,0,0,1,150.967,153M89.725,128.733c17.425,4.69,34.91,6.1,53.019,1.526-2.172-.913-3.93-1.674-5.71-2.381a1.75,1.75,0,0,0-1.084-.018c-7.514,2.354-15.18,1.227-22.8.949a52.609,52.609,0,0,1-8.323-.988c-2.309-.459-4.635-.968-6.939-1.284-2.837-.388-5.378,1.508-8.166,2.195M146.53,110.34c-2.474-.558-4.752-1.092-7.039-1.578a3.425,3.425,0,0,0-2.467.547c-3.415,1.935-5.475,5.009-7.076,8.42a9.316,9.316,0,0,0-.993,4.686,1.477,1.477,0,0,0,1.09,1.508c1.938.665,3.845,1.418,5.764,2.137.452.17.961.538,1.305-.089,1.208-2.2,3.465-3.753,4.426-5.946a56.916,56.916,0,0,1,4.99-9.685m5.34,24.71c-.687,2.03.65,3.518,3.23,4.245.235.066.442.228.674.313a30.367,30.367,0,0,0,9.532,2.312c.742.02,1.6.169,1.812-1.051.489-2.872,1.088-5.725,1.676-8.579.178-.864-.006-1.2-.977-1.232a27.914,27.914,0,0,1-9.538-2.286,17.721,17.721,0,0,0-4.73-1.555c-.919-.1-1.082.195-1.137.925-.152,2.04-.319,4.078-.543,6.909m-73.037,3.859c-.781.627-1.3,1.056-1.833,1.469-3.583,2.777-6.822,6.041-10.939,8.057A1.547,1.547,0,0,0,65.1,150.6c.756,2.69,1.54,5.372,2.262,8.071.266.994.68.912,1.439.483a61.229,61.229,0,0,0,11.224-8.318,1.661,1.661,0,0,0,.629-1.626c-.582-3.349-1.18-6.695-1.818-10.3M96.826,13.053a21.876,21.876,0,0,1,15.727,5.727c2.107,1.834,4.327,3.537,6.492,5.305,2.143,1.75,2.139,1.752,2.777-.978.016-.068.157-.106.259-.17.547.531.382,1.13.2,1.724-.125.419-.092.827.436.743,1.168-.186,1.084-1.378,1.517-2.133.216-.377.767-.884-.015-1.413-2.842-1.923-5.1-4.528-7.7-6.727-4.678-3.95-9.534-7.587-15.819-8.641a1.756,1.756,0,0,0-2.005.794c-1.271,1.676-1.444,3.65-1.87,5.769m54.131,135.659c-.127,2.686-.155,2.716.7,3.518,3.876,3.627,2.543,3.519,7.23,1.035a8.288,8.288,0,0,0,1.774-1.012c2.008-1.841,5.282-2.57,5.349-6.15.019-1.035.82-2.289.448-3.038-.435-.876-1.887-.207-2.888-.4a36.92,36.92,0,0,1-10.223-3.319c-.992-.525-1.623-.614-1.611.787a64.1,64.1,0,0,1-.782,8.583m-65.672-96.1a8.414,8.414,0,0,1,4.47,6.217,10.718,10.718,0,0,0,2.934-7.994c-.165-3.235-.086-6.492,1.69-9.4.437-.717.167-.955-.562-1.1-4.138-.849-8.137.306-12.178.827-.8.1-.609.814-.628,1.343a13.366,13.366,0,0,0,1.377,5.935A22.742,22.742,0,0,1,84.4,53.426c.329,1.87,1.3,2.141,3,2.134l-2.117-2.945m83.147,139.249c-.614-4.609-1.2-8.911-1.751-13.218-.124-.964-.816-.974-1.491-1.005-1.672-.076-3.35-.057-5.016-.192-.894-.073-1.168.3-1.395,1.07-.823,2.789-1.593,5.6-2.628,8.315-.639,1.673-.3,2.53,1.3,3.221,1.509.649,2.606,2.173,4.362,2.308a42.528,42.528,0,0,1,5.379.272c.755.154,1.409-.033,1.24-.771M154.3,126.46A25.656,25.656,0,0,1,158.6,128a25.145,25.145,0,0,0,9.164,2.19c1.15,0,1.586-.414,1.9-1.5,1.367-4.707-1-8.549-2.752-12.543-.187-.428-.549-.416-.933-.212A31.269,31.269,0,0,0,154.3,126.46M139.672,95.988c.728.321,1.293.559,1.848.817,1.106.514,1.737-.094,2.3-.935a1.346,1.346,0,0,0-.473-2.169,6.585,6.585,0,0,1-2.715-4.5,20.357,20.357,0,0,1-.179-5.383,3.447,3.447,0,0,0-2.477-3.783c-1.621-.522-4.891.095-5.555,1.178-1.86,3.039-2.4,6.242-.778,9.563,1.581,3.241,4.3,4.259,7.735,3.8.4-.053.939-.352,1.178.154.309.653-.455.745-.879,1.254M40.7,54.687c0-.048,0-.1,0-.143-1.181,0-2.365.057-3.54-.022a1.19,1.19,0,0,0-1.281.791,12.122,12.122,0,0,0-1.056,9.377,1.918,1.918,0,0,0,2.1,1.662c1.8-.052,3.6.093,5.4.2a1.643,1.643,0,0,0,1.871-1.088,17.616,17.616,0,0,1,3.93-5.843c.339-.313.744-.582.239-1.208-1.751-2.17-3.323-4.573-6.734-3.732a3.993,3.993,0,0,1-.927.009M79.929,112.7c2.839,4.629,4.426,9.477,3.372,14.919-.223,1.154.436,1.083,1.168.894,2.226-.573,4.422-1.31,6.678-1.712,1.8-.321,2.239-1.422,2.141-2.9a25.583,25.583,0,0,0-1.824-8.337,2.6,2.6,0,0,0-3.03-1.756c-2.845.207-5.742.4-8.5-1.11m-.445-71.219c-2.459.187-4.567.282-6.656.537-.833.1-1.855-.094-2.482.585a16.366,16.366,0,0,0-4.268,7.287c-.221.926.153,1.16.98,1.322q4.1.8,8.173,1.755a1.238,1.238,0,0,0,1.713-.846,16.848,16.848,0,0,1,2.754-4.4c.526-.637.827-5.3.415-5.986a.494.494,0,0,0-.629-.257m55.078,85.31c-1.378-.544-2.778-1.036-4.127-1.643a14.085,14.085,0,0,0-6.289-1.419,78.7,78.7,0,0,1-10.215-.355c-1.312-.127-2.658-.965-3.793-.71-3.364.756-6.636,1.921-9.944,2.926,11.443,2.239,22.828,3.646,34.369,1.2m-53.192,38.4-.031,0c0-.933-.06-1.87.013-2.8.147-1.876-.35-3-2.547-3.023a8.73,8.73,0,0,1-3.777-.927c-2.912-1.507-4.546.995-6.684,1.9-.453.191-.234.585-.139.96.84,3.338,2.325,5.938,6.019,6.989,2.084.594,4.205,1.046,6.277,1.676.969.295,1.183-.137,1.082-1.05-.136-1.234-.149-2.482-.214-3.724M119.692,25.8c-3.784-3.02-7.179-5.938-10.794-8.551a18.886,18.886,0,0,0-10.883-3.316c-.776-.018-1.544.088-1.835,1.159-.741,2.722-1.492,5.4.14,8.075.165.27-.013.836.6.622.286-.1.674-.25.767-.478.132-.325-.281-.466-.522-.651a2.776,2.776,0,0,1-.974-3.626A2.536,2.536,0,0,1,99.6,17.6c1.469.553,1.781,1.72,1.569,3.181-.1.659-.994,1.456.314,2.014,2.452,1.045,4.931,2.065,7.264,3.342,3.622,1.984,7.054,1,10.942-.334m-49.712,44a5.675,5.675,0,0,0-.927,2.49c-.864,3.476-.556,7.156-2.1,10.544-.766,1.676,1.053,3.385,2.861,3,1.981-.427,3.607-1.621,5.388-2.485,1.608-.781,1.851-1.782.8-3.174-.15-.2-.3-.4-.428-.61-.165-.27-.305-.57-.078-.86.264-.337.519-.036.8.026,1.557.342,2.021,1.217,1.6,2.754a29.313,29.313,0,0,0-.6,3.477c-.069.469-.319,1.125.2,1.356.625.28,1.042-.308,1.259-.817.93-2.185,1.752-4.249-.108-6.559-1.1-1.369-2.04-2.766-3.679-3.515a6.175,6.175,0,0,1-2.172-1.979c-.948-1.185-1.5-2.691-2.808-3.644m24.132,56.01c2.823-.614,5.462-1.257,8.067-2.072a1.9,1.9,0,0,0,1.526-1.781,11.136,11.136,0,0,0-2.04-7.906,1.55,1.55,0,0,0-1.584-.711c-2.465.216-4.928.446-7.4.62-.829.058-.915.342-.594,1.043a24.382,24.382,0,0,1,2.019,10.807M127.4,99.223c-4.4-1.092-8.894-.77-13.341-1.121-2.78-.219-5.11.669-7.506,1.7-.628.27-1.147.483-.613,1.324,1.232,1.94,2.412,3.912,3.61,5.873.31.507.628.643,1.208.287A94.455,94.455,0,0,1,127.4,99.223m39.386-49.15-.038-.758c-4.029,0-8.059.034-12.088-.01-3.6-.04-7.2-.186-10.8-.229-.415-.005-1.5-.346-1.189.533a56.941,56.941,0,0,0,2.645,5.736c.232.473.771.3,1.186.315,2.765.1,5.419.171,8.158-.965,3.988-1.654,8.112-3,12.123-4.623M109.632,168.78c0,.013,0,.027,0,.04-1.361-.076-2.724-.134-4.083-.237-.7-.053-1.027.178-1.051.915a13.748,13.748,0,0,1-.247,2.028c-.193,1.054.209,1.41,1.278,1.458,7.25.322,14.5.713,21.748,1.043.658.03,1.954.559,1.617-.887-.26-1.114,1.134-3.08-1.455-3.23-5.937-.344-11.87-.748-17.8-1.129M58.294,46.977c-.387,2.576,1.268,2.823,3.016,3.037a20.732,20.732,0,0,1,2.729.588c.58.152,1.028.076,1.145-.552.525-2.809,2.169-5.064,3.89-7.5-5.357.234-10.44.376-15.511.718a7.92,7.92,0,0,0-5.411,1.956,21.248,21.248,0,0,1,5.63,4.006c.727.8,1.429.2,2.011-.1.878-.451-.012-.893-.177-1.33-.122-.322-.507-.576-.218-1.03.983.211,1.151,1.4,2.014,1.715.445-.348-.136-1.023.882-1.508M100.84,159.208c-1.08,1.5,1.016,2.24,1.373,3.584.144.543.364.91.987.874.78-.046.6-.674.637-1.113q1.284-14.006,2.551-28.012c.191-2.07-1.507-1.331-2.435-1.654-1.192-.414-1.137.579-1.193,1.3-.638,8.224-1.264,16.449-1.92,25.023m35.23,60.867A5.62,5.62,0,0,1,134,216.427a36.32,36.32,0,0,0-1.432-5.78c-.58-1.378-1.182-2.789-2.646-3.472-.6-.282-1.42-.591-1.967-.147-1.006.815.636.515.528,1.023a1.938,1.938,0,0,1-.039.357c-.791,1.8.237,2.57,1.713,3.2,1.8.767,1.435,2.235.984,3.639-.33,1.026-1.379,1.152-2.206,1.38-.362.1-1.519.144-.736-1.129a2.072,2.072,0,0,0-1.151-2.886c-1.919-.417-2.295-1.417-1.849-3.359-1.177.907-2.415.536-3.483,1.3,2.371,1.754,3.225,4.193,3.744,6.8a16.113,16.113,0,0,1,.155,5.01c-.085.744-.1,1.429,1.054,1.028,3.037-1.058,6.2-1.745,9.4-3.316M114.137,97.042c5.424.506,10.819.374,16.087,1.818,2.568.7,5.215,1.107,7.806,1.732.912.22,1.2.037,1.276-.9.214-2.605-.442-3.533-3.078-3.947a5.2,5.2,0,0,1-2.9-1.15c-2.675-2.557-6.041-1.92-8.947-1.344-3.527.7-6.838,2.481-10.243,3.8m25.416-17.767c.235-2.37.216-2.461-1.961-2-7.444,1.563-14.831.891-22.194-.5-3.887-.733-3.838-.79-4.5,3.157-.151.9-.079,1.153.9,1.188,5.9.215,11.8.507,17.7.765a1.577,1.577,0,0,0,1.484-.537,7.419,7.419,0,0,1,8.577-2.072M100.014,24.9c-.376-.6,0-1.237-.757-1.217a4.131,4.131,0,0,0-3.938,4.487c.127,1.087.449,1.449,1.453.731,2.294-1.642,4.575-1.516,6.963-.078a27.568,27.568,0,0,0,4.239,1.919,14.813,14.813,0,0,0,7.649,1.242c.84-.128,2.557.387,1.968-1.7-.169-.6.51-.17.8-.234a2.782,2.782,0,0,0,2.042-2.785c-.126-.567-.126-.568-2.242.017-.3.083-.593.187-.894.267-2.873.758-5.653,1.1-8.513-.369-2.2-1.129-4.582-1.924-6.759-3.129-.99-.548-1.716-.71-2.007.852M60.33,55.579a6.64,6.64,0,0,0-.294-.642c-.98-1.586-1.985-3.156-2.939-4.757-.326-.549-.646-.328-1.083-.208-3.422.938-5.062,3.758-6.852,6.425-.4.592-.165,1,.332,1.423,1.891,1.611,3.75,3.26,5.633,4.88.21.18.635.559.76.274a24.908,24.908,0,0,1,4.442-7.395M82.2,178.253c-.178-2.154-.387-3.884-.44-5.619-.031-1.04-.151-1.74-1.407-1.918-1.211-.171-2.29-.785-3.156.815a46.55,46.55,0,0,1-3.439,5.078,2.363,2.363,0,0,0-.525,2.067c.338,1.386.7,2.768.99,4.164.17.817.519.958,1.294.691a29.888,29.888,0,0,0,4.857-2.322c1.392-.781,2.292-1.666,1.825-2.956m55.465-29.65h-.023c-.195-4.779-.439-9.558-.552-14.339-.032-1.346-.464-1.528-1.674-1.308-1.253.229-1.021,1.069-.991,1.824.373,9.236.831,18.47,1.106,27.709.063,2.108,1.352.727,2.016.963,1.26.446.656-.71.646-1.07-.137-4.595-.341-9.187-.528-13.781M115.022,33.161a19.584,19.584,0,0,1-3.646-.442,3.286,3.286,0,0,0-3.206.612,32.911,32.911,0,0,1-8.091,4.2c-.857.278-2.316.119-2.338,1.4a4.756,4.756,0,0,0,1.6,3.845,1.752,1.752,0,0,0,1.911.313c5.308-2.1,9.453-5.79,13.769-9.923m-4.268,55.456v.732c5.849,0,11.7.009,17.547-.015.515,0,1.319.364,1.318-.751,0-.947-.5-1.16-1.295-1.142-.31.007-.621-.034-.932-.042q-16.885-.374-33.77-.753c-.772-.018-1.441-.13-1.539,1.018-.125,1.458.959.916,1.493.921,5.725.052,11.451.033,17.176.033M71.411,123.749c-2.9-1.636-9.35-1.644-11.847,0-.53.349-1.393.593-1.179,1.476.622,2.567,1.313,5.117,2.028,7.868,3.6-3.5,7.381-6.31,11-9.343m70.353-53.784c1.383-2.206,2.533-4.192,3.835-6.074a4,4,0,0,0,.11-4.919,27.569,27.569,0,0,1-1.989-4c-.48-1.118-.855-.948-1.46-.1a18.112,18.112,0,0,0-3.3,8.6,1.675,1.675,0,0,0,.139,1.264,39.821,39.821,0,0,1,2.669,5.234m-3.417,95.3-.458-.1c-.17,1.623-2.15,2.168-2.063,4.008.345,7.308.626,14.618.917,21.928.054,1.366.791,1.367,1.749.925.979-.451.95-1.327.911-2.229-.189-4.4-.345-8.809-.533-13.213-.161-3.774-.348-7.546-.524-11.319m-39.78,22.9a3.9,3.9,0,0,1,0,.418c-.043.953-.525,2.252.878,2.446,1.147.158,1.516-1.093,1.961-1.968a2,2,0,0,0,.152-.722c.536-6.138,1.056-12.278,1.606-18.415.085-.951-.011-1.518-1.211-1.489-1.043.025-1.864-.21-1.965,1.371-.381,6.016-.915,12.022-1.419,18.36m23.369-95.435c-4.464-.207-8.928-.421-13.393-.611-.356-.015-.916,0-1.049.216-1.458,2.327-3.324,4.5-3.289,7.63,5.886-2.694,12.026-4.3,17.731-7.235m25.378-30.106c-1.452,2.34-2.71,4.4-4,6.441a4.853,4.853,0,0,0,.589,5.482.886.886,0,0,0,.647.212,14.185,14.185,0,0,1,3.506.293c1.562.128,3.354-1.521,2.936-2.664-1.164-3.189-2.389-6.357-3.677-9.764M66.209,81.132l.455.06c.113-.343.254-.68.334-1.031.819-3.631.656-7.451,2.1-10.965.187-.456-.082-.843-.328-1.208-.732-1.082-1.487-2.149-2.2-3.247a3.575,3.575,0,0,0-3.3-1.373c-1,0-.847,1.345-1.214,2.081a7.318,7.318,0,0,0-.427,1.62c-.236,1.021,1.139,3.943,1.925,3.734,1.924-.511,1.421,1.057,1.67,1.733A14.216,14.216,0,0,1,65.871,76c.171,1.7.231,3.418.338,5.127M118.87,3.424c.617,3.878.8,7.494-.383,11.052a1.328,1.328,0,0,0,.488,1.633,13.953,13.953,0,0,1,1.927,1.745c.8.91,1.214.466,1.6-.33a22.372,22.372,0,0,0,2.24-6.86,3.552,3.552,0,0,0-.84-2.932,24.377,24.377,0,0,0-5.031-4.308m-8.033,164.264.008-.136c5.2.415,10.4.877,15.6,1.189.687.041,2.139.955,2.191-.957.048-1.75-1.218-1.154-2.086-1.237-3.713-.356-7.449-.067-11.17-.534-4.434-.558-8.909-.79-13.352-1.293-1.489-.169-1.213.921-1.436,1.612-.361,1.114.616.837,1.125.869,3.039.19,6.08.331,9.121.489m3.725-155.54a37.8,37.8,0,0,0-4.07-8.673c-1.628-2.8-2.73-3.024-5.673-1.481-.658.345-1.321.681-1.959,1.06-.341.2-.94.444-.489.948.771.86,1.076,2.206,2.286,2.588a32.335,32.335,0,0,1,9.905,5.559M110.214,1.061c.828,1.438,1.558,2.652,2.237,3.894a51.228,51.228,0,0,1,3.756,8.09c.184.541.428,1.263.972,1.25.8-.019.657-.943.777-1.467a22.167,22.167,0,0,0,.426-5.928c-.2-4.506-.382-4.727-4.712-5.6a14.538,14.538,0,0,0-3.456-.234m20.317,90.866a1.877,1.877,0,0,0-2.163-2.014c-2.481-.038-4.962-.151-7.444-.2q-12.014-.241-24.029-.454c-1.5-.027-2.991,0-4.487,0q-.007.438-.014.876l38.136,1.8m27.414,85.084a57.662,57.662,0,0,1-7.677,4.116c-.551.232-.617.7-.72,1.2-1.1,5.319-1.025,5.405,4.277,4.727a2.078,2.078,0,0,1,.555-.011c.5.074.637-.259.752-.629.946-3.05,2.217-6,2.813-9.4M97.554,82.942v-.094a24.646,24.646,0,0,0-2.794.024c-.83.1-2.313-.584-2.352.546-.046,1.354,1.518.821,2.381.858,7.081.3,14.164.536,21.246.786q6.152.217,12.3.408c.516.015,1.214.191,1.294-.656.091-.955-.664-.7-1.159-.722q-15.461-.585-30.922-1.149M28.211,226.1c3.21-.126,5.889-.175,8.2,1.514.481.351.666-.089.858-.364a14.689,14.689,0,0,0,2.5-8.254c-1.386,1.306-2.172,3.124-3.993,4.3.277-1.139-.123-1.649-1.155-1.642-.278,0-.656-.09-.695-.483-.049-.508.359-.571.722-.655.521-.121,1.192-.585.792-.911a5.8,5.8,0,0,0-2.263-.615.608.608,0,0,0-.816.524c-.523,2.521-2.123,4.41-4.153,6.587M102.26,33.494q.01.19.021.381a2.4,2.4,0,0,1-.815.153c-.808-.144-1.475-.107-1.731.851-.072.269-.466.563-.056.786a2.092,2.092,0,0,0,2.091.24,74.643,74.643,0,0,0,6.874-3.829,47.29,47.29,0,0,1-5.805-2.657c-2.3-1.447-4.146-.817-6.141.514a1.783,1.783,0,0,0-.616,2.426c.4,1.117,1.333.5,1.866.214a2.084,2.084,0,0,1,2.815.32,4.3,4.3,0,0,0,1.5.6M45.087,50.268a13.748,13.748,0,0,0,2.529,5.41c.469.672.735.363,1.05-.168A17.172,17.172,0,0,1,52.514,51c.859-.705.622-1.148.073-1.76a14.755,14.755,0,0,0-4.78-3.148,1.158,1.158,0,0,0-1.574.585,6.159,6.159,0,0,0-1.147,3.594m106.6,24a16.132,16.132,0,0,0-4.714,4.153c-1.173,1.3-.513,2.337-.187,3.562.344,1.291,1.382.821,2.141.922,1.349.181,2.728.132,4.076.317,1.25.171,1.4-.292,1.06-1.335-.8-2.472-1.55-4.96-2.376-7.619m-6.148,19.1c1.293,1.389,1.278,1.339-.076,1.752-.971.3-1.092,1.395-1.515,2.121-.366.629.674.669,1.1.858,1.3.579,2.655,1.014,3.969,1.556,2.583,1.064,2.772.987,3.432-1.718a6.6,6.6,0,0,0,.231-1.644c-.025-1.559-.361-2.737-2.418-2.578a31.529,31.529,0,0,1-4.72-.347m-15.946-6.71a1.692,1.692,0,0,0-1.669-.715c-2.975-.119-5.952-.2-8.928-.309q-10.324-.376-20.649-.76c-1.552-.056-3.1-.1-4.657-.082-.535.005-1.43-.328-1.39.687s.937.465,1.452.612a2.31,2.31,0,0,0,.557.017q16.02.41,32.039.807a7.484,7.484,0,0,0,3.245-.256m12.847,3.686c.233,1.516,1.087,1.778,2.179,1.845,5.2.314,10.4.538,15.577,1.071a3.329,3.329,0,0,0,3.754-2.02l-21.51-.9m-73.361-.724c-.142.9-.305,1.812-.429,2.732-.192,1.424.373,1.926,1.821,1.617,2.387-.509,3.783-2.224,5.151-4,.339-.442.237-.745-.269-1.023-1.3-.714-2.569-1.485-3.857-2.222a2.642,2.642,0,0,0-2.5.144c-.824.39-.1,1.193-.075,1.814a7.137,7.137,0,0,0,.156.942M44.6,170.491c-.053-.421-2.911-2.865-3.329-2.791a1.746,1.746,0,0,0-.821.379q-2.291,2.024-4.537,4.1c-.269.25-.85.627-.164.982,1.495.774,2.852,2.129,4.73,1.65,2.157-.551,2.19-3.309,4.108-4.168.022-.01.009-.1.013-.151M155.79,155.869a43.636,43.636,0,0,0,5.839,3.836c.415.236.816.408.983-.26.731-2.92,1.457-5.842,2.311-9.267a53.989,53.989,0,0,1-9.133,5.691M76.711,54.625c1.629.87,1.993,2.689,3.073,3.932.434.5.653,1.244,1.488,1.272a14.11,14.11,0,0,0,5.884-.655c.627-.253,1.044-.56,1-1.356-.048-.838-.539-.962-1.206-1.1-3.4-.705-6.85-1.134-10.238-2.092m76.538,39.484c-.019.974.566,1.4.971,1.931a10.8,10.8,0,0,1,2.4,4.963c.092.636-.162,1.456.915,1.479a1.69,1.69,0,0,0,1.745-1.105c1.01-2.263.422-4.494-.545-6.467-.586-1.2-2.337-.614-3.57-.786a14.348,14.348,0,0,0-1.915-.015M117.3,34.9a3.155,3.155,0,0,0,.053-.742c-.08-.5.538-1.213-.252-1.454-.6-.182-.945.43-1.3.87a49.31,49.31,0,0,1-5.149,4.845c-.4.37-1.424.662-.976,1.314a2.52,2.52,0,0,0,2.387,1.19A6.6,6.6,0,0,0,117.3,34.9m50.088,138.319a82.018,82.018,0,0,0,18.186.71c.463-.024,1.355.147,1.359-.58,0-.794-.868-.691-1.453-.8-3.519-.68-7.056-.189-10.574-.062-2.51.091-5.084-.253-7.519.736m-93.83-16.106a44.065,44.065,0,0,0,6.585,1.718c.687.15,1.039-.124.989-.9a31.891,31.891,0,0,0-.553-6.412c-2.331,1.762-4.284,3.857-7.021,5.594m3.563,13.025a44.939,44.939,0,0,1-6.913-2.946l2.568,9.145a34.989,34.989,0,0,0,4.345-6.2m68.592-87.719c-1.558-3.6-2.687-7.329-4.662-10.687-.145,2.181.167,4.356-.236,6.39-.376,1.9,1.772,2.6,1.465,4.264a1.13,1.13,0,0,0,.507.143c.913-.074,1.84.288,2.926-.11m-62.9-27.573c.708.17,1.119.021.927-.823a35.487,35.487,0,0,0-2.411-5.849c-.281-.664-.7-.311-.981.047a20.922,20.922,0,0,0-2.693,4.238c-.347.755-.2,1.111.629,1.291,1.518.327,3.021.726,4.53,1.1m78.074,32.122c0,.025,0,.051,0,.076H162c.586,0,1.441.285,1.43-.645-.01-.832-.858-.426-1.309-.453q-9.548-.578-19.1-1.071c-.492-.026-1.283-.293-1.364.516-.088.875.729.655,1.224.68q9,.467,18.008.9M47.531,174.85c.362-.153.876-.352,1.374-.586,2.985-1.408,3.035-1.6.529-3.506-.509-.387-.922-1.363-1.843-.847a16.3,16.3,0,0,0-3.958,2.762c-.508.53-.685,1.119.272,1.365,1.137.292,2.291.516,3.627.812M99.049,34.021c-.129-.775-.666-.623-1.251-.507-3.352.665-6.572,1.787-9.83,2.78-.627.191-.778.452-.619,1.189.326,1.511,1.276,1.11,2.111.8,2.849-1.043,5.61-2.322,8.552-3.11.559-.15,1.074-.375,1.038-1.156M60.838,56.3a19.552,19.552,0,0,0-2.776,3.91c-.272.492-.5,1.138.41,1.235a49.836,49.836,0,0,1,6.719,1.413L60.838,56.3m125.2,26.553c1.444,4.1,1.828,8.083.135,12.08-.138.326-.346.76.114.964a.669.669,0,0,0,.906-.414c1.667-3.57,2.816-7.187,1.111-11.1a2.093,2.093,0,0,0-2.266-1.534m-93.116-1.3-.043.671L129.8,83.595q.009-.255.018-.511l-36.9-1.532M105.009,163.2c.237.761.591.694.871.728a193.471,193.471,0,0,0,21.157,1.4c.482.006,1.346.351,1.343-.468,0-.78-.876-.465-1.349-.466-5.341-.015-10.667-.288-15.985-.781-1.964-.182-3.937-.27-6.037-.409m45.182,9.791c-.778,2.647-.081,5-.9,7.749,1.85-.906,3.168-1.544,4.477-2.2.608-.3.84-.66.2-1.228a25.508,25.508,0,0,1-3.786-4.323M84.478,90.823a47.728,47.728,0,0,0-6.83-.418,1.215,1.215,0,0,0-1.321.778c-.228.583.263.9.574,1.25a2.958,2.958,0,0,0,1.919,1.007c2.3.278,4.067-.6,5.659-2.616m-1.2-10.773c.56,0,1.12.016,1.679-.006.409-.016.947.285,1.2-.178.261-.484-.089-.965-.361-1.374A4.492,4.492,0,0,0,80.23,76.82c-.8.379-1.031.669-.575,1.659.812,1.762,2.261,1.41,3.627,1.571M39.671,217.477c2.932-.392,2.13,2.651,3.551,3.573.837-1.193.882-6.722-.018-7.447-.54-.435-1.444-.68-1.748.41a14.4,14.4,0,0,1-1.786,3.464M149.3,63.954a32.772,32.772,0,0,0,.516-3.459c.047-1.2,1.694-2.489.548-3.338-.846-.627-2.5-.162-3.8-.167-.086,0-.173.144-.282.241l3.016,6.723M80.261,115.683c-1.9-4.287-5.961-6.361-9.606-4.979a44.3,44.3,0,0,1,9.606,4.979M60.643,67.412c.165-.6.274-1,.388-1.405.963-3.411.961-3.391-2.611-3.744-.669-.066-1.183-.177-1.485.634a1.363,1.363,0,0,0,.542,1.76c1.013.81,1.962,1.7,3.165,2.756M77.98,88.484c2.557,0,4.929,0,7.3,0,.864,0,.926-.668,1.035-1.276a.526.526,0,0,0-.623-.683c-2.55.311-5.541-1.456-7.713,1.96M125.53,12.817a55.788,55.788,0,0,1-2.606,5.8c-.761,1.415.777,1.757,1.521,2.2.958.577.912-.555,1-1.021a17.392,17.392,0,0,0,.083-6.985m16.435,71.207c7.576.568,15.127,1.355,22.727.948-7.589-.183-15.151-.913-22.727-.948M70.364,54.41c2.66,1.67,4.9,4.054,8.174,4.97-1.274-4.333-5.037-4.116-8.174-4.97m70.772,67.86c-.877.32-1.275,1.113-1.725,1.746-2.41,3.4-2.184,2.775,1.3,4.06.093.034.231-.057.428-.111ZM61.977,90.378c-.309.354-.523.695-.6.667-1.852-.705-1.232.758-1.362,1.541a3.9,3.9,0,0,0-.15,1.459c.15.612-.767,1.688.76,1.791,1.318.089,1.369-.682,1.353-1.628-.02-1.174,0-2.347,0-3.83m91.675,6.407a8.43,8.43,0,0,1-.647,2.221c-1.338,1.975.132,2.324,1.5,2.761.384.123.832.466,1.181.045a1.284,1.284,0,0,0,.009-1.25,10.612,10.612,0,0,0-2.039-3.776M122.616,29.3a9.972,9.972,0,0,0-.489.962,23.162,23.162,0,0,0-.8,2.275,2.508,2.508,0,0,0,2.65,3.112c.687-.042.759-.535,1-.924.127-.2.207-.53-.123-.612-2.749-.68-2.372-2.7-2.238-4.814M83.408,85.865v.064c.869,0,1.738,0,2.608,0,.449,0,.663-.24.682-.687s-.123-.736-.6-.746c-1.738-.038-3.476-.074-5.215-.088-.609-.005-.66.527-.688.93-.034.513.41.525.788.528.808.005,1.616,0,2.423,0m-7.4-2.026L72.04,85.994c1.322.8,2.46,1.507,3.622,2.175.235.135.6.327.808-.035a.706.706,0,0,0-.042-.655c-.967-1.028-.651-2.246-.419-3.64M38.333,53.34c2.035.091,3.507.107,4.968.235,1.422.124,1.454-.4,1.023-1.562-.409-1.1-.884-1.255-1.86-.714-1.174.65-2.405,1.2-4.131,2.041M91.561,38.4q.031.184.063.369c1.27.215,2.537.457,3.814.629.4.054,1.04.312,1.2-.088.315-.812-.44-1.466-.64-2.222-.147-.556-.612-.272-.913-.153-1.182.466-2.348.973-3.52,1.465M81.189,88.973c0-.028,0-.056,0-.084-1,0-1.99,0-2.985,0-.346,0-.66.123-.707.464-.055.408.362.491.627.5,2.173.095,4.348.156,6.523.22a.65.65,0,0,0,.68-.531c.051-.507-.443-.546-.779-.556-1.119-.036-2.239-.014-3.359-.014m88.03-3.056c0,.034,0,.068,0,.1a12.3,12.3,0,0,1-1.486-.011c-.778-.1-1.012.422-1.061.983-.059.68.567.508.948.546,1.05.105,2.105.158,3.157.246.867.072.774-.673.914-1.136.22-.727-.432-.579-.8-.626-.552-.071-1.112-.073-1.669-.1M180.15,96.985c.006-.281-.256-.541-.789-.558a13.367,13.367,0,0,0-1.853-.077c-.65.072-1.6-.491-1.857.635-.258,1.144.905.716,1.333,1.112a4.146,4.146,0,0,1,.563.47c.29.393.556.68.941.117.432-.631,1.731-.26,1.662-1.7M72.571,208.155a2.929,2.929,0,0,0,.959-.236c.88-.552,1.735-1.375,1.138-2.4-.651-1.121-1.236.25-1.879.395a4.026,4.026,0,0,0-.827.4c-.513.253-1.316.264-1.043,1.191.248.844.985.536,1.652.657M83.857,83.88c0-.013,0-.027,0-.041.745.045,1.489.1,2.234.131.467.021.66-.248.66-.688,0-.336-.092-.671-.466-.684-1.613-.055-3.227-.1-4.84-.079-.437.005-.558.492-.538.854.022.415.438.332.715.356.743.065,1.488.1,2.232.151M64.462,205.225c-1.313-1.082-2.159-2.1-3.4-1.142a1.326,1.326,0,0,0,.039,2.12c1.742,1.528,1.7-1.275,3.361-.977M110.186,41.678c-1.8-1.821-2.566-1.641-5.6,1.251a20.45,20.45,0,0,0,4.212-.791,9.669,9.669,0,0,0,1.388-.46M89.035,88.6c.784-.191,1.912.449,1.985-1.014s-1.035-.824-1.69-.948c-1.056-.2-1.9.13-1.823,1.33.065,1.065,1.065.344,1.528.632m87.876-6.358c.731-.422,2.218.594,2.3-.961.051-.978-1.309-.995-1.872-.873-.756.164-2.141-.1-2.175,1.135-.033,1.177,1.074.544,1.749.7M84.169,81.8c0,.023,0,.046,0,.07a8.865,8.865,0,0,0,1.1.046c.471-.036,1.245.489,1.3-.435s-.745-.772-1.341-.8c-1.043-.043-2.085-.082-3.127-.129-.378-.017-.948-.374-.912.39.018.389.17.866.765.857.736-.012,1.473,0,2.209,0m95.738,17.645c1.632.072,3.124.54,4.962-.377-1.714-.372-3.451-.37-3.173-2.634-.756,1.031.424,2.891-1.79,3.011M147.671,75.979c-1.076-.009-2.28-1.263-3.006.033-.271.483.417,2.187.8,2.231,1.348.159,1.42-1.441,2.209-2.264m28.839,23.3c-1.442-.235-2.509-.642-2-2.384.087-.3-.1-.466-.391-.465-.5,0-.6.305-.528.74.2,1.248.213,2.391-1.673,2.452,1.621.016,3.088.368,4.587-.344m-4.1-1.428c.008-.986-.308-1.218-.931-1.093a2.472,2.472,0,0,0-2.221,1.834c-.083.364.482.8.69.637.793-.633,2.1-.538,2.462-1.377M65.46,89.425c.621-.365,1.982.341,2-.489.02-1.228-1.34-.622-2.069-.625s-2.077-.558-2.072.6c0,.836,1.352.215,2.146.515m-2.654-10.84c-.4-.439.607-1.563-.783-1.6-1.023-.027-.914.7-1.021,1.386a1.254,1.254,0,0,0,1.253,1.48c.9.116.436-.75.551-1.267m28.772,2.594a7.326,7.326,0,0,0-3.107-.366c-.241.017-.55.047-.566.355a.979.979,0,0,0,.211.663c.648.684,2.859.271,3.463-.652M124.9,31.267c.46-.531,1.69-.473,1.58-1.21s-1.216-1.036-1.959-1.11c-.766-.076-.852.829-.849,1.358,0,.6.648.791,1.227.961M63.4,207.079c.62.126,1.082.259,1.553.308.983.1,1.522-.667,2.162-1.2a.356.356,0,0,0-.133-.6,2.782,2.782,0,0,0-2.122.317,2.4,2.4,0,0,0-1.459,1.177m2.83-120.991c-.088-1.7-.785-2.193-2.086-2a.769.769,0,0,0-.683,1.078c.511,1.466,1.791.3,2.769.925M89,89.128c-.429,0-.858,0-1.287,0-.475,0-.958.211-.948.668.012.559.618.481,1.018.509a20.126,20.126,0,0,0,2.022.038c.434-.013,1.081.283,1.14-.5.054-.719-.535-.694-1.025-.718-.306-.015-.613,0-.919,0m.568-6.514c-.549.137-1.474-.288-1.417.719.069,1.2,1.15.586,1.77.724.466.1,1.232.262,1.19-.666-.052-1.157-.992-.6-1.544-.777m82.564-1.56a10.5,10.5,0,0,0-1.941-.789c-.434-.091-1.073.17-.925.83.248,1.105,1.323.852,2.075,1.067.581.167.677-.347.79-1.108M67.169,87.735c-.418-.981-3.041-1.785-3.67-1.178a.9.9,0,0,0-.165.675.594.594,0,0,0,.668.5c1.043,0,2.086,0,3.167,0M99.927,20.612H96.9c.279.875.632,1.422,1.552,1.4a1.33,1.33,0,0,0,1.479-1.4M89.517,85.981c.548-.181,1.563.436,1.511-.731-.041-.933-.936-.577-1.469-.586-.6-.01-1.586-.32-1.539.736.041.936.978.38,1.5.582m7.311-66.469c1.364,0,2.352.347,3.4-.246-1.086-1.366-2.058-1.25-3.4.246m82.32,59.753c.608.151,1.312.111,1.534.893.153.537-.731,1.474.1,1.559,1.023.105.365-1.187.78-1.728.158-.206.281-.439.46-.724Zm-5.437,2.864a2.278,2.278,0,0,1,2.1-2.575c-2.682-.237-2.7-.2-2.1,2.575M67.455,207.658c.83-.159,1.771.784,2.318-.186.215-.381-.265-.99-.722-1.135-1.055-.336-1.016.884-1.6,1.321" transform="translate(0 0)" fill="#9ca3af"/>
      <path id="Path_278" data-name="Path 278" d="M194.508,624.591a4.2,4.2,0,0,1-.854-.008c-.56-.167-1.421.124-1.623-.542-.193-.638.645-.794,1.064-1.114,1.892-1.447,2.07-2.907.728-5.594-.3-.6-1.164-1.189-.45-1.963.6-.653,1.284-.028,1.9.143a4.7,4.7,0,0,0,4.735-.842c4.815-4.432,6.943-2.741,10.6-.56,3.317,1.977,6.492,1.573,9.679-.048,1.035-.526,1.445-.913,2.381.453,1.114,1.626,3,2.743,4.63,3.988,1.343,1.028,1.371,1.7-.058,2.793-3.686,2.829-7.586,3.836-12.017,2.087a40.414,40.414,0,0,1-4.662-1.882,7.1,7.1,0,0,0-7.258.047c-2.519,1.356-5.016,2.782-7.978,2.944-.371.02-.739.088-.815.1m24.167-5.122c-1.422.491-2.466-.225-3.475-.9a11.661,11.661,0,0,0-4.123-1.64c-.73-.158-1.383-.261-1.8.739a1.508,1.508,0,0,1-2.5.533c-.963-.8-1.887-.8-3.451-.205,1.579-1.209,1.5-1.132.572-2.083-.451-.461.506-.991.408-1.659-.042-.285.409-.383.692-.072.947,1.043,1.847.211,2.938.064a4.367,4.367,0,0,0-5.854.242,7.051,7.051,0,0,1-7.31,2.134c1.453,2.557,1.613,4.767-.5,6.945a17.406,17.406,0,0,0,7.6-2.573,9.676,9.676,0,0,1,8.433-.719c1.8.684,3.6,1.373,5.409,2.037,4.2,1.54,7.9.652,11.249-2.368-1.6-1.848-3.826-2.88-5.34-4.71-.33-.4-.669-.04-.984.116a20.493,20.493,0,0,1-5.857,1.53l3.9,2.59" transform="translate(-120.152 -382.912)" fill="#9ca3af"/>
      <path id="Path_279" data-name="Path 279" d="M107.624,474.457c-.723-.018-1.456.073-1.607-.73-.141-.748.489-1.14,1.062-1.321,1.4-.442,2.823-.978,4.314-.473.584.2,1.19.614,1.115,1.318-.073.688-.8.695-1.322.774-1.218.183-2.445.3-3.562.433" transform="translate(-66.331 -295.199)" fill="#9ca3af"/>
      <path id="Path_280" data-name="Path 280" d="M284.8,50.61a3.385,3.385,0,0,1-3.4,3.246,3.575,3.575,0,0,1-3.637-3.665,3.4,3.4,0,0,1,3.358-3.091,3.831,3.831,0,0,1,3.675,3.51m-3.473,2.347c.989-.07,2.08-.459,2.135-1.4.066-1.137-1.2-.577-1.862-.78a5.027,5.027,0,0,0-1.463-.135c-.353,0-.871-.015-1.022.191-.275.375.053.812.3,1.163a2.592,2.592,0,0,0,1.918.964m-2.568-3.473,4.823.519c-1.351-2.316-2.945-2.524-4.823-.519" transform="translate(-173.822 -29.474)" fill="#9ca3af"/>
    </g>
  </g>
</svg>
