<svg xmlns="http://www.w3.org/2000/svg" xmlns:xlink="http://www.w3.org/1999/xlink" width="240" height="240.326" viewBox="0 0 240 240.326">
  <defs>
    <clipPath id="clip-path">
      <rect id="Rectangle_43" data-name="Rectangle 43" width="240" height="240.326" fill="#9ca3af"/>
    </clipPath>
  </defs>
  <g id="Group_67" data-name="Group 67" transform="translate(0)">
    <g id="Group_67-2" data-name="Group 67" transform="translate(0)" clip-path="url(#clip-path)">
      <path id="Path_162" data-name="Path 162" d="M120.106,204.86c-.227.907-1.395.205-1.755,1.1,1.466.49,3.144-.09,4.443,1.259l-31.917.863c.88-1.064,2.078-.927,3.1-1.217.316-.09.667-.213.615-.636-.056-.455-.446-.4-.765-.4-.854-.007-1.709,0-2.574,0-.115-.61.407-.588.716-.7,2.514-.918,3.183-1.573,2.323-4.049-.823-2.371.062-4.414.221-6.6a2.947,2.947,0,0,1,.113-.381c.88-4.075.46-4.951-3.611-5.839-4.543-.99-8.846-2.741-13.329-3.907-1.187-.309-1.6-.291-1.59,1.117.061,7.361.04,14.723.012,22.084a1.994,1.994,0,0,0,1.049,1.943,8.171,8.171,0,0,1,1.958,1.664,2.059,2.059,0,0,0,2.407.86c.391-.121,1.057-.341,1.211.247.218.839-.585.634-1.034.773-.239.074-.469.179-1.065.411,1.759.582,3.4.1,4.9.984-1.016.829-2.072.539-3.049.532-6.357-.045-6.358-.054-6.357,6.228,0,4.178.013,8.357.006,12.535a3.546,3.546,0,0,1-3.228,3.819c-5.676.882-11.353,1.766-17.02,2.706a4.612,4.612,0,0,1-2.12-.107Q28.248,232.9,2.714,225.716c-1.3-.367-1.968-.889-2-2.427-.34-18.1-.744-36.2-.715-54.305,0-1.755.53-2.529,2.314-2.61,6.08-.278,12.139-1.327,18.241-.567,1.632.2,1.513-.683,1.512-1.738-.012-8.555-.142-17.114.058-25.664.08-3.41-.041-6.44-3.625-7.96-2.314-.981-1.7-2.733-1.184-4.282a3.183,3.183,0,0,0-.036-2.2A100.147,100.147,0,0,0,9.7,105.488C7.2,100.849,6.424,96.2,8.174,90.969,10.219,84.853,9.54,78.4,9.366,72.056c-.186-6.778-2.942-12.82-5.62-18.846A34.544,34.544,0,0,1,1.254,44.5C.924,42.423,2.3,40.908,3.53,39.415a47.5,47.5,0,0,1,8.184-7.206c5.237-4,8.817-8.931,10.045-15.388.672-3.536,3.241-5.329,5.983-6.557,6.887-3.085,13.813-2.141,20.609.693,3.15,1.314,5.128,3.159,5.292,6.983a19.375,19.375,0,0,0,1.811,8.276c.861,1.647,1.757,3.114,3.991,3.659-1.183-2.929-1.136-6.019-2.18-8.843-.811-2.193-1.3-4.22.153-6.348.375-.55.235-1.426.448-2.117C59.79,6.309,63.781,1.933,70.152.3c2.923-.749,6.054.049,9,.817,2.1.546,4.44.284,6.188,2.083A10.378,10.378,0,0,1,88.1,6.985c.957,2.774,2.859,5.2,2.847,8.34-.006,1.584-.161,3.139-.253,4.7-.2,3.338-.082,6.631-1.936,9.651-.377.615-.016,1.687.012,2.547a4.438,4.438,0,0,1-1.647,3.859c-1.071.86-1.1,2.2-1.373,3.389-.641,2.744-2.337,4.979-3.536,7.449a3.634,3.634,0,0,1-2.64,1.975c-2.164.172-1.717,1.5-1.524,2.726,1.1,6.987,2.329,13.956,3.344,20.956.56,3.858,1.782,7.607,1.866,11.536a2.346,2.346,0,0,0,1.776,2.284c8.979,3.58,18.033,6.937,27.3,9.7,1.542.46,2.44-.256,3.386-.97a8.552,8.552,0,0,1,7.289-1.585,4.1,4.1,0,0,1,3.491,2.835c.343,1.142.966,1.307,2.031,1.312,3.831.016,7.641-.981,11.487-.2,1.012.205,1.229-.49,1.25-1.321.114-4.571.216-9.143.373-13.713.029-.855-.348-1-1.052-1-7.691.033-15.383.045-23.074.082-5.3.026-10.607.169-15.908.085-2.483-.039-3.42-1.288-3.332-3.757q.633-17.887,1.274-35.774c.068-1.917,1.914-3.263,4.736-3.264,3.711,0,7.422.116,11.132.181q16.9.3,33.8.591c9.542.171,19.084.377,28.627.5,1.674.022,2.093.61,2.041,2.27-.254,8.139-.359,16.282-.524,24.424-.083,4.106-.265,8.213-.229,12.319.015,1.644-.445,2.158-2.108,2.144-7.958-.068-15.917.045-23.874-.053-2-.024-2.747.4-2.736,2.578.019,3.762-.436,7.524-.575,11.291-.083,2.219,1.344,3.44,3.6,3.381,2.117-.054,4.237-.111,6.353-.064,1.245.028,2.449.287,2.311,2.009-.1,1.27.9.716,1.388.723,6.3.094,12.6.132,18.9.19q18.993.178,37.986.367c5.7.061,11.4.208,17.1.236,1.868.01,2.576.83,2.5,2.622a36.638,36.638,0,0,0,.012,4.573c.146,1.8-.828,2.289-2.343,2.359-3.222.148-3.222.155-3.222,3.317q0,53.52-.028,107.04c0,1.219.674,2.905-.919,3.534a7.509,7.509,0,0,1-5.621-.2c-.878-.355-.567-1.237-.567-1.937q-.019-29.246-.029-58.491-.006-25.367,0-50.734c0-2.423-.019-2.322-2.435-2.241-7.944.267-15.892.44-23.838.648-14.1.367-28.208.76-42.313,1.065-1.734.037-1.826.856-1.825,2.215q.04,44.866.01,89.73c0,1.322-.114,2.647-.23,3.966-.145,1.651-1.344,2.028-2.7,1.958-1.4-.072-2.6-.513-2.729-2.251-.56-7.472-.2-14.954-.232-22.43-.083-16.562-.031-33.125-.03-49.688,0-7.218-.025-14.437.049-21.655.013-1.234-.281-1.73-1.516-1.544a5.34,5.34,0,0,1-.795,0c-3.2-.012-3.2-.012-3.862,3.077-1.418,6.624-7.786,12.359-14.883,13.4-3.232.475-3.046.5-3.406,3.576-1.412,12.078-2.182,24.269-5.788,35.99-2.067,6.719-5.681,12.657-9.7,18.346a7.242,7.242,0,0,1-5.468,2.873c-.647.061-1.36-.112-1.531.838-.352,1.953-.7,3.907-1.125,5.845-.187.86.2,1.074.909,1.07a18.3,18.3,0,0,1,13.041,5.425c.533.5,1.077.345,1.667.257.569-.084,1.2-.322,1.571.391M55.412,93.2c-.459.855-1.228,1.532-1.39,2.562-.1.64-.509,1.545.148,1.8a23.383,23.383,0,0,0,5.65,1.651c.969.116.857-1.556,1.466-2.277.242-.287.452-.6.74-.988-1.081-.517-2.056-1.036-3.072-1.457-1.175-.486-2.132-1.647-3.616-1.222.164-.678-.279-.879-.791-1.119-1.433-.672-2.872-1.344-4.249-2.121-1.359-.766-2.646-1.655-4.273-.507,1.318-1.4.833-2.043-2.076-2.919a10.245,10.245,0,0,0,8.2,10.612c.819.15.958-.1,1.105-.849.261-1.322.5-2.764,2.159-3.171M36.276,82.1c0-2.412-2.24-3.907-4.689-2.884a51.456,51.456,0,0,0-5.562,3.038c-.978.56-.487,1.015.178,1.4,2.285,1.329,4.586,2.632,6.852,3.992,1.225.736,1.434.322,1.634-.952.255-1.621.218-3.436,1.66-4.669-.118.51-.2,1.031-.359,1.529-1.45,4.581-1.474,4.615,2.672,7.114a43.966,43.966,0,0,0,6.731,3.4c-.668-1.721-2.019-2.989-1.826-4.47.442-3.4-1.5-4.954-4.074-6.27a8.152,8.152,0,0,1-1.906-1.4c-.582-.562-.9-.041-1.312.167M57.5,126.01c1.2-2.283,3.609-3.027,5.714-4.353-1.158-.715-2.208-1.384-3.281-2.013-.305-.179-.6-.415-1.048-.069-1.114.87-2.155,5.231-1.52,6.65-1.479,2.5-.66,5.013.035,7.479.5,1.785,2.345,1.716,3.7,2.254.7.276,1.385,1.006,2.209.5.736-.453.149-1.435.56-2.1.838.754.3,1.94.95,2.763a9.2,9.2,0,0,0,2.16-5.868c-.006-1.787-.024-3.574.016-5.36.062-2.778-2.127-4.18-4.706-3.028-1.773.792-3.114,2.219-4.791,3.145m19.421-67.1c-.492,1.161-1.67,1.615-2.53,2.386a3.157,3.157,0,0,0-1.2,2.59c.083,1.645.293,3.285.452,4.926.031.322.035.75.457.747,1.513-.009,3.031-.018,4.536-.151.646-.057.433-.707.374-1.136-.347-2.545-.671-5.1-1.1-7.627-.106-.628-.07-1.516-1.045-1.676a2.18,2.18,0,0,0,.376-1.484c-.4-2.413-.386-4.878-.964-7.273-.463-1.916-3.3-3.224-4.955-2.187a47.026,47.026,0,0,1-12.859,6.11,108.794,108.794,0,0,1-12.977,2.89c-3.054.418-5.327,1.35-5.854,4.907-.283,1.914-1.385,3.7-2.024,5.571a6.425,6.425,0,0,0-.688,2.881c5.819-1.437,11.655-2.119,17.314-3.8,4.932-1.469,9.869-2.877,14.652-4.783-3.2,2.232-7.06,2.925-10.8,4.419,3.173,1.381,6.077,2.612,8.948,3.913.9.408,1.32.254,1.839-.631a31.955,31.955,0,0,0,3.284-8.212c.128-.491.437-1.011-.153-1.43,1.164-1.28,1.052-2.922,1.239-4.469.168-1.4.081-2.848.946-4.124-.646,3.086.208,6.136-.19,9.262,1.324-.287,1.767-1.564,2.922-1.615M53.767,206.638h-.359c0-10.114-.034-20.227.038-30.34.01-1.473-.581-1.7-1.823-1.833q-23.894-2.6-47.774-5.345c-1.543-.179-1.932.068-1.905,1.626q.442,25.84.753,51.682c.014,1.124.376,1.568,1.484,1.882q23.975,6.794,47.912,13.721c1.483.429,1.718.071,1.708-1.382-.066-10-.034-20.007-.034-30.011M151.073,79.875c.533.572,1.084.351,1.565.352,7.892.014,15.785-.047,23.676.049,1.729.021,2.03-.563,2.051-2.14.158-11.8.4-23.6.661-35.4.025-1.133-.166-1.632-1.481-1.654-10.135-.171-20.268-.436-30.4-.651-14.044-.3-28.088-.567-42.131-.885-1.215-.027-1.742.222-1.786,1.592-.226,7.013-.566,14.022-.854,21.033-.234,5.689-.422,11.381-.7,17.068-.058,1.174.117,1.661,1.455,1.606,3.77-.156,7.546-.191,11.321-.226,8.62-.08,17.24-.161,25.86-.163,1.422,0,1.814-.467,1.759-1.832-.08-1.984.037-3.977.093-5.966a2.713,2.713,0,0,1,1.222-2.563,4.863,4.863,0,0,1,7.072,3.968c.086,1.21-.616,3.044.456,3.494,1.31.55,2.579-.954,3.819-1.668a2.654,2.654,0,0,0,.316-.242c.72-.576,1.319-1.092.255-1.986a1.2,1.2,0,0,1-.224-1.911c.527-.5,1.19-1,1.95-.691a1.8,1.8,0,0,1,1.068,1.913,5.048,5.048,0,0,1-2.34,4.337,33.811,33.811,0,0,1-4.678,2.568M22.057,122.126c0-3.793-.015-7.034.01-10.275.006-.821-.269-1.257-1.133-1.2-2.254.144-2.864-1.07-2.615-3.084a13.966,13.966,0,0,0,.009-2.384c-.062-1.279.609-1.8,1.793-1.822,1.524-.022,3.057-.126,4.571,0s1.856-.557,1.6-1.837a26.785,26.785,0,0,1-.7-3.271c-.319-4.428-1.011-8.806-1.573-13.2-.1-.752-.141-1.536-.849-1.9a2.321,2.321,0,0,1-1.214-2.682c.66-4.241-1.122-7.877-2.771-11.541a15.889,15.889,0,0,1-1.65-6.27c-.088-4.223-.216-8.457-1.476-12.554a4.857,4.857,0,0,1-.018-1.369c.928,1.927,2.44,1.778,4.094,1.659,3.692-.264,7.4-.369,11.094-.538-4.379,1.833-9.019.919-13.543,1.83a19.749,19.749,0,0,1,1.086,5.466c-.022.628.327.784.891.7,3.076-.456,6.21-.359,9.274-.971a1.383,1.383,0,0,0,1.142-.92c1.331-3.163,2.612-6.349,4.044-9.466a11.868,11.868,0,0,1,6.374-6.44,1.5,1.5,0,0,0,1.157-1.492c.425-3.905.036-7.812.118-11.716a7.791,7.791,0,0,1,.5-3.1c.7-1.567,3.6-2.24,4.475-.938,2.659,3.945,5.439,7.835,7.3,12.252,1,2.385,1.047,2.438,2.757.51a10.308,10.308,0,0,0,.944-1.265c.771-1.2.819-2.21-.461-3.219a8.454,8.454,0,0,1-2.654-3.42,31.162,31.162,0,0,1-2.71-11.313,3.026,3.026,0,0,0-1.587-2.733c-5.2-3.359-10.677-4.987-16.963-3.752-5.711,1.123-6.354,1.464-7.594,7.161-1.587,7.293-4.925,13.5-10.98,18.079C13,36.458,11.274,37.91,9.484,39.274c-3.277,2.5-3.589,4.568-2.356,8.494,1.8,5.729,5.006,10.894,6.324,16.813.851,3.818,1.895,7.58,1.7,11.532A122.891,122.891,0,0,1,12.58,94.348c-.221,1.095-.828,2.419-.442,3.267.88,1.932,1.453,3.964,2.279,5.9,2.076,4.862,4.259,9.678,5.934,14.7a9.3,9.3,0,0,0,1.705,3.909m56.572-6.5a40.209,40.209,0,0,0,6.6,2.949c8.648,3.675,17.32,7.3,25.967,10.974,1.509.642,2.843,1.546,2.566,3.537-.383,2.749-.877,5.488-1.152,8.248-.887,8.9-2.877,17.618-4.337,26.423-1.113,6.717-2.348,13.413-3.577,20.11-.229,1.249.2,1.532,1.323,1.293a6.787,6.787,0,0,0,4.274-2.979,64.3,64.3,0,0,0,11.133-26.663c1.483-9.147,2.547-18.34,3.428-27.56.112-1.168-.4-1.211-1.331-1.32-5.6-.65-10.365-2.857-13.953-7.421a35.1,35.1,0,0,1-4.109-6.987,1.892,1.892,0,0,0-1.954-1.321c-8.132.26-16.266.475-24.877.717m-23.281,91.06h.069c0,2.185,0,4.37,0,6.555q.032,12.011.065,24.022c0,.856-.071,1.612,1.227,1.394,3.724-.625,7.459-1.18,11.191-1.757,1.354-.21,1.826-.958,1.778-2.341-.143-4.1-.174-8.206-.234-12.31q-.277-19.066-.542-38.133a2.7,2.7,0,0,0-3.806-2.449c-.706.367-1.283,1.1-2.07.457-.816-.67-.623-1.689-.507-2.6.149-1.176,1.032-1.317,1.663-.664a4.227,4.227,0,0,0,4.319.969c.833-.226.258-2.022.337-3.109.058-.791-.033-1.592.019-2.384.076-1.167-.391-1.478-1.537-1.319-3.277.453-6.562.88-9.856,1.161-1.7.145-2.166.837-2.153,2.509.077,10,.038,20,.038,30m39.359-31.494c.268-6.691-.324-13.367-.456-20.05q-.093-4.665-.332-9.327c-.13-2.494-.89-3.354-3.3-4.039-1.336-.38-2.706-.678-3.992-1.187-1.647-.652-2.278-.152-2.717,1.536-1.416,5.431-2.946,10.834-4.553,16.211-2.148,7.185-3.957,14.394-3.273,22.005.1,1.133.289,1.808,1.49,2.13,5.3,1.421,10.457,3.339,15.818,4.564,1.147.262,1.349-.043,1.333-1.115-.056-3.576-.021-7.153-.021-10.729m90.265-70.063v-.01c-11.452.259-22.9.5-34.355.785-4.341.11-4.309.165-4.843,4.761-.124,1.066.136,1.416,1.213,1.371,2.184-.09,4.373-.057,6.558-.115q26.9-.71,53.81-1.435c9.069-.241,18.141-.432,27.209-.738,3.04-.1,3.035-.235,3.035-3.3,0-2.617,0-2.576-2.58-2.513q-25.022.615-50.045,1.2M30.6,150.773c0,4.832.029,9.664-.022,14.494-.012,1.129.249,1.617,1.485,1.72,4.875.407,9.743.9,14.605,1.433,1.231.134,1.737,0,1.637-1.475a71.573,71.573,0,0,1-.067-8.135c.072-1.56-.148-2.689-1.815-3.157a1.379,1.379,0,0,1-1.1-1.425c-.179-3.36-.467-6.714-.68-10.073-.225-3.554-.21-3.545-3.693-4.259-2.544-.52-5.358-.723-5.474-4.326a.477.477,0,0,0-.057-.189c-.946-1.887-2.687-.893-4.041-.978-1.184-.074-.754,1.179-.76,1.873-.038,4.831-.02,9.663-.02,14.494M232.42,167.984c0-18.169-.027-36.337.044-54.506.007-1.7-.62-1.92-2.04-1.873-1.8.059-1.133,1.351-1.134,2.157q-.046,53.813-.027,107.626a6.3,6.3,0,0,1,0,.8c-.209,1.634.89,1.846,2.091,1.918,1.512.091,1.049-1.067,1.05-1.812q.029-27.153.018-54.305m-158.3-19.458q0-14.5,0-29.008a11.268,11.268,0,0,0-.079-3.532c-.525-1.506-2.18-.348-3.146-.835-2.06-1.039-1.974.173-1.973,1.6q.024,25.555.011,51.11c0,1.338-.261,2.754,1.261,3.575.713.385.573,1.122.574,1.773q.007,3.182,0,6.364c0,1.876,1.6,1.525,2.6,1.681,1.236.193.718-.972.72-1.537.031-10.4.023-20.793.029-31.189M36.64,73.419a2.008,2.008,0,0,1,.574-.069,82.049,82.049,0,0,1,24.111,7.732c.949.5,1.41.8,1.671-.61a15.829,15.829,0,0,1,3.04-6.387c.583-.8,1.47-1.711,1.435-2.539-.044-1.028-1.563-.784-2.353-1.31a32.1,32.1,0,0,0-3.207-1.567,12.015,12.015,0,0,0-9.486-1.008c-4.61,1.376-9.44,2.018-14.178,2.965-1.086.217-2.014.572-2.323,1.809-.332,1.325-.723,2.636-1.107,3.947-.109.372-.363.713-.167,1.127.245.517,4.236,2.773,4.84,2.668a67.029,67.029,0,0,1,14.259-.751c.37.015.744-.061,1.667-.144-6.343-2.85-12.591-4.144-18.776-5.865m19.6,60.125c-.671-5.547-.119-10.855,2.592-15.821.67.358,1.43.752,2.177,1.169.374.209.884.4.972-.112.279-1.626,1.575-2.8,2.04-4.5l-17.163-1.5a3.334,3.334,0,0,0-2.247.632c-3.2,2.23-5.863,4.907-7.182,8.695-.656,1.884,1.032,4.693,3.034,4.922a75.712,75.712,0,0,0,7.9.739,5.138,5.138,0,0,1,5.271,3.967c.46,1.5,1.231,1.8,2.609,1.815m-32.27,4.877c0,8.545.063,17.092-.051,25.636-.024,1.789.588,2.378,2.2,2.349a6.857,6.857,0,0,1,1.188.087c1.064.169,1.491-.123,1.489-1.341-.038-17.013-.065-34.026.037-51.038.014-2.247-.538-2.979-2.844-3.131-1.9-.125-2.053.466-2.044,2,.05,8.479.024,16.959.024,25.438m8.948-85.374c-1.433,3.117-2.484,6.1-3.6,9.061-.487,1.3.026,1.633,1.122,1.845a22.531,22.531,0,0,1,4.812,1.1c1.416.624,1.775.005,2.144-1.03.837-2.352,1.539-4.761,2.525-7.049,1.006-2.335,2.285-4.552,3.445-6.821.348,2.6-1.3,4.518-1.845,6.882,3.072-.626,6.032-1.231,8.993-1.832.583-.118,1.036-.261.61-1.015-2.215-3.918-3.555-8.439-7.985-10.771-2.434-1.282-2.774-1.369-4.86.435-2.5,2.162-3.55,5.2-4.935,8.039-.388.8.253,1.1.573,1.508,1.456,1.86,2.969,3.676,4.461,5.508a24.217,24.217,0,0,1-5.463-5.863m33.882,59.7c3.277.146,3.275.146,2.909-2.595a6.841,6.841,0,0,1-.107-1.188c.06-1.365-.564-1.789-1.92-1.832-6.949-.218-13.9-.535-20.842-.825-8.335-.348-16.671-.682-25-1.077-1.263-.06-1.637.373-1.547,1.573.079,1.047-.228,2.117,1.491,2.119,1.971,0,3.943.275,5.913.445,13.2,1.138,26.39,2.28,39.106,3.38m86,48.766v29.04c0,5.569-.017,11.139.022,16.708,0,.7-.525,1.76,1.058,1.767s1.245-.974,1.284-1.851c.009-.2.008-.4.008-.6q0-27.347,0-54.694,0-18.2.008-36.4c0-1.143.1-2.185-1.6-1.835-1.313.269-.74,1.268-.742,1.912q-.057,22.973-.029,45.947M72.1,67.788c-1.48,1.97-2.65,3.559-3.853,5.123-2.281,2.965-4.127,6.053-4.411,9.967-.269,3.711-.611,7.395.469,11.015.692,2.319,2.025,2.944,4.2,1.994s4.29-2.069,6.449-3.073c.714-.332.694-.734.51-1.423a78.823,78.823,0,0,1-1.876-11.94c-.4-3.73-.655-7.476-1.487-11.663M25.189,14.213a2.455,2.455,0,0,0-2.176,2.071c-1.376,5.791-3.4,11.168-8.473,15.013a77.85,77.85,0,0,0-10.5,9.393,6.458,6.458,0,0,0-1.774,6.136,58.871,58.871,0,0,0,3.771,8.494c5.581,11.583,6.163,23.621,3.415,36-.521,2.344-1.478,4.63-1.349,7.307,1.191-.512,2.495-.593,2.665-1.98.829-6.753,2.388-13.4,2.733-20.229a42.356,42.356,0,0,0-3.291-17.789c-1.787-4.541-4.054-8.913-5.256-13.656-.292-1.15-1.962-.74-1.539-1.808.3-.753,1.641-.411,2.143-1.447A8.9,8.9,0,0,1,8.569,38.6c2.735-1.981,5.409-4.038,7.965-6.254,5.483-4.753,7.6-11.064,8.655-18.137M60.65,36.932c2.661-1.915,3.139-3.434,1.95-6.276-.406-.972-1-1.867-1.392-2.843-.489-1.207-1.114-2.4,1.107-2.735a18.711,18.711,0,0,0,6.21-2.56c6.221-3.5,12.77-5.437,19.976-4.055,1.065.2,1.545-.059,1.378-1.168-.236-1.566-.493-3.129-.748-4.692-.216-1.315-.908-1.824-2.318-1.771a36.505,36.505,0,0,0-11.029,2.285c-3.9,1.4-7.318,3.657-10.854,5.731C63.2,19.865,60.777,20.022,61,22.9c.02.263-.369.538-.5.838a5.272,5.272,0,0,0-.5,3.59c.463,1.944,1.427,3.956.493,6.008a4.3,4.3,0,0,0,.157,3.593M95.3,145.374a3.858,3.858,0,0,0,1.645,3.744c3.118,2.529,6.823,4,10.426,5.637.87.4,1.327.046,1.484-.909q1.181-7.132,2.439-14.251c.183-1.025.049-1.29-1.128-1.32-2.846-.07-5.661.42-8.458.42s-4.268,1.8-6.2,3.052a.486.486,0,0,0-.225.666c.528,1.041-.012,2.078.022,2.96m11.553-30.947a21.844,21.844,0,0,0,5.8,9.586,17.636,17.636,0,0,0,10.944,5.076c1.113.082,1.535-.272,1.557-1.368.083-4.1.18-8.2.34-12.3.047-1.225-.707-.993-1.414-.993-5.616,0-11.231,0-17.229,0m-17.1,7.928a44.287,44.287,0,0,0-.532,15.928c.282,2.4,2.533,2.41,3.957,3.383,1.136.776,1.5-.656,2.176-1.147,1.263-.923,3.008-1.654,3.612-2.916,1.516-3.168,3.4-6.1,5.222-9.156l-14.434-6.092m37.611,2.512h-.4c0,.994.055,1.992-.016,2.981-.065.917.111,1.239,1.172,1.169a16.651,16.651,0,0,0,15.392-13.471c.236-1.257.053-1.641-1.268-1.592q-6.648.244-13.3.315c-1.223.015-1.609.524-1.594,1.673.04,2.975.013,5.95.013,8.926M103.4,113.186c-1.032-2.157-2.8-3.128-4.01-4.6a3.709,3.709,0,0,0-3.269-1.422c-7.284.206-14.571.308-21.857.478-2.576.06-2.57.1-2.264,2.718a17.494,17.494,0,0,1,.128,1.785c.014,1,.339,1.431,1.494,1.58,3.85.495,7.671-.033,11.5-.086,6.01-.083,12.018-.288,18.275-.448M58.588,169.635a5.191,5.191,0,0,1,1.184.1c1.545.49,1.95-.184,2.148-1.648.286-2.113.139-4.213.235-6.314.311-6.84.746-13.675,1.13-20.512.157-2.8.171-2.7-2.578-2.191-1.576.292-2.317.871-2.15,2.58a33.732,33.732,0,0,1,0,4.559c-.1,2.568.2,5.153-.43,7.7-.272,1.1-.893,1.914-1.946,1.938-1.592.035-1.637.995-1.635,2.113,0,2.515-.078,5.034.04,7.543.222,4.746-.43,3.917,4,4.135m15.548,39.6h.039q0-8.639,0-17.278,0-3.775-.052-7.549c-.022-1.887-1.662-1.357-2.644-1.614-1.02-.267-.672.711-.667,1.209q.213,19.86.455,39.72c.039,3.444.031,6.889.111,10.332.015.626-.136,1.67,1.032,1.494.808-.122,1.8-.245,1.724-1.488-.016-.264,0-.53,0-.8q0-12.015,0-24.031m-17.278-63.95c0-.9-.015-2.489.007-4.074.01-.724.028-1.291-1.017-1.206-2.691.217-5.39.322-8.083.512-1.146.081-1.576.873-1.565,1.912a94.68,94.68,0,0,0,.383,9.709,2.747,2.747,0,0,0,2.124,2.537,12.442,12.442,0,0,0,6.647-.018,1.525,1.525,0,0,0,1.258-1.56,59.124,59.124,0,0,0,.247-7.812m38.465,3.773c.346,5.574.654,11.039.607,16.512-.01,1.2.258,1.374,1.465,1.1a48.051,48.051,0,0,0,9.023-3.55,1.6,1.6,0,0,0,1.076-1.3c.232-1.7.55-3.385.842-5.075.076-.442.288-.8-.43-1.034a41.828,41.828,0,0,1-12.582-6.655m-55.9-68.015c2.963,2.083,5.563,3.9,8.149,5.733a7.708,7.708,0,0,0,5.951,1.532,30.591,30.591,0,0,1,4.765-.108c3.7-.008,3.723,0,4.089-3.687.071-.72.5-1.551-.44-2.143-2.257-1.421-4.474-2.754-7.353-2.531-3.366.26-6.752.3-10.13.354a23.664,23.664,0,0,0-5.031.85M52.436,98.953c-4.685-1.527-8.586-4.012-12.65-6.17-1.822-.968-3.516-2.05-5.737-1.082a4.394,4.394,0,0,1-2.543.151c-1.369-.3-1.291.443-1.126,1.285.418,2.14.944,4.26,1.313,6.407.45,2.617.4,2.654,3.077,2.376a131.945,131.945,0,0,0,17.666-2.967M101,106.8q-.042.36-.084.721c1.343,1.458,2.994,2.661,3.992,4.4a2.3,2.3,0,0,0,2.419,1.208c5.1-.166,10.2-.331,15.295-.376,1.947-.017,3.3-.025,3.329-2.707.026-2.628-.538-3.644-3.186-3.555-3.771.128-7.543.247-11.316.3-3.482.05-6.966.011-10.449.011M88.6,139.249a42.748,42.748,0,0,1,.12-15.85,1.493,1.493,0,0,0-1.191-2.039,42.254,42.254,0,0,1-5.149-2.048c-1.093-.528-1.594-.165-2.3.652-1.583,1.832-2.068,4.289-3.667,6.1-.645.73.13,1.005.61,1.313a48.707,48.707,0,0,1,6.68,5.278c1.162,1.07,1.943,2.35,1.438,3.856-.684,2.04.48,2.353,1.96,2.585.444.07.844.41,1.5.153m18.516,24.24a36.843,36.843,0,0,1-10.065,4.073,1.007,1.007,0,0,0-.9,1.071,57.926,57.926,0,0,0,.074,8.91c.037.444.042,1,.589,1.163,2.147.652,4.176,1.71,6.461,1.885a.8.8,0,0,0,.989-.683,85.619,85.619,0,0,0,2.855-16.419M42.277,41.623a16.4,16.4,0,0,1,6.9,6.994c.831,1.577,1.808,3.088,2.491,4.724.493,1.181,1.074,1.372,2.25,1.116A50.38,50.38,0,0,0,61.3,52.027c-3.122-3.619-4.371-8.778-9.448-10.341-2.968-.914-6.1-1.659-9.58-.063m24.135,2.02c-1.51-1.633-3.032-3.3-4.6-4.875-.941-.943-2.742-.925-3.816-2.034-.068-.071-.4.029-.548.134-2.066,1.436-4.465,2.193-6.8,3.3,3,.448,4.9,2.333,6.54,4.508,1.469,1.95,2.8,4.005,4.163,6.034.442.659.843,1.133,1.749.722a52.371,52.371,0,0,0,8.757-4.718c-1.842-.151-2.871-1.911-4.142-1.724-1.341.2-2.522,1.492-3.964,2.432-.053-2.041,1.923-2.454,2.662-3.775M61.347,26.115c.106,1.77,1.292,2.587,1.952,3.678,2.19,3.624,5.461,5.144,9.676,4.926,2.568-.133,4.889-1.079,7.277-1.825,1.71-.534,3.326-.778,4.862.5.567.471,1.13,1.563,1.77,1.231.954-.493.645-1.744.72-2.723a1.888,1.888,0,0,0-1.74-2.226c-.687-.108-1.3-.7-2.059-.349-.621-2.58-2.271-.829-3.348-.654-2.2.359-4.206,1.536-6.508,1.617-4.624.162-8.672-1.4-12.6-4.174m66.424,79.931a12.84,12.84,0,0,1-.072,4.653c-.162,1.359.217,1.911,1.679,1.842,3.372-.161,6.751-.169,10.126-.275,5.1-.16,4.482.768,5.211-4.763.163-1.239-.239-1.479-1.338-1.471-5.15.034-10.3.015-15.607.015m-54.136-84.5c-.628.062-.958.084-1.284.129-3.133.436-3.428.836-2.908,3.841a4.29,4.29,0,0,1,.151,1.763c-.567,2.017.724,2.05,2.112,2.263,3.033.465,5.674-1.035,8.508-1.478,2.45-.382,3.518-1.352,3.393-3.787-.015-.285-.344-1.33.659-.967.964.348,1.83-.075,2.741-.078,1.416-.005,1.616.243,1.046,1.3-.055.1.009.262-.014.389-.526,2.943-1.338,3.468-3.937,2.55.58,1.219,2.624,2.241,3.167,1.482.974-1.362,2.183-2.664,2.314-4.5a1.341,1.341,0,0,0-.948-1.508,48.14,48.14,0,0,0-5.1-2.174c-2.8-.813-5.673-1.846-8.914-.145,2.552.743,4.126,2.964,6.948,2.8-1.745.087-2.391,1.007-2.831,2.455-.371,1.223-1.649,1.4-2.836,1.336a2.827,2.827,0,0,1-2.589-1.845,4.909,4.909,0,0,1,.322-3.824M9.325,167.978c.25.035.5.076.751.105,11.319,1.3,22.64,2.57,33.955,3.893,5.658.662,11.307,1.542,16.929-.2-.241-.047-.5-.116-.755-.143-9.88-1.013-19.754-2.089-29.643-3.008-7.029-.654-14.037-2.125-21.238-.646M41.3,132.933v.12c3.105,0,6.212-.05,9.315.024,1.291.031,1.473-.445,1.1-1.524-.763-2.216-2.553-2.552-4.573-2.71-5.033-.393-10.009.467-15.015.545-1.465.023-1.553.653-1.555,1.784,0,1.166.16,1.841,1.607,1.791,3.036-.1,6.079-.032,9.118-.032m34.709,3.182h.113q0,1.291,0,2.582c0,.927.036,1.855-.007,2.78-.041.895.3,1.26,1.222,1.4,4.174.613,4.143.634,5.582-3.485a22.038,22.038,0,0,0,.84-2.834,2.669,2.669,0,0,0-.949-2.834c-1.64-1.335-3.291-2.657-4.979-3.931-1.21-.914-1.814-.467-1.821.968-.009,1.786,0,3.572,0,5.358M19.121,61.855a11.816,11.816,0,0,0,1.586,6.461c.212.389.277.852.85.974a4.366,4.366,0,0,0,4.591-2.424c.924-2.46,1.791-4.941,2.731-7.394.414-1.08.178-1.5-1-1.264a32.26,32.26,0,0,1-5.9.615c-2.841.05-2.841.047-2.863,3.032M70.638,1.383a22.736,22.736,0,0,0-7.02,4.167,3.622,3.622,0,0,0-1.365,2.477c-.547,3.691.273,7.206,1.22,10.716,3.318-1.112,3.776-1.656,3.787-4.96a22.609,22.609,0,0,1,.978-6.057,45.453,45.453,0,0,1,2.4-6.342M59.318,137.851C56.2,136,53.27,134.345,49.5,134.443a100.648,100.648,0,0,1-10.7.012c-.6-.048-1.614-.449-1.676.4s-.184,2.046,1.088,2.48c2.625.9,5.208,1.981,8.075,1.721q6.516-.591,13.031-1.2M101.7,60.033c.25-6.154.507-12.308.736-18.463.019-.512.374-1.367-.505-1.406a1.278,1.278,0,0,0-1.445,1.3c-.012.594-.061,1.188-.087,1.781-.277,6.209-.59,12.416-.819,18.626-.211,5.689-.336,11.382-.487,17.073-.015.575-.127,1.2.811,1.262.9.061.939-.514,1.007-1.113.044-.394.052-.792.068-1.189q.362-8.934.721-17.867M69.82,15.006a55.378,55.378,0,0,1,12.421-4.491A6.2,6.2,0,0,0,86.42,7.262c.472-1.088-1.53-2.376-2.665-3.378a7.884,7.884,0,0,0-.672-.421,1.794,1.794,0,0,0-2.49.141,64.041,64.041,0,0,0-10.772,11.4m30,122.68c.359.11.489.195.606.178,3.451-.489,6.9-.991,10.4-.449.63.1.758-.339.847-.832.141-.778.332-1.548.471-2.327a2.584,2.584,0,0,0-1.945-3.336,32.319,32.319,0,0,1-4.168-1.792c-.808-.392-1.2-.256-1.713.527-1.669,2.532-2.877,5.305-4.494,8.031M43.716,24.335a1.688,1.688,0,0,0-.589,1.5c.626,4.285-.1,8.555-.1,12.832,0,.528.067.944.75.781,1.87-.448,3.811-.133,5.7-.6,1.342-.334,1.561-.685.784-1.921A49.93,49.93,0,0,1,46.141,29.5a26.54,26.54,0,0,0-2.425-5.164M36.295,67.123c.15-.633.072-.891-.388-.889-2.182.008-3.954-1.371-6.023-1.795-.967-.2-1.4.009-1.535.872a26.844,26.844,0,0,1-1.215,4.575c-.32.942-.063,1.463.941,1.956,1.708.84,3.664,1.134,5.184,2.372.331.27.747.409.913-.17a54.724,54.724,0,0,1,2.124-6.923M95.8,99.493c-.267-2.221-.8-4.013-.281-5.745.443-1.476-.08-2.061-1.4-2.364a9.1,9.1,0,0,1-1.49-.543,6.468,6.468,0,0,0-7.6,2.019c-.479.627-.779,1.074.323,1.353a14.994,14.994,0,0,1,3.479,1.855A46.035,46.035,0,0,0,95.8,99.493m.1,84.951c-.124,3.316-.124,3.316,2.287,3.844,4.477.981,4.477.981,5.636-3.5.812-3.145.811-3.141-2.31-3.651a9.563,9.563,0,0,1-1.151-.292c-4.273-1.26-4.273-1.261-4.453,3.4,0,.066-.006.132-.009.2m16.6-87.007c-4.3-1.284-8.594-2.594-12.907-3.837-1.072-.309-2.168-1.812-3.226-.642-.887.981-.416,2.548-.377,3.864a4.861,4.861,0,0,0,.288,1.151c.3,1.053.2,2.747,2.051,1.072.432-.39,1.407-.178,2.131-.245,3.99-.369,8.022-.238,12.04-1.363M99.507,206.465h17.131c-1.6-3.448-6.095-4.684-9.851-4.435-2.958.2-5.926.995-7.28,4.435M11.161,98.407c-2.545,1.5-2.558,1.508-1.372,3.94a175.559,175.559,0,0,1,8.767,20.97c.23.682.5,1.075,1.225.9,1.137-.269.508-1.027.345-1.564-2.492-8.209-6.151-15.982-8.964-24.25m63.9-15.918a22.4,22.4,0,0,1,2.446-2.38c2.356-1.633,3.131-3.526,2.3-6.479-1.058-3.75-.793-3.8-4.887-3.424-.856.078-1.175.259-.961,1.19a36.787,36.787,0,0,1,.521,6.514c.069,1.422.351,2.833.582,4.581m-10.1,20a25.193,25.193,0,0,0-14.894-2.138,131.977,131.977,0,0,1-15.089,2.165c-.881.046-1.761.1-2.643.157q.029.266.058.533l32.568-.716m-36.5-24.92a6.993,6.993,0,0,1,3.876-.506c.668.11,1.127.118,1.4-.638s-.2-1.033-.658-1.445c-1.626-1.47-3.84-1.74-5.639-2.843-.428-.262-.832-.183-.943.275-.613,2.53-2.147,4.675-2.933,7.119a2.328,2.328,0,0,0,.784,2.7c.826.524,1.287-.615,1.922-.983,1.086-.629,2.146-1.309,3.174-2.029.54-.378,1.463-.354,1.544-1.4l-2.529-.248M97.6,200.849a.979.979,0,0,1,.858-.911c2.458-.623,3-2.489,3.079-4.669.015-.429.212-1.054-.583-.9a9.2,9.2,0,0,0-5.66,4.052c-.974,1.391.905,2.341,1.524,3.482.282.52.558,1.043.813,1.576.037.078-.056.218-.088.325-.635.309-.9-.755-1.564-.417A4.342,4.342,0,0,0,96,204.573c.242.816,0,1.948,1.3,2.148,1.2.185,1.368-.858,1.791-1.524,1.053-1.659,2.029-3.367,3.107-5.174-1.594.076-2.93,1.106-4.595.827m-61.581-79.81c1.761-3.734,4.908-5.922,8.514-8.424-3.7-.307-6.814-.577-9.935-.818-.86-.066-.758.563-.631,1.078.67,2.725,1.365,5.443,2.052,8.164M71.332,42.713a28.1,28.1,0,0,0,7.593-1.53c.416-.15,1.565-.22.808-1.059-1.054-1.168-1.991-2.639-4.1-2.13a16.635,16.635,0,0,1-6.3.545c-.318-.045-.629-.067-.834.32-.883,1.664.526,3.9,2.826,3.855m53.618,58.272a3.776,3.776,0,0,0,3.2,1.4c4.8.491,9.611,1.086,14.449.505.7-.084,1.822.424,2.011-.66.169-.966-.963-1.109-1.6-1.518a3.619,3.619,0,0,0-2.707-.182,22.663,22.663,0,0,1-5.533-.008,36.928,36.928,0,0,0-9.82.458M144.9,75.852c0-.86.033-1.721-.012-2.578-.031-.6.459-1.594-.389-1.7-.974-.122-1.093.926-1.2,1.71-.053.391-.028.792-.042,1.189q-.394,11.355-.779,22.711c-.02.607-.371,1.516.5,1.687.99.194,1.345-.766,1.49-1.5a6.486,6.486,0,0,0-.137-2.156,15.957,15.957,0,0,1-.172-5.333c.875-4.654.249-9.365.74-14.026M76.522,89.007c1.408-1.335,2.128-3.638,4.707-3.3.46.061.582-.493.56-.892a18.139,18.139,0,0,0-1.02-6.388c-4.943,2.615-6.47,6.422-4.247,10.579M52.9,162.809H53c0-1.646.007-3.293,0-4.938,0-.718.1-1.61-1.029-1.451-.776.109-1.8-.31-1.93,1.251a75.032,75.032,0,0,0,.057,10.244c.08,1.421,1.2.96,1.911,1.1,1.056.216.909-.615.906-1.274-.008-1.645,0-3.291,0-4.936m96.387-81.43c-2.523,2.723-2.8,5.816-3.546,8.687a5.939,5.939,0,0,0-.152,3.9c.124.295,0,1.043.564.726,1.051-.593,1.816.32,2.766.482.541-4.529.257-8.9.369-13.794m-3.3,1.341a9.538,9.538,0,0,1,1.7-2.373c3.055-2.326,1.482-5.4,1.419-8.192-.021-.93-1.123-1.178-2.019-1.231a.92.92,0,0,0-1.1,1.05c0,3.59,0,7.179,0,10.746M76.127,147.8c0,.79-.046,1.583.015,2.368.049.632-.367,1.7.819,1.6.922-.077,2.2.454,2.635-1.037q.8-2.736,1.694-5.447c.236-.711.218-1.076-.679-1.138-5.313-.372-4.422-1.123-4.484,3.656m5.559-60.949c-1.96-.049-4.7,1.964-4.514,3.584.227,2,2.218,1.51,3.5,2.081,2.913,1.3,2.815-.813,3.276-2.574.655-2.5.333-3.026-2.26-3.091M83.427,105.5c-9.02-1.194-23.9-1.57-30.348-.746,9.937.1,19.832,1.881,30.348.746M74.372,1.4c-.984.475-2.644-.065-3.609,1.384-1.382,2.077-1.106,3.209,1.256,5.1,1.486,1.187,2.465.939,2.932-.917.383-1.523.46-3.12.762-4.666.2-1.012-.41-.909-1.342-.9m-39.413,122.1c-1.018-3.6-2.045-7.206-3.045-10.815-.137-.5-.04-1.2-.815-1.073s-.473.838-.48,1.3c-.033,2.118-.015,4.237-.016,6.355,0,4.191,0,4.191,4.195,4.332.051,0,.105-.067.16-.1M64.111,154.47c2.245-.176,3.1-1.162,2.924-3.327a49.768,49.768,0,0,1-.025-7.321c.12-1.833-.688-2.618-2.427-3-.385,4.6.29,9.134-.473,13.648M75.12,35.379c1.117.881,2.281,1.749,3.388,2.684s2.17,1.94,3.247,2.92c1.665,1.514,1.913,1.43,2.582-.721a1.243,1.243,0,0,0-.312-1.427q-1.279-1.247-2.539-2.512c-1.874-1.875-3.914-2.685-6.365-.943m-6.769,7.9c-1.539-3.666.862-8.486-4.072-10.744-1.328,4.491-.758,8.251,4.072,10.744m52.156,51.54c-.971,0-2.329-.166-3.369.915-.243.253-.643.468-.33.974,1.145,1.85,4.513,3.051,6.716,2.363a1.94,1.94,0,0,0,1.539-1.837,2,2,0,0,0-1.3-2.021,9.089,9.089,0,0,0-3.262-.394m-57.955-.511c-.128-1.782-.243-3.2-.325-4.628-.035-.6-.367-.789-.9-.789H52.571q-.053.282-.106.562l10.086,4.855m1.559,71.412c1.068-.748,2.712-.884,2.817-2.431.176-2.568.066-5.156.067-7.736,0-.74-.22-1.1-1.082-.765-1.109.432-1.872.877-1.9,2.338a50.023,50.023,0,0,0,.1,8.595m54.457-60.469.011-.985c-7.429-1.384-14.976.2-22.428-.692a6.613,6.613,0,0,0,5.243,1.73c5.722-.15,11.449-.053,17.175-.053m-37.644-1.546c1.5,0,2.486.01,3.473,0,1.192-.016,1.162-.593.6-1.377a5.432,5.432,0,0,0-8.2-.849c-1.052.982-.9,1.6.509,2.037a13.09,13.09,0,0,0,3.613.192m-2.739-9.781c-.321.042-.949-.066-.922.737.02.579.022,1.263.813,1.363,2.941.373,5.354,2.121,8.076,3.057.628.216,1.385,1.044,1.92.179.524-.848-.126-1.642-.875-2.084a21.664,21.664,0,0,0-9.012-3.252M95.744,196.14a12.144,12.144,0,0,1,5.268-2.648c.907-.285,1.06-.884,1.1-1.634.045-.888-.541-1.031-1.271-1.149a24.578,24.578,0,0,1-3.284-.76c-1.073-.329-1.435.115-1.491,1.1-.1,1.7-.212,3.4-.32,5.095m50.847-93.985a35.6,35.6,0,0,0,13.079-1.06c.585-.138,1.145-.55.963-1.278-.153-.611-.726-.648-1.288-.654a34.521,34.521,0,0,0-5.728.359c-.464.073-.913.086-1.136.615-.667,1.577-2,1.694-3.473,1.635-.8-.032-1.657-.256-2.416.384M78.625,97.768c-3.962-.294-7.3,1.452-10.607,3.222-.658.352-.625,1.181.177,1.3,1.361.206,3.026.589,4.086-.155,2.088-1.463,4.381-2.617,6.344-4.369M67.167,117.337c-.073-.837-.14-1.49-.185-2.146-.075-1.1-.853-1.036-1.561-.856-.688.175-3.04,4.1-2.911,4.767a.971.971,0,0,0,.406.6c1.187.678,2.476,1.93,3.574,1.787.97-.126.228-2.068.565-3.16a4.371,4.371,0,0,0,.11-.989M180.46,103.481c-7.654-1.016-24.785-.629-28.982.628l28.982-.628m-31.993-2.236a18.807,18.807,0,0,0,2.046-.014c1.012-.115,1.5-.765.868-1.616a34.633,34.633,0,0,0-3.145-3.538c-.362-.369-.909-.9-1.483-.171-1.153,1.459-.916,3.177-.585,4.752.282,1.342,1.6.161,2.3.587M69.429,6.4c-.974,2.881-1.695,5.568-1.045,8.59,1.421-.811,2.048-2.153,2.975-3.2C73.072,9.852,73.04,9.849,71.17,8.2c-.584-.514-1.086-1.122-1.741-1.808M82.4,43c-1.273-1.843-1.264-1.816-3.087-1.22a28.912,28.912,0,0,1-9.076,1.72c-.329,0-.834-.174-.914.576C73.889,46.233,78.06,43.909,82.4,43M27.121,96.51c.2,1.995.353,3.9.578,5.789.18,1.517,1.4.858,2.18.885,1.12.04.514-.782.452-1.257-.24-1.826-.617-3.641-.75-5.474-.091-1.249-.661-1.574-1.759-1.486-1.3.105-.484,1.088-.7,1.542m34.155,2.305c-.079.39-.23.921.168,1.086a17,17,0,0,0,4.077,1.388c.668.09,1.509-.79,1.773-1.63.136-.433.161-1.427-.194-1.414-1.336.049-1.978-.692-2.924-1.47-1.174-.965-2.708.267-2.9,2.039M45.2,24.081a66.42,66.42,0,0,0,6.613,13c.269.412.37,1.19,1.066.85.664-.324.123-.961-.022-1.35-1.738-4.671-5.261-8.256-7.657-12.5M76.073,37.222a3.9,3.9,0,0,0-.46-.632c-2.184-1.775-5-.872-7.409-1.728-.09-.032-.338.164-.4.3a2.435,2.435,0,0,0,1.7,2.717,26.955,26.955,0,0,0,6.564-.662M72.493,45.69c4.746,2.788,8.267,2.5,9.437-1.578-3.231.223-6.109,2.326-9.437,1.578M26.825,86.439c-1.082-.253-1.4.131-1.17,1.133.389,1.673.738,3.356,1.084,5.039.206,1,1.058.972,1.722.954.972-.027.6-.869.535-1.374-.175-1.441-.56-2.864-.634-4.306-.06-1.171-.581-1.512-1.537-1.446m49.936,9.272c-.293-.406.134-1.515-1.187-1.152-2.629.723-4.919,2.23-7.476,3.108-.626.215-.438.725-.337,1.166s.333.761.825.444c2.272-1.464,4.918-1.842,7.44-2.582.453-.133.933-.243.735-.984m-19-78.061c.437,1.1.114,2.764,1.84,3.055,1.053.177,2.656-1.7,2.708-2.93.134-3.138-2.3-.763-3.378-1.5-.824-.561-.981.634-1.17,1.371m31.609,4.715c-.28-1.2.73-2.776-.893-3.164a17.876,17.876,0,0,0-8.187-.005c3.171.5,5.986,1.927,9.08,3.169m-20.984,1.2c-.9-.007-1.47.7-2.225.841-1.588.3-1.43,1.39-1.193,2.5.167.778,2.487,2.107,3.206,1.8,1.06-.45.66-1.442.615-2.228-.055-.973-.261-1.938-.4-2.913m7.74,99.85.405.167c.87-1.439,1.764-2.864,2.593-4.326.192-.339,1.055-.627.472-1.055a4.2,4.2,0,0,0-2.914-1.059c-.624.071-.548.664-.551,1.113-.013,1.72-.005,3.44-.005,5.16M78.8,153.057c-2.333-.367-2.941.7-2.693,2.674a31.321,31.321,0,0,1,.031,3.169c.01.432-.156,1.054.448,1.16.676.118.867-.49.979-1.013.423-1.981.82-3.968,1.235-5.991M76.21,26.417c1.527.071,2.434-.937,2.256-2.147-.236-1.6-2.064-1.761-3.3-2.223-.94-.35-.846.79-.843,1.347.008,1.364-.094,2.886,1.892,3.022m24.834,73.541c5.319.674,10.627-.189,15.947-.638-5.323-.631-10.617.241-15.947.638M66.9,165.7a14.417,14.417,0,0,0-2.755,1.259c-.833.618-.623,1.78-.694,2.681-.063.814.919.471,1.422.639,1.763.589,2.405-.143,2.168-1.91-.112-.834-.094-1.685-.142-2.67m37.7-64.535h18.238q-.013-.361-.027-.723l-18.211.723M61.269,8.67A13.757,13.757,0,0,0,58.9,14.453c-.173,1.066.485,1.208,1.283,1.213.88.005,1.733-.237,1.461-1.3-.433-1.689-.161-3.39-.371-5.7m33.02,93.2c.636-.139,2.048.424,2.227-.494.233-1.2-1.327-1.135-2.14-1.568-.458-.244-1.008-.322-1.451-.585-1.31-.774-1.44.273-1.767,1.075-.473,1.161.411,1.373,1.154,1.546a9.708,9.708,0,0,0,1.977.026M80.53,2.729c-1.321-.521-2.729-1.512-3.6-.753-1.2,1.042-.919,2.922-1.261,4.942L80.53,2.729m-49.916,124.1c-.137,1.012.346,1.371,1.259,1.121a13.268,13.268,0,0,1,2.929-.323c.478-.023,1.357.35,1.244-.693-.074-.679-.391-1.252-1.252-1.243-1.118.012-2.238.02-3.354-.043-1-.057-.772.645-.827,1.18m96.3-27.866q0,.277,0,.555c3.943,0,7.885.006,11.828-.01a3.108,3.108,0,0,0,1.131-.225c.37-.151.727-.442.509-.914-.175-.38-.528-.143-.838-.149-4.229-.082-8.407.691-12.627.742M35.521,90.658a16.349,16.349,0,0,0-3.736-1.885c-.5-.254-1.044-.825-1.617-.412-.454.328-.322.992-.2,1.5a1.469,1.469,0,0,0,1.415,1.168,7.523,7.523,0,0,0,4.133-.366m74.295,110.7c-3-2.2-6.2-1.844-8.014,1.1,2.727-1,5.246-1.773,8.014-1.1M84.127,92.157a13.406,13.406,0,0,1,4.918-2.617c-4.072-1.957-4.368-1.793-4.918,2.617m1.618-57.139c-.734-.768-1.107-1.909-2.214-.515-.329.414-.933.032-1.251-.239-.248-.212.167-.222.309-.265.314-.095.715-.126.539-.606-.147-.4-.54-.3-.853-.287a4.765,4.765,0,0,0-2.487.789c1.569,2.206,3.544,2.066,5.957,1.121m.122-10.562c-.9.07-1.952-.457-1.84.95.076.947.556,1.694,1.587,1.663.872-.026,1.731-.317,1.765-1.456.038-1.276-.748-1.352-1.513-1.157M78.2,214.009c.011,0,1.067.458.834-.427a3.245,3.245,0,0,0-2.429-2.39c-.808-.152-.393.774-.463,1.21-.193,1.2.158,1.976,2.058,1.607m8.626-112.42c.639,1.976,1.845,2.584,3.658,2.153.473-.112.958-.171.9-.766a1,1,0,0,0-.911-.889c-1.144-.168-2.291-.314-3.649-.5M24.734,70.517c-3.321.812-3.321.812-1.394,4.008a15.548,15.548,0,0,0,1.394-4.008m61.856,35h6.824c-2.285-.918-4.572-.146-6.824,0m42.159-.948c-1.41-.729-2.906-.619-4.76-.472,1.736,1.01,3.267.555,4.76.472M22.029,129.13c.12-.87-.118-1.463-.954-1.465-.708,0-.679.656-.738,1.161-.106.905.592,1.15,1.216,1.206.726.065.384-.642.476-.9M85.158,36.9c.079-.518-.056-.841-.607-.693-.524.14-1.378-.065-1.437.651-.045.551.652,1.051,1.163,1.169.87.2.5-.824.881-1.127m-.335-26.843h2.9c-.035-.675-.18-1.459-.719-1.526-.874-.11-1.374.7-2.183,1.526" transform="translate(0 0)" fill="#9ca3af"/>
      <path id="Path_163" data-name="Path 163" d="M51.186,76.167c-.927.042-1.854.109-2.782.116-.488,0-1.128.272-1.365-.43a1.685,1.685,0,0,1,.249-1.507C51.055,68.6,54.85,62.873,58.546,57.083a3.876,3.876,0,0,1,4.577-1.817c1.824.413,2.1,1.885,2.343,3.478A40.539,40.539,0,0,1,64.9,72.363a2.872,2.872,0,0,1-2.845,2.67c-3.623.393-7.224.992-10.872,1.134M61.354,56.549a1.5,1.5,0,0,0-1.251.833q-5.663,8.242-11.3,16.505c-.666.972-.26,1.156.736,1.289,2.223.3,4.347-.3,6.492-.6,3.784-.521,3.8-.6,4.241-4.454.512-4.5.32-9.045,1.076-13.577m3.182,5.028c-.063-1.071-.1-2.525-.253-3.966a1.34,1.34,0,0,0-1.167-1.192c-.749-.1-.583.561-.581.966.028,5.015-.58,9.992-.861,14.987-.028.5-.483,1.275.453,1.449s1.21-.425,1.347-1.261a56.48,56.48,0,0,0,1.062-10.983" transform="translate(-28.244 -33.15)" fill="#9ca3af"/>
      <path id="Path_164" data-name="Path 164" d="M144.217,491.464a22.059,22.059,0,0,1,8.451-.644.54.54,0,0,1,.53.668c-.057.352-.357.373-.6.355-2.781-.215-5.582.364-8.381-.378" transform="translate(-86.744 -295.138)" fill="#9ca3af"/>
      <path id="Path_165" data-name="Path 165" d="M160.7,470.773c-.652-.082-1.654-.216-1.482-.894a2.871,2.871,0,0,1,2.16-2.194,1.265,1.265,0,0,1,1.429,1.47c-.086,1.324-1.144,1.408-2.107,1.618" transform="translate(-95.753 -281.294)" fill="#9ca3af"/>
      <path id="Path_166" data-name="Path 166" d="M146.718,467.592c-.434.468-.379,1.514-1.4,1.288-1.057-.235-.634-1.15-.658-1.782a8.982,8.982,0,0,1,.279-1.94c.117-.626.31-1.139,1.162-.923.724.184.944.528.784,1.269a18.116,18.116,0,0,0-.219,2.149Z" transform="translate(-86.974 -279.198)" fill="#9ca3af"/>
      <path id="Path_167" data-name="Path 167" d="M148.369,502.5c-.281.9.283,2.345-.9,2.335-.986-.008-.825-1.436-.858-2.313-.032-.838-.4-2.122,1.172-1.8,1.04.21.2,1.27.588,1.781" transform="translate(-88.147 -301.144)" fill="#9ca3af"/>
      <path id="Path_168" data-name="Path 168" d="M156.683,484.886a17.569,17.569,0,0,1-6.7.379c1.182-1.052,4.058-1.223,6.7-.379" transform="translate(-90.21 -291.328)" fill="#9ca3af"/>
      <path id="Path_169" data-name="Path 169" d="M149.736,469.713c.776-.579.536-2.555,1.893-2.007,1.38.558-.273,1.583-.248,2.452.012.419-.037,1.019-.721.9-.766-.133-1.142-.591-.872-1.406l-.051.061" transform="translate(-90.042 -281.259)" fill="#9ca3af"/>
      <path id="Path_170" data-name="Path 170" d="M149.2,451.242c.541.271,1.56-.277,1.7.8.126.946-.678.82-1.22.768-.636-.061-1.594.275-1.66-.832-.043-.734.585-.738,1.176-.738" transform="translate(-89.035 -271.414)" fill="#9ca3af"/>
      <path id="Path_171" data-name="Path 171" d="M153.01,505.049c.232-.51-.049-1.5.911-1.408.762.073.589.9.6,1.453s.157,1.331-.725,1.311c-.8-.018-.754-.739-.784-1.357" transform="translate(-92.033 -302.927)" fill="#9ca3af"/>
    </g>
  </g>
</svg>
