<svg id="Group_59" data-name="Group 59" xmlns="http://www.w3.org/2000/svg" xmlns:xlink="http://www.w3.org/1999/xlink" width="157.281" height="154.2" viewBox="0 0 157.281 154.2">
  <defs>
    <clipPath id="clip-path">
      <rect id="Rectangle_577" data-name="Rectangle 577" width="157.281" height="154.2" fill="#edeeef"/>
    </clipPath>
  </defs>
  <g id="Group_58" data-name="Group 58" clip-path="url(#clip-path)">
    <path id="Path_107" data-name="Path 107" d="M47.727,33.777a.83.83,0,0,1,.847.541l3.363,7.952c.1.215.29.164.287-.075l-.1-7.753a.646.646,0,0,1,.711-.728l2.688-.033a.636.636,0,0,1,.729.711l.189,15.36a.645.645,0,0,1-.711.728l-3.528.044a.827.827,0,0,1-.846-.542L48,42.03c-.1-.214-.29-.164-.287.076l.1,7.752a.646.646,0,0,1-.711.729l-2.688.033a.656.656,0,0,1-.728-.711l-.19-15.36a.645.645,0,0,1,.711-.728Z" fill="#edeeef"/>
    <path id="Path_108" data-name="Path 108" d="M71.362,44.886c.019,1.584-.264,5.837-5.952,5.907s-6.076-4.174-6.1-5.758l-.074-6c-.02-1.585.264-5.836,5.952-5.907s6.076,4.174,6.1,5.759Zm-4.186-4.677c-.023-1.848-.157-2.974-1.933-2.952s-1.881,1.151-1.859,3l.043,3.457c.023,1.847.156,2.973,1.932,2.952s1.882-1.152,1.86-3Z" fill="#edeeef"/>
    <path id="Path_109" data-name="Path 109" d="M79.836,33.381a.736.736,0,0,1,.776.638l1.79,6.963c.051.239.243.237.288,0l1.618-7.005a.736.736,0,0,1,.76-.657l4.968-.061a.636.636,0,0,1,.729.711l.189,15.36a.646.646,0,0,1-.71.729l-2.689.033a.656.656,0,0,1-.728-.711l-.117-9.456a.133.133,0,0,0-.265-.02l-2.21,9.6a.739.739,0,0,1-.784.633l-1.584.02a.739.739,0,0,1-.8-.614L78.622,40a.133.133,0,0,0-.265.027l.117,9.456a.646.646,0,0,1-.711.729l-2.688.033a.646.646,0,0,1-.729-.711l-.189-15.36a.636.636,0,0,1,.711-.729Z" fill="#edeeef"/>
    <path id="Path_110" data-name="Path 110" d="M105.76,49.047c.007.527-.229.818-.709.824l-2.689.033a.645.645,0,0,1-.728-.71l-.026-2.088a.637.637,0,0,0-.729-.712l-2.064.026a.647.647,0,0,0-.712.729l.026,2.088a.636.636,0,0,1-.711.728L94.73,50c-.456.005-.723-.28-.73-.807l-.125-10.177c-.038-3.023.4-6.246,5.8-6.312s5.919,3.144,5.957,6.167Zm-4.253-10.126c-.014-1.151-.189-1.725-1.773-1.706s-1.746.6-1.732,1.749l.033,2.616a.657.657,0,0,0,.729.712l2.064-.025a.665.665,0,0,0,.711-.753Z" fill="#edeeef"/>
    <path id="Path_111" data-name="Path 111" d="M48.178,55.773a.83.83,0,0,1,.847.541l3.363,7.952c.1.215.29.164.287-.075l-.1-7.753a.646.646,0,0,1,.711-.728l2.688-.033a.636.636,0,0,1,.729.711l.189,15.36a.645.645,0,0,1-.711.728l-3.528.044a.827.827,0,0,1-.846-.542l-3.363-7.952c-.1-.214-.29-.164-.287.076l.1,7.752a.646.646,0,0,1-.711.729l-2.688.033a.656.656,0,0,1-.728-.711l-.19-15.36a.645.645,0,0,1,.711-.728Z" fill="#edeeef"/>
    <path id="Path_112" data-name="Path 112" d="M70.665,55.495a.636.636,0,0,1,.729.711l.033,2.688a.647.647,0,0,1-.711.729l-5.808.071a.646.646,0,0,0-.711.729l.009.768a.657.657,0,0,0,.729.711l3.72-.046a.637.637,0,0,1,.729.712l.033,2.687a.647.647,0,0,1-.711.73l-3.72.046a.645.645,0,0,0-.711.728l.01.768a.657.657,0,0,0,.728.712l5.808-.072a.636.636,0,0,1,.729.711l.033,2.688a.635.635,0,0,1-.711.728l-10.08.125a.657.657,0,0,1-.729-.711l-.189-15.36a.646.646,0,0,1,.711-.729Z" fill="#edeeef"/>
    <path id="Path_113" data-name="Path 113" d="M73.145,56.257a.593.593,0,0,1,.639-.8l2.855-.035a.711.711,0,0,1,.8.614l1.492,9.991c.051.239.242.236.287,0L80.7,56a.726.726,0,0,1,.784-.634l2.064-.025a.725.725,0,0,1,.8.614l1.732,9.988c.051.239.243.236.288,0l1.244-10.024a.711.711,0,0,1,.785-.634l2.856-.035a.591.591,0,0,1,.657.783L89.151,71.446a.725.725,0,0,1-.784.633l-3.385.042a.74.74,0,0,1-.8-.614L82.79,65.619c-.051-.239-.243-.237-.288,0l-1.247,5.92a.742.742,0,0,1-.784.634l-3.385.041a.725.725,0,0,1-.8-.614Z" fill="#edeeef"/>
    <path id="Path_114" data-name="Path 114" d="M102.656,61.053c-.479.1-.722-.111-.8-.591a1.95,1.95,0,0,0-2.109-1.581c-.935.011-1.505.57-1.4,1.121.359,1.867,7.943,1.726,8.011,7.246.009.721-.755,4.979-6.443,5.049-5.04.062-6.161-3.237-6.3-5.108a.7.7,0,0,1,.614-.8l2.7-.633c.48-.1.746.11.8.614a1.969,1.969,0,0,0,2.135,1.8c1.176-.014,2.031-.72,1.879-1.367-.481-2.034-7.7-1.489-7.767-7.009-.034-.72.347-4.974,5.722-5.04,4.944-.061,6.136,3.141,6.3,4.867a.705.705,0,0,1-.614.8Z" fill="#edeeef"/>
    <path id="Path_115" data-name="Path 115" d="M41.111,154.2c-5.668,0-10.713-.041-15.418-.123-8.86-.154-17.875-.935-22.216-8.487-4.243-7.377-3.635-18.345-3.1-28.019.183-3.312.355-6.44.327-9.25q-.069-6.988-.18-13.978C.348,81.873.163,68.978.379,56.311a.95.95,0,0,1,1.011-.982h.748L2.074,54.6c3.488-4.8,10.3-8.173,15.772-10.885l1.371-.681-.349-1.809c-.119-.61-.239-1.222-.353-1.834-.251-1.379-.68-3.062-1.133-4.844-1.543-6.057-3.658-14.356-.709-18.7,2.34-3.455,7.17-3.921,11.586-3.921.893,0,1.774.019,2.622.037.8.017,1.563.033,2.286.033.306,0,.606,0,.9-.01l23.479-.568.121-.423a.451.451,0,0,1,.08-.166C61.085,6.684,67.863.386,72.832.018,72.992,0,73.15,0,73.311,0c4.281,0,8.813,4.09,12.456,7.374.8.725,1.557,1.406,2.25,1.988a.714.714,0,0,1,.269.659l-.058.668,5.39-.131q10.026-.243,20.056-.464c1.17-.023,2.5-.161,3.913-.308a52.552,52.552,0,0,1,5.354-.375c4.17,0,6.659,1.136,7.831,3.572.973,2.017.373,5.081-.156,7.786-.214,1.086-.414,2.112-.509,3.03-.345,3.362-1.806,17.67-1.806,17.67l.513.121a42.781,42.781,0,0,1,8.97,3.612c.7.347,1.4.69,2.092,1.02l1.136.54c4.989,2.376,10.148,4.832,15.032,7.54a1.06,1.06,0,0,1,.628,1.075l-.03.3.217.2a1.324,1.324,0,0,1,.422,1.041c-.22,17.912-.638,34.537-1.277,50.826-.1,2.511-.094,5.167-.087,7.978.019,9.611.043,20.505-4.379,28.406-4.606,8.231-13.895,9.532-22.375,9.719-6.121.135-12.832.2-21.117.2h0q-6.5,0-12.994-.032t-12.991-.031l-3.317,0c-5.806.011-11.614.059-17.425.107-6.622.054-13.471.112-20.2.112m37.822-53.452a15.783,15.783,0,0,0-4.527.652c-9.988,2.988-19.069,10.885-27.851,18.523-3.189,2.773-6.2,5.392-9.169,7.695-8.38,6.5-17.046,13.227-25.936,19.541l-.776.55.832.463c4.853,2.705,11.354,3.052,16.475,3.052,2.248,0,4.487-.076,6.651-.149,1.882-.063,3.66-.124,5.339-.131q19.386-.089,38.772-.164l11.986-.051q14.415-.06,28.828-.111l.978,0c9.6-.023,18.655-.043,24.643-5.094l.614-.518-.67-.442c-7.742-5.111-15.28-10.9-22.569-16.492-3.1-2.383-6.312-4.846-9.487-7.218-1.875-1.4-3.94-3.116-6.129-4.933-8.143-6.759-18.28-15.171-28-15.171M2.516,57.984c.435,10.975.435,22.187.435,33.03,0,14.533,0,29.561,1.045,44.254.345,4.839,2.047,8.6,5.058,11.192l.4.341.392-.346c11.25-9.932,23.265-19.379,34.886-28.516l2.8-2.2c1.792-1.411,3.625-2.982,5.566-4.645,1.96-1.68,3.986-3.416,6.073-5.071l.677-.535-.739-.448C40.61,93.832,21.924,77.857,3.561,57.558L2.451,56.33Zm150.6,3.316C135.1,79.618,112.937,92.935,95.646,102.491l-.847.468.795.55c3.015,2.086,5.9,4.43,8.679,6.7,1.94,1.578,3.771,3.068,5.567,4.408,3.725,2.782,7.569,5.569,11.286,8.265,8.668,6.288,17.632,12.79,25.89,19.764l.5.427.376-.543a21.9,21.9,0,0,0,3.5-9.918c2.555-19.8,2.626-40.484,2.7-60.486q.015-5.217.048-10.4l.01-1.481ZM37.507,14.333c-7.7,0-16.731,1.213-18.3,10.674-.4,2.392.387,5.58,1.081,8.394.286,1.171.558,2.276.715,3.2.839,5,1.76,10.1,2.741,15.159.913,4.717,1.921,9.494,2.9,14.113.8,3.8,1.6,7.6,2.366,11.414l.041.21.165.136c7.671,6.328,15.591,12.642,23.25,18.747q4.438,3.538,8.89,7.1a.524.524,0,0,0,.1.135l.36.39.431-.309c5.585-4.008,10.31-6.078,14.87-6.512.582-.056,1.174-.084,1.763-.084,4.529,0,9.144,1.575,14.522,4.957l.67.421.226-.758a.758.758,0,0,1,.324-.44q4.209-2.8,8.42-5.566c6.165-4.059,12.541-8.257,18.675-12.534l.71-.495-.713-.491a1.076,1.076,0,0,1-.537-1.006c.915-13.77,2.55-27.763,4.132-41.294.689-5.909,1.4-12.019,2.048-18.02l.163-1.465c.651-5.708.511-6.371-5.791-7.466a21.429,21.429,0,0,0-3.7-.281c-1.931,0-3.939.174-5.883.343-1.576.137-3.065.267-4.471.3q-10.71.285-21.419.522l-36.3.854c-.292.008-.591.01-.9.01-1.56,0-3.3-.082-5.148-.168-2.079-.1-4.231-.2-6.4-.2m90.507,29.924q-.507,4.909-.978,9.824c-.837,8.6-1.705,17.485-2.914,26.163l-.192,1.381,1.134-.809a209.154,209.154,0,0,0,28.562-23.891l.6-.61-.776-.356c-3.993-1.827-7.974-3.882-11.827-5.868l-2.147-1.106q-1.122-.574-2.284-1.145a48.108,48.108,0,0,1-8.138-4.71l-.854-.661ZM18.963,45.811c-2.6,1.383-5.366,2.868-8.125,4.474-.645.375-1.29.772-1.942,1.171a36.3,36.3,0,0,1-5.28,2.855l-1.42.571,1.43.546a.925.925,0,0,1,.294.187c6.4,5.969,13.481,12.184,21.641,19l1.516,1.266-.556-1.9c-2.446-8.338-4.633-17.418-6.688-27.762l-.158-.792ZM72.785,2.68a7.125,7.125,0,0,0-2.439.431,24.138,24.138,0,0,0-6.641,4.318,41.39,41.39,0,0,1-3.718,2.814l-1.8,1.157,15.682-.379,12.5-.292L85.087,9.7c-.523-.418-1.062-.869-1.616-1.333C80.28,5.7,76.661,2.68,72.785,2.68" fill="#edeeef"/>
    <path id="Path_116" data-name="Path 116" d="M26.574,35.651a.684.684,0,0,1-.6-.349,12.545,12.545,0,0,1-.766-12.1c.051-.1.094-.1.127-.1a.359.359,0,0,1,.256.136.23.23,0,0,1,.05.21,13.882,13.882,0,0,0,1.63,11.14.593.593,0,0,1,.047.64.9.9,0,0,1-.747.423" fill="#edeeef"/>
    <path id="Path_117" data-name="Path 117" d="M31.13,35.13a.767.767,0,0,1-.621-.371,9.16,9.16,0,0,1-.025-9.546.313.313,0,0,1,.3-.159.47.47,0,0,1,.367.166.223.223,0,0,1,.016.226,10.659,10.659,0,0,0,.591,8.572.779.779,0,0,1-.021.778.738.738,0,0,1-.6.334" fill="#edeeef"/>
    <path id="Path_118" data-name="Path 118" d="M122.943,136.22a.79.79,0,0,1-.548-.259c-1.833-1.785-3.806-3.465-5.715-5.09-1.865-1.588-3.795-3.23-5.575-4.959a.215.215,0,0,1-.038-.268.341.341,0,0,1,.245-.225.182.182,0,0,1,.1.037c2.026,1.42,4,3,5.9,4.532,1.95,1.564,3.966,3.182,6.059,4.642a.783.783,0,0,1,.377.928.932.932,0,0,1-.805.662" fill="#edeeef"/>
    <path id="Path_119" data-name="Path 119" d="M121.705,141.616a.585.585,0,0,1-.217-.049,15.159,15.159,0,0,1-4.015-2.857c-.271-.24-.539-.477-.806-.705-.289-.248-.593-.5-.9-.754a14.378,14.378,0,0,1-3.473-3.587c-.052-.092-.031-.127-.024-.14a.244.244,0,0,1,.205-.1.275.275,0,0,1,.112.024,14.96,14.96,0,0,1,3.252,2.271c.532.444,1.059.883,1.591,1.272.507.371,1.057.724,1.613,1.079a14.82,14.82,0,0,1,3.021,2.31.859.859,0,0,1,.075.877c-.048.107-.186.358-.433.358" fill="#edeeef"/>
  </g>
</svg>
