<svg xmlns="http://www.w3.org/2000/svg" viewBox="0 0 174.83 72.51"><defs><style>.cls-1{fill:#fff;}</style></defs><g id="Layer_2" data-name="Layer 2"><g id="Layer_1-2" data-name="Layer 1"><path class="cls-1" d="M38,72.51a39.15,39.15,0,0,1-5.41-.82c-.95-.21-4.39-1.25-5.26-1.59a45.53,45.53,0,0,1-10.54-6.37c-1-.76-2-1.56-2.9-2.34l-1.3-1.07a9,9,0,0,1-2.26-2.74l0-.08-.1,0A7.2,7.2,0,0,0,6.72,59,2.36,2.36,0,0,1,6.88,58l0-.15a2.91,2.91,0,0,0,0-1.91,1.46,1.46,0,0,0-1.38-1.09H5.39a6.59,6.59,0,0,0-1,.23,9.47,9.47,0,0,1-1.1.25L4,54.61A20.72,20.72,0,0,0,5.51,53a5.71,5.71,0,0,0,1.08-4.78A14.49,14.49,0,0,0,4.53,42.4a4.36,4.36,0,0,1-.77-3.2,2.41,2.41,0,0,0-.5-2,4.24,4.24,0,0,1-1-2.67,2.82,2.82,0,0,0-.7-1.68C.25,31-.21,28.77.08,25.67.13,25.18.25,25,.3,25a2.62,2.62,0,0,0,1-2.13c0-.15,0-.31.06-.47C1.79,19.18,2.68,15,5.43,11.64l.08-.09a.64.64,0,0,0,.22-.4A3.76,3.76,0,0,1,7.37,8.43c.26-.24.53-.49.77-.75C10.6,5,13.77,2.82,18.41.67A3.66,3.66,0,0,1,20,.19a1.74,1.74,0,0,1,.71.15,1.16,1.16,0,0,0,.44.07,4.71,4.71,0,0,0,.54,0h.06a36.35,36.35,0,0,1,12,.32,4.64,4.64,0,0,0,.93.11A2.4,2.4,0,0,0,35.69.54a2.25,2.25,0,0,1,1-.22,3.29,3.29,0,0,1,1.15.22A18,18,0,0,1,46.08,6a8.53,8.53,0,0,1,.85,1.38c.19.36.37.73.55,1.1a12.07,12.07,0,0,0,3,4.39,2.62,2.62,0,0,1,.71,1.19c1.12,3.51,2.28,7.13,2.21,10.93,0,.59-.06,1.2-.12,1.78a14.22,14.22,0,0,0,0,3.13c0,.14,0,.27,0,.41a2.23,2.23,0,0,0,.17.94c1.16,2.3.51,4.54-.29,6.43-.14.35-.31.7-.48,1A6.09,6.09,0,0,0,52,43.53a10.38,10.38,0,0,1,.31,4.21,5.45,5.45,0,0,1-2.09,3.86,2.75,2.75,0,0,0-1.07,1.71c-.06.29-.13.58-.2.87a12.46,12.46,0,0,0-.46,3.37,7.23,7.23,0,0,1-1,3.33l-.17.36-.59,1.15c-.26.48-.52,1-.75,1.48a33.27,33.27,0,0,0-1.17,3.21,1,1,0,0,0,0,.3,1.2,1.2,0,0,1,0,.2c-.56,2-4.44,4.93-6.59,4.93Zm-8.17-4.9a6.54,6.54,0,0,0-1.85.24l-.38.11.36.15a27.47,27.47,0,0,0,8.15,2.12c.34,0,.67,0,1,0a5.2,5.2,0,0,0,4.33-1.94l.4-.48a4.4,4.4,0,0,0,1.48-3.33v-.15l-.15,0a28.84,28.84,0,0,0-6.36,1.92,17.11,17.11,0,0,1-4.9,1.28,4.9,4.9,0,0,1-.7,0l-.64,0Zm11-7.42a1.49,1.49,0,0,0-.52.16A47.49,47.49,0,0,1,24,64.66h-.12a2.58,2.58,0,0,0-.39,0c-.23,0-.53.08-.63.42a.77.77,0,0,0,.4.83,1.51,1.51,0,0,0,.41.22l.07,0a10.14,10.14,0,0,0,2.42.32l.88,0c.72.06,1.43.09,2.11.09a18.49,18.49,0,0,0,8.27-1.8A12.1,12.1,0,0,1,40,63.94l.63-.16,2.58-.63a.79.79,0,0,0,.58-.45.46.46,0,0,0-.13-.47,9.79,9.79,0,0,0-2.65-2A.31.31,0,0,0,40.83,60.19ZM13.13,48.86a13.09,13.09,0,0,1-.41,3.9,13,13,0,0,0-.41,3.4c.11,2,1.31,3,2.58,4l.52.44c1.21,1,2.52,2,3.78,3l1.65,1.25.07.06.43-.25-.29-1.2c-.2-.79-.4-1.59-.58-2.4-.23-1-.41-2-.59-3-.26-1.41-.52-2.87-.93-4.29a5.37,5.37,0,0,0-1.65-3.06,15.21,15.21,0,0,0-3.69-1.88l-.51-.21Zm9.48,8.41a6.64,6.64,0,0,0-1.71.19l-.12,0v.12a26.91,26.91,0,0,0,.92,4.48l.12.47c.24.89.36,1.19,1.09,1.19l.63,0h.07A52.19,52.19,0,0,0,37,60.84,12.27,12.27,0,0,0,39,60c.42-.23.67-.42.69-.66s-.17-.45-.53-.74c-.54-.44-1.1-.87-1.66-1.3s-1.15-.89-1.71-1.35a2.26,2.26,0,0,0-1.48-.56,3.12,3.12,0,0,0-.76.1c-2.83.67-5.59,1.31-8.39,1.76a6.77,6.77,0,0,1-1.07.07h-.73ZM35.5,49.82a1.9,1.9,0,0,0-.7.14c-.91.38-1.83.75-2.8,1.13l-1.51.6.21.15a30,30,0,0,0,2.57,1.6,23.76,23.76,0,0,1,2.67,1.69c1,.72,1.93,1.44,2.88,2.12,1.71,1.25,3.48,2.53,5.12,3.94a1.22,1.22,0,0,0,.76.36c.3,0,.54-.2.74-.6a20.39,20.39,0,0,0,.85-2.16c.59-1.7.51-1.94-.92-2.87a25,25,0,0,1-2.81-2.25A16.73,16.73,0,0,0,36.48,50,3.34,3.34,0,0,0,35.5,49.82ZM6.79,54a1.09,1.09,0,0,1,.8.39,2.65,2.65,0,0,1,.54,2l0,.21.2-.06a4.14,4.14,0,0,0,2.12-1.78l.21-.28c1.75-2.32,2.08-4.59,1-6.93A18.77,18.77,0,0,0,9,43.11a5,5,0,0,1-1.25-3.39v-.14H7.62a7.81,7.81,0,0,0-1,.09,5.53,5.53,0,0,1-.74.08h-.1l0,.09a5.53,5.53,0,0,0,.13,2.62,19.48,19.48,0,0,0,.82,2,14.7,14.7,0,0,1,1,2.64c.4,1.58.69,3.12-.11,4.56-.08.16-.24.39-.4.64-.6.9-.85,1.32-.74,1.54a.24.24,0,0,0,.21.11Zm12.78-1c.19.76.36,1.44.55,2.11.35,1.25.43,1.31,1.58,1.37h.23l.73,0A29.07,29.07,0,0,0,29,55.52l.3-.07.93-.18a9.63,9.63,0,0,0,2.75-.8l.21-.1-.2-.13a9.71,9.71,0,0,0-5.43-2l-.59,0c-.49.05-1,.06-1.45.07h-.81a23,23,0,0,1-5.26-.63l-.22,0ZM47.1,52A6.29,6.29,0,0,0,43.63,53l-.11.08.08.11c.63.88,1.56,1.92,2.45,1.92a.91.91,0,0,0,.23,0c.9-.19,1-1.47,1-2.5l0-.3a.29.29,0,0,0-.07-.18L47.23,52l0-.07Zm-4.3-4.52a7.43,7.43,0,0,0-.81.09l-.19,0a12,12,0,0,0-3.3,1.18l-.78.36-.25.12.25.13c.26.15.51.27.74.38a4.36,4.36,0,0,1,1.06.62,5,5,0,0,0,3.4,1.41,5.89,5.89,0,0,0,2.48-.6,3.66,3.66,0,0,1,1-.24,2.9,2.9,0,0,0,1.48-.49l.1-.07-.06-.11a4.4,4.4,0,0,0-1.57-1.45l-.25-.16a1.35,1.35,0,0,0-.67-.29c-.43,0-.55.52-.59.7a1,1,0,0,1-1,.78h0l-.22,0-.4,0a6.39,6.39,0,0,1-1.75-.4,2.61,2.61,0,0,1,1-.24,3.44,3.44,0,0,0,.64-.12.82.82,0,0,0,.69-.81c0-.34-.19-.75-.89-.75H42.8ZM8.67,40.1c-.17,1.18-.16,1.24.6,2.08.93,1,1.9,2.12,2.76,3.27a14.8,14.8,0,0,0,7.37,5.22,15.62,15.62,0,0,0,5.1.81,27.61,27.61,0,0,0,7.82-1.32,31.69,31.69,0,0,0,3.21-1.22c.57-.24,1.15-.48,1.73-.7l.34-.13a19.93,19.93,0,0,1,5-1.44l.46,0a4.1,4.1,0,0,1,1.7.38,13.3,13.3,0,0,1,4.51,3.1l.11.12.1-.14a6.53,6.53,0,0,0,.69-6.17,2.16,2.16,0,0,0-1.41-1.43,11.47,11.47,0,0,0-2.39-.6,12.73,12.73,0,0,1-1.82-.41l-.09,0-.06.07a.92.92,0,0,0-.06,1.09.88.88,0,0,1,.12.55,1.83,1.83,0,0,1-.66-2,1,1,0,0,0-.11-.84,1.09,1.09,0,0,0-.9-.35,8.66,8.66,0,0,0-2.37.3,43.73,43.73,0,0,0-6.37,2.37,19.83,19.83,0,0,1-8.74,1.8c-.88,0-1.81,0-2.82-.12A31.49,31.49,0,0,1,8.88,40l-.18-.11ZM25.3,30.91a25.75,25.75,0,0,0-5.12,2.61,1,1,0,0,0-.45,1.14c.06.27.14.54.22.8l.18.64c.09.34.18.68.28,1A12,12,0,0,1,21.05,42c-.11.76.15,1.11.95,1.25a20.72,20.72,0,0,0,3.48.26l1.16,0a15.91,15.91,0,0,0,5.85-1.14l1.17-.52A24.75,24.75,0,0,1,42,39.33a.89.89,0,0,0,.67-.28,1.19,1.19,0,0,0,.12-.92,20.87,20.87,0,0,1-.08-3.8c0-.67.06-1.35.05-2a4.49,4.49,0,0,0,2.17.55,7.66,7.66,0,0,0,2.3-.43,4.85,4.85,0,0,1,1.38-.2,6,6,0,0,1,1.65.24A1.86,1.86,0,0,1,51.71,34a2.64,2.64,0,0,1-.58-.2,1.94,1.94,0,0,0-.77-.22,1,1,0,0,0-.61.21l-.08.06,0,.1c.61,2,.66,3.52-1,4.7a3.78,3.78,0,0,1-2.19.73,5,5,0,0,1-2.64-.88l-.4-.25.21.43c.62,1.3,1.31,2.46,2.88,2.46l.44,0h.18a3.11,3.11,0,0,1,.9.17,2,2,0,0,0,.57.09,1.42,1.42,0,0,0,1.32-1c.66-1.46,1.4-2.9,2.13-4.29l.07-.14a4.43,4.43,0,0,0,.15-3.18,1.33,1.33,0,0,0-.93-1c-1.93-.65-3.89-1.33-5.78-2l-1.24-.43a30,30,0,0,0-6.73-1.25l-1.42-.16a13.9,13.9,0,0,0-1.57-.09A11.71,11.71,0,0,0,29.39,29l-.28.14.29.12a3.61,3.61,0,0,0,1.29.19H31a2.63,2.63,0,0,1,.88.11c3.55,1.25,4.6,3.48,3.49,7.44a3.17,3.17,0,0,1-1.54,2,7.16,7.16,0,0,1-3.49.93,8.1,8.1,0,0,1-3.37-.78,3.68,3.68,0,0,1-2-2.16c-.61-1.78-1-3.86.57-5.82l.3-.37ZM13,37.92l.07.12A7.56,7.56,0,0,1,14,40.55a1.2,1.2,0,0,0,.7,1l.41.18a10,10,0,0,0,3.55,1h.3c1,0,1.19-.25,1.27-1.32a5.48,5.48,0,0,0-.09-1.35,39.72,39.72,0,0,0-1.32-5.2l-.05-.17Zm-1.43.56a1.76,1.76,0,0,0-1.22.74l-.08.1.1.09a3.29,3.29,0,0,0,2.21,1.16l.19,0,0-.19C12.68,39.19,12.25,38.48,11.61,38.48Zm35.64-25a33.82,33.82,0,0,0-8.66,1.38,61.94,61.94,0,0,0-21.94,11l-.14.11a28.2,28.2,0,0,1-7.65,4.75A1.49,1.49,0,0,0,7.75,32.4,5.64,5.64,0,0,1,7,36a7.42,7.42,0,0,0-1,3.07l0,.1.1,0a1.29,1.29,0,0,0,.5.11,1.66,1.66,0,0,0,.62-.15l.2-.07a39.09,39.09,0,0,0,12.43-6.16,21.09,21.09,0,0,1,2.61-1.71A78.34,78.34,0,0,1,33,26.69a36.1,36.1,0,0,1,12-2.13,34.72,34.72,0,0,1,3.52.18l.9.12c.4.06.82.12,1.23.15h.25a1,1,0,0,0,.81-.27,1.11,1.11,0,0,0,.11-.93l-.08-.38a32.13,32.13,0,0,0-2.69-9,1.74,1.74,0,0,0-1.77-1Zm-17.64,17a4.48,4.48,0,0,0-3.77,2.23c-.93,1.34-.44,2.73.23,4a3.43,3.43,0,0,0,2.34,1.77,5.82,5.82,0,0,0,2,.37,4.3,4.3,0,0,0,4.47-4.22,3.35,3.35,0,0,0-1.61-3.18,6.64,6.64,0,0,0-3.33-1Zm14.77,3.7a.74.74,0,0,0-.73.58A3.18,3.18,0,0,0,45.3,38.2a2.17,2.17,0,0,0,.74.12,4.16,4.16,0,0,0,1.77-.46A2.28,2.28,0,0,0,49,36.18a2.32,2.32,0,0,0-.58-2,.91.91,0,0,0-.67-.3,1,1,0,0,0-.37.07,6.18,6.18,0,0,1-1.93.31,6,6,0,0,1-.94-.07Zm-38.84-1a1.21,1.21,0,0,0-1.19.81,1.7,1.7,0,0,0,.18,1.41.83.83,0,0,0,.6.43H5.2c.53,0,.64-.41.71-.71,0-.09,0-.18.08-.25.27-.84.32-1.23.18-1.46a.44.44,0,0,0-.35-.21A1.37,1.37,0,0,0,5.54,33.1ZM3.25,25.69c-1,0-1.2.54-1.22,1.46a7.84,7.84,0,0,0,1,4A1.86,1.86,0,0,0,4.67,32.3a2.24,2.24,0,0,0,1.2-.39,7.9,7.9,0,0,0,.79-.61,7.36,7.36,0,0,1,.78-.6,3,3,0,0,0,1.35-2.47,5.34,5.34,0,0,0-.73-3.29L8,24.82l-.11.08a6.15,6.15,0,0,1-3.32.85c-.3,0-.61,0-1,0Zm33,1.59a25,25,0,0,1,7.7,1.12c.83.26,1.69.48,2.51.7a28.72,28.72,0,0,1,5,1.64l.18.08,0-.19a6.83,6.83,0,0,0-.11-2c0-.25-.08-.48-.1-.72-.17-1.83-.64-2.26-2.51-2.29H44.29A29.17,29.17,0,0,0,38,26.2l-.22.05a3.09,3.09,0,0,0-1.7.79l-.26.24ZM18.66,2.39a.67.67,0,0,0-.32.1,37.39,37.39,0,0,0-10.24,8,2.05,2.05,0,0,0-.64,1.23c-.13,3.13-.28,6.68.73,10,.21.71.48,1.42.75,2.1a14.35,14.35,0,0,1,1.22,5v.21l.19-.08a18.76,18.76,0,0,0,5-3.37,2.1,2.1,0,0,0,.72-2.16c-.82-5.36-.25-10.88,1.78-17.36l.78-2.46L19,2.57l-.07,0A.45.45,0,0,0,18.66,2.39Zm-12.41,12A4.39,4.39,0,0,0,5,16.15a3.54,3.54,0,0,1-.16.34,22.77,22.77,0,0,0-1.79,6.88l0,.12c-.06.44-.16,1.09.59,1.26a6,6,0,0,0,1.28.15,3.7,3.7,0,0,0,1.39-.25c1.23-.49,1.48-1,1.07-2.36A18.05,18.05,0,0,1,6.59,17c0-.51,0-1-.07-1.6,0-.29,0-.6,0-.94v-.27ZM18,9.55c-1,3.78-1.91,8.28-.46,12.94l0,.13.14-.05.21-.06c.12,0,.22-.06.28-.15,1.13-1.55,2.25-3.11,3.38-4.67l2.3-3.19a.77.77,0,0,0,.18-.64.76.76,0,0,0-.49-.47A15.15,15.15,0,0,1,18.21,9.5L18,9.31Zm18.84-7a2.57,2.57,0,0,0-1.9.92L34,4.38c-3.86,4-7.85,8.07-11,12.8-.66,1-1.34,2-2.05,3L19.8,21.9l.33-.07.33,0a1,1,0,0,0,.39-.1,70.47,70.47,0,0,1,18.51-8.06,1.55,1.55,0,0,0,.92-.51A24.93,24.93,0,0,1,44.5,9a1,1,0,0,0,.42-.62.94.94,0,0,0-.29-.66A16.74,16.74,0,0,0,38,2.81,3.18,3.18,0,0,0,36.81,2.55Zm8.52,7.2a.56.56,0,0,0-.39.16c-.18.17-.37.32-.56.48a5.64,5.64,0,0,0-1.86,2.25l-.09.21,5-.39-.06-.17A5.36,5.36,0,0,0,46,10.12,1,1,0,0,0,45.33,9.75ZM26.45,1.29a2.27,2.27,0,0,0-.42,0c-.88.15-1.75.39-2.6.62-.42.11-.84.23-1.26.33a4.11,4.11,0,0,0-3.31,3.47c-.86,1.39-.56,2.68,1,4a14.72,14.72,0,0,0,2.68,2,4,4,0,0,0,1.84.62c.77,0,1.36-.49,2-1.68a3.5,3.5,0,0,0,.32-1.77V8.86a38,38,0,0,1,.44-6.4,1.19,1.19,0,0,0-.11-1A.76.76,0,0,0,26.45,1.29Zm2.89.15c-.47,0-1.08.21-1.23,1.23a30.18,30.18,0,0,0-.44,5.78.49.49,0,0,0,.47.49h.06l6.48-6.48-.2-.08a14.81,14.81,0,0,0-3.72-.78l-1.14-.14Z"/><path class="cls-1" d="M68.16,32.74l-.48,0h-.5l-.26,0c-.06,0-.14,0-.16-.23L66.68,32l0-.19a1.26,1.26,0,0,0,0-.39s0-.12,0-.27a1.58,1.58,0,0,1,0-.26,1.22,1.22,0,0,1,0-.22,1.68,1.68,0,0,0,0-.33,2,2,0,0,0,0-.31,1.43,1.43,0,0,1,0-.26V28.64s0-.54,0-.57,0-.54,0-.58a1.34,1.34,0,0,1,0-.25,2,2,0,0,0,0-.3V25.89c0-.05,0-.12,0-.23s0-.21,0-.28,0-.16,0-.29,0-.19,0-.23,0-.16,0-.28,0-.19,0-.25,0-.18,0-.32a1.58,1.58,0,0,1,0-.23,1.7,1.7,0,0,1,0-.26c0-.14,0-.25,0-.33v-.55s0-.54,0-.57,0-1.09,0-1.13a2.79,2.79,0,0,0,0-.33,2.19,2.19,0,0,1,0-.22,2,2,0,0,1,0-.23,1.43,1.43,0,0,0,.06-.34c0-.07,0-.18,0-.33a1.49,1.49,0,0,1,0-.22c0-.06,0-.15,0-.28s0-.23,0-.3,0-.54,0-.56v-.57a2.33,2.33,0,0,0,0-.33c0-.12,0-.21,0-.27v-.6a2.61,2.61,0,0,1,.06-.27s.06-.06.14-.09l.39-.12.46,0,.24,0,.28,0,.5,0,.51,0a2.7,2.7,0,0,1,.45,0A.36.36,0,0,1,70,16l0,.09a1.73,1.73,0,0,1,.12.23,1.74,1.74,0,0,0,.19.26l.12.14a.71.71,0,0,1,.1.23,1.33,1.33,0,0,0,.18.36,1.2,1.2,0,0,0,.19.26.91.91,0,0,1,.14.18,2.07,2.07,0,0,1,.11.27,2.65,2.65,0,0,0,.13.31c0,.07.08.16.15.29a1.31,1.31,0,0,1,.1.22,2.33,2.33,0,0,0,.18.3,1.21,1.21,0,0,1,.13.25l.34.57.2.45.19.22.14.2.2.42c0,.07.08.13.13.21l.14.25a2.24,2.24,0,0,0,.39.58.45.45,0,0,0,.32.14.55.55,0,0,0,.4-.2.86.86,0,0,0,.3-.62c0-.13,0-.34,0-.63,0,0,0-.56,0-.6a1.76,1.76,0,0,1,0-.28,2.53,2.53,0,0,0,0-.34s0-.57,0-.61V17.94c0-.06,0-.18,0-.33a2.32,2.32,0,0,1,0-.29,1.31,1.31,0,0,1,0-.23,1.6,1.6,0,0,0,0-.32,4,4,0,0,1,0-.56,1.16,1.16,0,0,1,0-.22h0a.26.26,0,0,0,.19-.07h.69l.33,0,.27,0,.28,0,.33,0,.26,0a.39.39,0,0,1,.21.06c.09.07.11.12.11.15a.29.29,0,0,0,0,.21s0,.46,0,.49v.55a1.94,1.94,0,0,0,0,.29c0,.11,0,.2,0,.26v.53c0,.05,0,.13,0,.25a1.53,1.53,0,0,0,0,.3,1.6,1.6,0,0,0,0,.32c0,.11,0,.19,0,.23s0,.3,0,.56c0,.07,0,.15,0,.27a2.5,2.5,0,0,0,0,.32v.58a1.56,1.56,0,0,0,.06.36,1.13,1.13,0,0,1,0,.22V23a1.49,1.49,0,0,1,0,.25,2.79,2.79,0,0,0,0,.33,2.67,2.67,0,0,0,0,.32,1.58,1.58,0,0,1,0,.26,1.39,1.39,0,0,1,0,.24,2.67,2.67,0,0,0,0,.32v.59a1.94,1.94,0,0,0,0,.29c0,.12,0,.2,0,.26v.58s0,.54,0,.57a1.63,1.63,0,0,1,0,.22,1.57,1.57,0,0,0-.06.35,2.5,2.5,0,0,0,0,.32c0,.12,0,.2,0,.26a1.73,1.73,0,0,0,0,.3c0,.11,0,.19,0,.25s0,.15,0,.25a1.77,1.77,0,0,0,0,.33,1.86,1.86,0,0,0,0,.36c0,.12,0,.21,0,.27s0,.17,0,.3a2.14,2.14,0,0,0,0,.32v.62c0,.07,0,.18,0,.31s0,.25,0,.32a4.93,4.93,0,0,1,0,.57c0,.16,0,.22-.08.25a.36.36,0,0,1-.27.13h-.65l-1.32,0h-.23a.74.74,0,0,1-.08-.19,1.81,1.81,0,0,1-.08-.43s0-.45,0-.48a2.13,2.13,0,0,0,0-.3c0-.09,0-.16,0-.2s0-.11,0-.21a2.12,2.12,0,0,0,0-.27,2.46,2.46,0,0,0-.11-.77,2,2,0,0,0-.27-.72,1.52,1.52,0,0,0-.16-.26,2.12,2.12,0,0,1-.13-.2l-.12-.27a1.81,1.81,0,0,0-.14-.26c0-.06-.34-.5-.34-.5a.52.52,0,0,1-.06-.18,1,1,0,0,0-.13-.33,1.62,1.62,0,0,0-.2-.28.86.86,0,0,1-.15-.2l-.29-.51-.23-.55a2.33,2.33,0,0,0-.19-.29,1.06,1.06,0,0,1-.14-.21c0-.06-.06-.15-.1-.26l-.09-.27a2,2,0,0,0-.2-.32L71.47,24a4.62,4.62,0,0,0-.31-.63c0-.07-.12-.18-.23-.32l-.18-.25a.79.79,0,0,0-.62-.42.52.52,0,0,0-.4.28c-.22.37-.23.39-.23.47a7.26,7.26,0,0,0-.08.84s0,.55,0,.58,0,.17,0,.31,0,.19,0,.24a2.67,2.67,0,0,0,0,.32c0,.11,0,.2,0,.26s0,.15,0,.27,0,.23,0,.3,0,.17,0,.31,0,.2,0,.25a1.63,1.63,0,0,1,0,.22,1.57,1.57,0,0,0-.06.35s0,.55,0,.58a1.85,1.85,0,0,0,0,.34,1.74,1.74,0,0,1,0,.25,1,1,0,0,1,0,.26,1.87,1.87,0,0,0,0,.37v.61s0,.56,0,.59a2,2,0,0,0,0,.37,1.49,1.49,0,0,1,0,.25c0,.06,0,.15,0,.27a2.79,2.79,0,0,0,0,.33v.62a1.47,1.47,0,0,1,0,.34c0,.06-.09.11-.23.15l-.23,0-.33,0Z"/><path class="cls-1" d="M85.08,33l-.22,0a1.08,1.08,0,0,1-.25,0,1.28,1.28,0,0,1-.23-.08l-.26-.1a1.46,1.46,0,0,0-.31,0,.39.39,0,0,1-.18,0,1.13,1.13,0,0,1-.22-.15l-.24-.17-.21-.1a.93.93,0,0,1-.23-.13,4.34,4.34,0,0,1-.42-.33l-.22-.17a1.25,1.25,0,0,1-.19-.15s-.06-.06-.13-.2a1.06,1.06,0,0,0-.16-.26c-.21-.26-.3-.36-.34-.4l-.09-.25a1.35,1.35,0,0,0-.08-.19s0-.06-.13-.25-.11-.17-.14-.23v-.17a1.23,1.23,0,0,0,0-.31,4,4,0,0,1-.09-.47c0-.24,0-.41,0-.5V27.18a1.68,1.68,0,0,0,0-.33,1.49,1.49,0,0,1,0-.25v-.55c0-.05,0-.14,0-.25a2.67,2.67,0,0,0,0-.32v-.55a2.87,2.87,0,0,0,0-.36c0-.14,0-.23,0-.29v-.65s0-.62,0-.65,0-.59,0-.62,0-.14,0-.24a2.32,2.32,0,0,0,0-.29,3,3,0,0,0,0-.32,1.31,1.31,0,0,1,0-.23,4.31,4.31,0,0,1,0-.49c0-.09,0-.17,0-.29a2.48,2.48,0,0,0,0-.33s0-.13,0-.26,0-.22,0-.29a4.79,4.79,0,0,1,.08-.55,3,3,0,0,1,.2-.52,3.51,3.51,0,0,1,.24-.46l.13-.23.14-.24a.91.91,0,0,1,.15-.16,1.4,1.4,0,0,0,.22-.24h0L82,17a2.56,2.56,0,0,1,.22-.26,5.34,5.34,0,0,1,.46-.39,3.73,3.73,0,0,1,.57-.33l.62-.24.29,0a1.33,1.33,0,0,0,.37-.06,6,6,0,0,1,.61-.1c.23,0,.4,0,.54,0h.16a.7.7,0,0,1,.2,0,1.24,1.24,0,0,0,.31.06,1.43,1.43,0,0,0,.41.11s0,0,.27.09l.23.07a3.78,3.78,0,0,1,.52.24l.5.27.16.12a.75.75,0,0,1,.14.12l.13.12a1.25,1.25,0,0,1,.15.19,1,1,0,0,0,.21.23h0a1.42,1.42,0,0,0,.19.2,1.13,1.13,0,0,1,.15.14l0,.31v.22l.24-.21.22.43a3,3,0,0,1,.18.5c.08.2.14.37.19.53a1.76,1.76,0,0,1,0,.22,1.58,1.58,0,0,0,0,.34h0a2.21,2.21,0,0,0,0,.26c0,.12,0,.21.06.28a.8.8,0,0,0,0,.11,1.69,1.69,0,0,0,0,.5s0,.11,0,.26c0,0,0,.82,0,.89a1.61,1.61,0,0,1,0,.25,1.85,1.85,0,0,0,0,.35s0,.51,0,.53,0,.16,0,.29,0,.19,0,.24a2.36,2.36,0,0,0,0,.58v1s0,.2.07.56v.28c0,.15,0,.27,0,.35a2.32,2.32,0,0,1,0,.29,2.31,2.31,0,0,0,0,.39V28c0,.12,0,.34,0,.64a.94.94,0,0,0,0,.28c0,.14,0,.2,0,.22a1.3,1.3,0,0,1,0,.15l0,.18a.73.73,0,0,1,0,.12l-.06.28A.74.74,0,0,1,90,30c-.13.27-.2.41-.23.46a1.81,1.81,0,0,1-.29.42l-.31.47h0a.82.82,0,0,1-.18.14,3.22,3.22,0,0,0-.29.2l-.2.24a.59.59,0,0,1-.14.15,2.19,2.19,0,0,1-.29.16l-.26.12-.53.26a.77.77,0,0,1-.26.06l-.33.05-.37.12h-.14l-.56.09Zm.41-14.68a2.39,2.39,0,0,0-.62.11c-.48.17-.57.22-.62.27a2.65,2.65,0,0,0-.41.48,2,2,0,0,0-.34.55,1.94,1.94,0,0,0-.11.62v.58a1.31,1.31,0,0,1,0,.23c0,.14,0,.24,0,.3s0,.16,0,.29,0,.19,0,.23,0,.17,0,.3,0,.19,0,.23,0,.51,0,.53v1.1c0,.05,0,.15,0,.29a1.53,1.53,0,0,1,0,.27c0,.06,0,.15,0,.26s0,.22,0,.29,0,.14,0,.26a2.52,2.52,0,0,0,0,.29s0,.55,0,.58,0,.14,0,.26,0,.22,0,.29a2.67,2.67,0,0,0,0,.32c0,.11,0,.19,0,.23V28a2.08,2.08,0,0,0,.14.58c.08.27.14.44.17.52a1.84,1.84,0,0,0,.42.57,2.61,2.61,0,0,0,.52.31c.43.22.54.24.62.24h.19l.23,0,.13,0a1.7,1.7,0,0,1,.26,0,.87.87,0,0,0,.37-.09,1.58,1.58,0,0,0,.45-.37,1.63,1.63,0,0,0,.39-.37l.23-.55a2.76,2.76,0,0,0,.1-.54v-.51c0-.08,0-.19,0-.33s0-.21,0-.27a1,1,0,0,1,0-.24,2.79,2.79,0,0,0,0-.33,3,3,0,0,0,0-.35,1,1,0,0,1,0-.25,1.26,1.26,0,0,1,0-.21,1.6,1.6,0,0,0,0-.32,1.66,1.66,0,0,0,0-.27,1.11,1.11,0,0,1,0-.23s0-.51,0-.53,0-.17,0-.31a1.34,1.34,0,0,1,0-.22,1.3,1.3,0,0,1,0-.29,3.18,3.18,0,0,0,0-.36,2.33,2.33,0,0,0,0-.33,1.79,1.79,0,0,1,0-.3,1.85,1.85,0,0,1,0-.3,2.53,2.53,0,0,0,0-.34,1.23,1.23,0,0,0,0-.28,1.57,1.57,0,0,1,0-.2.81.81,0,0,0,0-.16,2.5,2.5,0,0,0,0-.32,3.88,3.88,0,0,0,0-.54,2.35,2.35,0,0,0-.1-.56,1.91,1.91,0,0,0-.26-.56,2.9,2.9,0,0,0-.33-.44l-.23-.22-.07.12a1.41,1.41,0,0,0-.52-.28A1.81,1.81,0,0,0,85.49,18.31Z"/><path class="cls-1" d="M100.63,32.79a.44.44,0,0,1-.22-.12.33.33,0,0,1-.06-.23,4.2,4.2,0,0,1,0-.55,1.7,1.7,0,0,0,0-.31,1.52,1.52,0,0,1,0-.24v-.53a1.31,1.31,0,0,1,0-.23,2.86,2.86,0,0,0,0-.33,2.39,2.39,0,0,0,0-.31c0-.1,0-.17,0-.21s0-.14,0-.25a2.74,2.74,0,0,0,0-.31,2.13,2.13,0,0,0,0-.3c0-.11,0-.19,0-.25s0-.17,0-.3,0-.22,0-.28v-.59a1.7,1.7,0,0,1,0-.26c0-.16,0-.27,0-.34a2.5,2.5,0,0,0,0-.32c0-.11,0-.21,0-.28v-.58c0-.08,0-.17,0-.28a2.67,2.67,0,0,0,0-.32s0-1.1,0-1.13,0-.13,0-.24a2.39,2.39,0,0,0,0-.31c0-.07,0-.18,0-.33a1.52,1.52,0,0,1,0-.24v-.55a1.43,1.43,0,0,1,0-.26c0-.14,0-.25,0-.33s0-.12,0-.23a2.24,2.24,0,0,0,0-.31,2.15,2.15,0,0,0,0-.36,1,1,0,0,1,0-.2,1.43,1.43,0,0,1,0-.26c0-.14,0-.25,0-.31v-.56s0-.54,0-.57v-.55c0-.06,0-.16,0-.3s0-.27,0-.35,0-.2,0-.35,0-.24,0-.3v-.62a.5.5,0,0,1,.07-.21c.06-.26.13-.27.18-.27H101l.48,0,.26,0a1.94,1.94,0,0,0,.29,0l.33,0,.25,0a1.56,1.56,0,0,1,.46.14.8.8,0,0,1,.42.27l.24.53c.06.1.38.54.38.54s0,.06.09.21a1.43,1.43,0,0,0,.17.35c0,.06.11.18.17.27a1.19,1.19,0,0,1,.15.22l.19.27a2.31,2.31,0,0,1,.14.23l.43,1,.29.45a2.85,2.85,0,0,1,.23.49c.11.17.2.32.28.47a4.63,4.63,0,0,1,.3.57,2.11,2.11,0,0,0,.41.46.7.7,0,0,0,.43.15.66.66,0,0,0,.48-.21,2.89,2.89,0,0,0,.44-.53q.32-.52.33-.57l.28-.57q.18-.32.27-.45l.25-.58c0-.08.13-.26.24-.49l.27-.46c.16-.28.25-.45.27-.5l.12-.22c.06-.11.1-.19.13-.23a1.55,1.55,0,0,1,.17-.25c.15-.18.19-.25.19-.34l.24-.29.37-.62a.33.33,0,0,1,.32-.16,1.56,1.56,0,0,0,.43-.06,1.38,1.38,0,0,1,.31,0l.57,0,0,.71.41-.66.11-.05.58,0s.13,0,.19.23a1.57,1.57,0,0,1,0,.48,2.39,2.39,0,0,0,0,.31c0,.1,0,.19,0,.25s0,.13,0,.22a2.13,2.13,0,0,0,0,.3s0,.6,0,.63a2.79,2.79,0,0,0,0,.33c0,.12,0,.21,0,.27s0,.16,0,.28a2.47,2.47,0,0,0,0,.34s0,.57,0,.6,0,.18,0,.33a1.78,1.78,0,0,1,0,.28v.62a1.89,1.89,0,0,1,0,.29c0,.15,0,.26,0,.33a2.14,2.14,0,0,0,0,.35,2.13,2.13,0,0,1,0,.3,1.78,1.78,0,0,1,0,.28,1.77,1.77,0,0,0,0,.34,2.23,2.23,0,0,0,0,.36,1.89,1.89,0,0,1,0,.29v.57s0,.57,0,.6,0,.14,0,.26a2.5,2.5,0,0,0,0,.32v.6a2.5,2.5,0,0,0,0,.32c0,.12,0,.2,0,.26s0,.14,0,.26a2.39,2.39,0,0,0,0,.31,1.6,1.6,0,0,0,0,.33,1.68,1.68,0,0,1,0,.27c0,.06,0,.14,0,.26a2.5,2.5,0,0,0,0,.32v.57c0,.06,0,.15,0,.27s0,.24,0,.31,0,.17,0,.31,0,.22,0,.29,0,.54,0,.58a2.39,2.39,0,0,0,0,.31c0,.12,0,.21,0,.26a3.94,3.94,0,0,0,0,.43l-.06.52a.29.29,0,0,1-.33.27h-.55l-1.13,0a1.65,1.65,0,0,1-.46-.06c-.15,0-.21-.09-.23-.22a1.31,1.31,0,0,0,0-.31l0-.17h0a.74.74,0,0,1,0-.17.82.82,0,0,0,0-.37h0s0-.05,0-.22a2.27,2.27,0,0,1,0-.24v-.67a3.1,3.1,0,0,0,0-.34c0-.13,0-.24,0-.32v-.62c0-.05,0-.14,0-.27a2.73,2.73,0,0,0,0-.35s0-.56,0-.6a2,2,0,0,0,0-.34,1.78,1.78,0,0,1,0-.29,2.22,2.22,0,0,1,0-.28,2.31,2.31,0,0,0,0-.39s0-.6,0-.64,0-.18,0-.32,0-.27,0-.36a3.32,3.32,0,0,0,0-.37c0-.14,0-.25,0-.32s0-.64,0-.67a1.88,1.88,0,0,0,0-.58.61.61,0,0,0-.33-.39.57.57,0,0,0-.25-.06.59.59,0,0,0-.31.09,2,2,0,0,0-.32.41l-.19.24a1.61,1.61,0,0,0-.23.36,5.65,5.65,0,0,1-.28.53l-.15.3a2.17,2.17,0,0,1-.12.23l-.29.57a5.83,5.83,0,0,0-.26.59,2,2,0,0,1-.11.23l-.14.31c0,.06-.08.15-.15.26a1.34,1.34,0,0,0-.15.24.88.88,0,0,0-.12.27,1.58,1.58,0,0,1-.1.26L108,28l-.12.16-.23.39-.09.15a1.48,1.48,0,0,1-.24-.23l-.23-.43-.27-.44,0-.11a1.58,1.58,0,0,0-.14-.37,1.68,1.68,0,0,0-.2-.3.8.8,0,0,1-.15-.21.92.92,0,0,1-.13-.28,2.43,2.43,0,0,0-.16-.35l-.32-.54-.15-.3a.86.86,0,0,0-.11-.19c-.1-.2-.19-.36-.23-.47a.76.76,0,0,1-.08-.15l-.08-.18a1.67,1.67,0,0,0-.07-.19s-.06-.11-.14-.23a2.54,2.54,0,0,1-.14-.25,4.45,4.45,0,0,0-.46-.63.86.86,0,0,0-.53-.25l-.13,0a.63.63,0,0,0-.43.55,1,1,0,0,0,0,.34c0,.1,0,.13,0,.13v1a1.06,1.06,0,0,1,0,.2,2.24,2.24,0,0,0,0,.31s0,.5,0,.53a2.51,2.51,0,0,0,0,.3c0,.1,0,.16,0,.2v.63c0,.08,0,.2,0,.34s0,.22,0,.28a2.13,2.13,0,0,1,0,.3,3.23,3.23,0,0,0,0,.35v.5a1.66,1.66,0,0,0,0,.27,2,2,0,0,1,0,.21c0,.08,0,.26,0,.5a2,2,0,0,0,0,.31,2.13,2.13,0,0,1,0,.22c0,.06,0,.14,0,.26a1.66,1.66,0,0,0,0,.27,1.6,1.6,0,0,0,0,.33.85.85,0,0,1,0,.2.73.73,0,0,1,0,.22,1.32,1.32,0,0,0,0,.31v.56a1.3,1.3,0,0,1,0,.38s0,.15-.35.15l-1.15,0a2.25,2.25,0,0,0-.34,0,1.43,1.43,0,0,1-.26,0A1,1,0,0,0,100.63,32.79Z"/><path class="cls-1" d="M123,33.06l-.31,0a4.65,4.65,0,0,1-.54,0h-.56l-.21-.09a1.64,1.64,0,0,0-.32-.13h0s0,0-.28-.08l-.28-.06-.2-.13-.25-.17a1.3,1.3,0,0,0-.24-.13l-.21-.11s-.3-.33-.35-.38a3.1,3.1,0,0,1-.33-.36l-.34-.43-.25-.45h0a.86.86,0,0,0-.14-.25l-.14-.22c0-.1-.09-.3-.15-.57l-.12-.61a2.07,2.07,0,0,1,0-.29,2,2,0,0,0,0-.38h0s0-.11,0-.27,0-.24,0-.32,0-.66,0-.69,0-.21,0-.38a2.75,2.75,0,0,1,0-.34V25a1.61,1.61,0,0,1,0-.25c0-.14,0-.26,0-.34V23.8s0-.57,0-.61v-.57s0-.29,0-.31a2.19,2.19,0,0,1,0-.22.85.85,0,0,0,0-.39h0s0-.06,0-.25a1.58,1.58,0,0,1,0-.26s0-.51,0-.55,0-.69,0-.8,0-.21,0-.28,0-.53,0-.55v-.55a1.39,1.39,0,0,1,0-.24c0-.14,0-.24,0-.31v-.55c0-.06,0-.13,0-.22s0-.19,0-.26a1.45,1.45,0,0,0,0-.32c0-.12,0-.17,0-.19a.9.9,0,0,0,.1-.34c0-.08.07-.09.09-.09a1,1,0,0,1,.28-.09l.27,0a1.71,1.71,0,0,0,.36,0,1.85,1.85,0,0,0,.34,0l.26,0,.27,0,.33,0h.2c.14,0,.21,0,.24.21a4,4,0,0,1,.06.78v2.4s0,.12,0,.24,0,.24,0,.31v1.08c0,.07,0,.17,0,.3s0,.19,0,.25V22c0,.05,0,.14,0,.25s0,.23,0,.3,0,.17,0,.3,0,.19,0,.25,0,.55,0,.58,0,.15,0,.27,0,.23,0,.3,0,.18,0,.31,0,.21,0,.27a1.49,1.49,0,0,1,0,.25,2.79,2.79,0,0,0,0,.33c0,.07,0,.17,0,.31s0,.2,0,.26v1.15c0,.06,0,.15,0,.27s0,.24,0,.3a2.9,2.9,0,0,0,.14.85,2.89,2.89,0,0,0,.21.65,2.1,2.1,0,0,0,.43.53,2.61,2.61,0,0,0,.6.39,2.09,2.09,0,0,0,.72.12,2.45,2.45,0,0,0,.62-.08,2.78,2.78,0,0,0,.56-.21,2.3,2.3,0,0,0,.48-.47,2,2,0,0,0,.33-.54,3.61,3.61,0,0,0,.16-.6,2.18,2.18,0,0,0,0-.34,1.36,1.36,0,0,1,0-.24,3.52,3.52,0,0,0,0-.5c0-.07,0-.16,0-.28s0-.19,0-.25,0-.14,0-.23a2.11,2.11,0,0,0,0-.31,2.42,2.42,0,0,0,0-.28c0-.1,0-.18,0-.24a2.3,2.3,0,0,1,0-.23c0-.13,0-.23,0-.3s0-.5,0-.53,0-.11,0-.22a2.24,2.24,0,0,0,0-.31s0-.56,0-.59a1.86,1.86,0,0,0,0-.36,1.57,1.57,0,0,1,0-.27,1.75,1.75,0,0,1,0-.25,1.94,1.94,0,0,0,0-.35,2,2,0,0,0,0-.35,1.8,1.8,0,0,1,0-.27s.07-1.68.07-1.7a2.24,2.24,0,0,0,0-.31c0-.11,0-.19,0-.25s0-.14,0-.26,0-.22,0-.29,0-.14,0-.26,0-.22,0-.29,0-.17,0-.3a2.45,2.45,0,0,1,0-.25v-.56s0-.4,0-.42,0-.16.07-.42V16h0a.66.66,0,0,1,.25-.12h.32l.34,0,.35,0h.25l.22,0a6.43,6.43,0,0,1,.69,0c.07,0,.16.05.19.25s0,.44,0,.8a1.77,1.77,0,0,0,0,.33c0,.11,0,.19,0,.25s0,.14,0,.26a2.14,2.14,0,0,0,0,.32,2.5,2.5,0,0,0,0,.32,1.58,1.58,0,0,1,0,.28,1.47,1.47,0,0,1,0,.23,1.74,1.74,0,0,0,0,.34c0,.07,0,.17,0,.31s0,.21,0,.27a1.6,1.6,0,0,0,0,.33,1.26,1.26,0,0,1,0,.22.85.85,0,0,1,0,.18,1.12,1.12,0,0,0-.07.35,1.68,1.68,0,0,0,0,.32,1.21,1.21,0,0,1,0,.2V22s0,.06,0,.22a1.82,1.82,0,0,0,0,.31,2,2,0,0,0,0,.34c0,.12,0,.21,0,.27s0,.14,0,.26a2,2,0,0,0,0,.31,2.79,2.79,0,0,0,0,.33,1.61,1.61,0,0,1,0,.25,1.86,1.86,0,0,1,0,.26,2,2,0,0,0,0,.34s0,.54,0,.57a1.94,1.94,0,0,0,0,.29c0,.12,0,.2,0,.24a2.52,2.52,0,0,0,0,.29c0,.12,0,.19,0,.24s0,.12,0,.23a2.52,2.52,0,0,0,0,.29v.53c0,.12,0,.32,0,.6v.65a1.16,1.16,0,0,1,0,.17l0,.21c0,.05,0,.09,0,.12a1.35,1.35,0,0,1-.11.26c-.07.14-.11.24-.13.29a1.82,1.82,0,0,1-.2.48c-.09.2-.17.37-.26.53l-.14.15-.18.18-.17.26a.5.5,0,0,1-.13.16,3.9,3.9,0,0,1-.4.29l-.44.36h0a.78.78,0,0,0-.19.1l-.25.15-.2.06-.27.08-.56.22-.15,0-.18.06-.13,0H123Z"/><path class="cls-1" d="M131.1,32.79a.44.44,0,0,1-.22-.12.33.33,0,0,1-.06-.23,4.2,4.2,0,0,1,0-.55c0-.06,0-.16,0-.31a1.52,1.52,0,0,1,0-.24v-.53a1.31,1.31,0,0,1,0-.23,2.86,2.86,0,0,0,0-.33,2.39,2.39,0,0,0,0-.31c0-.1,0-.17,0-.21s0-.14,0-.25a2.74,2.74,0,0,0,0-.31,2.13,2.13,0,0,0,0-.3c0-.11,0-.19,0-.25s0-.17,0-.3,0-.22,0-.28v-.59a1.7,1.7,0,0,1,0-.26c0-.16,0-.27,0-.34a2.5,2.5,0,0,0,0-.32c0-.11,0-.21,0-.28v-.58c0-.08,0-.17,0-.28a2.67,2.67,0,0,0,0-.32s-.05-1.1-.05-1.13,0-.13,0-.24a2.39,2.39,0,0,0,0-.31c0-.07,0-.18,0-.33a1.52,1.52,0,0,1,0-.24v-.55a1.43,1.43,0,0,1,0-.26c0-.14,0-.25,0-.33s0-.12,0-.23a2.24,2.24,0,0,0,0-.31,2.15,2.15,0,0,0,0-.36,1,1,0,0,1,0-.2,1.43,1.43,0,0,1,0-.26c0-.14,0-.25,0-.31v-.56s0-.54,0-.57v-.55c0-.06,0-.16,0-.3s0-.27,0-.35,0-.2,0-.35,0-.24,0-.3v-.62a.5.5,0,0,1,.07-.21c.05-.26.13-.27.18-.27h.46l.48,0,.26,0a1.94,1.94,0,0,0,.29,0l.33,0,.25,0a1.56,1.56,0,0,1,.46.14.8.8,0,0,1,.42.27l.24.53c.06.1.38.54.38.54s0,.06.09.21a1.43,1.43,0,0,0,.17.35c0,.06.11.18.17.27a1.19,1.19,0,0,1,.15.22l.18.27a1.55,1.55,0,0,1,.15.23l.43,1,.29.45a2.85,2.85,0,0,1,.23.49,4.13,4.13,0,0,1,.28.47,4.63,4.63,0,0,1,.3.57,2.11,2.11,0,0,0,.41.46.7.7,0,0,0,.43.15.66.66,0,0,0,.48-.21,2.89,2.89,0,0,0,.44-.53q.31-.52.33-.57l.28-.57q.18-.32.27-.45l.25-.58c0-.08.13-.26.24-.49l.27-.46c.16-.28.25-.45.27-.5l.12-.22c.06-.11.1-.19.13-.23a1.55,1.55,0,0,1,.17-.25c.14-.18.18-.25.18-.34s.16-.19.25-.29l.37-.62a.33.33,0,0,1,.32-.16,1.6,1.6,0,0,0,.43-.06,1.38,1.38,0,0,1,.31,0l.57,0,.05.71L144,16l.11-.05.58,0s.13,0,.19.23a1.57,1.57,0,0,1,0,.48,2.39,2.39,0,0,0,0,.31c0,.1,0,.19,0,.25s0,.13,0,.22a2.13,2.13,0,0,0,0,.3s0,.6,0,.63a2.79,2.79,0,0,0,0,.33c0,.12,0,.21,0,.27s0,.16,0,.28a2.47,2.47,0,0,0,0,.34s0,.57,0,.6,0,.18,0,.33a1.78,1.78,0,0,1,0,.28v.62a1.89,1.89,0,0,1,0,.29c0,.15,0,.26,0,.33a2.14,2.14,0,0,0,0,.35,2.13,2.13,0,0,1,0,.3,1.78,1.78,0,0,1,0,.28,1.77,1.77,0,0,0,0,.34,2.23,2.23,0,0,0,0,.36,1.89,1.89,0,0,1,0,.29v.57s0,.57,0,.6,0,.14,0,.26a2.5,2.5,0,0,0,0,.32v.6a2.5,2.5,0,0,0,0,.32c0,.12,0,.2,0,.26s0,.14,0,.26a2.39,2.39,0,0,0,0,.31,1.6,1.6,0,0,0,0,.33,1.68,1.68,0,0,1,0,.27c0,.06,0,.14,0,.26a2.5,2.5,0,0,0,0,.32v.57c0,.06,0,.15,0,.27s0,.24,0,.31,0,.17,0,.31,0,.22,0,.29,0,.54,0,.58a2.39,2.39,0,0,0,0,.31c0,.12,0,.21,0,.26a3.94,3.94,0,0,0,0,.43c0,.09,0,.24-.06.52a.29.29,0,0,1-.33.27H144l-1.12,0a1.65,1.65,0,0,1-.46-.06c-.15,0-.21-.09-.23-.22a2.26,2.26,0,0,0-.05-.31l0-.17h0a.74.74,0,0,1,0-.17.82.82,0,0,0,0-.37s0-.05,0-.22a2.27,2.27,0,0,1,0-.24v-.67a3.1,3.1,0,0,0,0-.34c0-.13,0-.24,0-.32v-.62c0-.05,0-.14,0-.27a2.73,2.73,0,0,0,0-.35s0-.56,0-.6a2,2,0,0,0,0-.34,1.78,1.78,0,0,1,0-.29,2.22,2.22,0,0,1,0-.28,2.31,2.31,0,0,0,0-.39s0-.6,0-.64,0-.18,0-.32,0-.27,0-.36a3.32,3.32,0,0,0,0-.37c0-.14,0-.25,0-.32s0-.64,0-.67a1.88,1.88,0,0,0,0-.58.61.61,0,0,0-.33-.39.57.57,0,0,0-.25-.06.59.59,0,0,0-.31.09,2.29,2.29,0,0,0-.33.41,2.39,2.39,0,0,1-.18.24,1.61,1.61,0,0,0-.23.36,5.65,5.65,0,0,1-.28.53l-.15.3a2.17,2.17,0,0,1-.12.23l-.29.57a5.83,5.83,0,0,0-.26.59,2,2,0,0,1-.11.23l-.14.31c0,.06-.08.15-.15.26a1.34,1.34,0,0,0-.15.24.88.88,0,0,0-.12.27,1,1,0,0,1-.11.26l-.15.25-.12.16-.23.39-.09.15a1.48,1.48,0,0,1-.24-.23l-.23-.43-.27-.44,0-.1a1.54,1.54,0,0,0-.14-.38,1.39,1.39,0,0,0-.21-.3,1.83,1.83,0,0,1-.27-.49,2.43,2.43,0,0,0-.16-.35l-.32-.54-.15-.3a.86.86,0,0,0-.11-.19c-.1-.2-.19-.36-.23-.47a.76.76,0,0,1-.08-.15l-.08-.18a1.67,1.67,0,0,0-.07-.19s-.06-.11-.14-.23a2.54,2.54,0,0,1-.14-.25,4.45,4.45,0,0,0-.46-.63.86.86,0,0,0-.53-.25l-.14,0a.64.64,0,0,0-.42.55,1,1,0,0,0,0,.34c0,.1,0,.13,0,.13v1a1.06,1.06,0,0,1,0,.2,2.24,2.24,0,0,0,0,.31s0,.5,0,.53a1.37,1.37,0,0,0,0,.3c0,.1,0,.16,0,.2v.63c0,.08,0,.2,0,.34s0,.22,0,.28a2.13,2.13,0,0,1,0,.3,3.23,3.23,0,0,0,0,.35v.5a1.66,1.66,0,0,0,0,.27,2,2,0,0,1,0,.21c0,.08,0,.26,0,.5a2,2,0,0,0,0,.31,2.13,2.13,0,0,1,0,.22c0,.06,0,.14,0,.26a1.66,1.66,0,0,0,0,.27,1.6,1.6,0,0,0,0,.33.85.85,0,0,1,0,.2,1.45,1.45,0,0,1,0,.22,1.32,1.32,0,0,0,0,.31v.56a1.3,1.3,0,0,1,0,.38s-.05.15-.35.15l-1.15,0a2.25,2.25,0,0,0-.34,0,1.43,1.43,0,0,1-.26,0A1,1,0,0,0,131.1,32.79Z"/><path class="cls-1" d="M148.54,32.79a.38.38,0,0,1-.21-.12.33.33,0,0,1-.07-.23c0-.14,0-.31,0-.55a1.7,1.7,0,0,0,0-.31,1.52,1.52,0,0,1,0-.24v-.53a1.31,1.31,0,0,1,0-.23,1.6,1.6,0,0,0,0-.33c0-.07,0-.17,0-.31a1.26,1.26,0,0,1,0-.21,1.61,1.61,0,0,1,0-.25c0-.15,0-.25,0-.31s0-.17,0-.3a1.49,1.49,0,0,1,0-.25c0-.07,0-.17,0-.3s0-.22,0-.28v-.59a1.7,1.7,0,0,1,0-.26,2,2,0,0,0,0-.34c0-.07,0-.18,0-.32a1.67,1.67,0,0,1,0-.28v-.58a1.58,1.58,0,0,1,0-.28c0-.15,0-.25,0-.32s-.05-1.1-.05-1.13a1.52,1.52,0,0,1,0-.24c0-.14,0-.24,0-.31a1.77,1.77,0,0,0,0-.33,1.52,1.52,0,0,1,0-.24v-.55c0-.06,0-.14,0-.26a2.48,2.48,0,0,0,0-.33s0-.12,0-.23a2,2,0,0,0,0-.31,1.44,1.44,0,0,0,0-.36,1,1,0,0,1,0-.2c0-.06,0-.14,0-.26a2.55,2.55,0,0,0,0-.31v-.56s0-.54,0-.57v-.55c0-.06,0-.16,0-.3s0-.27,0-.35,0-.2,0-.35,0-.24,0-.3v-.62a.8.8,0,0,1,.07-.21c.06-.26.13-.27.18-.27h.47l.48,0,.25,0,.3,0,.33,0,.24,0A1.48,1.48,0,0,1,151,16a.83.83,0,0,1,.43.27l.23.53.38.54a.74.74,0,0,1,.09.21,1.91,1.91,0,0,0,.17.35,2.09,2.09,0,0,0,.18.27,1.62,1.62,0,0,1,.14.22l.19.27a2.31,2.31,0,0,1,.14.23l.43,1,.29.45a3.75,3.75,0,0,1,.24.49c.11.17.2.32.28.47s.18.32.3.57a1.88,1.88,0,0,0,.41.46.7.7,0,0,0,.42.15.66.66,0,0,0,.48-.21,3,3,0,0,0,.45-.53l.33-.57.28-.57a3.25,3.25,0,0,1,.27-.45l.24-.58a4.49,4.49,0,0,0,.24-.49l.27-.46c.16-.28.26-.45.28-.5l.11-.22c.06-.11.1-.19.13-.23a1.55,1.55,0,0,1,.17-.25c.15-.18.19-.25.19-.34s.15-.19.25-.29l.36-.62a.35.35,0,0,1,.33-.16,1.54,1.54,0,0,0,.42-.06,1.44,1.44,0,0,1,.31,0l.58,0,0,.71.42-.66.1-.05.58,0s.13,0,.2.23a2.47,2.47,0,0,1,0,.48,2.39,2.39,0,0,0,0,.31c0,.1,0,.19,0,.25s0,.13,0,.22a2.13,2.13,0,0,0,0,.3s0,.6,0,.63,0,.18,0,.33a1.53,1.53,0,0,1,0,.27,1.58,1.58,0,0,1,0,.28c0,.14,0,.25,0,.34s0,.57,0,.6a2.79,2.79,0,0,0,0,.33c0,.12,0,.21,0,.28v.62c0,.07,0,.17,0,.29a2.79,2.79,0,0,0,0,.33c0,.07,0,.18,0,.35a2.13,2.13,0,0,1,0,.3,1.78,1.78,0,0,1,0,.28,3.26,3.26,0,0,0,0,.34c0,.07,0,.19,0,.36a1.89,1.89,0,0,1,0,.29v.57s0,.57,0,.6,0,.14,0,.26a2.5,2.5,0,0,0,0,.32v.6a2.5,2.5,0,0,0,0,.32c0,.12,0,.2,0,.26s0,.14,0,.26a2.39,2.39,0,0,0,0,.31,2.86,2.86,0,0,0,0,.33,1.68,1.68,0,0,1,0,.27,1.43,1.43,0,0,1,0,.26c0,.14,0,.25,0,.32v.57c0,.06,0,.15,0,.27s0,.24,0,.31,0,.17,0,.31,0,.22,0,.29,0,.54,0,.58a2.39,2.39,0,0,0,0,.31c0,.12,0,.21,0,.26a2.17,2.17,0,0,0,0,.43c0,.09,0,.25-.07.52s-.09.27-.33.27h-.55l-1.13,0a1.53,1.53,0,0,1-.45-.06c-.16,0-.22-.09-.24-.22a.93.93,0,0,0,0-.31l0-.17h0l0-.17a.82.82,0,0,0,0-.37h0s0-.05,0-.22a2.27,2.27,0,0,1,0-.24v-.67c0-.07,0-.18,0-.34a2.23,2.23,0,0,1,0-.32v-.62a2.12,2.12,0,0,1,0-.27c0-.15,0-.26,0-.35s0-.56,0-.6a2,2,0,0,0,0-.34,1.78,1.78,0,0,1,0-.29,1.38,1.38,0,0,1,0-.28,3.61,3.61,0,0,0,0-.39s0-.6,0-.64,0-.18,0-.32,0-.27,0-.36,0-.21,0-.37a2.14,2.14,0,0,1,0-.32s0-.64,0-.67a2.17,2.17,0,0,0,0-.58.62.62,0,0,0-.34-.39.54.54,0,0,0-.25-.06.58.58,0,0,0-.3.09,1.91,1.91,0,0,0-.33.41,2.39,2.39,0,0,1-.18.24,1.31,1.31,0,0,0-.23.36,5.28,5.28,0,0,1-.29.53l-.14.3-.12.23-.3.57a5.83,5.83,0,0,0-.26.59,1.57,1.57,0,0,1-.1.23c-.07.13-.12.24-.15.31a1.08,1.08,0,0,1-.15.26,2.42,2.42,0,0,0-.15.24.88.88,0,0,0-.12.27,1.58,1.58,0,0,1-.1.26c0,.06-.09.14-.16.25a1.22,1.22,0,0,1-.12.16l-.22.39-.1.15a2.77,2.77,0,0,1-.24-.23L155,28l-.27-.44,0-.11a1.22,1.22,0,0,0-.14-.37,1.68,1.68,0,0,0-.2-.3,1.53,1.53,0,0,1-.28-.49,1.73,1.73,0,0,0-.15-.35c0-.05-.14-.23-.33-.54l-.15-.3a.85.85,0,0,0-.1-.19c-.11-.2-.19-.36-.24-.47l-.08-.15-.07-.18a1.35,1.35,0,0,0-.08-.19,1.68,1.68,0,0,0-.14-.23l-.14-.25a4.69,4.69,0,0,0-.45-.63.86.86,0,0,0-.54-.25l-.13,0a.66.66,0,0,0-.43.55,1,1,0,0,0,0,.34.31.31,0,0,1,0,.13v1s0,.11,0,.2a1.45,1.45,0,0,0,0,.31s0,.5,0,.53a2.13,2.13,0,0,0,0,.3,1.19,1.19,0,0,1,0,.2v.63c0,.08,0,.2,0,.34s0,.22,0,.28a2.13,2.13,0,0,1,0,.3,3.23,3.23,0,0,0,0,.35v.5c0,.05,0,.14,0,.27s0,.17,0,.21a3.49,3.49,0,0,0,0,.5c0,.07,0,.17,0,.31s0,.18,0,.22,0,.14,0,.26,0,.22,0,.27a1.76,1.76,0,0,0,.05.33,1.1,1.1,0,0,1,0,.2,1,1,0,0,1,0,.22,1.69,1.69,0,0,0-.05.31v.56c0,.3,0,.37,0,.38s-.06.15-.36.15l-1.15,0a2.31,2.31,0,0,0-.34,0,1.38,1.38,0,0,1-.26,0A1.07,1.07,0,0,0,148.54,32.79Z"/><path class="cls-1" d="M170.35,32.71l-.29,0a3.12,3.12,0,0,1-.49,0l-.26,0-.28,0a.46.46,0,0,1-.28-.06.42.42,0,0,1-.14-.26s0-.57,0-.61,0-.17,0-.3,0-.22,0-.3,0-.15,0-.27,0-.24,0-.33,0-.65,0-.69a3.13,3.13,0,0,0,0-.39,2.16,2.16,0,0,1,0-.31,6.49,6.49,0,0,0,0-.65l-.16-.65s-.12-.58-.12-.58a2.1,2.1,0,0,0-.1-.32,2.15,2.15,0,0,1-.08-.25,2.71,2.71,0,0,1-.05-.27,1.66,1.66,0,0,0,0-.31c0-.07-.05-.17-.09-.31a2.19,2.19,0,0,1-.08-.27,2,2,0,0,0-.14-.36,1.66,1.66,0,0,1-.1-.21l-.14-.56c0-.05,0-.14,0-.26s0-.24-.05-.31l-.17-.54c0-.06,0-.17-.08-.31a2.2,2.2,0,0,0-.1-.28h0s0-.07-.08-.28a2.25,2.25,0,0,0-.09-.26l-.1-.54-.15-.56a1.47,1.47,0,0,0-.11-.31c0-.11-.08-.19-.09-.23a1,1,0,0,1,0-.22,1.8,1.8,0,0,0,0-.32,2.83,2.83,0,0,0-.08-.29l-.08-.25a.51.51,0,0,1-.06-.24,2.11,2.11,0,0,0-.06-.31,3.51,3.51,0,0,0-.21-.55l-.13-.51c-.08-.3-.14-.48-.17-.56a1.72,1.72,0,0,0-.11-.25l-.1-.2s0-.07,0-.15a1.53,1.53,0,0,0-.06-.25c0-.11-.05-.17-.06-.2a.22.22,0,0,1,0-.14.36.36,0,0,1,.23,0l.44,0,.45,0h.13l.41,0,.18,0a1.49,1.49,0,0,0,.26,0h.31a.55.55,0,0,1,.31.34,8.21,8.21,0,0,1,.24.8c0,.07,0,.17.07.3a1.76,1.76,0,0,0,.09.28l0,.16a2.35,2.35,0,0,0,.06.29c0,.06,0,.14.06.25l.06.28a1.69,1.69,0,0,0,.13.3,1,1,0,0,1,.09.2l.27,1.06.1.28a2.16,2.16,0,0,1,.08.24,2.37,2.37,0,0,0,.14.3,1.39,1.39,0,0,1,.1.21.75.75,0,0,0,.17.36.64.64,0,0,0,.47.19.56.56,0,0,0,.5-.29s0,0,0,0a2.39,2.39,0,0,0,.18-.41l.09-.33a.94.94,0,0,1,.09-.26c0-.06.08-.17.14-.32a1.9,1.9,0,0,0,.12-.37,1.78,1.78,0,0,0,.06-.34,1.37,1.37,0,0,1,.06-.26c0-.12.06-.22.1-.35l.09-.28.2-.81,0-.22c0-.07,0-.12,0-.16a3.4,3.4,0,0,1,.09-.33c0-.12.06-.2.07-.24l.25-.7a.33.33,0,0,1,.31-.25h.65l.3,0,.38,0h.67l.21,0h.1s0,0,0,.07a.13.13,0,0,1,0,.1,2.32,2.32,0,0,1-.08.3,1.27,1.27,0,0,0-.09.35h0s0,.05,0,.12-.1.36-.11.42l-.09.26a1.36,1.36,0,0,0-.11.35,1.07,1.07,0,0,0-.06.24c0,.1,0,.17-.05.21l-.08.24a1.42,1.42,0,0,0-.09.28l-.15.47a1.46,1.46,0,0,0-.06.26c0,.11,0,.2-.06.26l-.14.57a1.25,1.25,0,0,0-.05.3,1.65,1.65,0,0,1-.06.24,1.58,1.58,0,0,1-.1.26,1.67,1.67,0,0,0-.13.33,3,3,0,0,0-.17.55c0,.07,0,.18-.05.34s0,.23,0,.3-.1.32-.17.58-.18.54-.19.61a4.25,4.25,0,0,0-.17.63c0,.05-.08.24-.19.56l-.15.64c0,.06,0,.17-.06.31a1.81,1.81,0,0,1-.06.28,1.36,1.36,0,0,1-.08.28,3.05,3.05,0,0,0-.11.29,1.57,1.57,0,0,1-.1.23,2.49,2.49,0,0,0-.12.36l-.13.57c0,.09,0,.2-.06.34a1.45,1.45,0,0,0,0,.27,1.61,1.61,0,0,1,0,.25c0,.14,0,.25,0,.33v.55c0,.07,0,.17,0,.29s0,.2,0,.26a2.79,2.79,0,0,0,0,.33.93.93,0,0,1,0,.47,2.79,2.79,0,0,0,0,.33V32a.74.74,0,0,1,0,.19,1.66,1.66,0,0,0,0,.27c0,.06-.06.12-.22.13h0a1.27,1.27,0,0,0-.3.06l-.21,0Z"/><path class="cls-1" d="M68,56.72l-.19,0a1.6,1.6,0,0,0-.32,0,1.85,1.85,0,0,0-.3,0,1,1,0,0,1-.21,0l-.5,0a3.76,3.76,0,0,1-.6,0s-.1,0-.09-.19,0-.12,0-.26a3,3,0,0,1,0-.33s0-.13.08-.25a1.51,1.51,0,0,0,.11-.32l.14-.61c0-.08,0-.18.08-.31l.08-.26s.13-.59.14-.62,0-.17.06-.32,0-.22,0-.28a1.8,1.8,0,0,1,.1-.24,1.85,1.85,0,0,0,.14-.33,1.53,1.53,0,0,0,0-.34.68.68,0,0,1,0-.25l.09-.26a1,1,0,0,0,.07-.35,2.14,2.14,0,0,0,.09-.5l.16-.45s0-.15.07-.29,0-.2,0-.24l.09-.22a2,2,0,0,0,.11-.3s.11-.52.11-.55l.09-.23.09-.3s.23-1.07.23-1.1l.14-.52.14-.56.27-1.07c0-.07,0-.15.08-.27a2.3,2.3,0,0,0,.09-.31l.15-.53a1.63,1.63,0,0,1,.09-.23c0-.14.08-.24.1-.31a2.74,2.74,0,0,0,0-.32c0-.11,0-.2,0-.25l.17-.51a1.93,1.93,0,0,0,.06-.34c0-.11,0-.2,0-.25l.14-.53a3.5,3.5,0,0,0,.13-.45l.13-.37a.43.43,0,0,1,.19-.22.43.43,0,0,1,.27-.07,1.77,1.77,0,0,0,.33,0l.22,0,.58,0h.55l.56,0a.37.37,0,0,1,.3.11.42.42,0,0,1,.19.31,3.07,3.07,0,0,0,.11.31,1.06,1.06,0,0,1,.08.23l.07.27a2.38,2.38,0,0,0,.07.27,2,2,0,0,1,0,.22c0,.12,0,.22,0,.29a3.07,3.07,0,0,0,.11.31l.09.21s0,.06,0,.2a1.82,1.82,0,0,0,0,.31,1.65,1.65,0,0,0,.12.32,1.6,1.6,0,0,1,.08.2s.12.55.12.55a2.19,2.19,0,0,1,0,.25c0,.13,0,.23,0,.3a3,3,0,0,0,.12.31c0,.11.07.19.09.23a2.23,2.23,0,0,1,0,.23,2.43,2.43,0,0,0,.06.31l.28,1.1.09.27a1.61,1.61,0,0,1,.08.23l.15.51c0,.06,0,.14,0,.26a2.17,2.17,0,0,0,.07.28c0,.05,0,.15.08.27l.09.25a.69.69,0,0,1,0,.18,1.25,1.25,0,0,0,0,.32l.14.51.14.54.09.3a1.68,1.68,0,0,1,.08.25c0,.06,0,.15,0,.25a1.54,1.54,0,0,0,0,.3,1.39,1.39,0,0,0,.14.33.53.53,0,0,1,.09.21.75.75,0,0,1,0,.2,1.56,1.56,0,0,0,0,.35c0,.07,0,.19.09.33a1.46,1.46,0,0,0,.11.27h0a1.63,1.63,0,0,0,.09.26,2.16,2.16,0,0,1,.08.24l.07.28.23.79a1,1,0,0,1,0,.22,1.65,1.65,0,0,0,.05.32l.28,1a.53.53,0,0,1,0,.25.32.32,0,0,1-.05.1,1.15,1.15,0,0,1-.33.09l-.69,0-.14,0h-.75l-.38,0c-.07,0-.14,0-.26-.21l-.2-.65-.14-.57-.23-.57a1.11,1.11,0,0,0-.41-.56,1.06,1.06,0,0,0-.64-.19h0a2.33,2.33,0,0,0-.33,0,1.79,1.79,0,0,1-.3,0l-.62,0-.25,0a2,2,0,0,0-.37,0l-1.25,0a1,1,0,0,0-.64.23,1.14,1.14,0,0,0-.4.5l-.06.17L68.9,55a.23.23,0,0,1,0,.1l-.15.54a1.64,1.64,0,0,1-.11.34,2.87,2.87,0,0,0-.13.35,1.56,1.56,0,0,1-.16.32A.68.68,0,0,1,68,56.72Zm3.61-10.15a.64.64,0,0,0-.51.34A.4.4,0,0,0,71,47a.38.38,0,0,1-.07.11.84.84,0,0,0-.14.26l-.07.3a1,1,0,0,1-.05.22,1.91,1.91,0,0,0-.06.27l-.12.53c0,.1,0,.17,0,.21l-.16.49-.08.54a.9.9,0,0,0,.12.68,1,1,0,0,0,.59.42,4.23,4.23,0,0,0,.69,0,2.88,2.88,0,0,0,.48,0,1,1,0,0,0,.77-.48,1,1,0,0,0,.13-.82,2.35,2.35,0,0,1-.07-.23l-.06-.26c-.06-.27-.1-.44-.11-.52a3.07,3.07,0,0,0-.11-.31c0-.1-.07-.18-.09-.22a3.34,3.34,0,0,0-.09-.53,3.53,3.53,0,0,0-.32-.78A.68.68,0,0,0,71.64,46.57Z"/><path class="cls-1" d="M85.6,56.76a1.34,1.34,0,0,1-.25,0,2.12,2.12,0,0,0-.3,0l-.57,0-.28,0-.34,0h-.61l-.34,0-.28,0-.27,0-.33,0-.34,0-.28,0h-.6l-.37,0a2.16,2.16,0,0,0-.4-.05.21.21,0,0,1-.21-.23l-.07-.7s0-.15,0-.3a2.51,2.51,0,0,0,0-.4v-.53s0-.5,0-.52v-.53c0-.07,0-.17,0-.31a1.08,1.08,0,0,1,0-.22c0-.08,0-.19,0-.34s0-.22,0-.28v-.63a1.78,1.78,0,0,1,0-.28,2,2,0,0,0,0-.34V49.89a1.6,1.6,0,0,0,0-.32,1.43,1.43,0,0,1,0-.23v-.58c0-.06,0-.15,0-.27s0-.24,0-.31,0-.54,0-.58,0-1.09,0-1.12,0-.14,0-.26a2.5,2.5,0,0,0,0-.32c0-.06,0-.14,0-.26s0-.22,0-.29a1.77,1.77,0,0,0,0-.33,1.49,1.49,0,0,1,0-.25,1.52,1.52,0,0,1,0-.24,1.6,1.6,0,0,0,0-.33c0-.07,0-.18,0-.32a1.38,1.38,0,0,1,0-.26v-.55s0-.55,0-.58,0-.13,0-.24a2.24,2.24,0,0,0,0-.31c0-.06,0-.16,0-.29s0-.2,0-.26,0-.16,0-.29,0-.2,0-.26,0-.13,0-.24a2.39,2.39,0,0,0,0-.31.79.79,0,0,1,0-.25A.53.53,0,0,1,80,39.9h0a2.66,2.66,0,0,1,.34,0h.57l.58,0h.57a.76.76,0,0,1,.37.1l0,.11.12.36,0,.72a1.12,1.12,0,0,1,0,.19,2.39,2.39,0,0,0,0,.31,3.5,3.5,0,0,1,0,.47l0,.27h.09a2.13,2.13,0,0,1,0,.35l0,.14a.71.71,0,0,0,0,.38,1.07,1.07,0,0,0,0,.36,1.56,1.56,0,0,1,0,.33s0,.09,0,.22a1.3,1.3,0,0,1,0,.3h0s-.05.09-.05.17v.25h.1a1,1,0,0,1,0,.14,2.78,2.78,0,0,0,0,.48,2.07,2.07,0,0,1-.06.43,1,1,0,0,0,0,.4,2.19,2.19,0,0,1,0,.22s0,.48,0,.51v1a1,1,0,0,1,0,.19,2.32,2.32,0,0,0,0,.29v.24s0,.22,0,.24,0,.19,0,.32,0,.22,0,.3,0,.15,0,.28,0,.26,0,.35a3.58,3.58,0,0,0,0,.36,2.24,2.24,0,0,1,0,.31v1.15s0,.11,0,.21,0,.22,0,.29,0,.14,0,.25a1.08,1.08,0,0,0,0,.26,1.49,1.49,0,0,0,.28.49.92.92,0,0,0,.56.26.63.63,0,0,1,.23.05A1.32,1.32,0,0,0,84,54a2,2,0,0,0,.37-.05,1.09,1.09,0,0,1,.26,0h.27a2.28,2.28,0,0,0,.32,0h1.23l.6,0h.34c.27,0,.34.09.35.27a3.18,3.18,0,0,1,0,.47.87.87,0,0,1,0,.2,1.73,1.73,0,0,0,0,.3v.51s0,.5,0,.52c0,.28,0,.34,0,.34s-.09.1-.39.13l-.23,0-.33,0h-.55l-.33,0Z"/><path class="cls-1" d="M96.59,56.76a1.43,1.43,0,0,1-.26,0,1.94,1.94,0,0,0-.29,0l-.57,0-.29,0-.34,0h-.6l-.34,0-.29,0-.27,0-.32,0-.34,0-.28,0h-.6l-.37,0a2.24,2.24,0,0,0-.41-.05.2.2,0,0,1-.2-.23l-.07-.7s0-.15,0-.3,0-.31,0-.4v-.53s0-.5,0-.52v-.53c0-.07,0-.17,0-.31a1.34,1.34,0,0,1,0-.22c0-.08,0-.19,0-.34s0-.22,0-.28v-.63a1.78,1.78,0,0,1,0-.28,2,2,0,0,0,0-.34V49.89a1.6,1.6,0,0,0,0-.32,1.43,1.43,0,0,1,0-.23v-.58c0-.06,0-.15,0-.27s0-.24,0-.31,0-.54,0-.58,0-1.09,0-1.12,0-.14,0-.26a2.5,2.5,0,0,0,0-.32c0-.06,0-.14,0-.26s0-.22,0-.29a1.77,1.77,0,0,0,0-.33,1.49,1.49,0,0,1,0-.25,1.52,1.52,0,0,1,0-.24,1.6,1.6,0,0,0,0-.33c0-.07,0-.18,0-.32a1.58,1.58,0,0,1,0-.26v-.55s0-.55,0-.58,0-.13,0-.24a2.24,2.24,0,0,0,0-.31c0-.06,0-.16,0-.29s0-.2,0-.26,0-.16,0-.29,0-.2,0-.26,0-.13,0-.24a2.39,2.39,0,0,0,0-.31.59.59,0,0,1,.05-.25A.53.53,0,0,1,91,39.9h0a2.47,2.47,0,0,1,.34,0h.57l.58,0H93a.7.7,0,0,1,.36.1l0,.11.12.36,0,.72a1.12,1.12,0,0,1,0,.19,2.39,2.39,0,0,0,0,.31,4,4,0,0,1,0,.47l0,.27h.09a3.16,3.16,0,0,1,0,.35.58.58,0,0,1,0,.14.84.84,0,0,0,0,.38,1.47,1.47,0,0,0,0,.36,2.06,2.06,0,0,1,0,.33s0,.09,0,.22a2.26,2.26,0,0,1,0,.3h0s0,.09,0,.17v.25h.1a1.38,1.38,0,0,0,0,.14,2.49,2.49,0,0,0,0,.48,2.83,2.83,0,0,1,0,.43,1,1,0,0,0,0,.4,1.49,1.49,0,0,1,0,.22s0,.48,0,.51v1a1,1,0,0,1,0,.19,2.32,2.32,0,0,0,0,.29v.24s0,.22,0,.24,0,.19,0,.32,0,.22,0,.3,0,.15,0,.28,0,.26,0,.35a2.23,2.23,0,0,0,0,.36c0,.13,0,.24,0,.31v1.15a2,2,0,0,1,0,.21,1.74,1.74,0,0,0,0,.29,1.29,1.29,0,0,0,0,.25,1.08,1.08,0,0,0,0,.26,1.63,1.63,0,0,0,.27.49,1,1,0,0,0,.57.26.63.63,0,0,1,.23.05A1.25,1.25,0,0,0,95,54a1.81,1.81,0,0,0,.36-.05,1.14,1.14,0,0,1,.26,0h.28a2.21,2.21,0,0,0,.32,0h1.23l.6,0h.33c.28,0,.35.09.36.27s0,.27,0,.47c0,0,0,.11,0,.2a1.89,1.89,0,0,0,0,.3v.51s0,.5,0,.52c0,.28,0,.34,0,.34s-.09.1-.4.13l-.23,0-.32,0h-.56l-.33,0Z"/><path class="cls-1" d="M104.69,57l-.21,0a1,1,0,0,1-.25,0,1.28,1.28,0,0,1-.23-.08l-.26-.1a1.56,1.56,0,0,0-.31,0,.39.39,0,0,1-.18,0,1.13,1.13,0,0,1-.22-.15l-.24-.17-.21-.1a.93.93,0,0,1-.23-.13,4.34,4.34,0,0,1-.42-.33l-.22-.17-.2-.15a.93.93,0,0,1-.12-.2,1.06,1.06,0,0,0-.16-.26c-.21-.26-.3-.36-.34-.4s-.07-.19-.1-.25a.77.77,0,0,0-.07-.19.91.91,0,0,0-.13-.25c-.06-.1-.11-.17-.14-.23v-.17a2,2,0,0,0,0-.31,4,4,0,0,1-.09-.47,4.44,4.44,0,0,1,0-.5V51.18a1.68,1.68,0,0,0,0-.33,1.49,1.49,0,0,1,0-.25v-.55a1.34,1.34,0,0,1,0-.25,2.21,2.21,0,0,0,0-.32v-.55a2.57,2.57,0,0,0,0-.36c0-.14,0-.23,0-.29v-.65s0-.62,0-.65,0-.59,0-.62a1.2,1.2,0,0,1,0-.24,1.87,1.87,0,0,0,0-.29,2.5,2.5,0,0,0,0-.32,1.59,1.59,0,0,1,0-.23c0-.09,0-.25,0-.49,0-.09,0-.17,0-.29a2.48,2.48,0,0,0,0-.33s0-.13,0-.26,0-.22,0-.29a4.79,4.79,0,0,1,.08-.55,3,3,0,0,1,.2-.52,3.51,3.51,0,0,1,.24-.46l.13-.23.13-.24s0,0,.16-.16l.22-.24h0l.18-.23a1.69,1.69,0,0,1,.22-.26,5.34,5.34,0,0,1,.46-.39,3.73,3.73,0,0,1,.57-.33l.62-.24.29-.05a1.33,1.33,0,0,0,.37-.06,6,6,0,0,1,.61-.1l.53,0h.17a.7.7,0,0,1,.2,0,1.19,1.19,0,0,0,.3.06,1.51,1.51,0,0,0,.42.11s0,0,.27.09l.23.07a3.58,3.58,0,0,1,.51.24l.51.27.16.12.14.12.13.12a1.25,1.25,0,0,1,.15.19,1.29,1.29,0,0,0,.2.23h0a.87.87,0,0,0,.19.2c.11.09.14.13.14.14v.53l.24-.21.21.43a4.16,4.16,0,0,1,.19.5c.08.2.14.37.19.53a1.76,1.76,0,0,1,0,.22,1.58,1.58,0,0,0,0,.34h0s0,.06,0,.26a2.57,2.57,0,0,0,.06.28.8.8,0,0,0,0,.11,1.69,1.69,0,0,0,0,.5,1.29,1.29,0,0,0,0,.26s0,.82,0,.89a1.61,1.61,0,0,1,0,.25,1.85,1.85,0,0,0,0,.35s0,.51,0,.53,0,.16,0,.29,0,.19,0,.24a2,2,0,0,0,0,.58v1s0,.2.08.56l0,.28c0,.15,0,.27,0,.35a2.32,2.32,0,0,1,0,.29,2.31,2.31,0,0,0,0,.39V52c0,.12,0,.34,0,.64a1,1,0,0,0,0,.28.66.66,0,0,1,0,.22.54.54,0,0,1,0,.15l0,.18,0,.12-.07.28a.61.61,0,0,1-.07.22c-.13.27-.2.41-.23.46a1.81,1.81,0,0,1-.29.42l-.31.47h0a.79.79,0,0,1-.19.14,1.69,1.69,0,0,0-.28.2l-.2.24a.59.59,0,0,1-.14.15,1.87,1.87,0,0,1-.3.16l-.25.12-.53.26a.77.77,0,0,1-.26.06l-.33.05-.37.12h-.14l-.57.09Zm.41-14.68a2.39,2.39,0,0,0-.61.11c-.48.17-.57.22-.62.27a2.31,2.31,0,0,0-.41.48,2,2,0,0,0-.34.55,2.07,2.07,0,0,0-.12.62v.58a1.31,1.31,0,0,1,0,.23,1.53,1.53,0,0,0,0,.3c0,.06,0,.16,0,.29s0,.19,0,.23,0,.17,0,.3,0,.19,0,.23,0,.51,0,.53v1.1a1.94,1.94,0,0,0,0,.29,1.53,1.53,0,0,1,0,.27c0,.06,0,.15,0,.26s0,.22,0,.29,0,.14,0,.26a2.52,2.52,0,0,0,0,.29s0,.55,0,.58,0,.14,0,.26,0,.22,0,.29a2.67,2.67,0,0,0,0,.32c0,.11,0,.19,0,.23V52a2.08,2.08,0,0,0,.14.58c.08.27.14.44.17.52a1.84,1.84,0,0,0,.42.57,2.25,2.25,0,0,0,.52.31c.43.22.53.24.62.24H105l.22,0,.14,0a1.7,1.7,0,0,1,.26,0A.87.87,0,0,0,106,54a1.73,1.73,0,0,0,.45-.37,1.91,1.91,0,0,0,.39-.37l.22-.55a2.6,2.6,0,0,0,.11-.54v-.51c0-.08,0-.19,0-.33s0-.21,0-.27a1.52,1.52,0,0,1,0-.24,1.77,1.77,0,0,0,0-.33,1.94,1.94,0,0,0,0-.35,1.61,1.61,0,0,1,0-.25,1.26,1.26,0,0,1,0-.21,1.6,1.6,0,0,0,0-.32s0-.14,0-.27a1.11,1.11,0,0,1,0-.23s0-.51,0-.53a2.39,2.39,0,0,0,0-.31c0-.1,0-.18,0-.22a2,2,0,0,1,0-.29,2,2,0,0,0,0-.36c0-.07,0-.18,0-.33a1.79,1.79,0,0,1,0-.3,1.85,1.85,0,0,1,0-.3c0-.16,0-.27,0-.34a1.23,1.23,0,0,0,0-.28,1.57,1.57,0,0,1,0-.2,1.55,1.55,0,0,0,0-.16,1.6,1.6,0,0,0,0-.32c0-.24,0-.42,0-.54a2.35,2.35,0,0,0-.1-.56,1.91,1.91,0,0,0-.26-.56,2.9,2.9,0,0,0-.33-.44l-.23-.22-.07.12a1.49,1.49,0,0,0-.52-.28A1.86,1.86,0,0,0,105.1,42.31Z"/><path class="cls-1" d="M117.1,56.69a1.22,1.22,0,0,1-.23,0,2.21,2.21,0,0,0-.32,0l-.55,0a4.2,4.2,0,0,1-.55,0,.6.6,0,0,1-.4-.13h0a.9.9,0,0,1-.13-.37l-.14-.65a1.76,1.76,0,0,0,0-.33c0-.15-.06-.26-.07-.32s0-.17,0-.3a2.45,2.45,0,0,0-.06-.34h0a5.63,5.63,0,0,0-.16-.63c0-.08,0-.28-.11-.58,0,0,0-.06,0-.25s0-.29,0-.37,0-.19-.08-.32a1.13,1.13,0,0,1,0-.23,1.67,1.67,0,0,1-.05-.31,2.6,2.6,0,0,0-.06-.3L114,51a1.1,1.1,0,0,1,0-.2c0-.19-.07-.36-.1-.58a1.31,1.31,0,0,0,0-.31c0-.13-.06-.21-.08-.26s0-.12,0-.22a2,2,0,0,0,0-.32,1.29,1.29,0,0,1,0-.24c0-.11,0-.2,0-.26a3.27,3.27,0,0,0-.13-.6l-.06-.26a1.09,1.09,0,0,1,0-.19,4.42,4.42,0,0,0-.11-.64l-.07-.28a1.23,1.23,0,0,1,0-.21,2.21,2.21,0,0,0,0-.32,1.34,1.34,0,0,1,0-.25,2.42,2.42,0,0,0-.1-.36l-.08-.27a2.07,2.07,0,0,1-.06-.26,1.62,1.62,0,0,1,0-.21c0-.12,0-.2,0-.32s0-.25-.05-.33a1,1,0,0,1,0-.22,1.73,1.73,0,0,0,0-.36.39.39,0,0,0,0-.16l-.06-.2a1.07,1.07,0,0,0-.06-.17s0-.1,0-.18a1.24,1.24,0,0,0,0-.31h0l-.05-.25L112.4,42a.79.79,0,0,0-.07-.29l-.07-.21a1.1,1.1,0,0,0,0-.25,2.13,2.13,0,0,0-.06-.28v-.21a1,1,0,0,0,0-.34.45.45,0,0,1,.07-.33.35.35,0,0,1,.34-.19l.6,0,.37,0,.33,0,.67,0a.69.69,0,0,1,.43.15.8.8,0,0,1,.24.43,3.21,3.21,0,0,0,.1.56l.06.51a1,1,0,0,0,.07.29,1.83,1.83,0,0,1,.08.28s0,.15,0,.26a2.43,2.43,0,0,0,.06.31,2.23,2.23,0,0,1,0,.23c0,.11,0,.2,0,.25s.07.37.1.59l.12.63a2.91,2.91,0,0,0,.09.33l.09.27v.22a1.73,1.73,0,0,0,0,.36l.06.19c0,.07,0,.14.06.19a.62.62,0,0,1,0,.13l0,.22,0,.22a1,1,0,0,1,0,.16.59.59,0,0,0,.59.52c.44-.06.57-.29.61-.47l.07-.57s0-.14.06-.27a1.93,1.93,0,0,0,0-.31,1.35,1.35,0,0,0,0-.3c0-.13,0-.23,0-.28l.13-.46c0-.12,0-.2,0-.32s0-.25,0-.32c.09-.25.14-.43.15-.46s.06-.31.1-.59l.13-.6a6.13,6.13,0,0,1,.1-.62v-.33a1.68,1.68,0,0,1,0-.3.57.57,0,0,1,.06-.25,1.91,1.91,0,0,0,.11-.35c0-.21.08-.27.1-.28a.61.61,0,0,1,.26-.18l.17,0,.19,0a2.68,2.68,0,0,0,.5,0h.53l.3,0,.2,0a.62.62,0,0,1,.35.17.36.36,0,0,1,.17.29c0,.08,0,.18,0,.31s0,.24,0,.28l.16.66,0,.16,0,.22a1,1,0,0,1,0,.16l0,.22,0,.21a1,1,0,0,1,0,.16s.16.52.17.58a2,2,0,0,0,0,.21,2.84,2.84,0,0,0,0,.35,4,4,0,0,0,.11.56,1.62,1.62,0,0,0,.09.26.56.56,0,0,1,0,.17s0,.23.07.65c0,.08,0,.18.06.31s.05.25.07.32l.06.31a1,1,0,0,0,.11.33.4.4,0,0,0,.13.38.58.58,0,0,0,.6.08.6.6,0,0,0,.38-.41,3.13,3.13,0,0,0,0-.41c0-.14,0-.25,0-.32l.07-.59a2.28,2.28,0,0,0,.06-.28,1.91,1.91,0,0,1,.06-.27.84.84,0,0,1,0-.19,1.21,1.21,0,0,1,0-.18l.07-.18c0-.13,0-.22,0-.35s0-.26,0-.34,0-.18.13-.46.06-.32.12-.53l0-.31c0-.11,0-.19,0-.25a1.42,1.42,0,0,0,0-.33.66.66,0,0,1,0-.22.51.51,0,0,1,.06-.21,1.47,1.47,0,0,0,.11-.31c0-.1,0-.23.06-.41s0-.28,0-.36a.77.77,0,0,1,.19-.28.93.93,0,0,1,.32-.14l.66,0,.65,0h.66a.66.66,0,0,1,.44.22.56.56,0,0,1,.14.43,1.87,1.87,0,0,0,0,.27,2.08,2.08,0,0,1,0,.26l-.08.28a.82.82,0,0,1-.07.2c0,.14,0,.25-.07.38s0,.23,0,.3a1.56,1.56,0,0,0,0,.35v.31s-.14.47-.15.52c-.06.47-.09.68-.09.7s0,.12-.07.24a1.2,1.2,0,0,1-.08.22c0,.32-.08.49-.11.6l-.14,1.15s0,.15-.08.27a1.07,1.07,0,0,0-.07.31,1.49,1.49,0,0,1,0,.22,1.53,1.53,0,0,1-.06.25,2.27,2.27,0,0,0,0,.34c0,.13,0,.22,0,.29s0,.15-.05.29,0,.24,0,.26l0,.1c0,.09,0,.16-.06.23a1,1,0,0,0,0,.24s0,.2-.07.52l-.05.14-.06.22a1.07,1.07,0,0,0,0,.25,2.74,2.74,0,0,0-.13.53c0,.09,0,.17,0,.28a2.48,2.48,0,0,0,0,.33c0,.09-.06.28-.09.51s-.1.44-.12.55l0,.13c0,.08,0,.16-.07.23a1.13,1.13,0,0,0,0,.25l-.08.52a2.4,2.4,0,0,0,0,.31,1.44,1.44,0,0,1,0,.24c0,.24-.07.42-.1.55l-.07.29a1.17,1.17,0,0,0,0,.32l-.11.51,0,.24a1.3,1.3,0,0,1,0,.28.4.4,0,0,1-.17.32s-.08.06-.32.06a1.77,1.77,0,0,0-.33,0l-.24,0h-.35l-.23,0-.31,0a1.53,1.53,0,0,1-.27,0h-.58a.52.52,0,0,1-.34-.13.39.39,0,0,1-.17-.26L121.5,56a1.21,1.21,0,0,1,0-.2,1.68,1.68,0,0,0,0-.29,1.55,1.55,0,0,0,0-.28,1.44,1.44,0,0,0-.05-.27l-.07-.26s0,0,0-.14l0-.2a1.17,1.17,0,0,0,0-.2l0-.56a3.09,3.09,0,0,1-.08-.3L121,53l-.15-.61c0-.35-.07-.54-.07-.57a2.49,2.49,0,0,0,0-.26c0-.17,0-.29-.05-.37l-.08-.3a1.07,1.07,0,0,1,0-.24c0-.11,0-.2,0-.31a2,2,0,0,0,0-.35l-.07-.14a.52.52,0,0,0-.56-.46c-.14,0-.46.06-.54.55,0,.1,0,.24,0,.42s0,.29,0,.37,0,.11-.08.21a1.69,1.69,0,0,0-.11.31l0,.32a1.3,1.3,0,0,1,0,.23,4.28,4.28,0,0,0-.12.57l-.07.56a.67.67,0,0,1,0,.24l-.07.28a1.82,1.82,0,0,0,0,.32c0,.1,0,.18,0,.23a2.16,2.16,0,0,1-.08.26l-.1.27,0,.27c0,.14-.15.85-.15.85l-.07.57a.53.53,0,0,1-.2.28.7.7,0,0,1-.38.19Z"/><path class="cls-1" d="M131.43,56.74l-.63,0s0-.12-.18-.12-.08,0-.1-.13a4.52,4.52,0,0,1,0-.53c0-.28,0-.46,0-.58a4.13,4.13,0,0,0,0-.5c0-.07,0-.17,0-.29s0-.2,0-.24,0-.16,0-.28,0-.19,0-.25,0-.54,0-.57a1.57,1.57,0,0,1,0-.27,3.26,3.26,0,0,0,0-.34c0-.07,0-.17,0-.3s0-.22,0-.28,0-.56,0-.59,0-.55,0-.58a2.14,2.14,0,0,0,0-.32,1.69,1.69,0,0,1,0-.28,1.29,1.29,0,0,1,0-.24,3.26,3.26,0,0,0,0-.34c0-.07,0-.18,0-.33a1.57,1.57,0,0,1,0-.27s0-.12,0-.23,0-.23,0-.3V47s0-.51,0-.53a1.39,1.39,0,0,1,0-.24,3.26,3.26,0,0,0,0-.34s0-.54,0-.57,0-.15,0-.27,0-.24,0-.31,0-.17,0-.3,0-.21,0-.27,0-.19,0-.33a1.34,1.34,0,0,1,0-.25s0-.55,0-.58v-.57c0-.06,0-.14,0-.26a2.5,2.5,0,0,0,0-.32s0-.55,0-.58,0-.18,0-.32a1.29,1.29,0,0,1,0-.25,2.38,2.38,0,0,1,.1-.63c0-.17.1-.18.13-.19a2,2,0,0,1,.41,0h.14l.77,0,.19,0h.37l.07,0,.22.38.16.24,0-.6.34,0a1.73,1.73,0,0,0,.3,0l.17,0L134,40l.22-.18h.06l1,0a1.55,1.55,0,0,0,.29,0l.23,0h1.06l.22,0a2,2,0,0,0,.31,0l.68,0h.1c.18,0,.26.12.27.29a2.26,2.26,0,0,0,0,.33,1.62,1.62,0,0,1,0,.29c0,.06,0,.15,0,.27s0,.25,0,.33,0,.57,0,.6a2.47,2.47,0,0,1,0,.48.36.36,0,0,1-.22.12l.1,0h-.24l-.17,0h-.12l-.23,0-.28,0-1.19.05h-.64l-.59,0a5.45,5.45,0,0,0-.79,0,1,1,0,0,0-.53.28,1.22,1.22,0,0,0-.24.57V45s0,.52,0,.55a2.22,2.22,0,0,0,.08.55.82.82,0,0,0,.35.56.87.87,0,0,0,.58.15,1,1,0,0,1,.22,0,1.29,1.29,0,0,0,.33.06l.3,0,.25,0h.55l.55,0c.16,0,.41,0,.76,0,.2.05.22.14.23.23a.9.9,0,0,1,0,.24,2.57,2.57,0,0,0,0,.27,1.3,1.3,0,0,0,.06.31,1.45,1.45,0,0,1,0,.22,1.49,1.49,0,0,1,0,.25c0,.13,0,.23,0,.31v.53a1.64,1.64,0,0,0-.05.3h0s-.06.12-.32.12l-.22,0h-.53l-.21,0-.23,0-.28,0-.37,0-.33,0a7.22,7.22,0,0,0-.74,0,1.28,1.28,0,0,0-.61.19,1.2,1.2,0,0,0-.32.57,5.5,5.5,0,0,0,0,.56,1.6,1.6,0,0,0,0,.31,1.21,1.21,0,0,1,0,.2c-.05.28-.07.46-.08.49v.61a2,2,0,0,0,.12.58.93.93,0,0,0,.69.7h.77l.6,0a1.19,1.19,0,0,1,.25,0A2.06,2.06,0,0,0,136,54l.32,0,.28,0h.58l.28,0,.32,0a1.87,1.87,0,0,0,.32-.05h.13c.09,0,.14.05.16.26a2,2,0,0,0,.06.29,1.32,1.32,0,0,1,0,.24v.53s0,.48,0,.5a.87.87,0,0,1,0,.2,1.9,1.9,0,0,0,0,.31.53.53,0,0,1,0,.2.38.38,0,0,1-.31.17h0l-.27,0-.24,0-.26,0-.32,0-.32,0-.26,0-.24,0-.31,0h-.55l-.3,0-.23,0h-1.08l-.52,0h-.53l-.31,0-.24,0Z"/><path class="cls-1" d="M142.37,56.81c-.16,0-.4,0-.69-.05s-.19-.08-.19-.23a4.36,4.36,0,0,1,0-.55.54.54,0,0,1,0-.25,2.44,2.44,0,0,0,0-.3,2.79,2.79,0,0,0,0-.33,2.19,2.19,0,0,1,0-.22V53.73c0-.06,0-.15,0-.27s0-.24,0-.31v-.58s0-.54,0-.57,0-.18,0-.32a1.58,1.58,0,0,1,0-.26v-.57s0-.55,0-.58v-.58a.87.87,0,0,1,0-.23,1.32,1.32,0,0,0,0-.35s0-.53,0-.55,0-.14,0-.26,0-.22,0-.29a2.5,2.5,0,0,0,0-.32.84.84,0,0,1,0-.23,1.52,1.52,0,0,1,0-.24c0-.14,0-.24,0-.31s0-.16,0-.29,0-.2,0-.26,0-.14,0-.26,0-.23,0-.3,0-.14,0-.26,0-.22,0-.29a1.26,1.26,0,0,0,0-.34,1.23,1.23,0,0,1,0-.21s0-.12,0-.23a2.5,2.5,0,0,0,0-.32s0-.52,0-.55,0-.16,0-.3a1.58,1.58,0,0,1,0-.26s0-.48,0-.5,0-.11,0-.21a1.68,1.68,0,0,0,0-.29,1.45,1.45,0,0,0,0-.32,1.9,1.9,0,0,1,0-.21s0-.48,0-.5a4.88,4.88,0,0,1,0-.78,1,1,0,0,1,.07-.29s0,0,0,0l.28,0h0a1.6,1.6,0,0,0,.32,0l.25,0,.61,0,.28,0,.31,0H146l.27.48.15-.5.21,0,.3,0a3.17,3.17,0,0,1,.59.18,2.39,2.39,0,0,1,.55.2,5.5,5.5,0,0,1,.57.23,2.07,2.07,0,0,1,.42.32l0,.05.24.24.06,0s0,0,.2.18a1.24,1.24,0,0,1,.22.17l.37.45c0,.05.08.13.14.25l.1.19v.07l0,.1a.46.46,0,0,0,.05.23l.15.31.11-.11a.94.94,0,0,1,0,.09,3,3,0,0,0,.12.32,2.28,2.28,0,0,1,.14.53h0s0,.06.08.3l.1.33a1.42,1.42,0,0,1,0,.19,2.71,2.71,0,0,0-.05.34,2,2,0,0,0,0,.34c0,.13,0,.23,0,.29v.62s0,.59,0,.62a1.57,1.57,0,0,1,0,.27,2.36,2.36,0,0,0-.05.35,2.64,2.64,0,0,0,.05.36,1.8,1.8,0,0,1,0,.27,1.19,1.19,0,0,1,0,.26,1.28,1.28,0,0,0,0,.71,1.19,1.19,0,0,1,0,.25,1.58,1.58,0,0,1,0,.26,2,2,0,0,0-.05.37,2.28,2.28,0,0,0,.05.34,1.19,1.19,0,0,1,0,.25v.64a.66.66,0,0,1,0,.17,1.91,1.91,0,0,0,0,.28,2.23,2.23,0,0,0,0,.26.27.27,0,0,1,0,.12,2.56,2.56,0,0,1-.08.46h0l-.1.1v.1h-.43l.36.37-.16.51c-.05.08-.15.27-.31.52a3,3,0,0,1-.37.52A2.47,2.47,0,0,0,150,55a.79.79,0,0,1-.13.18c-.09.09-.23.21-.42.37l-.19.1a1,1,0,0,0-.3.2h0a1,1,0,0,0-.22.17l-.2.16h0l-.2.06-.27.08a.94.94,0,0,0-.3.16l-.24.14h0l-.5.1s-.05,0-.18,0a1.39,1.39,0,0,0-.32,0h-.44l-.27,0-.21,0-.31,0-.35,0a1.85,1.85,0,0,0-.34,0l-.28,0L143,56.76C142.89,56.76,142.67,56.78,142.37,56.81Zm3.77-14.16-.27,0-.23,0a5.07,5.07,0,0,0-.54,0,.89.89,0,0,0-.76.58,2.24,2.24,0,0,0-.08.68v.59s0,.54,0,.58v.61a1.75,1.75,0,0,1,0,.25,2.5,2.5,0,0,0,0,.32,2,2,0,0,0,0,.35,1.4,1.4,0,0,1,0,.25s0,.54,0,.57v.6c0,.06,0,.15,0,.27s0,.24,0,.3v1.16a1.38,1.38,0,0,0,0,.31c0,.1,0,.17,0,.22s0,.14,0,.25,0,.21,0,.28,0,.17,0,.31a1.2,1.2,0,0,1,0,.24s0,.5,0,.53a1,1,0,0,1,0,.22,1.19,1.19,0,0,0,0,.33,2.46,2.46,0,0,0,.09.67,1,1,0,0,0,.38.59,1.12,1.12,0,0,0,.67.14l.38.07h0a3.08,3.08,0,0,0,.51,0,2.22,2.22,0,0,0,.66-.17,1.85,1.85,0,0,0,.62-.33.67.67,0,0,0,.16-.17,1.4,1.4,0,0,0,.15-.24.45.45,0,0,1,.06-.1,2.14,2.14,0,0,0,.35-.55,1.73,1.73,0,0,0,.18-.56.69.69,0,0,0,0-.2,1.85,1.85,0,0,0,0-.23.68.68,0,0,1,0-.12s0-.58,0-.61,0-.17,0-.28a2.67,2.67,0,0,0,0-.32,1.85,1.85,0,0,0,0-.34,1.7,1.7,0,0,1,0-.26s0-.56,0-.6,0-.56,0-.59V47.7s0-.57,0-.6v-.6c0-.08,0-.2,0-.34a1.38,1.38,0,0,1,0-.26s0-.56,0-.59,0-.12,0-.24a1.27,1.27,0,0,0,0-.39,2.47,2.47,0,0,0-.14-.34l-.09-.17a.5.5,0,0,0,0-.12v-.23l-.25,0a1.41,1.41,0,0,0-.32-.43,3,3,0,0,0-.44-.36s0,0-.55-.16l-.2-.08-.28-.09Z"/></g></g></svg>