<svg xmlns="http://www.w3.org/2000/svg" xmlns:xlink="http://www.w3.org/1999/xlink" width="240" height="259.838" viewBox="0 0 240 259.838">
  <defs>
    <clipPath id="clip-path">
      <rect id="Rectangle_57" data-name="Rectangle 57" width="240" height="259.838" fill="#9ca3af"/>
    </clipPath>
  </defs>
  <g id="Group_111" data-name="Group 111" transform="translate(-711.256 -1663.617)">
    <g id="Group_95" data-name="Group 95" transform="translate(711.256 1663.617)">
      <g id="Group_94" data-name="Group 94" clip-path="url(#clip-path)">
        <path id="Path_281" data-name="Path 281" d="M193.777,324.788c-1.19.238-1.728,1.387-2.886,1.389-.873,0-1.667.07-1.1-1.308.521-1.273.757-2.662,1.282-3.982.474,1.5-.441,2.878-.56,4.707,1.792-1,3.392-1.863,4.952-2.79a.63.63,0,0,0,.092-1.047c-1.809-1.874.434-1.445,1.051-1.975-.32.664-1.024,1.158-.168,1.992.41.4-.025.989-.414,1.36a5.8,5.8,0,0,0-1.362,2.048,11.126,11.126,0,0,0,3-1.692c1-.578,2.029-1.117,3.043-1.677,1.259-.695,1.364-1.344.328-2.272-.6-.542-.121-.968.131-1.353,1.269-1.94,2.55-3.873,3.881-5.77,2.327-3.316,4.692-6.605,7.042-9.906l.356.233-10.6,15.773c1.792.232,1.754.346-.554,4.587a4.7,4.7,0,0,1,2.383,2.833c.6,1.738,2.3,2.6,2.956,4.239.221.551.689.244,1.019.017a16.763,16.763,0,0,0,1.82-1.336c1.941-1.766,3.123-1.939,4.809-.093,1.229,1.346,2.379.893,3.026-.041,1.862-2.692,4.793-3.194,7.514-4.206,1.6-.595,3.159-1.288,4.783-1.823a29.48,29.48,0,0,1-8.158,3.717,3.764,3.764,0,0,0-2.323,1.635,4.989,4.989,0,0,1-2.312,2.032c-1.18.516-2.035.6-3.015-.561-1.36-1.607-2.218-1.513-3.69-.116a8.884,8.884,0,0,1-.945.762c-2.375,1.7-2.249,1.6-4.064-.717a27.418,27.418,0,0,1-2.654-4.188c-.39-.74-.749-.793-1.494-.381-1.9,1.049-3.858,2.217-4.92,4.017a21.2,21.2,0,0,1-2.962,4.133c-.1.1-.051.445.034.628.558,1.207,1.139,2.4,1.724,3.6a2.187,2.187,0,0,0,1.973,1.234c.925.015.835-.983,1.036-1.574.382-1.125.615-2.3,1.1-3.5.925,2.211,1.71,4.453,2.851,6.814,1.058-1.11,2.071-2.159,3.065-3.224.382-.409.164-.881.041-1.319-.345-1.227-.755-2.437-1.047-3.676-.19-.807-.529-1.748.826-2.262-.687,1.549-.019,2.844.487,4.119.777,1.956.831,3.624-1.092,5.015-.954.69-1.563,2.436-2.556,2.315-1.029-.126-.736-1.985-1.333-2.97a28.392,28.392,0,0,1-1.217-2.576c-.542,2.551-2.169,4.509-1.833,7.04.138,1.038-.778,1.185-1.452,1.423-1.3.459-2,2.339-1.009,3.27,1.631,1.538,2.615,3.2,2.093,5.52-.179.8.516,1.115,1.027,1.453,1.776,1.179,3.578,2.32,5.279,3.635a23.778,23.778,0,0,1-6.531-3.6,4.988,4.988,0,0,0-.859,1.871,2.554,2.554,0,0,0,.426,3.138,7.548,7.548,0,0,1,1.255,2.074c.525,1.074,1.67,2.185,1.314,3.274a29.866,29.866,0,0,1-2.615,4.912l-.43-.222a29.2,29.2,0,0,1,1.612-3.351,2.7,2.7,0,0,0,.007-3.206c-.848-1.365-1.307-2.964-2.541-4.1-.535-.492-.161-1.082-.065-1.634.307-1.767,1.214-3.349,1.422-5.174.252-2.209-1.77-4.636-3.978-4.548-1.275.051-1.436-.521-1.059-1.461.61-1.522-.311-2.473-1.286-3.25a2.788,2.788,0,0,1-1.306-2.141,12.01,12.01,0,0,0-1.617,3.252c-.135.32-.271.691-.727.549-.318-.1-.365-.409-.383-.71-.087-1.465-.689-2.928.149-4.39a1.067,1.067,0,0,0-.254-1.541c-.617-.452-.928.162-1.382.236-2.735.446-3.8,3.651-6.621,3.953a6.63,6.63,0,0,0-1.4.506c.194-.93.9-1.06,1.464-1.314.846-.378,2.262-.525,2.466-1.11.791-2.264,3.235-1.924,4.536-3.264.12-.124.272-.326.4-.318,3.223.207,3.055-3.3,4.957-4.544.45-.3-.023-.736-.258-1.035a17.673,17.673,0,0,0-6.047-5.387,10.776,10.776,0,0,1-1.634-.982,35.619,35.619,0,0,0-11.152-5.511c-3.684-1.058-4.339-2.128-4.031-5.935.206-2.545.82-5.028,1.267-7.537.818-4.59.818-9.106-1.7-13.3a15.73,15.73,0,0,0-6.742-6.08c-.868-.43-1.143-.3-1.478.54-1.841,4.624-3.837,9.188-5.581,13.848-3.548,9.484-7.323,18.876-11.215,28.221-.554,1.331-.027,2.488,0,3.729.086,4.214.012,8.379-3.478,11.542-4.89,4.432-9.217,9.518-14.763,13.179-3.173,2.095-6.711,3.408-10.674,2.767-1.991-.323-2.794-1.23-2.823-3.27a18.149,18.149,0,0,1,3.623-10.687,6.681,6.681,0,0,1,2.043-1.573q5.969-3.731,11.973-7.4a1.772,1.772,0,0,0,.947-1.157,12.938,12.938,0,0,1,2.725-5,10.951,10.951,0,0,0,2.26-5.545c1.688-13.807,4.057-27.5,6.583-41.178a29.234,29.234,0,0,0,.474-4.31c.077-2.219.445-4.417,2.14-6.079.845-.83.42-1.173-.392-1.578a25.64,25.64,0,0,1-5.654-3.7c-4.3-3.818-7.152-8.462-7.155-14.313,0-3.035-2.03-3.755-3.989-4.874a3.611,3.611,0,0,0-3.711-.345c-1.4.694-2.886,1.2-4.345,1.759-7.733,2.975-15.694,5.258-23.581,7.764a77.63,77.63,0,0,0-9.836,3.91c-1.829.87-3.948.764-6.158,1.861,1.9.5,3.431,1.043,5.012,1.3a89.772,89.772,0,0,1,17.193,4.814c2.471.925,2.579,1.261,1.207,3.762a26.54,26.54,0,0,1-12.194,11.475c-8.651,4.115-17.447,4.408-25.967.152-9.222-4.607-16.584-11.423-18.72-21.937-1.4-6.9-.838-13.813,3.738-20.042,3.334-4.538,6.911-8.669,11.919-11.14,6.288-3.1,12.886-5.059,20.1-3.459a52.561,52.561,0,0,1,8.7,2.276,18.723,18.723,0,0,1,6.97,4.926,2.176,2.176,0,0,1-.3,3.12q-4.958,5.122-9.962,10.2a39.341,39.341,0,0,0-3.8,3.989c2.209-1.316,4.386-2.692,6.635-3.938,9.025-5,17.84-10.348,26.535-15.9,1.6-1.022,2.486-2.824,4.373-3.619a10.641,10.641,0,0,1,6.251-.741,50.834,50.834,0,0,1,10.836,3.674,2.5,2.5,0,0,0,3.3-.673c5.221-5.714,11.849-7.573,19.27-6.232a26.542,26.542,0,0,1,16.383,9.72c.8,1,1.266,1.189,2.445.392,7.421-5.009,13.905-11.186,20.96-16.647,1.366-1.057,2.7-2.157,4.246-3.4-4.569-1.623-8.948-3.175-13.324-4.735a177.661,177.661,0,0,0-19.636-5.848,2.5,2.5,0,0,1-2.154-2.137c-1.868-9.365-4.543-18.575-5.377-28.14a21.175,21.175,0,0,0-2.125-7.99,5.951,5.951,0,0,1-.209-5.518,1.527,1.527,0,0,0-.371-1.973,2.223,2.223,0,0,1-.015-3.124c2.365-3.292,5.349-5.227,9.533-4.895a6.1,6.1,0,0,0,3.289-.806c1.183-.659,1.086-2.289.879-3.624-.115-.737-.444-1.443-.533-2.181a1.453,1.453,0,0,1,1.147-1.707,1.379,1.379,0,0,1,1.7.847c1.013,2.093,2.027,4.172,1.316,6.622-.371,1.278-.633,2.589-.934,3.887a6.165,6.165,0,0,0,.069,3.889c.724,1.839-.248,3.4-1.6,4.618-1.717,1.555-3.474,3.061-5.071,4.748a3.936,3.936,0,0,0-1.1,3.488c.518,3.77,1.984,7.256,3.208,10.806,1.621,4.7,3.459,9.33,5.122,14.018.28.791.85.87,1.411,1.079,7.5,2.791,15.249,4.773,22.968,6.845,2.8.751,5.572,1.572,8.369,2.316,1.846.491,3.073,1.978,4.691,2.917.363-2.92.086-3.394-2.363-4.189-4.964-1.612-4.975-1.614-4-6.725.248-1.307.571-2.54-1.394-2.761-.956-.108-1.325-.864-1.252-1.788a7.245,7.245,0,0,1,.262-1.715c.475-1.423.544-2.534-1.373-2.83a1.735,1.735,0,0,1-1.506-1.518c-.2-3.352.064-6.592,2.647-9.18a2.505,2.505,0,0,1,2.493-.774c1.874.372,3.788.572,5.635,1.04a1.613,1.613,0,0,0,2.018-.824,30.314,30.314,0,0,0,2.057-3.612,2.684,2.684,0,0,1,2.013-1.728c5.539-.991,11.087-1.53,16.239,1.457a18.1,18.1,0,0,1,6.63,6.015c.652,1.06,1.126,2.088-.208,3.009a1.02,1.02,0,0,0-.389.923,11.6,11.6,0,0,1-1.895,6.231c-.251.42-.418.765.157,1.139a4.183,4.183,0,0,1,1.674,4.156c-.395,4.05-2.112,7.435-5.756,9.6-.2.118-.419.322-.614.305-2.416-.209-3.507,1.578-4.829,3.087a1.69,1.69,0,0,0-.38,1.755c.233.7.806.158,1.181.089,4.384-.806,7.621,1.25,10.5,4.18,5.115,5.211,10.2,10.446,15.321,15.655a9.471,9.471,0,0,0,1.632,1.291c2.61,1.681,3.985,4.286,5.26,6.965a2.463,2.463,0,0,1-.051,2.186c-1.215,2.572-2.8,4.829-5.5,6.026-9.477,4.2-18.613,9.13-28.173,13.156-4.191,1.765-4.165,1.828-10.579-.649-.237.927.448,1.393.986,1.862a5.113,5.113,0,0,1,1.787,4.336c-.344,7.043-3.08,12.6-9.659,15.9-3.447,1.73-6.978,3.047-10.841,2.152-5.531-1.282-8.287-3.892-8.944-9.388a54.208,54.208,0,0,0-1.736-6.892c-.252-.982-.757-.74-1.387-.358-3.119,1.893-6.254,3.737-9.55,5.338-6.043,2.936-12.1,5.831-18.394,8.181-1.642.613-2.121,1.858-2.583,3.195-.37,1.069.774,1.156,1.333,1.425a16.323,16.323,0,0,1,6.918,6.391c2.435,3.949,2.5,8.265,1.951,12.615-.4,3.153-1.337,6.231-1.492,9.432-.12,2.455.169,3.234,2.555,3.841,5.692,1.449,10.364,4.814,15.272,7.742a20.615,20.615,0,0,1,4.3,4.031c.352.381.526,1.313,1.19.961s1.676-1.126,1.46-1.785c-.537-1.637.233-2.7,1.123-3.857m64.269-92.042a3.125,3.125,0,0,0-.3,1.981,7.257,7.257,0,0,0,3.525,5.646c.415.282.791,1.135,1.381.623a1.562,1.562,0,0,0,.186-1.8,35.449,35.449,0,0,0-2-4.032,5.059,5.059,0,0,0-2.836-2.379c-1.156-1.094-2.306-2.2-3.472-3.279-.384-.357-.893-.23-1.333-.183a10.1,10.1,0,0,0-7.6,4.266,1.476,1.476,0,0,0,.08,1.984c.927,1.362,1.678,1.388,2.986.4,2.743-2.068,5.687-3.79,9.372-3.226M221.194,266.3c0-.29.009-.58,0-.869-.046-1.271-.324-2.608-1.528-3.1-.917-.377-1.453.874-2.091,1.424-1.211,1.043-2.332,1.77-4.026,1.106a21.252,21.252,0,0,1-8.09-5.213,1.367,1.367,0,0,0-2.153-.231c-3.409,2.3-6.966,4.363-10.585,6.313-.854.46-.892.9-.625,1.786a45.11,45.11,0,0,1,2.008,7.895c.5,4.6,3.974,6.775,7.727,7.5,7.694,1.484,19.163-4.6,19.363-16.607m-36.2-34.283c7.011-.091,13.383,1.84,19.791,3.482,6.064,1.553,10.947,4.79,13.769,10.742a62.75,62.75,0,0,0,6.709-6.707c.272-.3.56-.67.344-1.094-1.112-2.176-1.57-4.666-3.771-6.284-6.114-4.495-13.013-7.13-20.225-9.217-3.2-.927-5.707-.564-8.163,1.8-2.6,2.5-5.671,4.484-8.453,7.278m13.14-27.374c.747,3.188,1.843,5.9,1.983,8.813a1.485,1.485,0,0,0,1.2,1.466,4.4,4.4,0,0,0,4.144-.341,1.9,1.9,0,0,1,2.2-.39c-3.393,2.433-6.979,4.293-9.963,7.26,8.873,1.87,17.093,4.688,24.412,9.879a11.786,11.786,0,0,0-.891-2.268,23.135,23.135,0,0,1-2.419-9c-.224-4.728,2.823-7.715,6.7-9.484,2.7-1.232,3.519-2.907,3.38-5.557-.032-.6.04-1.227-.521-1.54-.623-.348-.927.316-1.244.659a8.118,8.118,0,0,1-7.36,2.667c-.8-.1-1.618-.107-2.424-.193-2.383-.253-2.4-.257-2.039,2.193a32.813,32.813,0,0,1,.578,6.5,1.5,1.5,0,0,1-.816-1.438c0-2.04-1.4-3.054-2.793-4.1-4.126-3.1-9.189-3.517-14.124-5.118m19.1,42.183a3.017,3.017,0,0,0-.547-2.467c-1.769-2.451-3.693-4.86-6.54-6.053a69.131,69.131,0,0,0-25.245-5.6,1.9,1.9,0,0,0-1.3.3c-2.008,1.47-4.02,2.935-6.073,4.341-.709.486-.582.821-.259,1.528,1.177,2.575,3.551,3.047,5.9,3.634,6.243,1.556,12.431,3.3,17.947,6.742,1.4.87,2.009.535,3.125-.452,1.657-1.464,3.2-2.742,2.614-5.262a1.115,1.115,0,0,1,.787-1.229c.592-.223,1.008.181,1.342.571.682.8,1.327,1.733,2.413,1.875,2.051.268,3.811,1.286,5.827,2.071m-77.74-12.749c.036.045.062.115.109.133q12.291,4.747,24.585,9.489a2.884,2.884,0,0,0,2.795-.378c2.368-1.563,4.728-3.143,7.146-4.625,1.057-.648,1.114-1.1.3-2.07a26.86,26.86,0,0,0-13.75-8.968c-7.954-2.149-15.889-.373-21.186,6.419m92.789-10.64c1.563.164,2.529,1.225,3.62,2.137.442.369,1.008,1.325,1.718.582,1.082-1.132,2.5-2.017,2.684-3.875a49.035,49.035,0,0,1,.963-5.107,1.252,1.252,0,0,0-.282-1.267c-3.009-3.162-6.816-5.619-11.741-3.423a8.67,8.67,0,0,1-4.1,1.091,24.657,24.657,0,0,1,3.016-1.677.908.908,0,0,0,.394-1.328c-.266-.625-.71-.143-1.007-.011a15.623,15.623,0,0,0-5.651,3.948,7.915,7.915,0,0,0-1.873,7.249,31.736,31.736,0,0,0,7.363,15.163,81.781,81.781,0,0,0,6.457-8.339c1.54-2.483,1.528-2.487-1.234-3.458-.117-.041-.188-.213-.267-.308.353-.552.908.115,1.277-.332l-1.335-1.044m-67.148,55c5.06-2.118,9.794-4.388,14.5-6.727.722-.359.751-.951.754-1.6a30.339,30.339,0,0,0-2.2-10.649,2.921,2.921,0,0,0-2.938-2.142c-1.9-.079-3.788-.46-5.684-.692a7.315,7.315,0,0,0-4.572.546c-1.471.809-2.9,1.7-4.371,2.5-.7.381-.865.693-.4,1.457a31.425,31.425,0,0,1,4.915,17.3m60.727-20.986c-1.582-6.516-6.28-9.44-11.87-10.408-6.463-1.12-10.963,2.573-14.207,7.873,1.249.366,2.1-.211,3-1.1,1.3-1.278,2.262-3.028,4.129-3.6,1.656-.511,3.53-.152,5.052-1.467.1.854-.426,1.013-.744,1.283-1.984,1.689-3.992,3.351-5.989,5.025-1.042.874-1.084,1.755-.166,2.808a21.122,21.122,0,0,0,8.466,5.884c2.126.821,3.069.27,3.261-2a8.581,8.581,0,0,1,1.433-4.573c.655-.886,1.441-1.477,2.668-.886-1.455-.051-1.385,1.156-1.492,1.906-.1.706.868.68,1.36.939.919.484,1.943.766,2.87,1.236a4.768,4.768,0,0,0,4.744-.043,3.273,3.273,0,0,0,1.981-3.147,4.423,4.423,0,0,0-1.8-3.939,1.976,1.976,0,0,0-2.288.069c-.748.505-.227,1.156-.13,1.735a2.787,2.787,0,0,1-.277,2.4m-58.4-1.678a140.573,140.573,0,0,1,20.615,3.312c-.514-1.12-.793-1.875-1.189-2.563-2.166-3.76-4.535-7.414-6.491-11.279a6.834,6.834,0,0,0-7.044-4.109,3.588,3.588,0,0,0-2.105.557,39.9,39.9,0,0,1-3.5,2.257c-1.08.606-2.333,1.019-1.2,2.774-1.773-1.427-3.316-2.852-5.794-3.381a16.063,16.063,0,0,1,2.531,13.472c1.83-.511,2.657-1.323,2.549-3.036a4.414,4.414,0,0,1,1.143-3.478c.27,1.706-.708,3.1-.322,4.72a50.212,50.212,0,0,1,8.745-3.764c-2.454,1.585-5.174,2.681-7.936,4.519m60.693-10.58c.139,2.123-1.059,4.036-3.28,5.369-.639.384-1.014.73-.31,1.431.5.5.688,1.317,1.7.5a49.484,49.484,0,0,1,4.453-3.03,180.806,180.806,0,0,0,14.62-10.913c.449-.355,1.094-.655.48-1.514a60.026,60.026,0,0,0-8.893-9.723c-.422-.378-.87-.872-1.326.042-2.019,4.042-5.217,7.207-8.021,10.662a1.616,1.616,0,0,0-.343,1.7,18.788,18.788,0,0,1,.923,5.469m-98.211,6.433c.133,8.506,3.879,14.717,11.135,18.824,2.458,1.391,2.479,1.322,4.339-.677a13.906,13.906,0,0,1,1.681-1.5c2.155-1.667,4.3-3.343,6.507-4.943,1.145-.831,1-1.222-.234-1.757-3.611-1.568-7.062-3.482-10.748-4.9-4.2-1.615-8.373-3.326-12.68-5.044m15.94-14.1c.631,1.3,1.123,2.256,1.568,3.236,2.013,4.431,3.319,9.026,2.934,13.951-.276,3.534-.236,3.311,3.052,4.706,2.754,1.169,5.034,1.089,7.311-.841.688-.583,1.649-.822,1.86-1.9a15.761,15.761,0,0,0,.237-6.9c-.663-2.65-1.341-5.707-3.806-6.975-4.074-2.1-8.521-3.465-13.155-5.275m-9.02,69.9a55.708,55.708,0,0,1,13.578-5.6,1.211,1.211,0,0,0,.855-.781c1.984-4.853,3.978-9.7,6.1-14.86-5.881,1.565-11.6,2.724-16.767,5.554a2.809,2.809,0,0,0-1.582,1.956c-.717,4.5-1.43,9-2.181,13.727m2.432-15.7c5.169-3.1,10.6-4.141,15.842-5.708,2.289-.684,2.353-.8,1.347-3-.072-.158-.154-.312-.232-.467-1.982-3.943-5.124-7.142-7.07-11.129-.786-1.61-2.577-1.422-3.621.086a6.023,6.023,0,0,1-1.273,1.418c-2.779,2.074-3.323,4.978-3.176,8.182.053,1.156.369,2.507-.1,3.438-1.1,2.2-.728,4.6-1.72,7.181M203.22,186.308c-.229,1.659.545,2.382,2.089,2.86,4.585,1.422,9.266,2.463,13.9,3.7a5.338,5.338,0,0,0,6.49-3.984c.947-3.485.025-5.247-3.362-6.248-4.328-1.278-8.72-2.306-13.15-3.163-2.917-.564-4.546.387-5.338,3.251a35.522,35.522,0,0,0-.624,3.582M134.271,325.049l.417.251a8.441,8.441,0,0,1,2.943-1.747c4.226-1.8,7.7-4.283,8.551-9.221a5.6,5.6,0,0,1,.571-1.262,48.751,48.751,0,0,0,3.614-10.522,48.788,48.788,0,0,0-12.747,5.319c-.525.324-1.115.623-1.216,1.375q-1.055,7.906-2.134,15.808m-4.124-74.528c3.826,1.583,7.352,3.293,11.1,4.485a1.433,1.433,0,0,0,1.546-.513,18.938,18.938,0,0,0,4.98-9.936c.41-1.942-1.155-3.286-1.674-4.946a5.173,5.173,0,0,0-4.161-3.647c-1.089-.271-1.54-.277-1.912.969a23.971,23.971,0,0,1-9.876,13.588m-5.122-2.59c4.589,2.612,4.176,2.913,8.167-.731.171-.156.311-.345.484-.5,2.323-2.063,3.485-4.355,1.507-7.312a3.122,3.122,0,0,1-.352-.977c-1.038-4.142-3.371-6.906-7.79-7.671-1.183-.2-2.347-.577-3.556-.727a3.249,3.249,0,0,0-1.831.377c-.6.28-.744.512-.3,1.129a8.927,8.927,0,0,1,1.966,3.436c.215,1.228.415,2.311,2.24,2.237-1.51.437-1.2,1.029-.688,1.93a10.883,10.883,0,0,1,1.7,4.87c.053,1.132.19,2.171,1.673,2.491-1.472-.189-1.9,1.542-3.221,1.447m-31.833.007c.03.462.3.475.5.548A23.935,23.935,0,0,1,102.617,254a1.006,1.006,0,0,0,1.241.291c3.015-1.382,6.333-1.808,9.408-3.012,2.6-1.016,2.678-.989,1.539-3.586-.489-1.114-.537-2.572-1.86-3.175a39.962,39.962,0,0,0-7.869-2.672,2.432,2.432,0,0,0-1.707.063c-3.471,1.922-6.929,3.87-10.177,6.025m19.994-12.1c-2.885,1.735-2.884,1.734-1.417,4.174a39.811,39.811,0,0,1,4.253,9.094c.274.921.654.875,1.367.575,2.558-1.077,5.118-2.151,7.71-3.141a1.267,1.267,0,0,0,.859-1.631c-.59-3.532-1.11-7.12-5.519-8.241.255-.2.377-.293.5-.386.555-.421,1.585.845,1.813-.415a2.994,2.994,0,0,0-.719-2.1c-.231-.333-.445-.677-.668-1.016-1.343-2.048-2.047-2.138-3.862-.475-.3.273-.548.6-.82.9-1.278,1.415-2.553,2.833-3.845,4.236-.068.073-.284.009-.565.009l.915-1.583m95.515,15.1A2.967,2.967,0,0,0,205.725,252c-.809.979-1.869,1.754-2.654,2.749-1.042,1.32-2.356,1.273-3.75,1.017-.985-.181-1.117-.743-.466-1.465a28.1,28.1,0,0,1,2.28-2.388c1-.876,1.081-1.454-.239-2.073-2.358-1.1-4.629-2.4-7.02-3.422a12.636,12.636,0,0,0-4.906-1.382,32.806,32.806,0,0,1,3.238,9.338,39.682,39.682,0,0,1,.784,9.95c3.825-1.735,6.957-4.131,10.3-6.173.314-.192.563-.464.38-.858-.7-1.51.494-2.263,1.306-3.078,1.1-1.1,2.329-2.066,3.726-3.283m-41.271-78.7c-.79-1.891.056-3.291,1.253-4.559a51.9,51.9,0,0,1,4.876-4.7c1.179-.961,2.044-2.175,1.583-3.773a31.276,31.276,0,0,0-2.792-6.157c-.157-.289-.351-.741-.737-.568-.243.108-.384.539-.485.853-.215.666.187,1.24.379,1.833a9.709,9.709,0,0,1,.75,3.37c-.021.562-.155,1.3-.6,1.328-1.786.125-2.929,1.617-4.582,1.977-2.193.477-3.621,1.7-3.785,4.08,0,.034-.18.056-.277.084A4.051,4.051,0,0,1,165.8,161.4a17.441,17.441,0,0,0,4.188-2.069c1.667-1.328,1.691-1.728.424-3.6-2.593,2.381-5.015,5.049-8.893,5.261-.654.036-.577.616-.754,1.013-1.528,3.429.953,6.091,1.748,9.073a.567.567,0,0,0,.4.3c1.462.221,2.81,1.06,4.513.856m14.71,27.758a43.422,43.422,0,0,1,1.163,7.5,1.168,1.168,0,0,0,.785,1.212q7.177,2.581,14.343,5.195c.889.324,1.1.077.983-.843a64.261,64.261,0,0,0-1.812-7.573,1.9,1.9,0,0,0-1.7-1.48,58.147,58.147,0,0,1-13.759-4.011m40.969-25.335a8.533,8.533,0,0,0-3.885.552c-1.239.532-2.523,1.736-2.3,2.731a3.7,3.7,0,0,0,2.815,2.957c1.468.286,2.878.858,4.329,1.247a6.966,6.966,0,0,1,3.41,2.178c1.661,1.792,3.058,3.774,4.537,5.693.791,1.025,1.589.445,2.3.247.817-.227.258-1,.171-1.469a30.2,30.2,0,0,0-4.686-10.744c-1.586-2.476-3.693-3.738-6.688-3.392M113.6,347.3c3.869,1.317,7.822,1.766,11.614,2.929,1.131.347,2.244,1.977,3.707.7,1.048-.913,2.032-1.9,3.076-2.817a1.155,1.155,0,0,0,.313-1.249c-.8-4.4-6.878-7.383-10.75-5.2-2.068,1.164-4.055,2.473-6.068,3.733A5.838,5.838,0,0,0,113.6,347.3M220.544,205.889c2.338.012,3.132-.165,4.014-.869.3-.241.7-.408.73-.9.068-1.047-2.186-4.417-3.257-4.842a39.388,39.388,0,0,0-10.158-2.189c-2.713-.314-2.724-.193-3.349,2.517a10.339,10.339,0,0,1-.369,1.34c-.551,1.457.03,2.3,1.4,2.833a35.645,35.645,0,0,0,10.991,2.115M133.2,346.918c4.838-3.729,6.69-6.072,6.354-8.053l-1.783,1.924a2.978,2.978,0,0,1,1.125-2.235,6.381,6.381,0,0,0,1.793-4.373c0-.976-.33-1.417-1.365-.848a8.8,8.8,0,0,1-5.1,1.431c-1.954-.208-3.588-.181-4.349,2.034-.09.262-.575.363-.806.606-1.176,1.238-3.095,1.2-4.332,2.463,4.6,1.2,6.76,2.987,8.465,7.052m13.709-77.433c5.511,1.581,11.075,1.712,16.334,3.371,1.131.356.748-.514.63-.969a42.358,42.358,0,0,0-3.9-9.982c-.723-1.3-1.408-1.216-2.392-.472-3.5,2.647-7,5.287-10.67,8.053M110.77,355.658c-.195,2.358.142,2.949,2.373,3.312,3.861.628,7.073-1.07,10.162-3.085.741-.484.354-.951-.012-1.436a37.03,37.03,0,0,0-4.04-4.055,8.292,8.292,0,0,0-4.5-2.057,1.954,1.954,0,0,0-2.476,1.294,18.665,18.665,0,0,0-1.5,6.028m39.069-84.732c2.1,5.072,6.43,8.5,8.074,14.027.867-2.755,1.98-4.756,4.633-5.316,2.367-.5,1.756-2.383,1.861-3.995.113-1.736-1.034-2.109-2.3-2.458-3.957-1.087-8.051-1.406-12.264-2.258m87.692-25.149c2.817,1.673,5.623,3.112,7.192,5.984.426.781.786.435,1.229.221,1.82-.878,3.618-1.8,5.455-2.641.753-.344.853-.77.618-1.5-1.082-3.369-3.619-5.565-6.17-7.755a.9.9,0,0,0-1.252.086c-2.353,1.856-4.7,3.722-7.073,5.6m15.953-17.2c-2.3-2.305-4.45-4.46-6.592-6.626a1.1,1.1,0,0,0-1.27-.251,16.444,16.444,0,0,0-7.191,4.659c-.312.361-.579.651-.095,1.147,1.9,1.945,3.755,3.928,5.613,5.911.325.347.586.593.925.047,1.932-3.114,4.988-4.327,8.61-4.886m-72.322,42.29c2.029-.543,3.578-1.8,5.258-2.772,4.335-2.52,4.32-2.548,2.288-7.258-.2-.467-.306-1.018-.937-1.143-3.162-.629-6.257-1.624-9.615-1.845a30.708,30.708,0,0,1,3.006,13.018m10.971-10.475c.378-3.714-1.83-11.59-3.739-15.348a.976.976,0,0,0-.631-.539c-2.6-.74-5.194-1.475-8.109-2.3.491.8.8,1.283,1.082,1.777,2.413,4.22,5.223,8.221,7.28,12.63.878,1.882,1.817,3.388,4.118,3.782m59.641-18.28c0,1.059-.042,1.81.009,2.555a5.53,5.53,0,0,0,1.371,3.617c.592.552,1.7-.621,2.6-.976.856-.339,1.663-.8,2.5-1.2a1.231,1.231,0,0,0,.786-1.381A99.6,99.6,0,0,0,257,234.011c-.156-.667-.452-.9-1.226-.645a26.724,26.724,0,0,0-4.269,1.886.947.947,0,0,0-.532,1.365,15.092,15.092,0,0,1,.8,5.495M86.809,260.007c3.1-1.08,5.982-2.094,8.875-3.087a1.2,1.2,0,0,0,.889-.941,10.264,10.264,0,0,0,.076-5.15c-.343-1.148-2.075-1.036-3.088-1.673-1.53-.963-2.6.185-3.786.8a9.7,9.7,0,0,1-1.375.733,1.627,1.627,0,0,0-1.16,2.009,28.151,28.151,0,0,1-.431,7.311m83.4-78.517a26.6,26.6,0,0,1-4.134,7.908,1.393,1.393,0,0,0-.279.96c.07,3.739,1.109,5.011,4.749,5.777a17.7,17.7,0,0,0,3.947.459c.975-.015,1.242-.284.866-1.216-.864-2.14-1.712-4.288-2.512-6.452-.857-2.317-1.654-4.657-2.636-7.437m60.612,77.735c2.235-.854,4.566-1.293,5.784-2.888a11.731,11.731,0,0,0,2.375-7.83,1.891,1.891,0,0,0-2.92-1.64c-2.611,1.777-5.454,3.209-7.944,5.242,2.844,1.571,3.252,4.057,2.7,7.116M134.9,334.183c1.089.024,2.8-.832,4.556-1.612a1.062,1.062,0,0,0,.76-1.425c-.179-.954-.7-1.984.107-2.96.793-.956.671-3.743-.307-4.582s-1.57.5-2.387.706a4.841,4.841,0,0,0-1.7.847c-.853.656-1.875,1.191-2.081,2.436a17.586,17.586,0,0,1-1.453,4.081c-1.014,2.333-.89,2.543,2.507,2.51m35.472-129.055A64.453,64.453,0,0,1,181.67,208c.844.318,1.013-.17.911-.887-.237-1.66-.416-3.331-.722-4.979-.481-2.595-1.066-2.887-3.63-3.206-1.29-.16-1.138,1.8-2.4,1.222a15.064,15.064,0,0,1-5.461,4.972M71.784,232.977c-2.468-.064-4.316,1.827-4.44,4.544-.123,2.7,1.295,4.6,3.508,4.692,2.409.1,5.09-2.313,5.162-4.652a4.526,4.526,0,0,0-4.23-4.585m14.684,24.065c.088-1.983-2.679-3.758-4.467-2.971a13.486,13.486,0,0,0-4.365,3.015c-.782.81-1.472,1.481-.385,2.58a2.348,2.348,0,0,1,.518,1.964c-.162,1.281.411,1.3,1.39.95,1.248-.449,2.524-.821,3.8-1.19,3.24-.94,3.363-1.082,3.509-4.347m83.3-76.961c-.588-1.919-1.274-4.187-1.983-6.447-.168-.534-.7-.545-1.142-.655-.9-.225-1.819-.374-2.689-.675-1.227-.424-1.4.068-1.219,1.141a29.011,29.011,0,0,1,.584,4.65c0,2.53,1.137,3.853,3.571,4.433,1.994.475,2.835,0,2.878-2.446m61.755,22.4c-.063,2.522,1.216,3.4,3.21,2.518,3.143-1.39,5.981-6.058,5.687-9.474-.1-1.135-.166-2.407-1.5-2.9a2.963,2.963,0,0,0-3.273,1.035,14.9,14.9,0,0,0-4.127,8.818m-34.865,137.7c.187-.6-.247-.76-.632-.841-1.512-.319-2.136-1.455-2.638-2.738-.231-.591-.5-1.169-.786-1.737s-.619-.825-1.105-.137c-.635.9-1.376,1.726-1.955,2.656a3.8,3.8,0,0,0,.829,4.74c.853.829,2.092,1.641,1.679,3.165-.209.771-.157,1.219.747,1.308,1.025.1.768-.694.778-1.174.023-1.132.272-1.911,1.648-1.9.53,0,1.218-.184,1.167-.994a3.981,3.981,0,0,1,.268-2.349M166.81,195.738c.537,2.843.988,5.395,1.519,7.931.136.649.406,1.466,1.4.973a13.585,13.585,0,0,0,6.081-5.764c.325-.6.52-1.673-.718-1.6-2.787.171-5.364-.676-8.283-1.544m51.835,51.616c1.341.916,2.488,1.694,3.629,2.481.434.3.851.646,1.414.3,1.729-1.05,3.213-2.259,3.394-4.507.156-1.937-.4-3.721-.919-5.937a53.254,53.254,0,0,1-7.517,7.659m2.935-49.636q-1.452-1.357-2.9-2.714c-.89-.826-1.717-1.861-2.966-2.033-2.027-.279-3.909-1.061-5.891-1.469-.338-.069-.955-.209-.985-.135-.588,1.48.454,2.9.215,4.383-.088.55.228.713.719.684,3.975-.239,7.789.7,11.812,1.284m-53.09-44.9c-3.235.036-4.721.743-7.049,3.5-.7.832-2.253,1.492-1.135,2.985,1.016,1.356,2.338.443,3.521.256a3.316,3.316,0,0,0,1.2-.667c1.527-1.047,2.891-2.3,4.322-3.461a1.91,1.91,0,0,0,.847-2.18c-.274-.866-1.2-.234-1.708-.432m49.611,21.9c.525.428.8-.09,1.162-.159.394-.076.769-.267,1.164-.32a18.356,18.356,0,0,1,16.671,5.8,14.822,14.822,0,0,0,3.239,2.57c.382.23.706.37,1.08,0a.8.8,0,0,0,.061-1.1,13.788,13.788,0,0,0-1.163-1.724c-5.155-6-11.814-7.519-19.314-6.374a4.253,4.253,0,0,0-2.9,1.309m.443,19.191c3.07,2.872,6,5.787,7.633,9.777.833-.608,1.739-.92,1.566-2.16a8.608,8.608,0,0,1,.811-5.244c.362-.7.113-.978-.546-1.031a79.6,79.6,0,0,1-9.465-1.342m-75.825,61.626c1.316.555,2.421,1.052,3.548,1.492,2.993,1.171,2.974,1.159,3.382-1.928.423-3.2-.24-6.236-1.23-9.686-1.278,3.982-2.671,7.375-5.7,10.121m93.562-63.788a3.336,3.336,0,0,0-4.347.775c-2.031,2.5-3.506,5.293-3.189,8.712a3.019,3.019,0,0,0,1.628,2.541,16.251,16.251,0,0,1,5.909-12.028m-13.153,1.961c1.844.2,3.369.425,4.9.522,1.079.068,3.448-3.1,2.862-3.875-1.176-1.556-2.056-3.39-3.792-4.633-.126,4.076-.642,5.14-3.972,7.986m5.621-17.949a31.092,31.092,0,0,1,5.913,10.7c2.634-5.952,2.927-6.952-3.79-10.186a3.254,3.254,0,0,0-2.123-.51m-91.724,66.267a23.972,23.972,0,0,0,2.543-5.816c.206-.579.128-.973-.537-1.189-1.825-.592-3.637-1.224-5.818-1.964,1.647,3.068,2.491,6.049,3.812,8.969m102.661,5.83c.351,3.031-.914,5.406-1.773,8.042,2.049-.565,3.547-1.8,5.283-2.517,1.257-.52,1.107-1.223.441-2.141a16.686,16.686,0,0,0-3.951-3.383m11.337-3.65a45.254,45.254,0,0,0-.037-4.607c-.119-1.1-.007-2.726-.934-3.118-.8-.34-1.83.918-2.667,1.612a8.392,8.392,0,0,1-.692.518c-.53.355-.719.682-.1,1.174a37.107,37.107,0,0,1,4.428,4.422m-76.217-88.852c.929-3.383,2.187-6.533.617-9.882-.259-.553-.3-1.371-1.218-1.064-.848.284-.667,1-.421,1.587a5.813,5.813,0,0,1,.045,4.7c-.741,1.7-.276,3.087.977,4.658m-61.757,88.5c-1.094-2.109-1.969-3.738-2.782-5.4-.265-.541-.5-.483-.915-.215-1.4.9-2.826,1.775-4.495,2.817a49.88,49.88,0,0,1,8.191,2.795m123.866-62.792a15.58,15.58,0,0,1-1.477,5.459,4.633,4.633,0,0,0-.157,3.025c.078.48.216.9.8.971.549.071.678-.347.827-.71a20.989,20.989,0,0,0,1.3-3.367,5.425,5.425,0,0,0-1.291-5.378M119.826,349.527c1.214,1.343,2.3,2.524,3.36,3.722,1.659,1.871,1.654,1.877,3.383,0,.156-.17.279-.372.449-.525.557-.5.432-.953-.2-1.159a50.1,50.1,0,0,0-6.994-2.038m45.708-160.734a18.123,18.123,0,0,0,2.9-4.559c.19-.355.168-.654-.3-.784-1.288-.358-2.574-.723-4.054-1.14a43.278,43.278,0,0,0,1.453,6.483m79.986,32.174-3.618-3.686-1.032,5.811,4.65-2.125M97.171,256.478c1.626-.51,2.935-.928,4.249-1.33.575-.176,1.041-.358.373-1a13.711,13.711,0,0,0-4.216-2.951c-.306,1.734.193,3.355-.406,5.275m-19.889,5.167c.018-.728-.767-2.515-1.332-2.537-.418-.016-3.229,2.984-3.06,3.379.482,1.124,1.7,1.171,2.624,1.267.855.088,1.795-.422,1.767-2.109m115.662,65.778c1.111,1.509,2.049,1.494,3.114.193a9.888,9.888,0,0,1,3.532-2.991c1.029-.45,1.2-.979.711-1.967l-7.357,4.766m-6.512,13.3a76.778,76.778,0,0,1,4.938-6.72c.562-.629.006-1.09-.363-1.472-.462-.477-.723.086-.93.36-1.729,2.285-3.887,4.37-3.645,7.832m72.35-101.6c.34,1.97.65,3.767.984,5.7a6.03,6.03,0,0,0,2.135-2.173.666.666,0,0,0-.128-1.038c-.958-.791-1.909-1.589-2.991-2.491M239.3,183.414c-.175,1.317.212,2.657-.278,3.918q-.69,1.78-1.388,3.556l.424.174a10.417,10.417,0,0,0,2.526-6.33c.031-.858-.412-1.24-1.284-1.318m-49.634,76.9c.537,1.569,1,2.915,1.461,4.259.093.27.2.56.571.509.317-.043.454-.263.552-.561.7-2.121-.051-3.46-2.584-4.207M207.917,194.3c.13-.989-.474-1.912-.2-2.924.126-.469-.339-.529-.648-.621-.368-.11-.505.13-.558.454-.158.97-.363,1.935-.469,2.91-.109,1,.683,1.1,1.378,1.148.792.059.431-.6.5-.967M193.563,329.192a6.1,6.1,0,0,0-1.9,2.121c-.2.43.38.928.789,1.2.293.193,2.236-1.977,2.192-2.442-.051-.55-.463-.736-1.08-.877M83.735,253.039l2.9,1.792c0-1.151.42-2.356-.237-2.8-.726-.495-1.614.423-2.662,1.013M208,243.348c-.51,3.26-.075,3.556,3.669,2.7a8.054,8.054,0,0,1-3.669-2.7m-64.674,78.126c-2.989.8-3.178,1.285-1.625,3.7l1.625-3.7m30.062-81.035,3.869.472c-1.332-2.647-1.332-2.647-3.869-.472" transform="translate(-43.489 -109.821)" fill="#9ca3af"/>
        <path id="Path_282" data-name="Path 282" d="M232.736,90.771c.53,2,1.087,4.313,1.767,6.584.315,1.055.049,1.525-1.012,1.671a6.083,6.083,0,0,0-1.507.4c-.856.357-1.3.077-1.529-.781-.967-3.693-1.913-7.393-2.944-11.069-.282-1.007.238-1.176.963-1.419,3.02-1.013,3.036-1.03,2.406-4.3-.149-.772.015-1.24.789-1.443.112-.029.229-.041.339-.075,3.059-.946,3.1-.957,2.289-3.953-.308-1.139-.086-1.76,1.135-1.879a.983.983,0,0,0,.17-.036c2.875-.81,2.976-.84,2.117-3.732-.451-1.52.157-1.921,1.417-2.184,1.195-.249,2.459-.863,2.683,1.133.038.341.187.669.245,1.009.243,1.431.868,1.886,2.4,1.422,3.542-1.071,7.133-1.991,10.732-2.856,1.353-.325,1.707-.952,1.266-2.193-.135-.38-.148-.81-.317-1.169-.671-1.418-.014-1.92,1.312-2.237,2.243-.537,2.229-.6,2.87,1.683.655,2.332.655,2.332,3.024,1.722,2.2-.567,2.2-.567,2.778,1.654.6,2.306.6,2.306,3.033,1.641,2.2-.6,2.2-.6,2.77,1.609.613,2.373.613,2.373,2.979,1.773,2.208-.559,2.225-.564,2.833,1.67.866,3.182,1.663,6.383,2.579,9.55.342,1.186.052,1.728-1.163,1.859a5.929,5.929,0,0,0-1.51.384c-.837.329-1.13-.039-1.323-.8-.549-2.188-1.183-4.354-1.722-6.545-.274-1.113-.728-1.475-1.952-1.161-3.583.921-3.6.862-2.664,4.455.381,1.454.778,2.9,1.2,4.347.278.945.14,1.575-.985,1.72a5.728,5.728,0,0,0-1.505.4c-.959.41-1.3.006-1.578-.891-1.052-3.375-1.074-3.343-4.616-2.385-5.92,1.6-11.838,3.21-17.782,4.715-1.542.391-2.094,1.03-1.427,2.523a1.705,1.705,0,0,1,.131.5c.076.714.862,1.646.146,2.078a8.54,8.54,0,0,1-3.288.932c-.612.078-.62-.747-.751-1.21-.613-2.171-1.213-4.347-1.74-6.54-.211-.877-.585-1.174-1.459-.9-.938.293-1.894.528-2.849.763-.691.17-.97.574-.755,1.561m31-14.422c-.084-2.421-1.178-4.572-2.087-4.514-2.164.139-3.973,1.068-3.934,2.019.084,2,1.134,4.185,1.952,3.934,1.423-.436,3.142-.322,4.068-1.44m-18.382,4.792c-.1-2.331-1.111-4.449-1.945-4.432-2.008.041-4.386,1.229-4.028,2.038.6,1.344-.154,3.717,1.958,3.858,1.33.089,3.156-.179,4.014-1.464" transform="translate(-163.34 -57.564)" fill="#9ca3af"/>
        <path id="Path_283" data-name="Path 283" d="M663.571,306.312c.464-1.571.031-2.024-1.181-2.241-3.756-.673-7.489-1.482-11.224-2.269-1.256-.264-2.179-.15-2.265,1.423-.047.847-.587,1.04-1.341.892-.733-.144-1.123-.449-.915-1.3.275-1.122.426-2.273.671-3.4.214-.986-.222-1.439-1.152-1.48-.8-.036-1.893-.9-2.2.683q-.332,1.7-.657,3.407c-.155.814-.492,1.206-1.439.947-.84-.229-1.133-.481-.87-1.422a39.048,39.048,0,0,0,.825-4.255c.24-1.475.423-2.9,2.566-2.213.831.267.9-.5,1.007-1.058.206-1.048.576-1.724,1.861-1.233,1.019.39,1.509-.14,1.57-1.179s.59-1.407,1.613-1.12c1.115.313,1.781-.046,1.862-1.3.054-.84.494-1.245,1.4-1.045.868.191,1.121.611.845,1.482-.372,1.171.012,1.8,1.351,1.978a53.14,53.14,0,0,1,5.783,1.153c1.177.295,1.787-.006,1.937-1.2.1-.818.246-1.4,1.385-1.133s1.084.972.852,1.686c-.4,1.222.231,1.593,1.225,1.71,1.012.12,1.428.493,1.051,1.585-.344.994-.007,1.692,1.183,1.781,1.007.075,1.476.611,1.131,1.623-.383,1.121.074,1.646,1.158,1.755s1.292.648,1.049,1.665c-.43,1.8-.761,3.623-1.068,5.447-.13.773-.37,1.178-1.237.946-.74-.2-1.283-.437-1.037-1.39.26-1.006.4-2.043.642-3.054.286-1.2-.254-1.646-1.381-1.861-1.044-.2-1.822-.3-2,1.069-.123.972-.4,1.925-.6,2.888-.138.66-.054,1.456-1.186,1.24-.976-.186-1.552-.508-1.217-1.2m-10.935-9.491c1.724-.012,1.4-1.445,1.487-2.278.183-1.7-1.466-1.269-2.256-1.333-1.563-.128-1.29,1.43-1.341,2.294-.089,1.5,1.422.864,2.109,1.316m12.878.161c-.063-1.629-1.327-1.4-2.248-1.5-1.739-.18-1.3,1.417-1.386,2.188-.191,1.625,1.41,1.237,2.236,1.338,1.522.186.949-1.345,1.4-2.03" transform="translate(-432.741 -203.994)" fill="#9ca3af"/>
        <path id="Path_284" data-name="Path 284" d="M286.65,155.647c.119.783-.313,1.062-.948,1.226-2.178.561-4.36,1.11-6.519,1.738-.763.222-1.03-.075-1.264-.706-1.072-2.894-1.022-3.015,1.948-3.829a42.289,42.289,0,0,0,4.167-1.14c1.531-.6,2.093.007,2.3,1.409.068.454.213.9.313,1.3" transform="translate(-195.819 -115.78)" fill="#9ca3af"/>
        <path id="Path_285" data-name="Path 285" d="M326.252,145.461c.1.684-.464.738-.874.853-2.229.622-4.467,1.209-6.7,1.812-.6.161-.916.008-1.179-.627-1.176-2.844-1.045-3.15,1.945-3.931,1.4-.365,2.829-.649,4.183-1.141,1.294-.47,1.955-.246,2.115,1.2a11.5,11.5,0,0,0,.511,1.839" transform="translate(-221.573 -108.938)" fill="#9ca3af"/>
        <path id="Path_286" data-name="Path 286" d="M466.942,176.4c1.307.272,2.3,1.534,3.165,1.13s1.271-1.712,1.886-2.62a2.8,2.8,0,0,1,.436-.54c.365-.323.682-1.047,1.227-.675s0,.939-.169,1.4c-.44,1.227-.907,2.443-1.393,3.745,1.672.22,3.117-.735,4.739-.046-.815,1.057-1.958,1.251-2.9,1.709-1.2.586-1.435,1.269-.841,2.429a15.939,15.939,0,0,1,.822,2.285c.105.318.257.7-.162.907-.328.162-.515-.153-.733-.325a1.411,1.411,0,0,1-.124-.122c-.913-.918-1.576-2.633-2.871-2.451-1.155.162-2.15,1.462-3.216,2.26l-1.494,1.116c.209-1.658,1.17-2.6,1.875-3.633,1.972-2.9,2-2.881-.022-5.867a3.656,3.656,0,0,1-.229-.7m7.274,3.359-.345-.361c-.492.108-.989.2-1.476.328-.375.1-.766.436-1.117.066s.016-.76.128-1.121c.256-.822.552-1.632.828-2.435-1.456.278-.643,3.54-3.336,1.967.316.544.49.913.725,1.238.541.746.929,1.161-.362,1.8a5.626,5.626,0,0,0-2.168,3.169,15.117,15.117,0,0,1,2.935-2.03c1.2-.45,1.486,1.292,2.792,1.564-1.133-1.92-1.406-3.552,1.4-4.189" transform="translate(-318.337 -129.388)" fill="#9ca3af"/>
        <path id="Path_287" data-name="Path 287" d="M84.084,301.118c.648-1.8.871-3.438,2.138-4.808.555,1.278.178,2.463.109,3.6-.072,1.182.281,1.583,1.449,1.34.539-.112,1.325-.356,1.587.217.319.7-.567.929-.987,1.176a3.756,3.756,0,0,0-1.8,4.958,5.936,5.936,0,0,1,.208,2.9c-1.18-.793-1.445-2.04-2.146-2.948-.655-.848-1.19-1.246-2.274-.612-1.13.661-2.547.821-3.371,2.018-.153.222-.452.431-.72.107s.044-.52.221-.721a22.96,22.96,0,0,1,2.443-2.7,3.407,3.407,0,0,0,.987-4.2,3.88,3.88,0,0,1-.177-.67c-.115-.76-.974-1.838-.215-2.2.983-.464,1.414.842,1.962,1.529a10,10,0,0,1,.587,1m-2.713,5.5c1.83-1.351,3.2-.942,4.37,1.008-.816-2.526.043-4.23,2.387-5.524-2.49-.107-2.49-.107-2.547-2.654-.761.683-.322,2.105-1.152,2.414-1.282.476-1.065-1.168-1.733-1.658a1.312,1.312,0,0,0-.276-.118c.723,3.976.723,3.976-1.049,6.532" transform="translate(-66.088 -209.347)" fill="#9ca3af"/>
        <path id="Path_288" data-name="Path 288" d="M614.491,525.762c1.724-1.551,1.255-3.057-.064-4.577-.234-.27-.684-.644-.268-1.031.377-.351.807,0,1.054.276,1.247,1.37,1.764.672,2.251-.663a7.72,7.72,0,0,1,1.947-3.089c.145,1.957-.542,3.431-.8,5.163a5.012,5.012,0,0,1,3.227.084c.254.1.6.219.491.585a.824.824,0,0,1-.469.426c-1.172.44-2.854.612-3.139,1.8-.236.978.706,2.231,1.091,3.374.1.3.4.6,0,1.107a25.017,25.017,0,0,1-2.278-2.187c-.957-1.169-1.792-.888-2.768-.071-.775.648-1.188,1.717-2.516,2.079a8.754,8.754,0,0,1,2.257-3.263c1.393-.05,2.9-.62,3.856,1.292.286-1.331-1.2-2.111-.259-3.059.669-.675,1.764-.833,2.5-1.729-2.93.346-2.93.346-3.071-.923-.015.851-1.215,1.071-1.161,1.531.19,1.595-.8,2.224-1.88,2.882" transform="translate(-414.073 -352.93)" fill="#9ca3af"/>
        <path id="Path_289" data-name="Path 289" d="M239.562,463.99a4.542,4.542,0,0,1,1.646,2.093c1.006,1.653,1.1,1.675,2.191,0,.458-.7.8-1.479,1.224-2.284.8.594.168,1.136.058,1.584-.635,2.6-.329,3.141,2.281,3.642.231.044.491.033.565.283.115.387-.215.471-.481.57-.108.04-.23.039-.338.08-2.483.937-2.707,1.471-1.762,3.949.188.492.894,1.136.278,1.518s-1.1-.4-1.491-.871c-.693-.853-1.213-2.089-2.218-2.365-.984-.27-1.695.99-2.612,1.43a.738.738,0,0,1-.964-.019A6.171,6.171,0,0,1,239.55,471a3.2,3.2,0,0,0,.621-3.185,9.681,9.681,0,0,1-.609-3.821m.223,8.05c2.393-2.306,2.805.935,4.525,1.4-1.813-1.924.043-2.645.931-3.721-1.04-.5-1.923-1.026-1.563-2.472-1.116,1.259-2.019,1.419-2.932-.178.943,1.979.321,3.473-.961,4.972" transform="translate(-170.186 -318.479)" fill="#9ca3af"/>
        <path id="Path_290" data-name="Path 290" d="M339.963,749.683c1.216-1.453,1.66-3.225,2.76-4.889.435,1.322-.116,2.245-.371,3.19-.547,2.021-.512,2.1,1.525,2.4.6.088,1.206.143,2.123.248-1.2.754-2.146,1.353-3.1,1.941a.913.913,0,0,0-.4,1.4c.582,1.217.988,2.518,1.555,4.013-1.656-.369-2.186-1.626-2.942-2.541-.84-1.018-1.478-1.459-2.575-.3a12.761,12.761,0,0,1-2.478,1.555,7.708,7.708,0,0,1,1.81-3.121c1.234-1.345.772-2.761.447-4.229-.138-.622-.8-1.534-.058-1.843.77-.319.921.788,1.267,1.338.142.226.248.476.432.836m4.019,1.3c-2.958.424-2.7-1.175-2.207-3.109a17.47,17.47,0,0,0-2.262,2.922,19.18,19.18,0,0,1-1.194,3.617c2.063-2.414,2.547.583,4.345,1.085-2.026-2.36-.506-3.354,1.318-4.514" transform="translate(-234.121 -501.562)" fill="#9ca3af"/>
        <path id="Path_291" data-name="Path 291" d="M684.432,172.19l.708,3.851c1.316-.936,1.37-2.616,2.6-3.739a8,8,0,0,1-.8,3.7c-.423,1.182-.353,1.855,1.02,2.069a.745.745,0,0,1,.666.871c-3.925-.449-3.527,3-4.63,5.507a3.839,3.839,0,0,1-.5-2.624c.173-1.587-.266-2.724-1.921-3.191-.316-.089-.714-.239-.765-.618-.059-.435.368-.641.671-.645,2.213-.026,2.113-1.623,2.229-3.133a2.26,2.26,0,0,1,.726-2.047m-.2,8.752c.778-1.64,2.833-2.489,1.579-4.578-.565-.274-.418,2.338-1.493.474-.061.054-.167.1-.177.162-.185,1.163-1.561.189-1.927,1.147a2.927,2.927,0,0,1,2.018,2.795" transform="translate(-458.737 -128.475)" fill="#9ca3af"/>
        <path id="Path_292" data-name="Path 292" d="M208.927,337.768c.109-1.313.125-2.466.319-3.589a2.439,2.439,0,0,0-1.337-3.008c-.236-.112-.584-.2-.475-.595a.439.439,0,0,1,.546-.3c2.339.6,1.927-1.071,2-2.375.023-.425-.185-.915.349-1.379.752.81.609,2.068,1.388,2.818.82-.276.905-1.409,1.836-1.446.077.1.218.227.2.257-1.338,2.159-1.525,4.029,1.225,5.247.258.114.663.413.414.81-.215.343-.616.2-.953.125-.169-.037-.344-.055-.509-.1-2.962-.854-2.949-.85-4.03,2.175-.156.437-.071,1.058-.969,1.368m1.228-3.585c.321-2.355,1.748-1.475,2.959-1.189-.339-.8-1.809-.539-1.442-1.558.408-1.133-.44-1.283-1.088-2.19.154,1.354.292,2.376-1.433,1.911,1.221.806.679,1.891,1,3.025" transform="translate(-150.296 -229.029)" fill="#9ca3af"/>
        <path id="Path_293" data-name="Path 293" d="M307.1,209.752a.99.99,0,0,1-.365,1.135c-1.094,1.314-1.2,2.424.565,3.244.28.13.711.285.514.747-.141.331-.507.268-.758.2-2.224-.644-2.663.809-3,2.47a2.23,2.23,0,0,1-.835,1.786,4.721,4.721,0,0,1-.083-2.811c.459-1.651.193-2.823-1.607-3.38-.391-.121-.98-.309-.9-.9s.64-.364,1-.4c.807-.087,1.032-.5.992-1.279a5.4,5.4,0,0,1,.678-3.348q.237,1.45.475,2.9c.216,1.331.8,1.488,1.807.624a13.357,13.357,0,0,1,1.521-.983m-1.127,4.228c-.929-.489-.969-1.274-.794-2.223-.813,1.115-2.143-.113-3.2,1.18,1.741-.365,1.794,2.734,4,1.044" transform="translate(-211.027 -151.294)" fill="#9ca3af"/>
        <path id="Path_294" data-name="Path 294" d="M149.14,584.315a5.971,5.971,0,0,1,.391-2.694c.282-1.373.372-2.52-1.41-2.831a.723.723,0,0,1-.623-.733c1.914-.28,2.7-1.354,1.469-3.627a3.588,3.588,0,0,1,2.21,2.6c.769-.163.926-1.167,1.673-1.266.407.274.235.559.105.79-.752,1.334-.952,2.469.891,3.07.426.139.876.491.737,1.037-.154.606-.711.465-1.161.425-1.782-.156-3.113.32-3.488,2.317a.987.987,0,0,1-.794.915m4.29-4.079c-.483-.968-2.817-.378-1.629-2.412-.965.258-1.86,0-2.8.631.861.258,1.613.538,1.385,1.576-.114.517.292.389.642.444a3.438,3.438,0,0,0,2.4-.24" transform="translate(-111.257 -390.559)" fill="#9ca3af"/>
        <path id="Path_295" data-name="Path 295" d="M320.446,51.61a3.573,3.573,0,0,1-1.4-3.292c.086-1.8,2.051-1.593,3.035-1.57,1.615.037,1.438,1.979,1.453,2.976.027,1.921-2.136.8-3.082,1.886" transform="translate(-223.023 -46.73)" fill="#9ca3af"/>
        <path id="Path_296" data-name="Path 296" d="M471.576,565.98c-2.586-.057-4.39.5-4.737,3.27-.714-1.409.1-2.9-.576-4.026-.69-1.141-2.177-1.635-2.956-2.813.637-.562,1.063-.145,1.5.066.4.194.794.413,1.32.69v-2.793c1.057.448,1.152,1.53,1.879,2.186.762-.453.845-1.568,2.107-2.155-1.032,2.331-2.128,4.552,1.461,5.576m-4.643-3.507c-.265,3.624-.216,3.682,2.637,2.891-1.564-.428-1.43-2.129-2.637-2.891" transform="translate(-317.026 -381.401)" fill="#9ca3af"/>
        <path id="Path_297" data-name="Path 297" d="M239.182,69.48c.731-1.528,2.206-1.535,3.241-1.545,1.822-.017,1.506,1.954,1.53,2.89.049,1.881-2.064,1.613-3.05,1.614-1.728,0-.679-2.106-1.721-2.959" transform="translate(-170.995 -60.547)" fill="#9ca3af"/>
        <path id="Path_298" data-name="Path 298" d="M275.312,549.553c1.173.95,1.778,3.389,4,.316-.43,1.576-.978,2.563-.869,3.472s1.5,1.149,1.884,2.068c-.162.42-.475.309-.744.322-.783.037-1.622-.9-2.215-.308-.5.5-.505,1.491-.718,2.268-.072.265-.028.579-.349.733-.526-.059-.37-.5-.429-.79-.345-1.723.054-3.782-2.167-4.646a.483.483,0,0,1-.232-.722.492.492,0,0,1,.422-.178c2.576.808,1.513-.984,1.467-2.044-.007-.164-.031-.327-.047-.492m.924,2.3a1.2,1.2,0,0,1-.885,1.584,2.017,2.017,0,0,1,.993,2.138c.288-1.588,1.363-1.017,2.609-.849-1.55-.777-.81-2.78-2.717-2.872" transform="translate(-193.28 -374.35)" fill="#9ca3af"/>
        <path id="Path_299" data-name="Path 299" d="M693.245,343.664c.015.952-.477,1.307-1.423,1.093-.894-.2-1.786-.418-2.688-.577-.656-.115-1.227-.125-1.046-1.119.172-.944.579-1.316,1.5-1.13,1.01.2,2.012.455,3.029.617.71.114.847.473.629,1.116" transform="translate(-463.463 -239.042)" fill="#9ca3af"/>
        <path id="Path_300" data-name="Path 300" d="M667.689,339.876c-1.076-.216-2.149-.453-3.23-.642-.734-.129-.985-.516-.8-1.221.171-.66.415-1.242,1.273-1.067,1.076.22,2.144.484,3.225.679.838.151.78.729.7,1.318-.091.654-.366,1.123-1.163.933" transform="translate(-447.529 -235.803)" fill="#9ca3af"/>
        <path id="Path_301" data-name="Path 301" d="M669.133,279.605c-.126.6-.3,1.3-1.272,1.118-.617-.118-1.4-.2-1.062-1.146.177-.494-.067-1.508,1-1.231.578.151,1.543.02,1.338,1.259" transform="translate(-449.56 -197.612)" fill="#9ca3af"/>
        <path id="Path_302" data-name="Path 302" d="M716.917,288.1c.506.131,1.324.115,1.165,1.035-.1.584.008,1.593-1.09,1.359-.527-.113-1.479,0-1.293-.992.111-.6.042-1.514,1.218-1.4" transform="translate(-481.46 -203.994)" fill="#9ca3af"/>
        <path id="Path_303" data-name="Path 303" d="M511.487,755.448c2.406.562,4.258,2.676,6.956,2.473-1.917.846-3.28.373-6.956-2.473" transform="translate(-348.419 -508.504)" fill="#9ca3af"/>
        <path id="Path_304" data-name="Path 304" d="M441.069,629.508c.788,1.443.791,2.995.75,4.964-.868-1.843-.49-3.447-.75-4.964" transform="translate(-302.537 -426.446)" fill="#9ca3af"/>
        <path id="Path_305" data-name="Path 305" d="M341.033,530.813c.2,2.261-1.018,3.5-3.757,3.537,1.742-1.028,3.177-1.862,3.757-3.537" transform="translate(-234.909 -362.14)" fill="#9ca3af"/>
        <path id="Path_306" data-name="Path 306" d="M516.117,258.013c2.531.587,4.948,1.15,7.365,1.708,1.069.247,2.145.461,3.206.735.561.145,1.539.1,1.2,1.028-.254.7-.483,1.906-1.681,1.6-3.466-.886-7.041-1.3-10.448-2.443-.8-.269-.915-.692-.759-1.435.151-.721.469-1.156,1.114-1.193m10.465,3.894c.059-.607-.454-.522-.811-.609q-4.353-1.069-8.711-2.123c-.4-.1-.922-.5-1.143.211s.429.7.823.8c3.007.773,6.12,1.081,9.08,2.064.364.121.676.208.761-.339" transform="translate(-350.671 -184.394)" fill="#9ca3af"/>
        <path id="Path_307" data-name="Path 307" d="M594.223,293.547c-.49,2.258-1.227,4.355-3.155,5.8-.456.34-.935.757-1.555.333a1.382,1.382,0,0,1-.441-1.694A14.026,14.026,0,0,1,592,292.549a1.164,1.164,0,0,1,1.515-.467,1.656,1.656,0,0,1,.711,1.465m-1.3-.244A9.218,9.218,0,0,0,589.877,299a7.078,7.078,0,0,0,3.045-5.693" transform="translate(-398.904 -206.503)" fill="#9ca3af"/>
      </g>
    </g>
  </g>
</svg>
